G04 ================== begin FILE IDENTIFICATION RECORD ==================*
G04 Layout Name:  C:/tmp/20_065434b/worklib/02_065434b_top/physical/08_065434b.brd*
G04 Film Name:    fab1*
G04 File Format:  Gerber RS274X*
G04 File Origin:  Cadence Allegro 17.4-S018*
G04 Origin Date:  Thu Aug  5 14:02:49 2021*
G04 *
G04 Layer:  DRAWING FORMAT/DSIZE*
G04 Layer:  DRAWING FORMAT/OUTLINE*
G04 Layer:  MANUFACTURING/NCLEGEND-1-4*
G04 Layer:  BOARD GEOMETRY/OUTLINE*
G04 Layer:  BOARD GEOMETRY/DIMENSION*
G04 Layer:  BOARD GEOMETRY/FAB_NOTES*
G04 *
G04 Offset:    (0.0000 0.0000)*
G04 Mirror:    No*
G04 Mode:      Positive*
G04 Rotation:  0*
G04 FullContactRelief:  No*
G04 UndefLineWidth:     0.2032*
G04 ================== end FILE IDENTIFICATION RECORD ====================*
%FSLAX35Y35*MOMM*%
%IR0*IPPOS*OFA0.00000B0.00000*MIA0B0*SFA1.00000B1.00000*%
%AMMACRO11*
1,1,.2032,.635,0.0*
20,1,.2032,.635,0.0,-.635,0.0,0.0*
1,1,.2032,-.635,0.0*
1,1,.2032,0.0,.635*
20,1,.2032,0.0,.635,0.0,-.635,0.0*
1,1,.2032,0.0,-.635*
%
%ADD11MACRO11*%
%AMMACRO12*
1,1,.2032,.4445,.4445*
20,1,.2032,.4445,.4445,.4445,-.4445,0.0*
1,1,.2032,.4445,-.4445*
20,1,.2032,.4445,-.4445,-.4445,-.4445,0.0*
1,1,.2032,-.4445,-.4445*
20,1,.2032,-.4445,-.4445,-.4445,.4445,0.0*
1,1,.2032,-.4445,.4445*
20,1,.2032,-.4445,.4445,.4445,.4445,0.0*
1,1,.2032,.4445,.4445*
%
%ADD12MACRO12*%
%AMMACRO10*
1,1,.2032,0.0,.825*
20,1,.2032,0.0,.825,.714471,-.4125,0.0*
1,1,.2032,.714471,-.4125*
20,1,.2032,.714471,-.4125,-.714471,-.4125,0.0*
1,1,.2032,-.714471,-.4125*
20,1,.2032,-.714471,-.4125,0.0,.825,0.0*
1,1,.2032,0.0,.825*
%
%ADD10MACRO10*%
%ADD13C,.1*%
%ADD14C,.2032*%
G75*
%LPD*%
G75*
G36*
G01X0Y2833500D02*
X-381000Y2770000D01*
X0Y2706500D01*
Y2833500D01*
G37*
G36*
G01X3746000Y2706500D02*
X4127000Y2770000D01*
X3746000Y2833500D01*
Y2706500D01*
G37*
G36*
G01X4782500Y-761000D02*
X4719000Y-380000D01*
X4655500Y-761000D01*
X4782500D01*
G37*
G36*
G01X4655500Y2031000D02*
X4719000Y1650000D01*
X4782500Y2031000D01*
X4655500D01*
G37*
G36*
G01X29911900Y-9872900D02*
X31182600D01*
Y-8602200D01*
X29911900D01*
Y-9872900D01*
G37*
G36*
G01X31654300Y-9305000D02*
G02Y-9872900I-59123J-283950D01*
G01X31404000D01*
Y-9305000D01*
X31654300D01*
G37*
G36*
G01X31509900Y-9170200D02*
X31548100Y-9054700D01*
X31741200D01*
X31779500Y-9170200D01*
X31885400D01*
X31697600Y-8602200D01*
X31591700D01*
X31404000Y-9170200D01*
X31509900D01*
G37*
G36*
G01X31923900Y-9305000D02*
Y-9872900D01*
X32347400D01*
Y-9795900D01*
X32029800D01*
Y-9627500D01*
X32318600D01*
Y-9550500D01*
X32029800D01*
Y-9382000D01*
X32347400D01*
Y-9305000D01*
X31923900D01*
G37*
G36*
G01X32376300D02*
Y-9353100D01*
X32554400Y-9872900D01*
X32660300D01*
X32838400Y-9353100D01*
Y-9305000D01*
X32732500D01*
X32607300Y-9670200D01*
X32482200Y-9305000D01*
X32376300D01*
G37*
G36*
G01X31943100Y-9170200D02*
X32049000D01*
Y-8769400D01*
X32303000Y-9170200D01*
X32408800D01*
Y-8602200D01*
X32303000D01*
Y-9003100D01*
X32049000Y-8602200D01*
X31943100D01*
Y-9170200D01*
G37*
G36*
G01X33005700Y-8602200D02*
Y-9170200D01*
X33390800D01*
Y-9064300D01*
X33111600D01*
Y-8602200D01*
X33005700D01*
G37*
G36*
G01X32572500Y-9170200D02*
X32610700Y-9054700D01*
X32803800D01*
X32842000Y-9170200D01*
X32947900D01*
X32760200Y-8602200D01*
X32654300D01*
X32466600Y-9170200D01*
X32572500D01*
G37*
G36*
G01X33439200Y-9474800D02*
X33554500D01*
G03X33083900Y-9545600I-229957J-70912D01*
G01Y-9632300D01*
G03X33554500Y-9703100I240644J119D01*
G01X33439100D01*
G02X33189700Y-9632300I-114634J70857D01*
G01Y-9545600D01*
G02X33439200Y-9474800I134793J7D01*
G37*
G36*
G01X33587300Y-9305000D02*
Y-9872900D01*
X34001300D01*
Y-9795900D01*
X33693200D01*
Y-9627500D01*
X33972400D01*
Y-9550500D01*
X33693200D01*
Y-9382000D01*
X34001300D01*
Y-9305000D01*
X33587300D01*
G37*
G36*
G01X33397600Y-8929500D02*
G03X33878900I240650J-29D01*
G01Y-8842900D01*
G03X33397600I-240650J11D01*
G01Y-8929500D01*
G37*
G36*
G01X34353300Y-9471300D02*
X34456000D01*
G03X34013000Y-9499200I-218597J-60037D01*
G03X34126700Y-9622600I128209J4050D01*
G01X34316200Y-9643800D01*
G02X34350500Y-9711200I-9051J-47034D01*
G02X34121500Y-9706200I-113132J65157D01*
G01X34018800D01*
G03X34461800Y-9678300I218601J59981D01*
G03X34348100Y-9554900I-128177J-4020D01*
G01X34158700Y-9533800D01*
G02X34124300Y-9466300I9003J47104D01*
G02X34353300Y-9471300I113132J-65175D01*
G37*
G36*
G01X34298700Y-8811000D02*
G03X34032900Y-8842800I-130999J-31791D01*
G01Y-8929500D01*
G03X34302500Y-8968000I137531J-129D01*
G01Y-8958400D01*
X34187000D01*
Y-8881400D01*
X34408400D01*
Y-9170200D01*
X34302500D01*
Y-9128900D01*
G02X33927100Y-8929500I-134747J199392D01*
G01Y-8842900D01*
G02X34406300Y-8811000I240664J-32D01*
G01X34298700D01*
G37*
%LPC*%
G75*
G36*
G01X30941900Y-9237600D02*
X30152600Y-8785100D01*
Y-9690000D01*
X30941900Y-9237600D01*
G37*
G36*
G01X31631400Y-9401200D02*
G02Y-9776700I-32851J-187750D01*
G01X31509900D01*
Y-9401200D01*
X31631400D01*
G37*
G36*
G01X31644700Y-8762400D02*
X31707200Y-8951800D01*
Y-8987300D01*
X31582100D01*
Y-8951800D01*
X31644700Y-8762400D01*
G37*
G36*
G01X32707300D02*
X32769800Y-8951800D01*
Y-8987300D01*
X32644700D01*
Y-8951800D01*
X32707300Y-8762400D01*
G37*
G36*
G01X33503500Y-8929600D02*
G03X33773000Y-8929500I134750J71D01*
G01Y-8842900D01*
G03X33503500I-134750J11D01*
G01Y-8929600D01*
G37*
%LPD*%
G75*
G36*
G01X32891300Y-9872900D02*
Y-9305000D01*
X32997200D01*
Y-9872900D01*
X32891300D01*
G37*
G54D10*
X0Y0D03*
Y254000D03*
Y508000D03*
Y762000D03*
Y1270000D03*
Y1016000D03*
X1905000Y-127000D03*
Y1397000D03*
X2413000Y-127000D03*
X2159000D03*
X2413000Y1397000D03*
X2159000D03*
X3175000Y-127000D03*
X2921000D03*
X2667000D03*
X3175000Y1397000D03*
X2921000D03*
X2667000D03*
X3683000Y-127000D03*
X3429000D03*
X3683000Y1397000D03*
X3429000D03*
X15866500Y-3699500D03*
G54D11*
X-281000Y70000D03*
X89000Y-140000D03*
Y-200000D03*
Y-260000D03*
X29000Y-140000D03*
Y-200000D03*
Y-260000D03*
X-281000Y870000D03*
Y570000D03*
Y320000D03*
Y1420000D03*
Y1120000D03*
X355000Y153000D03*
Y213000D03*
X415000Y153000D03*
Y213000D03*
X475000Y153000D03*
Y213000D03*
X719000Y-280000D03*
X515000Y-277000D03*
X535000Y213000D03*
Y153000D03*
Y93000D03*
X475000D03*
X149000Y-140000D03*
Y-200000D03*
Y-260000D03*
X209000Y-140000D03*
Y-200000D03*
Y-260000D03*
X149000Y-80000D03*
X209000D03*
X149000Y-20000D03*
X209000D03*
X595000Y-35000D03*
X555000Y-176000D03*
X219000Y620000D03*
Y370000D03*
X615400Y786400D03*
Y476400D03*
X669000Y1520000D03*
X169000D03*
X219000Y920000D03*
Y1170000D03*
X595000Y1035000D03*
X1303000Y-176000D03*
X969000Y170000D03*
Y-30000D03*
Y-280000D03*
X869000Y820000D03*
X1119000Y720000D03*
Y520000D03*
X1319000Y720000D03*
Y520000D03*
X789000Y370000D03*
Y620000D03*
X1135000Y803000D03*
X941500Y577500D03*
Y757500D03*
X1269000Y1420000D03*
Y1320000D03*
Y1520000D03*
X869000Y1020000D03*
X1136500Y1110400D03*
X839000Y1330000D03*
Y1270000D03*
Y1210000D03*
X909000D03*
Y1270000D03*
Y1330000D03*
X1719000Y-280000D03*
X1419000D03*
X1689000Y-126000D03*
Y50000D03*
X1894400Y550000D03*
X1519000Y720000D03*
Y520000D03*
X1669000D03*
X1579000Y870000D03*
Y810000D03*
X1649000Y870000D03*
Y810000D03*
X1895000Y973000D03*
X1369000Y1420000D03*
Y1320000D03*
Y1520000D03*
X1769000D03*
X1569000D03*
Y1320000D03*
X1769000D03*
X1579000Y930000D03*
X1649000D03*
X2269000Y70000D03*
Y220000D03*
X2369000Y-280000D03*
X2069000D03*
X2322000Y667000D03*
X2469000Y670000D03*
X2119000Y520000D03*
X2019000Y570000D03*
X2069000Y770000D03*
X2015000Y853000D03*
X2016000Y433000D03*
X2378400Y1189400D03*
X2169000Y1170000D03*
X2569000Y1060000D03*
X2828400Y92600D03*
X2619000Y270000D03*
Y120000D03*
X3069000Y270000D03*
Y120000D03*
X3169000Y-280000D03*
X2869000D03*
X2619000D03*
X3069000Y670000D03*
X2769000D03*
X2828400Y1189400D03*
X3069000Y1220000D03*
X2719000Y1060000D03*
X3069000Y920000D03*
X3678400Y92600D03*
X3228400D03*
X3569000Y120000D03*
Y270000D03*
X3769000Y-280000D03*
X3469000D03*
X3369000Y670000D03*
X3719000D03*
X3219000Y370000D03*
X3669000D03*
X3678400Y1189400D03*
X3228400D03*
X3519000Y1070000D03*
Y920000D03*
X4019000Y-30000D03*
Y670000D03*
Y320000D03*
Y1020000D03*
Y1270000D03*
Y1520000D03*
X15866500Y-2429500D03*
G54D12*
X381000Y-127000D03*
Y381000D03*
Y635000D03*
Y889000D03*
Y1143000D03*
X15866500Y-3064500D03*
G54D13*
G01X20473250Y-10379730D02*
X20470030Y-10377620D01*
Y-10373380D01*
X20473250Y-10371270D01*
X20476470Y-10373380D01*
Y-10377620D01*
X20473250Y-10379730D01*
G01X20568970Y-10375500D02*
X20636530Y-10248500D01*
G01X20568970D02*
X20636530Y-10375500D01*
G01X20698470D02*
X20766030Y-10248500D01*
G01X20698470D02*
X20766030Y-10375500D01*
G01X20827970D02*
X20895530Y-10248500D01*
G01X20827970D02*
X20895530Y-10375500D01*
G01X21103060Y-10333170D02*
X21141660D01*
G01X21120750Y-10305650D02*
Y-10360690D01*
G01X21229340Y-10333170D02*
X21271160D01*
G01X21379750Y-10379730D02*
X21376530Y-10377620D01*
Y-10373380D01*
X21379750Y-10371270D01*
X21382970Y-10373380D01*
Y-10377620D01*
X21379750Y-10379730D01*
G01X21509250Y-10375500D02*
Y-10248500D01*
X21489950Y-10273900D01*
G01Y-10375500D02*
X21528550D01*
G01X21608190Y-10269670D02*
X21617840Y-10256970D01*
X21629100Y-10250620D01*
X21641970Y-10248500D01*
X21658050Y-10252730D01*
X21669310Y-10263320D01*
X21672530Y-10276010D01*
X21670920Y-10288720D01*
X21664480Y-10299300D01*
X21632320Y-10320470D01*
X21617840Y-10335280D01*
X21608190Y-10356450D01*
X21604970Y-10375500D01*
X21672530D01*
G01X21765030D02*
X21768250Y-10347990D01*
X21773080Y-10324700D01*
X21779510Y-10303530D01*
X21787550Y-10280250D01*
X21800420Y-10248500D01*
X21736080D01*
G01X20473250Y-10633730D02*
X20470030Y-10631620D01*
Y-10627380D01*
X20473250Y-10625270D01*
X20476470Y-10627380D01*
Y-10631620D01*
X20473250Y-10633730D01*
G01X20568970Y-10629500D02*
X20636530Y-10502500D01*
G01X20568970D02*
X20636530Y-10629500D01*
G01X20698470D02*
X20766030Y-10502500D01*
G01X20698470D02*
X20766030Y-10629500D01*
G01X20827970D02*
X20895530Y-10502500D01*
G01X20827970D02*
X20895530Y-10629500D01*
G01X20957470D02*
X21025030Y-10502500D01*
G01X20957470D02*
X21025030Y-10629500D01*
G01X21232560Y-10587170D02*
X21271160D01*
G01X21250250Y-10559650D02*
Y-10614690D01*
G01X21358840Y-10587170D02*
X21400660D01*
G01X21509250Y-10633730D02*
X21506030Y-10631620D01*
Y-10627380D01*
X21509250Y-10625270D01*
X21512470Y-10627380D01*
Y-10631620D01*
X21509250Y-10633730D01*
G01X21638750Y-10629500D02*
Y-10502500D01*
X21619450Y-10527900D01*
G01Y-10629500D02*
X21658050D01*
G01X21737690Y-10523670D02*
X21747340Y-10510970D01*
X21758600Y-10504620D01*
X21771470Y-10502500D01*
X21787550Y-10506730D01*
X21798810Y-10517320D01*
X21802030Y-10530010D01*
X21800420Y-10542720D01*
X21793980Y-10553300D01*
X21761820Y-10574470D01*
X21747340Y-10589280D01*
X21737690Y-10610450D01*
X21734470Y-10629500D01*
X21802030D01*
G01X21894530D02*
X21897750Y-10601990D01*
X21902580Y-10578700D01*
X21909010Y-10557530D01*
X21917050Y-10534250D01*
X21929920Y-10502500D01*
X21865580D01*
G01X22027250D02*
X22014380Y-10506730D01*
X22004730Y-10517320D01*
X21998300Y-10530010D01*
X21993470Y-10546950D01*
X21991870Y-10566000D01*
X21993470Y-10585050D01*
X21998300Y-10601990D01*
X22004730Y-10614690D01*
X22014380Y-10625270D01*
X22027250Y-10629500D01*
X22040120Y-10625270D01*
X22049770Y-10614690D01*
X22056200Y-10601990D01*
X22061030Y-10585050D01*
X22062630Y-10566000D01*
X22061030Y-10546950D01*
X22056200Y-10530010D01*
X22049770Y-10517320D01*
X22040120Y-10506730D01*
X22027250Y-10502500D01*
G01X20437870Y-9804000D02*
Y-9677000D01*
X20470030D01*
X20482900Y-9683350D01*
X20492550Y-9691820D01*
X20500590Y-9704510D01*
X20507030Y-9719340D01*
X20508630Y-9740500D01*
X20507030Y-9761670D01*
X20500590Y-9776490D01*
X20492550Y-9789190D01*
X20482900Y-9797650D01*
X20470030Y-9804000D01*
X20437870D01*
G01X20634920D02*
X20570580D01*
Y-9677000D01*
X20634920D01*
G01X20609180Y-9738380D02*
X20570580D01*
G01X20767630Y-9687580D02*
X20757980Y-9681230D01*
X20746730Y-9677000D01*
X20733860D01*
X20719380Y-9683350D01*
X20708130Y-9693930D01*
X20700080Y-9706630D01*
X20693650Y-9727800D01*
X20692040Y-9746850D01*
X20695260Y-9765900D01*
X20700080Y-9778600D01*
X20709730Y-9791300D01*
X20720990Y-9799770D01*
X20732250Y-9804000D01*
X20743510D01*
X20754770Y-9799770D01*
X20764420Y-9793420D01*
X20772460Y-9784950D01*
G01X20842450Y-9677000D02*
X20881050D01*
G01X20861750D02*
Y-9804000D01*
G01X20842450D02*
X20881050D01*
G01X20949430D02*
Y-9677000D01*
X20991250Y-9782830D01*
X21033070Y-9677000D01*
Y-9804000D01*
G01X21080540D02*
X21120750Y-9677000D01*
X21160960Y-9804000D01*
G01X21146480Y-9759550D02*
X21095010D01*
G01X21218080Y-9677000D02*
Y-9804000D01*
X21282420D01*
G01X21345970Y-9787070D02*
X21358840Y-9797650D01*
X21373320Y-9804000D01*
X21386180D01*
X21399050Y-9797650D01*
X21408700Y-9787070D01*
X21413530Y-9772250D01*
X21410310Y-9757440D01*
X21402270Y-9744730D01*
X21387790Y-9736270D01*
X21368490Y-9732030D01*
X21357230Y-9723570D01*
X21352410Y-9708750D01*
X21355630Y-9693930D01*
X21363670Y-9683350D01*
X21374920Y-9677000D01*
X21386180D01*
X21397440Y-9681230D01*
X21407090Y-9691820D01*
G01X20473250Y-10125730D02*
X20470030Y-10123620D01*
Y-10119380D01*
X20473250Y-10117270D01*
X20476470Y-10119380D01*
Y-10123620D01*
X20473250Y-10125730D01*
G01X20568970Y-10121500D02*
X20636530Y-9994500D01*
G01X20568970D02*
X20636530Y-10121500D01*
G01X20698470D02*
X20766030Y-9994500D01*
G01X20698470D02*
X20766030Y-10121500D01*
G01X20973560Y-10079170D02*
X21012160D01*
G01X20991250Y-10051650D02*
Y-10106690D01*
G01X21099840Y-10079170D02*
X21141660D01*
G01X21250250Y-10125730D02*
X21247030Y-10123620D01*
Y-10119380D01*
X21250250Y-10117270D01*
X21253470Y-10119380D01*
Y-10123620D01*
X21250250Y-10125730D01*
G01X21349190Y-10015670D02*
X21358840Y-10002970D01*
X21370100Y-9996620D01*
X21382970Y-9994500D01*
X21399050Y-9998730D01*
X21410310Y-10009320D01*
X21413530Y-10022010D01*
X21411920Y-10034720D01*
X21405480Y-10045300D01*
X21373320Y-10066470D01*
X21358840Y-10081280D01*
X21349190Y-10102450D01*
X21345970Y-10121500D01*
X21413530D01*
G01X21473870Y-10102450D02*
X21483510Y-10113040D01*
X21494770Y-10119380D01*
X21509250Y-10121500D01*
X21523730Y-10117270D01*
X21534980Y-10108800D01*
X21543030Y-10093990D01*
X21544630Y-10077050D01*
X21541420Y-10060120D01*
X21533370Y-10049530D01*
X21522120Y-10041070D01*
X21510860Y-10038950D01*
X21499600Y-10041070D01*
X21485130Y-10049530D01*
X21489950Y-9994500D01*
X21533370D01*
G01X21658050Y-10121500D02*
Y-9994500D01*
X21598540Y-10085520D01*
X21678960D01*
G01X21743250Y-9296000D02*
Y-9423000D01*
G01X21706260Y-9296000D02*
X21780240D01*
G01X21872750Y-9423000D02*
X21859880Y-9420880D01*
X21848630Y-9412420D01*
X21838970Y-9399720D01*
X21832540Y-9384900D01*
X21829320Y-9367970D01*
Y-9351030D01*
X21832540Y-9334100D01*
X21838970Y-9319280D01*
X21848630Y-9306580D01*
X21859880Y-9298120D01*
X21872750Y-9296000D01*
X21885620Y-9298120D01*
X21896870Y-9306580D01*
X21906530Y-9319280D01*
X21912960Y-9334100D01*
X21916180Y-9351030D01*
Y-9367970D01*
X21912960Y-9384900D01*
X21906530Y-9399720D01*
X21896870Y-9412420D01*
X21885620Y-9420880D01*
X21872750Y-9423000D01*
G01X21970080Y-9296000D02*
Y-9423000D01*
X22034420D01*
G01X22163920D02*
X22099580D01*
Y-9296000D01*
X22163920D01*
G01X22138180Y-9357380D02*
X22099580D01*
G01X22229080Y-9423000D02*
Y-9296000D01*
X22269290D01*
X22282160Y-9302350D01*
X22290200Y-9310820D01*
X22293420Y-9327750D01*
X22290200Y-9344680D01*
X22280550Y-9355270D01*
X22269290Y-9361620D01*
X22229080D01*
G01X22269290D02*
X22293420Y-9423000D01*
G01X22350540D02*
X22390750Y-9296000D01*
X22430960Y-9423000D01*
G01X22416480Y-9378550D02*
X22365010D01*
G01X22483260Y-9423000D02*
Y-9296000D01*
X22557240Y-9423000D01*
Y-9296000D01*
G01X22685130Y-9306580D02*
X22675480Y-9300230D01*
X22664230Y-9296000D01*
X22651360D01*
X22636880Y-9302350D01*
X22625630Y-9312930D01*
X22617580Y-9325630D01*
X22611150Y-9346800D01*
X22609540Y-9365850D01*
X22612760Y-9384900D01*
X22617580Y-9397600D01*
X22627230Y-9410300D01*
X22638490Y-9418770D01*
X22649750Y-9423000D01*
X22661010D01*
X22672270Y-9418770D01*
X22681920Y-9412420D01*
X22689960Y-9403950D01*
G01X22811420Y-9423000D02*
X22747080D01*
Y-9296000D01*
X22811420D01*
G01X22785680Y-9357380D02*
X22747080D01*
G01X22874970Y-9406070D02*
X22887840Y-9416650D01*
X22902320Y-9423000D01*
X22915180D01*
X22928050Y-9416650D01*
X22937700Y-9406070D01*
X22942530Y-9391250D01*
X22939310Y-9376440D01*
X22931270Y-9363730D01*
X22916790Y-9355270D01*
X22897490Y-9351030D01*
X22886230Y-9342570D01*
X22881410Y-9327750D01*
X22884630Y-9312930D01*
X22892670Y-9302350D01*
X22903920Y-9296000D01*
X22915180D01*
X22926440Y-9300230D01*
X22936090Y-9310820D01*
G01X22233560Y-10079170D02*
X22272160D01*
G01X22251250Y-10051650D02*
Y-10106690D01*
G01X22359840Y-10079170D02*
X22401660D01*
G01X22510250Y-10121500D02*
Y-9994500D01*
X22490950Y-10019900D01*
G01Y-10121500D02*
X22529550D01*
G01X22610800Y-10125730D02*
X22668700Y-9994500D01*
G01X22733870Y-10096100D02*
X22743510Y-10110920D01*
X22756380Y-10119380D01*
X22770860Y-10121500D01*
X22783730Y-10119380D01*
X22796590Y-10108800D01*
X22804630Y-10096100D01*
X22806240Y-10083400D01*
X22803030Y-10068590D01*
X22791770Y-10058000D01*
X22780510Y-10053770D01*
X22766030D01*
G01X22780510D02*
X22790160Y-10047420D01*
X22798200Y-10036840D01*
X22801420Y-10024130D01*
X22798200Y-10011430D01*
X22790160Y-10000850D01*
X22775680Y-9994500D01*
X22761210Y-9996620D01*
X22746730Y-10005080D01*
G01X22868190Y-10015670D02*
X22877840Y-10002970D01*
X22889100Y-9996620D01*
X22901970Y-9994500D01*
X22918050Y-9998730D01*
X22929310Y-10009320D01*
X22932530Y-10022010D01*
X22930920Y-10034720D01*
X22924480Y-10045300D01*
X22892320Y-10066470D01*
X22877840Y-10081280D01*
X22868190Y-10102450D01*
X22864970Y-10121500D01*
X22932530D01*
G01X21966690Y-9804000D02*
Y-9677000D01*
X22027810D01*
G01X22005290Y-9738380D02*
X21966690D01*
G01X22094580Y-9804000D02*
Y-9677000D01*
X22134790D01*
X22147660Y-9683350D01*
X22155700Y-9691820D01*
X22158920Y-9708750D01*
X22155700Y-9725680D01*
X22146050Y-9736270D01*
X22134790Y-9742620D01*
X22094580D01*
G01X22134790D02*
X22158920Y-9804000D01*
G01X22216040D02*
X22256250Y-9677000D01*
X22296460Y-9804000D01*
G01X22281980Y-9759550D02*
X22230510D01*
G01X22421130Y-9687580D02*
X22411480Y-9681230D01*
X22400230Y-9677000D01*
X22387360D01*
X22372880Y-9683350D01*
X22361630Y-9693930D01*
X22353580Y-9706630D01*
X22347150Y-9727800D01*
X22345540Y-9746850D01*
X22348760Y-9765900D01*
X22353580Y-9778600D01*
X22363230Y-9791300D01*
X22374490Y-9799770D01*
X22385750Y-9804000D01*
X22397010D01*
X22408270Y-9799770D01*
X22417920Y-9793420D01*
X22425960Y-9784950D01*
G01X22515250Y-9677000D02*
Y-9804000D01*
G01X22478260Y-9677000D02*
X22552240D01*
G01X22625450D02*
X22664050D01*
G01X22644750D02*
Y-9804000D01*
G01X22625450D02*
X22664050D01*
G01X22774250D02*
X22761380Y-9801880D01*
X22750130Y-9793420D01*
X22740470Y-9780720D01*
X22734040Y-9765900D01*
X22730820Y-9748970D01*
Y-9732030D01*
X22734040Y-9715100D01*
X22740470Y-9700280D01*
X22750130Y-9687580D01*
X22761380Y-9679120D01*
X22774250Y-9677000D01*
X22787120Y-9679120D01*
X22798370Y-9687580D01*
X22808030Y-9700280D01*
X22814460Y-9715100D01*
X22817680Y-9732030D01*
Y-9748970D01*
X22814460Y-9765900D01*
X22808030Y-9780720D01*
X22798370Y-9793420D01*
X22787120Y-9801880D01*
X22774250Y-9804000D01*
G01X22866760D02*
Y-9677000D01*
X22940740Y-9804000D01*
Y-9677000D01*
G01X22999470Y-9787070D02*
X23012340Y-9797650D01*
X23026820Y-9804000D01*
X23039680D01*
X23052550Y-9797650D01*
X23062200Y-9787070D01*
X23067030Y-9772250D01*
X23063810Y-9757440D01*
X23055770Y-9744730D01*
X23041290Y-9736270D01*
X23021990Y-9732030D01*
X23010730Y-9723570D01*
X23005910Y-9708750D01*
X23009130Y-9693930D01*
X23017170Y-9683350D01*
X23028420Y-9677000D01*
X23039680D01*
X23050940Y-9681230D01*
X23060590Y-9691820D01*
G01X23544540Y-9804000D02*
X23584750Y-9677000D01*
X23624960Y-9804000D01*
G01X23610480Y-9759550D02*
X23559010D01*
G01X23677260Y-9804000D02*
Y-9677000D01*
X23751240Y-9804000D01*
Y-9677000D01*
G01X23853400Y-9740500D02*
X23885570D01*
Y-9778600D01*
X23875920Y-9791300D01*
X23864660Y-9799770D01*
X23848580Y-9804000D01*
X23832490Y-9799770D01*
X23821230Y-9791300D01*
X23811580Y-9778600D01*
X23805150Y-9763780D01*
X23801930Y-9746850D01*
Y-9732030D01*
X23805150Y-9719340D01*
X23811580Y-9704510D01*
X23821230Y-9691820D01*
X23830880Y-9683350D01*
X23843750Y-9677000D01*
X23855010D01*
X23867870Y-9681230D01*
X23877530Y-9689700D01*
G01X23941080Y-9677000D02*
Y-9804000D01*
X24005420D01*
G01X24134920D02*
X24070580D01*
Y-9677000D01*
X24134920D01*
G01X24109180Y-9738380D02*
X24070580D01*
G01X24198470Y-9787070D02*
X24211340Y-9797650D01*
X24225820Y-9804000D01*
X24238680D01*
X24251550Y-9797650D01*
X24261200Y-9787070D01*
X24266030Y-9772250D01*
X24262810Y-9757440D01*
X24254770Y-9744730D01*
X24240290Y-9736270D01*
X24220990Y-9732030D01*
X24209730Y-9723570D01*
X24204910Y-9708750D01*
X24208130Y-9693930D01*
X24216170Y-9683350D01*
X24227420Y-9677000D01*
X24238680D01*
X24249940Y-9681230D01*
X24259590Y-9691820D01*
G01X23567060Y-10079170D02*
X23605660D01*
G01X23584750Y-10051650D02*
Y-10106690D01*
G01X23693340Y-10079170D02*
X23735160D01*
G01X23935190Y-10015670D02*
X23944840Y-10002970D01*
X23956100Y-9996620D01*
X23968970Y-9994500D01*
X23985050Y-9998730D01*
X23996310Y-10009320D01*
X23999530Y-10022010D01*
X23997920Y-10034720D01*
X23991480Y-10045300D01*
X23959320Y-10066470D01*
X23944840Y-10081280D01*
X23935190Y-10102450D01*
X23931970Y-10121500D01*
X23999530D01*
G01X24826630Y-14742180D02*
X24816980Y-14735830D01*
X24805730Y-14731600D01*
X24792860D01*
X24778380Y-14737950D01*
X24767130Y-14748530D01*
X24759080Y-14761230D01*
X24752650Y-14782400D01*
X24751040Y-14801450D01*
X24754260Y-14820500D01*
X24759080Y-14833200D01*
X24768730Y-14845900D01*
X24779990Y-14854370D01*
X24791250Y-14858600D01*
X24802510D01*
X24813770Y-14854370D01*
X24823420Y-14848020D01*
X24831460Y-14839550D01*
G01X24886970Y-14858600D02*
Y-14731600D01*
G01X24954530D02*
Y-14858600D01*
G01Y-14795100D02*
X24886970D01*
G01X25082420Y-14858600D02*
X25018080D01*
Y-14731600D01*
X25082420D01*
G01X25056680Y-14792980D02*
X25018080D01*
G01X25215130Y-14742180D02*
X25205480Y-14735830D01*
X25194230Y-14731600D01*
X25181360D01*
X25166880Y-14737950D01*
X25155630Y-14748530D01*
X25147580Y-14761230D01*
X25141150Y-14782400D01*
X25139540Y-14801450D01*
X25142760Y-14820500D01*
X25147580Y-14833200D01*
X25157230Y-14845900D01*
X25168490Y-14854370D01*
X25179750Y-14858600D01*
X25191010D01*
X25202270Y-14854370D01*
X25211920Y-14848020D01*
X25219960Y-14839550D01*
G01X25273870Y-14858600D02*
Y-14731600D01*
G01X25334980D02*
X25273870Y-14809920D01*
G01X25344630Y-14858600D02*
X25301210Y-14773940D01*
G01X25470920Y-14858600D02*
X25406580D01*
Y-14731600D01*
X25470920D01*
G01X25445180Y-14792980D02*
X25406580D01*
G01X25536080Y-14858600D02*
Y-14731600D01*
X25576290D01*
X25589160Y-14737950D01*
X25597200Y-14746420D01*
X25600420Y-14763350D01*
X25597200Y-14780280D01*
X25587550Y-14790870D01*
X25576290Y-14797220D01*
X25536080D01*
G01X25576290D02*
X25600420Y-14858600D01*
G01X24759080Y-14223600D02*
Y-14096600D01*
X24797680D01*
X24810550Y-14102950D01*
X24820200Y-14117770D01*
X24823420Y-14134700D01*
X24820200Y-14151630D01*
X24812160Y-14164330D01*
X24797680Y-14170690D01*
X24759080D01*
G01X24920750Y-14096600D02*
Y-14223600D01*
G01X24883760Y-14096600D02*
X24957740D01*
G01X25014870Y-14223600D02*
Y-14096600D01*
X25047030D01*
X25059900Y-14102950D01*
X25069550Y-14111420D01*
X25077590Y-14124110D01*
X25084030Y-14138940D01*
X25085630Y-14160100D01*
X25084030Y-14181270D01*
X25077590Y-14196090D01*
X25069550Y-14208790D01*
X25059900Y-14217250D01*
X25047030Y-14223600D01*
X25014870D01*
G01X25341420D02*
X25277080D01*
Y-14096600D01*
X25341420D01*
G01X25315680Y-14157980D02*
X25277080D01*
G01X25401760Y-14223600D02*
Y-14096600D01*
X25475740Y-14223600D01*
Y-14096600D01*
G01X25577900Y-14160100D02*
X25610070D01*
Y-14198200D01*
X25600420Y-14210900D01*
X25589160Y-14219370D01*
X25573080Y-14223600D01*
X25556990Y-14219370D01*
X25545730Y-14210900D01*
X25536080Y-14198200D01*
X25529650Y-14183380D01*
X25526430Y-14166450D01*
Y-14151630D01*
X25529650Y-14138940D01*
X25536080Y-14124110D01*
X25545730Y-14111420D01*
X25555380Y-14102950D01*
X25568250Y-14096600D01*
X25579510D01*
X25592370Y-14100830D01*
X25602030Y-14109300D01*
G01X25678450Y-14096600D02*
X25717050D01*
G01X25697750D02*
Y-14223600D01*
G01X25678450D02*
X25717050D01*
G01X25790260D02*
Y-14096600D01*
X25864240Y-14223600D01*
Y-14096600D01*
G01X25988920Y-14223600D02*
X25924580D01*
Y-14096600D01*
X25988920D01*
G01X25963180Y-14157980D02*
X25924580D01*
G01X26118420Y-14223600D02*
X26054080D01*
Y-14096600D01*
X26118420D01*
G01X26092680Y-14157980D02*
X26054080D01*
G01X26183580Y-14223600D02*
Y-14096600D01*
X26223790D01*
X26236660Y-14102950D01*
X26244700Y-14111420D01*
X26247920Y-14128350D01*
X26244700Y-14145280D01*
X26235050Y-14155870D01*
X26223790Y-14162220D01*
X26183580D01*
G01X26223790D02*
X26247920Y-14223600D01*
G01X24755870Y-13588600D02*
Y-13461600D01*
X24788030D01*
X24800900Y-13467950D01*
X24810550Y-13476420D01*
X24818590Y-13489110D01*
X24825030Y-13503940D01*
X24826630Y-13525100D01*
X24825030Y-13546270D01*
X24818590Y-13561090D01*
X24810550Y-13573790D01*
X24800900Y-13582250D01*
X24788030Y-13588600D01*
X24755870D01*
G01X24952920D02*
X24888580D01*
Y-13461600D01*
X24952920D01*
G01X24927180Y-13522980D02*
X24888580D01*
G01X25016470Y-13571670D02*
X25029340Y-13582250D01*
X25043820Y-13588600D01*
X25056680D01*
X25069550Y-13582250D01*
X25079200Y-13571670D01*
X25084030Y-13556850D01*
X25080810Y-13542040D01*
X25072770Y-13529330D01*
X25058290Y-13520870D01*
X25038990Y-13516630D01*
X25027730Y-13508170D01*
X25022910Y-13493350D01*
X25026130Y-13478530D01*
X25034170Y-13467950D01*
X25045420Y-13461600D01*
X25056680D01*
X25067940Y-13465830D01*
X25077590Y-13476420D01*
G01X25160450Y-13461600D02*
X25199050D01*
G01X25179750D02*
Y-13588600D01*
G01X25160450D02*
X25199050D01*
G01X25318900Y-13525100D02*
X25351070D01*
Y-13563200D01*
X25341420Y-13575900D01*
X25330160Y-13584370D01*
X25314080Y-13588600D01*
X25297990Y-13584370D01*
X25286730Y-13575900D01*
X25277080Y-13563200D01*
X25270650Y-13548380D01*
X25267430Y-13531450D01*
Y-13516630D01*
X25270650Y-13503940D01*
X25277080Y-13489110D01*
X25286730Y-13476420D01*
X25296380Y-13467950D01*
X25309250Y-13461600D01*
X25320510D01*
X25333370Y-13465830D01*
X25343030Y-13474300D01*
G01X25401760Y-13588600D02*
Y-13461600D01*
X25475740Y-13588600D01*
Y-13461600D01*
G01X25600420Y-13588600D02*
X25536080D01*
Y-13461600D01*
X25600420D01*
G01X25574680Y-13522980D02*
X25536080D01*
G01X25665580Y-13588600D02*
Y-13461600D01*
X25705790D01*
X25718660Y-13467950D01*
X25726700Y-13476420D01*
X25729920Y-13493350D01*
X25726700Y-13510280D01*
X25717050Y-13520870D01*
X25705790Y-13527220D01*
X25665580D01*
G01X25705790D02*
X25729920Y-13588600D01*
G01X24757470Y-12953600D02*
Y-12826600D01*
G01X24825030D02*
Y-12953600D01*
G01Y-12890100D02*
X24757470D01*
G01X24880540Y-12953600D02*
X24920750Y-12826600D01*
X24960960Y-12953600D01*
G01X24946480Y-12909150D02*
X24895010D01*
G01X25018080Y-12953600D02*
Y-12826600D01*
X25058290D01*
X25071160Y-12832950D01*
X25079200Y-12841420D01*
X25082420Y-12858350D01*
X25079200Y-12875280D01*
X25069550Y-12885870D01*
X25058290Y-12892220D01*
X25018080D01*
G01X25058290D02*
X25082420Y-12953600D01*
G01X25144370D02*
Y-12826600D01*
X25176530D01*
X25189400Y-12832950D01*
X25199050Y-12841420D01*
X25207090Y-12854110D01*
X25213530Y-12868940D01*
X25215130Y-12890100D01*
X25213530Y-12911270D01*
X25207090Y-12926090D01*
X25199050Y-12938790D01*
X25189400Y-12947250D01*
X25176530Y-12953600D01*
X25144370D01*
G01X25261000Y-12826600D02*
X25283510Y-12953600D01*
X25309250Y-12826600D01*
X25334980Y-12953600D01*
X25357500Y-12826600D01*
G01X25398540Y-12953600D02*
X25438750Y-12826600D01*
X25478960Y-12953600D01*
G01X25464480Y-12909150D02*
X25413010D01*
G01X25536080Y-12953600D02*
Y-12826600D01*
X25576290D01*
X25589160Y-12832950D01*
X25597200Y-12841420D01*
X25600420Y-12858350D01*
X25597200Y-12875280D01*
X25587550Y-12885870D01*
X25576290Y-12892220D01*
X25536080D01*
G01X25576290D02*
X25600420Y-12953600D01*
G01X25729920D02*
X25665580D01*
Y-12826600D01*
X25729920D01*
G01X25704180Y-12887980D02*
X25665580D01*
G01X25924580Y-12953600D02*
Y-12826600D01*
X25964790D01*
X25977660Y-12832950D01*
X25985700Y-12841420D01*
X25988920Y-12858350D01*
X25985700Y-12875280D01*
X25976050Y-12885870D01*
X25964790Y-12892220D01*
X25924580D01*
G01X25964790D02*
X25988920Y-12953600D01*
G01X26118420D02*
X26054080D01*
Y-12826600D01*
X26118420D01*
G01X26092680Y-12887980D02*
X26054080D01*
G01X26183580Y-12826600D02*
Y-12953600D01*
X26247920D01*
G01X26377420D02*
X26313080D01*
Y-12826600D01*
X26377420D01*
G01X26351680Y-12887980D02*
X26313080D01*
G01X26434540Y-12953600D02*
X26474750Y-12826600D01*
X26514960Y-12953600D01*
G01X26500480Y-12909150D02*
X26449010D01*
G01X26570470Y-12936670D02*
X26583340Y-12947250D01*
X26597820Y-12953600D01*
X26610680D01*
X26623550Y-12947250D01*
X26633200Y-12936670D01*
X26638030Y-12921850D01*
X26634810Y-12907040D01*
X26626770Y-12894330D01*
X26612290Y-12885870D01*
X26592990Y-12881630D01*
X26581730Y-12873170D01*
X26576910Y-12858350D01*
X26580130Y-12843530D01*
X26588170Y-12832950D01*
X26599420Y-12826600D01*
X26610680D01*
X26621940Y-12830830D01*
X26631590Y-12841420D01*
G01X26765920Y-12953600D02*
X26701580D01*
Y-12826600D01*
X26765920D01*
G01X26740180Y-12887980D02*
X26701580D01*
G01X24791250Y-12191600D02*
Y-12318600D01*
G01X24754260Y-12191600D02*
X24828240D01*
G01X24952920Y-12318600D02*
X24888580D01*
Y-12191600D01*
X24952920D01*
G01X24927180Y-12252980D02*
X24888580D01*
G01X25016470Y-12301670D02*
X25029340Y-12312250D01*
X25043820Y-12318600D01*
X25056680D01*
X25069550Y-12312250D01*
X25079200Y-12301670D01*
X25084030Y-12286850D01*
X25080810Y-12272040D01*
X25072770Y-12259330D01*
X25058290Y-12250870D01*
X25038990Y-12246630D01*
X25027730Y-12238170D01*
X25022910Y-12223350D01*
X25026130Y-12208530D01*
X25034170Y-12197950D01*
X25045420Y-12191600D01*
X25056680D01*
X25067940Y-12195830D01*
X25077590Y-12206420D01*
G01X25179750Y-12191600D02*
Y-12318600D01*
G01X25142760Y-12191600D02*
X25216740D01*
G01X25406580Y-12318600D02*
Y-12191600D01*
X25445180D01*
X25458050Y-12197950D01*
X25467700Y-12212770D01*
X25470920Y-12229700D01*
X25467700Y-12246630D01*
X25459660Y-12259330D01*
X25445180Y-12265690D01*
X25406580D01*
G01X25536080Y-12318600D02*
Y-12191600D01*
X25576290D01*
X25589160Y-12197950D01*
X25597200Y-12206420D01*
X25600420Y-12223350D01*
X25597200Y-12240280D01*
X25587550Y-12250870D01*
X25576290Y-12257220D01*
X25536080D01*
G01X25576290D02*
X25600420Y-12318600D01*
G01X25697750D02*
X25684880Y-12316480D01*
X25673630Y-12308020D01*
X25663970Y-12295320D01*
X25657540Y-12280500D01*
X25654320Y-12263570D01*
Y-12246630D01*
X25657540Y-12229700D01*
X25663970Y-12214880D01*
X25673630Y-12202180D01*
X25684880Y-12193720D01*
X25697750Y-12191600D01*
X25710620Y-12193720D01*
X25721870Y-12202180D01*
X25731530Y-12214880D01*
X25737960Y-12229700D01*
X25741180Y-12246630D01*
Y-12263570D01*
X25737960Y-12280500D01*
X25731530Y-12295320D01*
X25721870Y-12308020D01*
X25710620Y-12316480D01*
X25697750Y-12318600D01*
G01X25862630Y-12202180D02*
X25852980Y-12195830D01*
X25841730Y-12191600D01*
X25828860D01*
X25814380Y-12197950D01*
X25803130Y-12208530D01*
X25795080Y-12221230D01*
X25788650Y-12242400D01*
X25787040Y-12261450D01*
X25790260Y-12280500D01*
X25795080Y-12293200D01*
X25804730Y-12305900D01*
X25815990Y-12314370D01*
X25827250Y-12318600D01*
X25838510D01*
X25849770Y-12314370D01*
X25859420Y-12308020D01*
X25867460Y-12299550D01*
G01X25988920Y-12318600D02*
X25924580D01*
Y-12191600D01*
X25988920D01*
G01X25963180Y-12252980D02*
X25924580D01*
G01X26052470Y-12301670D02*
X26065340Y-12312250D01*
X26079820Y-12318600D01*
X26092680D01*
X26105550Y-12312250D01*
X26115200Y-12301670D01*
X26120030Y-12286850D01*
X26116810Y-12272040D01*
X26108770Y-12259330D01*
X26094290Y-12250870D01*
X26074990Y-12246630D01*
X26063730Y-12238170D01*
X26058910Y-12223350D01*
X26062130Y-12208530D01*
X26070170Y-12197950D01*
X26081420Y-12191600D01*
X26092680D01*
X26103940Y-12195830D01*
X26113590Y-12206420D01*
G01X26181970Y-12301670D02*
X26194840Y-12312250D01*
X26209320Y-12318600D01*
X26222180D01*
X26235050Y-12312250D01*
X26244700Y-12301670D01*
X26249530Y-12286850D01*
X26246310Y-12272040D01*
X26238270Y-12259330D01*
X26223790Y-12250870D01*
X26204490Y-12246630D01*
X26193230Y-12238170D01*
X26188410Y-12223350D01*
X26191630Y-12208530D01*
X26199670Y-12197950D01*
X26210920Y-12191600D01*
X26222180D01*
X26233440Y-12195830D01*
X26243090Y-12206420D01*
G01X24826630Y-11567180D02*
X24816980Y-11560830D01*
X24805730Y-11556600D01*
X24792860D01*
X24778380Y-11562950D01*
X24767130Y-11573530D01*
X24759080Y-11586230D01*
X24752650Y-11607400D01*
X24751040Y-11626450D01*
X24754260Y-11645500D01*
X24759080Y-11658200D01*
X24768730Y-11670900D01*
X24779990Y-11679370D01*
X24791250Y-11683600D01*
X24802510D01*
X24813770Y-11679370D01*
X24823420Y-11673020D01*
X24831460Y-11664550D01*
G01X24920750Y-11683600D02*
X24907880Y-11681480D01*
X24896630Y-11673020D01*
X24886970Y-11660320D01*
X24880540Y-11645500D01*
X24877320Y-11628570D01*
Y-11611630D01*
X24880540Y-11594700D01*
X24886970Y-11579880D01*
X24896630Y-11567180D01*
X24907880Y-11558720D01*
X24920750Y-11556600D01*
X24933620Y-11558720D01*
X24944870Y-11567180D01*
X24954530Y-11579880D01*
X24960960Y-11594700D01*
X24964180Y-11611630D01*
Y-11628570D01*
X24960960Y-11645500D01*
X24954530Y-11660320D01*
X24944870Y-11673020D01*
X24933620Y-11681480D01*
X24920750Y-11683600D01*
G01X25008430D02*
Y-11556600D01*
X25050250Y-11662430D01*
X25092070Y-11556600D01*
Y-11683600D01*
G01X25147580D02*
Y-11556600D01*
X25186180D01*
X25199050Y-11562950D01*
X25208700Y-11577770D01*
X25211920Y-11594700D01*
X25208700Y-11611630D01*
X25200660Y-11624330D01*
X25186180Y-11630690D01*
X25147580D01*
G01X25309250Y-11683600D02*
X25296380Y-11681480D01*
X25285130Y-11673020D01*
X25275470Y-11660320D01*
X25269040Y-11645500D01*
X25265820Y-11628570D01*
Y-11611630D01*
X25269040Y-11594700D01*
X25275470Y-11579880D01*
X25285130Y-11567180D01*
X25296380Y-11558720D01*
X25309250Y-11556600D01*
X25322120Y-11558720D01*
X25333370Y-11567180D01*
X25343030Y-11579880D01*
X25349460Y-11594700D01*
X25352680Y-11611630D01*
Y-11628570D01*
X25349460Y-11645500D01*
X25343030Y-11660320D01*
X25333370Y-11673020D01*
X25322120Y-11681480D01*
X25309250Y-11683600D01*
G01X25401760D02*
Y-11556600D01*
X25475740Y-11683600D01*
Y-11556600D01*
G01X25600420Y-11683600D02*
X25536080D01*
Y-11556600D01*
X25600420D01*
G01X25574680Y-11617980D02*
X25536080D01*
G01X25660760Y-11683600D02*
Y-11556600D01*
X25734740Y-11683600D01*
Y-11556600D01*
G01X25827250D02*
Y-11683600D01*
G01X25790260Y-11556600D02*
X25864240D01*
G01X26118420Y-11683600D02*
X26054080D01*
Y-11556600D01*
X26118420D01*
G01X26092680Y-11617980D02*
X26054080D01*
G01X26178760Y-11683600D02*
Y-11556600D01*
X26252740Y-11683600D01*
Y-11556600D01*
G01X26354900Y-11620100D02*
X26387070D01*
Y-11658200D01*
X26377420Y-11670900D01*
X26366160Y-11679370D01*
X26350080Y-11683600D01*
X26333990Y-11679370D01*
X26322730Y-11670900D01*
X26313080Y-11658200D01*
X26306650Y-11643380D01*
X26303430Y-11626450D01*
Y-11611630D01*
X26306650Y-11598940D01*
X26313080Y-11584110D01*
X26322730Y-11571420D01*
X26332380Y-11562950D01*
X26345250Y-11556600D01*
X26356510D01*
X26369370Y-11560830D01*
X26379030Y-11569300D01*
G01X26455450Y-11556600D02*
X26494050D01*
G01X26474750D02*
Y-11683600D01*
G01X26455450D02*
X26494050D01*
G01X26567260D02*
Y-11556600D01*
X26641240Y-11683600D01*
Y-11556600D01*
G01X26765920Y-11683600D02*
X26701580D01*
Y-11556600D01*
X26765920D01*
G01X26740180Y-11617980D02*
X26701580D01*
G01X26895420Y-11683600D02*
X26831080D01*
Y-11556600D01*
X26895420D01*
G01X26869680Y-11617980D02*
X26831080D01*
G01X26960580Y-11683600D02*
Y-11556600D01*
X27000790D01*
X27013660Y-11562950D01*
X27021700Y-11571420D01*
X27024920Y-11588350D01*
X27021700Y-11605280D01*
X27012050Y-11615870D01*
X27000790Y-11622220D01*
X26960580D01*
G01X27000790D02*
X27024920Y-11683600D01*
G01X24791250Y-10921600D02*
Y-11048600D01*
G01X24754260Y-10921600D02*
X24828240D01*
G01X24952920Y-11048600D02*
X24888580D01*
Y-10921600D01*
X24952920D01*
G01X24927180Y-10982980D02*
X24888580D01*
G01X25016470Y-11031670D02*
X25029340Y-11042250D01*
X25043820Y-11048600D01*
X25056680D01*
X25069550Y-11042250D01*
X25079200Y-11031670D01*
X25084030Y-11016850D01*
X25080810Y-11002040D01*
X25072770Y-10989330D01*
X25058290Y-10980870D01*
X25038990Y-10976630D01*
X25027730Y-10968170D01*
X25022910Y-10953350D01*
X25026130Y-10938530D01*
X25034170Y-10927950D01*
X25045420Y-10921600D01*
X25056680D01*
X25067940Y-10925830D01*
X25077590Y-10936420D01*
G01X25179750Y-10921600D02*
Y-11048600D01*
G01X25142760Y-10921600D02*
X25216740D01*
G01X25470920Y-11048600D02*
X25406580D01*
Y-10921600D01*
X25470920D01*
G01X25445180Y-10982980D02*
X25406580D01*
G01X25531260Y-11048600D02*
Y-10921600D01*
X25605240Y-11048600D01*
Y-10921600D01*
G01X25707400Y-10985100D02*
X25739570D01*
Y-11023200D01*
X25729920Y-11035900D01*
X25718660Y-11044370D01*
X25702580Y-11048600D01*
X25686490Y-11044370D01*
X25675230Y-11035900D01*
X25665580Y-11023200D01*
X25659150Y-11008380D01*
X25655930Y-10991450D01*
Y-10976630D01*
X25659150Y-10963940D01*
X25665580Y-10949110D01*
X25675230Y-10936420D01*
X25684880Y-10927950D01*
X25697750Y-10921600D01*
X25709010D01*
X25721870Y-10925830D01*
X25731530Y-10934300D01*
G01X25807950Y-10921600D02*
X25846550D01*
G01X25827250D02*
Y-11048600D01*
G01X25807950D02*
X25846550D01*
G01X25919760D02*
Y-10921600D01*
X25993740Y-11048600D01*
Y-10921600D01*
G01X26118420Y-11048600D02*
X26054080D01*
Y-10921600D01*
X26118420D01*
G01X26092680Y-10982980D02*
X26054080D01*
G01X26247920Y-11048600D02*
X26183580D01*
Y-10921600D01*
X26247920D01*
G01X26222180Y-10982980D02*
X26183580D01*
G01X26313080Y-11048600D02*
Y-10921600D01*
X26353290D01*
X26366160Y-10927950D01*
X26374200Y-10936420D01*
X26377420Y-10953350D01*
X26374200Y-10970280D01*
X26364550Y-10980870D01*
X26353290Y-10987220D01*
X26313080D01*
G01X26353290D02*
X26377420Y-11048600D01*
G01X24757470Y-10413600D02*
Y-10286600D01*
G01X24825030D02*
Y-10413600D01*
G01Y-10350100D02*
X24757470D01*
G01X24880540Y-10413600D02*
X24920750Y-10286600D01*
X24960960Y-10413600D01*
G01X24946480Y-10369150D02*
X24895010D01*
G01X25018080Y-10413600D02*
Y-10286600D01*
X25058290D01*
X25071160Y-10292950D01*
X25079200Y-10301420D01*
X25082420Y-10318350D01*
X25079200Y-10335280D01*
X25069550Y-10345870D01*
X25058290Y-10352220D01*
X25018080D01*
G01X25058290D02*
X25082420Y-10413600D01*
G01X25144370D02*
Y-10286600D01*
X25176530D01*
X25189400Y-10292950D01*
X25199050Y-10301420D01*
X25207090Y-10314110D01*
X25213530Y-10328940D01*
X25215130Y-10350100D01*
X25213530Y-10371270D01*
X25207090Y-10386090D01*
X25199050Y-10398790D01*
X25189400Y-10407250D01*
X25176530Y-10413600D01*
X25144370D01*
G01X25261000Y-10286600D02*
X25283510Y-10413600D01*
X25309250Y-10286600D01*
X25334980Y-10413600D01*
X25357500Y-10286600D01*
G01X25398540Y-10413600D02*
X25438750Y-10286600D01*
X25478960Y-10413600D01*
G01X25464480Y-10369150D02*
X25413010D01*
G01X25536080Y-10413600D02*
Y-10286600D01*
X25576290D01*
X25589160Y-10292950D01*
X25597200Y-10301420D01*
X25600420Y-10318350D01*
X25597200Y-10335280D01*
X25587550Y-10345870D01*
X25576290Y-10352220D01*
X25536080D01*
G01X25576290D02*
X25600420Y-10413600D01*
G01X25729920D02*
X25665580D01*
Y-10286600D01*
X25729920D01*
G01X25704180Y-10347980D02*
X25665580D01*
G01X25922970Y-10396670D02*
X25935840Y-10407250D01*
X25950320Y-10413600D01*
X25963180D01*
X25976050Y-10407250D01*
X25985700Y-10396670D01*
X25990530Y-10381850D01*
X25987310Y-10367040D01*
X25979270Y-10354330D01*
X25964790Y-10345870D01*
X25945490Y-10341630D01*
X25934230Y-10333170D01*
X25929410Y-10318350D01*
X25932630Y-10303530D01*
X25940670Y-10292950D01*
X25951920Y-10286600D01*
X25963180D01*
X25974440Y-10290830D01*
X25984090Y-10301420D01*
G01X26086250Y-10413600D02*
Y-10356450D01*
X26054080Y-10286600D01*
G01X26118420D02*
X26086250Y-10356450D01*
G01X26181970Y-10396670D02*
X26194840Y-10407250D01*
X26209320Y-10413600D01*
X26222180D01*
X26235050Y-10407250D01*
X26244700Y-10396670D01*
X26249530Y-10381850D01*
X26246310Y-10367040D01*
X26238270Y-10354330D01*
X26223790Y-10345870D01*
X26204490Y-10341630D01*
X26193230Y-10333170D01*
X26188410Y-10318350D01*
X26191630Y-10303530D01*
X26199670Y-10292950D01*
X26210920Y-10286600D01*
X26222180D01*
X26233440Y-10290830D01*
X26243090Y-10301420D01*
G01X26345250Y-10286600D02*
Y-10413600D01*
G01X26308260Y-10286600D02*
X26382240D01*
G01X26506920Y-10413600D02*
X26442580D01*
Y-10286600D01*
X26506920D01*
G01X26481180Y-10347980D02*
X26442580D01*
G01X26562430Y-10413600D02*
Y-10286600D01*
X26604250Y-10392430D01*
X26646070Y-10286600D01*
Y-10413600D01*
G01X26699970Y-10396670D02*
X26712840Y-10407250D01*
X26727320Y-10413600D01*
X26740180D01*
X26753050Y-10407250D01*
X26762700Y-10396670D01*
X26767530Y-10381850D01*
X26764310Y-10367040D01*
X26756270Y-10354330D01*
X26741790Y-10345870D01*
X26722490Y-10341630D01*
X26711230Y-10333170D01*
X26706410Y-10318350D01*
X26709630Y-10303530D01*
X26717670Y-10292950D01*
X26728920Y-10286600D01*
X26740180D01*
X26751440Y-10290830D01*
X26761090Y-10301420D01*
G01X24757470Y-9778600D02*
Y-9651600D01*
G01X24825030D02*
Y-9778600D01*
G01Y-9715100D02*
X24757470D01*
G01X24880540Y-9778600D02*
X24920750Y-9651600D01*
X24960960Y-9778600D01*
G01X24946480Y-9734150D02*
X24895010D01*
G01X25018080Y-9778600D02*
Y-9651600D01*
X25058290D01*
X25071160Y-9657950D01*
X25079200Y-9666420D01*
X25082420Y-9683350D01*
X25079200Y-9700280D01*
X25069550Y-9710870D01*
X25058290Y-9717220D01*
X25018080D01*
G01X25058290D02*
X25082420Y-9778600D01*
G01X25144370D02*
Y-9651600D01*
X25176530D01*
X25189400Y-9657950D01*
X25199050Y-9666420D01*
X25207090Y-9679110D01*
X25213530Y-9693940D01*
X25215130Y-9715100D01*
X25213530Y-9736270D01*
X25207090Y-9751090D01*
X25199050Y-9763790D01*
X25189400Y-9772250D01*
X25176530Y-9778600D01*
X25144370D01*
G01X25261000Y-9651600D02*
X25283510Y-9778600D01*
X25309250Y-9651600D01*
X25334980Y-9778600D01*
X25357500Y-9651600D01*
G01X25398540Y-9778600D02*
X25438750Y-9651600D01*
X25478960Y-9778600D01*
G01X25464480Y-9734150D02*
X25413010D01*
G01X25536080Y-9778600D02*
Y-9651600D01*
X25576290D01*
X25589160Y-9657950D01*
X25597200Y-9666420D01*
X25600420Y-9683350D01*
X25597200Y-9700280D01*
X25587550Y-9710870D01*
X25576290Y-9717220D01*
X25536080D01*
G01X25576290D02*
X25600420Y-9778600D01*
G01X25729920D02*
X25665580D01*
Y-9651600D01*
X25729920D01*
G01X25704180Y-9712980D02*
X25665580D01*
G01X25922970Y-9761670D02*
X25935840Y-9772250D01*
X25950320Y-9778600D01*
X25963180D01*
X25976050Y-9772250D01*
X25985700Y-9761670D01*
X25990530Y-9746850D01*
X25987310Y-9732040D01*
X25979270Y-9719330D01*
X25964790Y-9710870D01*
X25945490Y-9706630D01*
X25934230Y-9698170D01*
X25929410Y-9683350D01*
X25932630Y-9668530D01*
X25940670Y-9657950D01*
X25951920Y-9651600D01*
X25963180D01*
X25974440Y-9655830D01*
X25984090Y-9666420D01*
G01X26118420Y-9778600D02*
X26054080D01*
Y-9651600D01*
X26118420D01*
G01X26092680Y-9712980D02*
X26054080D01*
G01X26183580Y-9778600D02*
Y-9651600D01*
X26223790D01*
X26236660Y-9657950D01*
X26244700Y-9666420D01*
X26247920Y-9683350D01*
X26244700Y-9700280D01*
X26235050Y-9710870D01*
X26223790Y-9717220D01*
X26183580D01*
G01X26223790D02*
X26247920Y-9778600D01*
G01X26305040Y-9651600D02*
X26345250Y-9778600D01*
X26385460Y-9651600D01*
G01X26455450D02*
X26494050D01*
G01X26474750D02*
Y-9778600D01*
G01X26455450D02*
X26494050D01*
G01X26639630Y-9662180D02*
X26629980Y-9655830D01*
X26618730Y-9651600D01*
X26605860D01*
X26591380Y-9657950D01*
X26580130Y-9668530D01*
X26572080Y-9681230D01*
X26565650Y-9702400D01*
X26564040Y-9721450D01*
X26567260Y-9740500D01*
X26572080Y-9753200D01*
X26581730Y-9765900D01*
X26592990Y-9774370D01*
X26604250Y-9778600D01*
X26615510D01*
X26626770Y-9774370D01*
X26636420Y-9768020D01*
X26644460Y-9759550D01*
G01X26765920Y-9778600D02*
X26701580D01*
Y-9651600D01*
X26765920D01*
G01X26740180Y-9712980D02*
X26701580D01*
G01X26829470Y-9761670D02*
X26842340Y-9772250D01*
X26856820Y-9778600D01*
X26869680D01*
X26882550Y-9772250D01*
X26892200Y-9761670D01*
X26897030Y-9746850D01*
X26893810Y-9732040D01*
X26885770Y-9719330D01*
X26871290Y-9710870D01*
X26851990Y-9706630D01*
X26840730Y-9698170D01*
X26835910Y-9683350D01*
X26839130Y-9668530D01*
X26847170Y-9657950D01*
X26858420Y-9651600D01*
X26869680D01*
X26880940Y-9655830D01*
X26890590Y-9666420D01*
G01X24791250Y-9016600D02*
Y-9143600D01*
G01X24754260Y-9016600D02*
X24828240D01*
G01X24952920Y-9143600D02*
X24888580D01*
Y-9016600D01*
X24952920D01*
G01X24927180Y-9077980D02*
X24888580D01*
G01X25008430Y-9143600D02*
Y-9016600D01*
X25050250Y-9122430D01*
X25092070Y-9016600D01*
Y-9143600D01*
G01X25147580D02*
Y-9016600D01*
X25186180D01*
X25199050Y-9022950D01*
X25208700Y-9037770D01*
X25211920Y-9054700D01*
X25208700Y-9071630D01*
X25200660Y-9084330D01*
X25186180Y-9090690D01*
X25147580D01*
G01X25277080Y-9016600D02*
Y-9143600D01*
X25341420D01*
G01X25398540D02*
X25438750Y-9016600D01*
X25478960Y-9143600D01*
G01X25464480Y-9099150D02*
X25413010D01*
G01X25568250Y-9016600D02*
Y-9143600D01*
G01X25531260Y-9016600D02*
X25605240D01*
G01X25729920Y-9143600D02*
X25665580D01*
Y-9016600D01*
X25729920D01*
G01X25704180Y-9077980D02*
X25665580D01*
G01X25988920Y-9143600D02*
X25924580D01*
Y-9016600D01*
X25988920D01*
G01X25963180Y-9077980D02*
X25924580D01*
G01X26049260Y-9143600D02*
Y-9016600D01*
X26123240Y-9143600D01*
Y-9016600D01*
G01X26225400Y-9080100D02*
X26257570D01*
Y-9118200D01*
X26247920Y-9130900D01*
X26236660Y-9139370D01*
X26220580Y-9143600D01*
X26204490Y-9139370D01*
X26193230Y-9130900D01*
X26183580Y-9118200D01*
X26177150Y-9103380D01*
X26173930Y-9086450D01*
Y-9071630D01*
X26177150Y-9058940D01*
X26183580Y-9044110D01*
X26193230Y-9031420D01*
X26202880Y-9022950D01*
X26215750Y-9016600D01*
X26227010D01*
X26239870Y-9020830D01*
X26249530Y-9029300D01*
G01X26325950Y-9016600D02*
X26364550D01*
G01X26345250D02*
Y-9143600D01*
G01X26325950D02*
X26364550D01*
G01X26437760D02*
Y-9016600D01*
X26511740Y-9143600D01*
Y-9016600D01*
G01X26636420Y-9143600D02*
X26572080D01*
Y-9016600D01*
X26636420D01*
G01X26610680Y-9077980D02*
X26572080D01*
G01X26765920Y-9143600D02*
X26701580D01*
Y-9016600D01*
X26765920D01*
G01X26740180Y-9077980D02*
X26701580D01*
G01X26831080Y-9143600D02*
Y-9016600D01*
X26871290D01*
X26884160Y-9022950D01*
X26892200Y-9031420D01*
X26895420Y-9048350D01*
X26892200Y-9065280D01*
X26882550Y-9075870D01*
X26871290Y-9082220D01*
X26831080D01*
G01X26871290D02*
X26895420Y-9143600D01*
G54D14*
G01X-13049050Y-12090000D02*
X-12849010Y-11455000D01*
X-12648950Y-12090000D01*
G01X-12720980Y-11867760D02*
X-12977040D01*
G01X-12341000Y-6375000D02*
X-13103000D01*
G01X-12784990Y-956330D02*
X-12752980Y-924580D01*
X-12728980Y-871680D01*
X-12712960Y-797570D01*
X-12728980Y-734090D01*
X-12760980Y-691760D01*
X-12816990Y-660000D01*
X-13033040D01*
Y-1295000D01*
X-12768980D01*
X-12712960Y-1252680D01*
X-12680960Y-1189170D01*
X-12664960Y-1115080D01*
X-12680960Y-1041020D01*
X-12728980Y-977510D01*
X-12784990Y-956330D01*
X-13033040D01*
G01X-13280800Y4407300D02*
Y4432700D01*
X-12772800D01*
Y4585100D01*
X-12455300Y4420000D01*
X-12772800Y4254900D01*
Y4407300D01*
X-13280800D01*
G01X-13306200Y4381900D02*
Y4458100D01*
X-12798200D01*
Y4623200D01*
X-12417200Y4420000D01*
X-12798200Y4216800D01*
Y4381900D01*
X-13306200D01*
G01X-13331600Y4356500D02*
Y4483500D01*
X-12823600D01*
Y4661300D01*
X-12379100Y4420000D01*
X-12823600Y4178700D01*
Y4356500D01*
X-13331600D01*
G01X-13357000Y4331100D02*
Y4508900D01*
X-12849000D01*
Y4699400D01*
X-12341000Y4420000D01*
X-12849000Y4140600D01*
Y4331100D01*
X-13357000D01*
G01X-12672960Y10082080D02*
X-12720980Y10113840D01*
X-12776980Y10135000D01*
X-12840990D01*
X-12913020Y10103240D01*
X-12969020Y10050330D01*
X-13009040Y9986830D01*
X-13041050Y9881000D01*
X-13049050Y9785750D01*
X-13033040Y9690500D01*
X-13009040Y9626990D01*
X-12961020Y9563490D01*
X-12905010Y9521160D01*
X-12849010Y9500000D01*
X-12792990D01*
X-12736980Y9521160D01*
X-12688960Y9552910D01*
X-12648950Y9595230D01*
G01X-13103000Y15215000D02*
X-12341000D01*
G01X-13025040Y20295000D02*
Y20930000D01*
X-12865010D01*
X-12800990Y20898240D01*
X-12752980Y20855910D01*
X-12712960Y20792430D01*
X-12680960Y20718320D01*
X-12672960Y20612490D01*
X-12680960Y20506660D01*
X-12712960Y20432570D01*
X-12752980Y20369070D01*
X-12800990Y20326740D01*
X-12865010Y20295000D01*
X-13025040D01*
G01X-12658500Y4420000D02*
X-12633100D01*
G01X-12671200Y4394600D02*
Y4445400D01*
X-12607700Y4420000D01*
X-12671200Y4394600D01*
G01X-12696600Y4369200D02*
Y4470800D01*
X-12569600Y4420000D01*
X-12696600Y4369200D01*
G01X-12722000Y4331100D02*
Y4508900D01*
X-12531500Y4420000D01*
X-12722000Y4331100D01*
G01X-12747400Y4293000D02*
Y4547000D01*
X-12493400Y4420000D01*
X-12747400Y4293000D01*
G01X-12341000Y24740000D02*
Y-15900000D01*
X19536000D01*
G01Y24740000D02*
X-12341000D01*
G01X-6529980Y-16789000D02*
Y-16154000D01*
X-6826050Y-16609080D01*
X-6425950D01*
G01X-6529980Y24994000D02*
Y25629000D01*
X-6826050Y25173920D01*
X-6425950D01*
G01X-2831000Y-480000D02*
X-2981000D01*
G01X-2766410Y-615250D02*
X-2742790Y-652300D01*
X-2711300Y-673460D01*
X-2675860Y-678750D01*
X-2644370Y-673460D01*
X-2612870Y-647010D01*
X-2593190Y-615250D01*
X-2589260Y-583500D01*
X-2597130Y-546470D01*
X-2624690Y-520000D01*
X-2652250Y-509410D01*
X-2687680D01*
G01X-2652250D02*
X-2628620Y-493540D01*
X-2608940Y-467090D01*
X-2601070Y-435340D01*
X-2608940Y-403580D01*
X-2628620Y-377130D01*
X-2664050Y-361250D01*
X-2699480Y-366540D01*
X-2734910Y-387710D01*
G01X-2364900Y-689330D02*
X-2372780Y-684040D01*
Y-673460D01*
X-2364900Y-668170D01*
X-2357020Y-673460D01*
Y-684040D01*
X-2364900Y-689330D01*
G01X-2050000Y-678750D02*
X-2022450Y-673460D01*
X-1990950Y-657590D01*
X-1971270Y-631140D01*
X-1963390Y-594080D01*
X-1971270Y-557050D01*
X-1994890Y-525300D01*
X-2030320Y-509410D01*
X-2069680D01*
X-2093300Y-498830D01*
X-2112990Y-472380D01*
X-2120860Y-435340D01*
X-2109050Y-398290D01*
X-2081500Y-371830D01*
X-2050000Y-361250D01*
X-2018510Y-371830D01*
X-1990950Y-398290D01*
X-1979140Y-435340D01*
X-1987020Y-472380D01*
X-2006700Y-498830D01*
X-2030320Y-509410D01*
X-2069680D01*
X-2105110Y-525300D01*
X-2128730Y-557050D01*
X-2136610Y-594080D01*
X-2128730Y-631140D01*
X-2109050Y-657590D01*
X-2077550Y-673460D01*
X-2050000Y-678750D01*
G01X-1735100Y-361250D02*
X-1766600Y-371830D01*
X-1790210Y-398290D01*
X-1805960Y-430040D01*
X-1817770Y-472380D01*
X-1821710Y-520000D01*
X-1817770Y-567630D01*
X-1805960Y-609960D01*
X-1790210Y-641720D01*
X-1766600Y-668170D01*
X-1735100Y-678750D01*
X-1703610Y-668170D01*
X-1679990Y-641720D01*
X-1664240Y-609960D01*
X-1652430Y-567630D01*
X-1648490Y-520000D01*
X-1652430Y-472380D01*
X-1664240Y-430040D01*
X-1679990Y-398290D01*
X-1703610Y-371830D01*
X-1735100Y-361250D01*
G01X-1420200D02*
X-1451700Y-371830D01*
X-1475310Y-398290D01*
X-1491060Y-430040D01*
X-1502870Y-472380D01*
X-1506810Y-520000D01*
X-1502870Y-567630D01*
X-1491060Y-609960D01*
X-1475310Y-641720D01*
X-1451700Y-668170D01*
X-1420200Y-678750D01*
X-1388710Y-668170D01*
X-1365090Y-641720D01*
X-1349340Y-609960D01*
X-1337530Y-567630D01*
X-1333590Y-520000D01*
X-1337530Y-472380D01*
X-1349340Y-430040D01*
X-1365090Y-398290D01*
X-1388710Y-371830D01*
X-1420200Y-361250D01*
G01X-2837250Y1491250D02*
Y1808750D01*
X-2884490Y1745250D01*
G01Y1491250D02*
X-2790020D01*
G01X-2597150Y1623530D02*
X-2569590Y1660590D01*
X-2545970Y1681750D01*
X-2514470Y1692330D01*
X-2486920Y1681750D01*
X-2467240Y1660590D01*
X-2451490Y1628830D01*
X-2447550Y1591790D01*
X-2451490Y1560040D01*
X-2467240Y1528280D01*
X-2490860Y1501830D01*
X-2518410Y1491250D01*
X-2549900Y1501830D01*
X-2577460Y1533570D01*
X-2593210Y1581210D01*
X-2597150Y1634120D01*
X-2589280Y1702910D01*
X-2577460Y1739960D01*
X-2557780Y1777000D01*
X-2530230Y1803460D01*
X-2502670Y1808750D01*
X-2475110Y1798170D01*
X-2455420Y1771710D01*
G01X-2207450Y1480670D02*
X-2215330Y1485960D01*
Y1496540D01*
X-2207450Y1501830D01*
X-2199570Y1496540D01*
Y1485960D01*
X-2207450Y1480670D01*
G01X-1979160Y1538860D02*
X-1955540Y1512410D01*
X-1927980Y1496540D01*
X-1892550Y1491250D01*
X-1857120Y1501830D01*
X-1829570Y1522990D01*
X-1809880Y1560040D01*
X-1805940Y1602370D01*
X-1813820Y1644700D01*
X-1833500Y1671170D01*
X-1861060Y1692330D01*
X-1888610Y1697620D01*
X-1916170Y1692330D01*
X-1951600Y1671170D01*
X-1939790Y1808750D01*
X-1833500D01*
G01X-1577650D02*
X-1609150Y1798170D01*
X-1632760Y1771710D01*
X-1648510Y1739960D01*
X-1660320Y1697620D01*
X-1664260Y1650000D01*
X-1660320Y1602370D01*
X-1648510Y1560040D01*
X-1632760Y1528280D01*
X-1609150Y1501830D01*
X-1577650Y1491250D01*
X-1546160Y1501830D01*
X-1522540Y1528280D01*
X-1506790Y1560040D01*
X-1494980Y1602370D01*
X-1491040Y1650000D01*
X-1494980Y1697620D01*
X-1506790Y1739960D01*
X-1522540Y1771710D01*
X-1546160Y1798170D01*
X-1577650Y1808750D01*
G01X-1262750D02*
X-1294250Y1798170D01*
X-1317860Y1771710D01*
X-1333610Y1739960D01*
X-1345420Y1697620D01*
X-1349360Y1650000D01*
X-1345420Y1602370D01*
X-1333610Y1560040D01*
X-1317860Y1528280D01*
X-1294250Y1501830D01*
X-1262750Y1491250D01*
X-1231260Y1501830D01*
X-1207640Y1528280D01*
X-1191890Y1560040D01*
X-1180080Y1602370D01*
X-1176140Y1650000D01*
X-1180080Y1697620D01*
X-1191890Y1739960D01*
X-1207640Y1771710D01*
X-1231260Y1798170D01*
X-1262750Y1808750D01*
G01X-1896430Y88710D02*
X-1876750Y157500D01*
G01X-1825570D02*
X-1845250Y88710D01*
G01X-2296430D02*
X-2276750Y157500D01*
G01X-2225570D02*
X-2245250Y88710D01*
G01X-2050000Y158750D02*
X-2081500Y148170D01*
X-2105110Y121710D01*
X-2120860Y89960D01*
X-2132670Y47620D01*
X-2136610Y0D01*
X-2132670Y-47630D01*
X-2120860Y-89960D01*
X-2105110Y-121720D01*
X-2081500Y-148170D01*
X-2050000Y-158750D01*
X-2018510Y-148170D01*
X-1994890Y-121720D01*
X-1979140Y-89960D01*
X-1967330Y-47630D01*
X-1963390Y0D01*
X-1967330Y47620D01*
X-1979140Y89960D01*
X-1994890Y121710D01*
X-2018510Y148170D01*
X-2050000Y158750D01*
G01X-127000Y0D02*
X-1693780D01*
G01X-581000Y-3080000D02*
Y-2930000D01*
G01X-514750Y-2866410D02*
X-477700Y-2842790D01*
X-456540Y-2811300D01*
X-451250Y-2775860D01*
X-456540Y-2744370D01*
X-482990Y-2712870D01*
X-514750Y-2693190D01*
X-546500Y-2689260D01*
X-583530Y-2697130D01*
X-610000Y-2724690D01*
X-620590Y-2752250D01*
Y-2787680D01*
G01Y-2752250D02*
X-636460Y-2728620D01*
X-662910Y-2708940D01*
X-694660Y-2701070D01*
X-726420Y-2708940D01*
X-752870Y-2728620D01*
X-768750Y-2764050D01*
X-763460Y-2799480D01*
X-742290Y-2834910D01*
G01X-440670Y-2464900D02*
X-445960Y-2472780D01*
X-456540D01*
X-461830Y-2464900D01*
X-456540Y-2457020D01*
X-445960D01*
X-440670Y-2464900D01*
G01X-451250Y-2150000D02*
X-456540Y-2122450D01*
X-472410Y-2090950D01*
X-498860Y-2071270D01*
X-535920Y-2063390D01*
X-572950Y-2071270D01*
X-604700Y-2094890D01*
X-620590Y-2130320D01*
Y-2169680D01*
X-631170Y-2193300D01*
X-657620Y-2212990D01*
X-694660Y-2220860D01*
X-731710Y-2209050D01*
X-758170Y-2181500D01*
X-768750Y-2150000D01*
X-758170Y-2118510D01*
X-731710Y-2090950D01*
X-694660Y-2079140D01*
X-657620Y-2087020D01*
X-631170Y-2106700D01*
X-620590Y-2130320D01*
Y-2169680D01*
X-604700Y-2205110D01*
X-572950Y-2228730D01*
X-535920Y-2236610D01*
X-498860Y-2228730D01*
X-472410Y-2209050D01*
X-456540Y-2177550D01*
X-451250Y-2150000D01*
G01Y-1835100D02*
X-768750D01*
X-705250Y-1882340D01*
G01X-451250D02*
Y-1787870D01*
G01X-768750Y-1520200D02*
X-758170Y-1551700D01*
X-731710Y-1575310D01*
X-699960Y-1591060D01*
X-657620Y-1602870D01*
X-610000Y-1606810D01*
X-562370Y-1602870D01*
X-520040Y-1591060D01*
X-488280Y-1575310D01*
X-461830Y-1551700D01*
X-451250Y-1520200D01*
X-461830Y-1488710D01*
X-488280Y-1465090D01*
X-520040Y-1449340D01*
X-562370Y-1437530D01*
X-610000Y-1433590D01*
X-657620Y-1437530D01*
X-699960Y-1449340D01*
X-731710Y-1465090D01*
X-758170Y-1488710D01*
X-768750Y-1520200D01*
G01X-381000Y-507000D02*
Y-640000D01*
X-640000Y-930000D01*
X-634250Y-1163980D01*
G01X-508000Y-380000D02*
X-740000D01*
X-940000Y-520000D01*
X-1063980D01*
G01X-508000Y1650000D02*
X-906530D01*
G01X-89710Y-2355430D02*
X-158500Y-2335750D01*
G01Y-2284570D02*
X-89710Y-2304250D01*
G01X-158750Y-2150000D02*
X-148170Y-2181500D01*
X-121710Y-2205110D01*
X-89960Y-2220860D01*
X-47620Y-2232670D01*
X0Y-2236610D01*
X47630Y-2232670D01*
X89960Y-2220860D01*
X121720Y-2205110D01*
X148170Y-2181500D01*
X158750Y-2150000D01*
X148170Y-2118510D01*
X121720Y-2094890D01*
X89960Y-2079140D01*
X47630Y-2067330D01*
X0Y-2063390D01*
X-47620Y-2067330D01*
X-89960Y-2079140D01*
X-121710Y-2094890D01*
X-148170Y-2118510D01*
X-158750Y-2150000D01*
G01X-89710Y-2005430D02*
X-158500Y-1985750D01*
G01Y-1934570D02*
X-89710Y-1954250D01*
G01X0Y-127000D02*
Y-1793780D01*
G01X-381000Y1650000D02*
Y-380000D01*
X4127000D01*
Y1650000D01*
X-381000D01*
G01Y1777000D02*
Y2897000D01*
G01X825600Y2770000D02*
X-381000D01*
G01X359000Y-15900000D02*
Y-16662000D01*
G01Y24740000D02*
Y25502000D01*
G01X1319520Y2014170D02*
X1280150Y2067080D01*
X1260470Y2120000D01*
Y2331660D01*
X1280150Y2384580D01*
X1319520Y2437500D01*
G01X1575370Y2120000D02*
Y2437500D01*
X1673780D01*
X1705280Y2421620D01*
X1724960Y2400460D01*
X1732830Y2358120D01*
X1724960Y2315790D01*
X1701340Y2289340D01*
X1673780Y2273450D01*
X1575370D01*
G01X1673780D02*
X1732830Y2120000D01*
G01X2047730D02*
X1890270D01*
Y2437500D01*
X2047730D01*
G01X1984750Y2284050D02*
X1890270D01*
G01X2209100Y2120000D02*
Y2437500D01*
X2358700D01*
G01X2303580Y2284050D02*
X2209100D01*
G01X2618480Y2014170D02*
X2657850Y2067080D01*
X2677530Y2120000D01*
Y2331660D01*
X2657850Y2384580D01*
X2618480Y2437500D01*
G01X1228940Y2611200D02*
Y2928700D01*
X1083280Y2701160D01*
X1280120D01*
G01X1409990Y2658810D02*
X1433610Y2632360D01*
X1461170Y2616490D01*
X1496600Y2611200D01*
X1532030Y2621780D01*
X1559580Y2642940D01*
X1579270Y2679990D01*
X1583210Y2722320D01*
X1575330Y2764650D01*
X1555650Y2791120D01*
X1528090Y2812280D01*
X1500540Y2817570D01*
X1472980Y2812280D01*
X1437550Y2791120D01*
X1449360Y2928700D01*
X1555650D01*
G01X1811500Y2600620D02*
X1803620Y2605910D01*
Y2616490D01*
X1811500Y2621780D01*
X1819380Y2616490D01*
Y2605910D01*
X1811500Y2600620D01*
G01X2126400Y2928700D02*
X2094900Y2918120D01*
X2071290Y2891660D01*
X2055540Y2859910D01*
X2043730Y2817570D01*
X2039790Y2769950D01*
X2043730Y2722320D01*
X2055540Y2679990D01*
X2071290Y2648230D01*
X2094900Y2621780D01*
X2126400Y2611200D01*
X2157890Y2621780D01*
X2181510Y2648230D01*
X2197260Y2679990D01*
X2209070Y2722320D01*
X2213010Y2769950D01*
X2209070Y2817570D01*
X2197260Y2859910D01*
X2181510Y2891660D01*
X2157890Y2918120D01*
X2126400Y2928700D01*
G01X2441300Y2611200D02*
X2468850Y2616490D01*
X2500350Y2632360D01*
X2520030Y2658810D01*
X2527910Y2695870D01*
X2520030Y2732900D01*
X2496410Y2764650D01*
X2460980Y2780540D01*
X2421620D01*
X2398000Y2791120D01*
X2378310Y2817570D01*
X2370440Y2854610D01*
X2382250Y2891660D01*
X2409800Y2918120D01*
X2441300Y2928700D01*
X2472790Y2918120D01*
X2500350Y2891660D01*
X2512160Y2854610D01*
X2504280Y2817570D01*
X2484600Y2791120D01*
X2460980Y2780540D01*
X2421620D01*
X2386190Y2764650D01*
X2362570Y2732900D01*
X2354690Y2695870D01*
X2362570Y2658810D01*
X2382250Y2632360D01*
X2413750Y2616490D01*
X2441300Y2611200D01*
G01X2756200Y2928700D02*
X2724700Y2918120D01*
X2701090Y2891660D01*
X2685340Y2859910D01*
X2673530Y2817570D01*
X2669590Y2769950D01*
X2673530Y2722320D01*
X2685340Y2679990D01*
X2701090Y2648230D01*
X2724700Y2621780D01*
X2756200Y2611200D01*
X2787690Y2621780D01*
X2811310Y2648230D01*
X2827060Y2679990D01*
X2838870Y2722320D01*
X2842810Y2769950D01*
X2838870Y2817570D01*
X2827060Y2859910D01*
X2811310Y2891660D01*
X2787690Y2918120D01*
X2756200Y2928700D01*
G01X3112400Y2770000D02*
X4127000D01*
G01X4285750Y-2890010D02*
X3968250D01*
X4195790Y-3035670D01*
Y-2838830D01*
G01X4285750Y-2622350D02*
X3968250D01*
X4031750Y-2669590D01*
G01X4285750D02*
Y-2575120D01*
G01X4296330Y-2307450D02*
X4291040Y-2315330D01*
X4280460D01*
X4275170Y-2307450D01*
X4280460Y-2299570D01*
X4291040D01*
X4296330Y-2307450D01*
G01X4021170Y-2067350D02*
X3989420Y-2043730D01*
X3973540Y-2016170D01*
X3968250Y-1984670D01*
X3978830Y-1945310D01*
X4005290Y-1917750D01*
X4037040Y-1909880D01*
X4068800Y-1913820D01*
X4095250Y-1929570D01*
X4148170Y-2008300D01*
X4185210Y-2043730D01*
X4238140Y-2067350D01*
X4285750Y-2075220D01*
Y-1909880D01*
G01Y-1685530D02*
X4216960Y-1677650D01*
X4158760Y-1665840D01*
X4105830Y-1650100D01*
X4047630Y-1630410D01*
X3968250Y-1598920D01*
Y-1756380D01*
G01Y-1362750D02*
X3978830Y-1394250D01*
X4005290Y-1417860D01*
X4037040Y-1433610D01*
X4079380Y-1445420D01*
X4127000Y-1449360D01*
X4174630Y-1445420D01*
X4216960Y-1433610D01*
X4248720Y-1417860D01*
X4275170Y-1394250D01*
X4285750Y-1362750D01*
X4275170Y-1331260D01*
X4248720Y-1307640D01*
X4216960Y-1291890D01*
X4174630Y-1280080D01*
X4127000Y-1276140D01*
X4079380Y-1280080D01*
X4037040Y-1291890D01*
X4005290Y-1307640D01*
X3978830Y-1331260D01*
X3968250Y-1362750D01*
G01X4127000Y-507000D02*
Y-1006530D01*
G01X4254000Y-380000D02*
X4846000D01*
G01X4127000Y1777000D02*
Y2897000D01*
G01X4254000Y1650000D02*
X4846000D01*
G01X4719000Y-1142000D02*
Y-380000D01*
G01X4613220Y-192100D02*
X4581470Y-168480D01*
X4565590Y-140920D01*
X4560300Y-109420D01*
X4570880Y-70060D01*
X4597340Y-42500D01*
X4629090Y-34630D01*
X4660850Y-38570D01*
X4687300Y-54320D01*
X4740220Y-133050D01*
X4777260Y-168480D01*
X4830190Y-192100D01*
X4877800Y-199970D01*
Y-34630D01*
G01X4560300Y197600D02*
X4570880Y166100D01*
X4597340Y142490D01*
X4629090Y126740D01*
X4671430Y114930D01*
X4719050Y110990D01*
X4766680Y114930D01*
X4809010Y126740D01*
X4840770Y142490D01*
X4867220Y166100D01*
X4877800Y197600D01*
X4867220Y229090D01*
X4840770Y252710D01*
X4809010Y268460D01*
X4766680Y280270D01*
X4719050Y284210D01*
X4671430Y280270D01*
X4629090Y268460D01*
X4597340Y252710D01*
X4570880Y229090D01*
X4560300Y197600D01*
G01X4888380Y512500D02*
X4883090Y504620D01*
X4872510D01*
X4867220Y512500D01*
X4872510Y520380D01*
X4883090D01*
X4888380Y512500D01*
G01X4814300Y740790D02*
X4851350Y764410D01*
X4872510Y795900D01*
X4877800Y831340D01*
X4872510Y862830D01*
X4846060Y894330D01*
X4814300Y914010D01*
X4782550Y917940D01*
X4745520Y910070D01*
X4719050Y882510D01*
X4708460Y854950D01*
Y819520D01*
G01Y854950D02*
X4692590Y878580D01*
X4666140Y898260D01*
X4634390Y906130D01*
X4602630Y898260D01*
X4576180Y878580D01*
X4560300Y843150D01*
X4565590Y807720D01*
X4586760Y772290D01*
G01X4560300Y1142300D02*
X4570880Y1110800D01*
X4597340Y1087190D01*
X4629090Y1071440D01*
X4671430Y1059630D01*
X4719050Y1055690D01*
X4766680Y1059630D01*
X4809010Y1071440D01*
X4840770Y1087190D01*
X4867220Y1110800D01*
X4877800Y1142300D01*
X4867220Y1173790D01*
X4840770Y1197410D01*
X4809010Y1213160D01*
X4766680Y1224970D01*
X4719050Y1228910D01*
X4671430Y1224970D01*
X4629090Y1213160D01*
X4597340Y1197410D01*
X4570880Y1173790D01*
X4560300Y1142300D01*
G01Y1457200D02*
X4570880Y1425700D01*
X4597340Y1402090D01*
X4629090Y1386340D01*
X4671430Y1374530D01*
X4719050Y1370590D01*
X4766680Y1374530D01*
X4809010Y1386340D01*
X4840770Y1402090D01*
X4867220Y1425700D01*
X4877800Y1457200D01*
X4867220Y1488690D01*
X4840770Y1512310D01*
X4809010Y1528060D01*
X4766680Y1539870D01*
X4719050Y1543810D01*
X4671430Y1539870D01*
X4629090Y1528060D01*
X4597340Y1512310D01*
X4570880Y1488690D01*
X4560300Y1457200D01*
G01X4719000Y2412000D02*
Y1650000D01*
G01X5474830Y70520D02*
X5421920Y31150D01*
X5369000Y11470D01*
X5157340D01*
X5104420Y31150D01*
X5051500Y70520D01*
G01X5369000Y326370D02*
X5051500D01*
Y424780D01*
X5067380Y456280D01*
X5088540Y475960D01*
X5130880Y483830D01*
X5173210Y475960D01*
X5199660Y452340D01*
X5215550Y424780D01*
Y326370D01*
G01Y424780D02*
X5369000Y483830D01*
G01Y798730D02*
Y641270D01*
X5051500D01*
Y798730D01*
G01X5204950Y735750D02*
Y641270D01*
G01X5369000Y960100D02*
X5051500D01*
Y1109700D01*
G01X5204950Y1054580D02*
Y960100D01*
G01X5474830Y1369480D02*
X5421920Y1408850D01*
X5369000Y1428530D01*
X5157340D01*
X5104420Y1408850D01*
X5051500Y1369480D01*
G01X7167960Y-16662010D02*
X7215960Y-16736090D01*
X7279980Y-16778420D01*
X7352010Y-16789000D01*
X7416020Y-16778420D01*
X7480040Y-16725510D01*
X7520040Y-16662010D01*
X7528040Y-16598500D01*
X7512040Y-16524430D01*
X7456020Y-16471510D01*
X7400010Y-16450330D01*
X7327990D01*
G01X7400010D02*
X7448020Y-16418580D01*
X7488040Y-16365680D01*
X7504040Y-16302170D01*
X7488040Y-16238670D01*
X7448020Y-16185760D01*
X7376010Y-16154000D01*
X7303990Y-16164580D01*
X7231980Y-16206920D01*
G01X7167960Y25120990D02*
X7215960Y25046910D01*
X7279980Y25004580D01*
X7352010Y24994000D01*
X7416020Y25004580D01*
X7480040Y25057490D01*
X7520040Y25120990D01*
X7528040Y25184500D01*
X7512040Y25258570D01*
X7456020Y25311490D01*
X7400010Y25332670D01*
X7327990D01*
G01X7400010D02*
X7448020Y25364420D01*
X7488040Y25417320D01*
X7504040Y25480830D01*
X7488040Y25544330D01*
X7448020Y25597240D01*
X7376010Y25629000D01*
X7303990Y25618420D01*
X7231980Y25576080D01*
G01X14417900Y-16916000D02*
X14240100D01*
Y-16408000D01*
X14049600D01*
X14329000Y-15900000D01*
X14608400Y-16408000D01*
X14417900D01*
Y-16916000D01*
G01X14392500Y-16890600D02*
X14265500D01*
Y-16382600D01*
X14087700D01*
X14329000Y-15938100D01*
X14570300Y-16382600D01*
X14392500D01*
Y-16890600D01*
G01X14367100Y-16865200D02*
X14290900D01*
Y-16357200D01*
X14125800D01*
X14329000Y-15976200D01*
X14532200Y-16357200D01*
X14367100D01*
Y-16865200D01*
G01X14341700Y-16839800D02*
X14316300D01*
Y-16331800D01*
X14163900D01*
X14329000Y-16014300D01*
X14494100Y-16331800D01*
X14341700D01*
Y-16839800D01*
G01X14329000Y-16217500D02*
Y-16192100D01*
G01X14456000Y-16306400D02*
X14202000D01*
X14329000Y-16052400D01*
X14456000Y-16306400D01*
G01X14417900Y-16281000D02*
X14240100D01*
X14329000Y-16090500D01*
X14417900Y-16281000D01*
G01X14379800Y-16255600D02*
X14278200D01*
X14329000Y-16128600D01*
X14379800Y-16255600D01*
G01X14354400Y-16230200D02*
X14303600D01*
X14329000Y-16166700D01*
X14354400Y-16230200D01*
G01X14329000Y25057500D02*
Y25032100D01*
G01X14303600Y25070200D02*
X14354400D01*
X14329000Y25006700D01*
X14303600Y25070200D01*
G01X14278200Y25095600D02*
X14379800D01*
X14329000Y24968600D01*
X14278200Y25095600D01*
G01X14240100Y25121000D02*
X14417900D01*
X14329000Y24930500D01*
X14240100Y25121000D01*
G01X14202000Y25146400D02*
X14456000D01*
X14329000Y24892400D01*
X14202000Y25146400D01*
G01X14316300Y25679800D02*
X14341700D01*
Y25171800D01*
X14494100D01*
X14329000Y24854300D01*
X14163900Y25171800D01*
X14316300D01*
Y25679800D01*
G01X14290900Y25705200D02*
X14367100D01*
Y25197200D01*
X14532200D01*
X14329000Y24816200D01*
X14125800Y25197200D01*
X14290900D01*
Y25705200D01*
G01X14265500Y25730600D02*
X14392500D01*
Y25222600D01*
X14570300D01*
X14329000Y24778100D01*
X14087700Y25222600D01*
X14265500D01*
Y25730600D01*
G01X14240100Y25756000D02*
X14417900D01*
Y25248000D01*
X14608400D01*
X14329000Y24740000D01*
X14049600Y25248000D01*
X14240100D01*
Y25756000D01*
G01X14725000Y-4017000D02*
Y-207000D01*
X31178400D01*
Y-4017000D01*
X14725000D01*
G01Y-3382000D02*
X31178400D01*
G01X14725000Y-2747000D02*
X31178400D01*
G01X15004450Y-1953250D02*
Y-1635750D01*
X15154050D01*
G01X15098930Y-1789200D02*
X15004450D01*
G01X15346910Y-1635750D02*
X15441380D01*
G01X15394150D02*
Y-1953250D01*
G01X15346910D02*
X15441380D01*
G01X15732670Y-1794500D02*
X15811410D01*
Y-1889750D01*
X15787780Y-1921510D01*
X15760230Y-1942670D01*
X15720860Y-1953250D01*
X15681500Y-1942670D01*
X15653940Y-1921510D01*
X15630320Y-1889750D01*
X15614560Y-1852710D01*
X15606690Y-1810380D01*
Y-1773330D01*
X15614560Y-1741590D01*
X15630320Y-1704540D01*
X15653940Y-1672790D01*
X15677550Y-1651630D01*
X15709050Y-1635750D01*
X15736600D01*
X15768100Y-1646330D01*
X15791720Y-1667500D01*
G01X15937340Y-1635750D02*
Y-1863290D01*
X15953090Y-1910930D01*
X15984580Y-1942670D01*
X16023950Y-1953250D01*
X16063320Y-1942670D01*
X16094810Y-1910930D01*
X16110560Y-1863290D01*
Y-1635750D01*
G01X16260120Y-1953250D02*
Y-1635750D01*
X16358530D01*
X16390030Y-1651630D01*
X16409710Y-1672790D01*
X16417580Y-1715130D01*
X16409710Y-1757460D01*
X16386090Y-1783910D01*
X16358530Y-1799800D01*
X16260120D01*
G01X16358530D02*
X16417580Y-1953250D01*
G01X16732480D02*
X16575020D01*
Y-1635750D01*
X16732480D01*
G01X16669500Y-1789200D02*
X16575020D01*
G01X14725000Y-2112000D02*
X31178400D01*
G01X14725000Y-1477000D02*
X31178400D01*
G01X14725000Y-842000D02*
X31178400D01*
G01X14725000Y-451000D02*
Y-197000D01*
X14979000D01*
G01X17008000Y-1477000D02*
Y-4017000D01*
G01X18306950Y-3858250D02*
Y-3540750D01*
X18259710Y-3604250D01*
G01Y-3858250D02*
X18354180D01*
G01X18621850Y-3868830D02*
X18613970Y-3863540D01*
Y-3852960D01*
X18621850Y-3847670D01*
X18629730Y-3852960D01*
Y-3863540D01*
X18621850Y-3868830D01*
G01X18936750Y-3858250D02*
Y-3540750D01*
X18889510Y-3604250D01*
G01Y-3858250D02*
X18983980D01*
G01X19298890D02*
Y-3540750D01*
X19153230Y-3768290D01*
X19350070D01*
G01X19479940Y-3794750D02*
X19503560Y-3831800D01*
X19535050Y-3852960D01*
X19570490Y-3858250D01*
X19601980Y-3852960D01*
X19633480Y-3826510D01*
X19653160Y-3794750D01*
X19657090Y-3763000D01*
X19649220Y-3725970D01*
X19621660Y-3699500D01*
X19594100Y-3688910D01*
X19558670D01*
G01X19594100D02*
X19617730Y-3673040D01*
X19637410Y-3646590D01*
X19645280Y-3614840D01*
X19637410Y-3583080D01*
X19617730Y-3556630D01*
X19582300Y-3540750D01*
X19546870Y-3546040D01*
X19511440Y-3567210D01*
G01X18306950Y-2905750D02*
X18275450Y-2916330D01*
X18251840Y-2942790D01*
X18236090Y-2974540D01*
X18224280Y-3016880D01*
X18220340Y-3064500D01*
X18224280Y-3112130D01*
X18236090Y-3154460D01*
X18251840Y-3186220D01*
X18275450Y-3212670D01*
X18306950Y-3223250D01*
X18338440Y-3212670D01*
X18362060Y-3186220D01*
X18377810Y-3154460D01*
X18389620Y-3112130D01*
X18393560Y-3064500D01*
X18389620Y-3016880D01*
X18377810Y-2974540D01*
X18362060Y-2942790D01*
X18338440Y-2916330D01*
X18306950Y-2905750D01*
G01X18621850Y-3233830D02*
X18613970Y-3228540D01*
Y-3217960D01*
X18621850Y-3212670D01*
X18629730Y-3217960D01*
Y-3228540D01*
X18621850Y-3233830D01*
G01X18936750Y-3223250D02*
X18964300Y-3217960D01*
X18995800Y-3202090D01*
X19015480Y-3175640D01*
X19023360Y-3138580D01*
X19015480Y-3101550D01*
X18991860Y-3069800D01*
X18956430Y-3053910D01*
X18917070D01*
X18893450Y-3043330D01*
X18873760Y-3016880D01*
X18865890Y-2979840D01*
X18877700Y-2942790D01*
X18905250Y-2916330D01*
X18936750Y-2905750D01*
X18968240Y-2916330D01*
X18995800Y-2942790D01*
X19007610Y-2979840D01*
X18999730Y-3016880D01*
X18980050Y-3043330D01*
X18956430Y-3053910D01*
X18917070D01*
X18881640Y-3069800D01*
X18858020Y-3101550D01*
X18850140Y-3138580D01*
X18858020Y-3175640D01*
X18877700Y-3202090D01*
X18909200Y-3217960D01*
X18936750Y-3223250D01*
G01X19251650D02*
X19279200Y-3217960D01*
X19310700Y-3202090D01*
X19330380Y-3175640D01*
X19338260Y-3138580D01*
X19330380Y-3101550D01*
X19306760Y-3069800D01*
X19271330Y-3053910D01*
X19231970D01*
X19208350Y-3043330D01*
X19188660Y-3016880D01*
X19180790Y-2979840D01*
X19192600Y-2942790D01*
X19220150Y-2916330D01*
X19251650Y-2905750D01*
X19283140Y-2916330D01*
X19310700Y-2942790D01*
X19322510Y-2979840D01*
X19314630Y-3016880D01*
X19294950Y-3043330D01*
X19271330Y-3053910D01*
X19231970D01*
X19196540Y-3069800D01*
X19172920Y-3101550D01*
X19165040Y-3138580D01*
X19172920Y-3175640D01*
X19192600Y-3202090D01*
X19224100Y-3217960D01*
X19251650Y-3223250D01*
G01X19499620Y-3186220D02*
X19527180Y-3212670D01*
X19558670Y-3223250D01*
X19590170Y-3212670D01*
X19617730Y-3180930D01*
X19637410Y-3133290D01*
X19645280Y-3085670D01*
Y-3027460D01*
X19637410Y-2979840D01*
X19617730Y-2937500D01*
X19594100Y-2916330D01*
X19566550Y-2905750D01*
X19535050Y-2916330D01*
X19511440Y-2937500D01*
X19495690Y-2969250D01*
X19487820Y-3011590D01*
X19495690Y-3048620D01*
X19515370Y-3085670D01*
X19539000Y-3106840D01*
X19566550Y-3112130D01*
X19598040Y-3101550D01*
X19621660Y-3075090D01*
X19645280Y-3027460D01*
G01X18306950Y-2270750D02*
X18275450Y-2281330D01*
X18251840Y-2307790D01*
X18236090Y-2339540D01*
X18224280Y-2381880D01*
X18220340Y-2429500D01*
X18224280Y-2477130D01*
X18236090Y-2519460D01*
X18251840Y-2551220D01*
X18275450Y-2577670D01*
X18306950Y-2588250D01*
X18338440Y-2577670D01*
X18362060Y-2551220D01*
X18377810Y-2519460D01*
X18389620Y-2477130D01*
X18393560Y-2429500D01*
X18389620Y-2381880D01*
X18377810Y-2339540D01*
X18362060Y-2307790D01*
X18338440Y-2281330D01*
X18306950Y-2270750D01*
G01X18621850Y-2598830D02*
X18613970Y-2593540D01*
Y-2582960D01*
X18621850Y-2577670D01*
X18629730Y-2582960D01*
Y-2593540D01*
X18621850Y-2598830D01*
G01X18861950Y-2323670D02*
X18885570Y-2291920D01*
X18913130Y-2276040D01*
X18944630Y-2270750D01*
X18983990Y-2281330D01*
X19011550Y-2307790D01*
X19019420Y-2339540D01*
X19015480Y-2371300D01*
X18999730Y-2397750D01*
X18921000Y-2450670D01*
X18885570Y-2487710D01*
X18861950Y-2540640D01*
X18854080Y-2588250D01*
X19019420D01*
G01X19165040Y-2540640D02*
X19188660Y-2567090D01*
X19216220Y-2582960D01*
X19251650Y-2588250D01*
X19287080Y-2577670D01*
X19314630Y-2556510D01*
X19334320Y-2519460D01*
X19338260Y-2477130D01*
X19330380Y-2434800D01*
X19310700Y-2408330D01*
X19283140Y-2387170D01*
X19255590Y-2381880D01*
X19228030Y-2387170D01*
X19192600Y-2408330D01*
X19204410Y-2270750D01*
X19310700D01*
G01X19613790Y-2588250D02*
Y-2270750D01*
X19468130Y-2498290D01*
X19664970D01*
G01X18381730Y-1910930D02*
X18413220Y-1937380D01*
X18448650Y-1953250D01*
X18480150D01*
X18511640Y-1937380D01*
X18535260Y-1910930D01*
X18547070Y-1873870D01*
X18539200Y-1836840D01*
X18519510Y-1805090D01*
X18484080Y-1783910D01*
X18436850Y-1773330D01*
X18409290Y-1752170D01*
X18397470Y-1715130D01*
X18405350Y-1678080D01*
X18425030Y-1651630D01*
X18452590Y-1635750D01*
X18480150D01*
X18507700Y-1646330D01*
X18531330Y-1672790D01*
G01X18732060Y-1635750D02*
X18826530D01*
G01X18779300D02*
Y-1953250D01*
G01X18732060D02*
X18826530D01*
G01X19019400Y-1635750D02*
X19169000D01*
X19019400Y-1953250D01*
X19169000D01*
G01X19487830D02*
X19330370D01*
Y-1635750D01*
X19487830D01*
G01X19424850Y-1789200D02*
X19330370D01*
G01X18602130Y-1318250D02*
X18700550Y-1000750D01*
X18798970Y-1318250D01*
G01X18763530Y-1207130D02*
X18637560D01*
G01X18936720Y-1000750D02*
Y-1318250D01*
X19094180D01*
G01X19251620Y-1000750D02*
Y-1318250D01*
X19409080D01*
G01X19873540Y-1000750D02*
Y-1228290D01*
X19889290Y-1275930D01*
X19920780Y-1307670D01*
X19960150Y-1318250D01*
X19999520Y-1307670D01*
X20031010Y-1275930D01*
X20046760Y-1228290D01*
Y-1000750D01*
G01X20184510Y-1318250D02*
Y-1000750D01*
X20365590Y-1318250D01*
Y-1000750D01*
G01X20542710D02*
X20637180D01*
G01X20589950D02*
Y-1318250D01*
G01X20542710D02*
X20637180D01*
G01X20904850Y-1000750D02*
Y-1318250D01*
G01X20814310Y-1000750D02*
X20995390D01*
G01X21137080Y-1275930D02*
X21168570Y-1302380D01*
X21204000Y-1318250D01*
X21235500D01*
X21266990Y-1302380D01*
X21290610Y-1275930D01*
X21302420Y-1238870D01*
X21294550Y-1201840D01*
X21274860Y-1170090D01*
X21239430Y-1148910D01*
X21192200Y-1138330D01*
X21164640Y-1117170D01*
X21152820Y-1080130D01*
X21160700Y-1043080D01*
X21180380Y-1016630D01*
X21207940Y-1000750D01*
X21235500D01*
X21263050Y-1011330D01*
X21286680Y-1037790D01*
G01X21751130Y-1318250D02*
X21849550Y-1000750D01*
X21947970Y-1318250D01*
G01X21912530Y-1207130D02*
X21786560D01*
G01X22085720Y-1318250D02*
Y-1000750D01*
X22184130D01*
X22215630Y-1016630D01*
X22235310Y-1037790D01*
X22243180Y-1080130D01*
X22235310Y-1122460D01*
X22211690Y-1148910D01*
X22184130Y-1164800D01*
X22085720D01*
G01X22184130D02*
X22243180Y-1318250D01*
G01X22558080D02*
X22400620D01*
Y-1000750D01*
X22558080D01*
G01X22495100Y-1154200D02*
X22400620D01*
G01X23061910Y-1000750D02*
X23156380D01*
G01X23109150D02*
Y-1318250D01*
G01X23061910D02*
X23156380D01*
G01X23333510D02*
Y-1000750D01*
X23514590Y-1318250D01*
Y-1000750D01*
G01X23951490Y-1318250D02*
Y-1000750D01*
X24053850Y-1265330D01*
X24156210Y-1000750D01*
Y-1318250D01*
G01X24321510Y-1000750D02*
X24415980D01*
G01X24368750D02*
Y-1318250D01*
G01X24321510D02*
X24415980D01*
G01X24604920Y-1000750D02*
Y-1318250D01*
X24762380D01*
G01X24919820Y-1000750D02*
Y-1318250D01*
X25077280D01*
G01X25266210Y-1000750D02*
X25360680D01*
G01X25313450D02*
Y-1318250D01*
G01X25266210D02*
X25360680D01*
G01X25525990D02*
Y-1000750D01*
X25628350Y-1265330D01*
X25730710Y-1000750D01*
Y-1318250D01*
G01X26021980D02*
X25864520D01*
Y-1000750D01*
X26021980D01*
G01X25959000Y-1154200D02*
X25864520D01*
G01X26258150Y-1000750D02*
Y-1318250D01*
G01X26167610Y-1000750D02*
X26348690D01*
G01X26651780Y-1318250D02*
X26494320D01*
Y-1000750D01*
X26651780D01*
G01X26588800Y-1154200D02*
X26494320D01*
G01X26809220Y-1318250D02*
Y-1000750D01*
X26907630D01*
X26939130Y-1016630D01*
X26958810Y-1037790D01*
X26966680Y-1080130D01*
X26958810Y-1122460D01*
X26935190Y-1148910D01*
X26907630Y-1164800D01*
X26809220D01*
G01X26907630D02*
X26966680Y-1318250D01*
G01X27120180Y-1275930D02*
X27151670Y-1302380D01*
X27187100Y-1318250D01*
X27218600D01*
X27250090Y-1302380D01*
X27273710Y-1275930D01*
X27285520Y-1238870D01*
X27277650Y-1201840D01*
X27257960Y-1170090D01*
X27222530Y-1148910D01*
X27175300Y-1138330D01*
X27147740Y-1117170D01*
X27135920Y-1080130D01*
X27143800Y-1043080D01*
X27163480Y-1016630D01*
X27191040Y-1000750D01*
X27218600D01*
X27246150Y-1011330D01*
X27269780Y-1037790D01*
G01X18928840Y-683250D02*
Y-365750D01*
X19007570D01*
X19039070Y-381630D01*
X19062690Y-402790D01*
X19082380Y-434540D01*
X19098120Y-471590D01*
X19102060Y-524500D01*
X19098120Y-577420D01*
X19082380Y-614460D01*
X19062690Y-646220D01*
X19039070Y-667380D01*
X19007570Y-683250D01*
X18928840D01*
G01X19251620D02*
Y-365750D01*
X19350030D01*
X19381530Y-381630D01*
X19401210Y-402790D01*
X19409080Y-445130D01*
X19401210Y-487460D01*
X19377590Y-513910D01*
X19350030Y-529800D01*
X19251620D01*
G01X19350030D02*
X19409080Y-683250D01*
G01X19598010Y-365750D02*
X19692480D01*
G01X19645250D02*
Y-683250D01*
G01X19598010D02*
X19692480D01*
G01X19881420Y-365750D02*
Y-683250D01*
X20038880D01*
G01X20196320Y-365750D02*
Y-683250D01*
X20353780D01*
G01X20991460Y-392210D02*
X20967830Y-376330D01*
X20940280Y-365750D01*
X20908790D01*
X20873350Y-381630D01*
X20845800Y-408080D01*
X20826120Y-439840D01*
X20810360Y-492750D01*
X20806430Y-540380D01*
X20814310Y-588000D01*
X20826120Y-619750D01*
X20849740Y-651510D01*
X20877300Y-672670D01*
X20904850Y-683250D01*
X20932400D01*
X20959960Y-672670D01*
X20983580Y-656800D01*
X21003270Y-635640D01*
G01X21137080Y-683250D02*
Y-365750D01*
G01X21302420D02*
Y-683250D01*
G01Y-524500D02*
X21137080D01*
G01X21436230Y-683250D02*
X21534650Y-365750D01*
X21633070Y-683250D01*
G01X21597630Y-572130D02*
X21471660D01*
G01X21770820Y-683250D02*
Y-365750D01*
X21869230D01*
X21900730Y-381630D01*
X21920410Y-402790D01*
X21928280Y-445130D01*
X21920410Y-487460D01*
X21896790Y-513910D01*
X21869230Y-529800D01*
X21770820D01*
G01X21869230D02*
X21928280Y-683250D01*
G01X22164450Y-365750D02*
Y-683250D01*
G01X22073910Y-365750D02*
X22254990D01*
G01X22479350Y-693830D02*
X22471470Y-688540D01*
Y-677960D01*
X22479350Y-672670D01*
X22487230Y-677960D01*
Y-688540D01*
X22479350Y-693830D01*
G01Y-550970D02*
X22471470Y-545670D01*
Y-535090D01*
X22479350Y-529800D01*
X22487230Y-535090D01*
Y-545670D01*
X22479350Y-550970D01*
G01X23109150Y-365750D02*
Y-683250D01*
G01X23018610Y-365750D02*
X23199690D01*
G01X23424050Y-683250D02*
X23392550Y-677960D01*
X23365000Y-656800D01*
X23341380Y-625040D01*
X23325630Y-588000D01*
X23317760Y-545670D01*
Y-503330D01*
X23325630Y-461000D01*
X23341380Y-423960D01*
X23365000Y-392210D01*
X23392550Y-371040D01*
X23424050Y-365750D01*
X23455540Y-371040D01*
X23483100Y-392210D01*
X23506720Y-423960D01*
X23522470Y-461000D01*
X23530340Y-503330D01*
Y-545670D01*
X23522470Y-588000D01*
X23506720Y-625040D01*
X23483100Y-656800D01*
X23455540Y-677960D01*
X23424050Y-683250D01*
G01X23660220D02*
Y-365750D01*
X23754700D01*
X23786190Y-381630D01*
X23809810Y-418670D01*
X23817680Y-461000D01*
X23809810Y-503330D01*
X23790130Y-535090D01*
X23754700Y-550970D01*
X23660220D01*
G01X24368750Y-365750D02*
Y-683250D01*
G01X24313640Y-471590D02*
X24423860D01*
G01X24683650Y-683250D02*
X24660030Y-677960D01*
X24636410Y-656800D01*
X24620660Y-619750D01*
X24612790Y-577420D01*
X24620660Y-535090D01*
X24636410Y-498040D01*
X24660030Y-476880D01*
X24683650Y-471590D01*
X24707270Y-476880D01*
X24730890Y-498040D01*
X24746630Y-535090D01*
X24750580Y-577420D01*
X24746630Y-619750D01*
X24730890Y-656800D01*
X24707270Y-677960D01*
X24683650Y-683250D01*
G01X25344940Y-513910D02*
X25360690Y-498040D01*
X25372500Y-471590D01*
X25380380Y-434540D01*
X25372500Y-402790D01*
X25356750Y-381630D01*
X25329200Y-365750D01*
X25222910D01*
Y-683250D01*
X25352820D01*
X25380380Y-662090D01*
X25396120Y-630330D01*
X25403990Y-593290D01*
X25396120Y-556260D01*
X25372500Y-524500D01*
X25344940Y-513910D01*
X25222910D01*
G01X25628350Y-683250D02*
X25596850Y-677960D01*
X25569300Y-656800D01*
X25545680Y-625040D01*
X25529930Y-588000D01*
X25522060Y-545670D01*
Y-503330D01*
X25529930Y-461000D01*
X25545680Y-423960D01*
X25569300Y-392210D01*
X25596850Y-371040D01*
X25628350Y-365750D01*
X25659840Y-371040D01*
X25687400Y-392210D01*
X25711020Y-423960D01*
X25726770Y-461000D01*
X25734640Y-503330D01*
Y-545670D01*
X25726770Y-588000D01*
X25711020Y-625040D01*
X25687400Y-656800D01*
X25659840Y-677960D01*
X25628350Y-683250D01*
G01X25943250Y-365750D02*
Y-683250D01*
G01X25852710Y-365750D02*
X26033790D01*
G01X26258150D02*
Y-683250D01*
G01X26167610Y-365750D02*
X26348690D01*
G01X26573050Y-683250D02*
X26541550Y-677960D01*
X26514000Y-656800D01*
X26490380Y-625040D01*
X26474630Y-588000D01*
X26466760Y-545670D01*
Y-503330D01*
X26474630Y-461000D01*
X26490380Y-423960D01*
X26514000Y-392210D01*
X26541550Y-371040D01*
X26573050Y-365750D01*
X26604540Y-371040D01*
X26632100Y-392210D01*
X26655720Y-423960D01*
X26671470Y-461000D01*
X26679340Y-503330D01*
Y-545670D01*
X26671470Y-588000D01*
X26655720Y-625040D01*
X26632100Y-656800D01*
X26604540Y-677960D01*
X26573050Y-683250D01*
G01X26785590D02*
Y-365750D01*
X26887950Y-630330D01*
X26990310Y-365750D01*
Y-683250D01*
G01X19536000Y-15900000D02*
X40999000D01*
Y-7645000D01*
G01Y22835000D02*
Y24740000D01*
X19536000D01*
G01X20171000Y-15900000D02*
Y-8280000D01*
X40999000D01*
G01X20171000Y-15265000D02*
X40999000D01*
G01X20389440Y-13741000D02*
Y-13537800D01*
X20485960D01*
G01X20450400Y-13636010D02*
X20389440D01*
G01X20610420Y-13537800D02*
X20671380D01*
G01X20640900D02*
Y-13741000D01*
G01X20610420D02*
X20671380D01*
G01X20785680D02*
Y-13537800D01*
X20902520Y-13741000D01*
Y-13537800D01*
G01X21016820D02*
X21077780D01*
G01X21047300D02*
Y-13741000D01*
G01X21016820D02*
X21077780D01*
G01X21197160Y-13713910D02*
X21217480Y-13730840D01*
X21240340Y-13741000D01*
X21260660D01*
X21280980Y-13730840D01*
X21296220Y-13713910D01*
X21303840Y-13690200D01*
X21298760Y-13666500D01*
X21286060Y-13646170D01*
X21263200Y-13632630D01*
X21232720Y-13625850D01*
X21214940Y-13612310D01*
X21207320Y-13588600D01*
X21212400Y-13564890D01*
X21225100Y-13547960D01*
X21242880Y-13537800D01*
X21260660D01*
X21278440Y-13544570D01*
X21293680Y-13561510D01*
G01X21400360Y-13741000D02*
Y-13537800D01*
G01X21507040D02*
Y-13741000D01*
G01Y-13639400D02*
X21400360D01*
G01X20171000Y-13360000D02*
X40999000D01*
G01X20371660Y-11201000D02*
Y-10997800D01*
X20437700Y-11167130D01*
X20503740Y-10997800D01*
Y-11201000D01*
G01X20577400D02*
X20640900Y-10997800D01*
X20704400Y-11201000D01*
G01X20681540Y-11129880D02*
X20600260D01*
G01X20844100Y-10997800D02*
Y-11201000D01*
G01X20785680Y-10997800D02*
X20902520D01*
G01X21098100Y-11201000D02*
X20996500D01*
Y-10997800D01*
X21098100D01*
G01X21057460Y-11096010D02*
X20996500D01*
G01X21199700Y-11201000D02*
Y-10997800D01*
X21263200D01*
X21283520Y-11007960D01*
X21296220Y-11021510D01*
X21301300Y-11048600D01*
X21296220Y-11075700D01*
X21280980Y-11092630D01*
X21263200Y-11102790D01*
X21199700D01*
G01X21263200D02*
X21301300Y-11201000D01*
G01X21423220Y-10997800D02*
X21484180D01*
G01X21453700D02*
Y-11201000D01*
G01X21423220D02*
X21484180D01*
G01X21593400D02*
X21656900Y-10997800D01*
X21720400Y-11201000D01*
G01X21697540Y-11129880D02*
X21616260D01*
G01X21809300Y-10997800D02*
Y-11201000D01*
X21910900D01*
G01X29569000Y-10820000D02*
X20171000D01*
G01X20504420Y-9042000D02*
Y-8882000D01*
X20544220D01*
X20560140Y-8890000D01*
X20572080Y-8900670D01*
X20582030Y-8916660D01*
X20589990Y-8935340D01*
X20591980Y-8962000D01*
X20589990Y-8988670D01*
X20582030Y-9007340D01*
X20572080Y-9023340D01*
X20560140Y-9034000D01*
X20544220Y-9042000D01*
X20504420D01*
G01X20684320Y-8882000D02*
X20732080D01*
G01X20708200D02*
Y-9042000D01*
G01X20684320D02*
X20732080D01*
G01X20816460D02*
Y-8882000D01*
X20868200Y-9015330D01*
X20919940Y-8882000D01*
Y-9042000D01*
G01X21068000D02*
X20988400D01*
Y-8882000D01*
X21068000D01*
G01X21036160Y-8959330D02*
X20988400D01*
G01X21142430Y-9042000D02*
Y-8882000D01*
X21233970Y-9042000D01*
Y-8882000D01*
G01X21306410Y-9020670D02*
X21322330Y-9034000D01*
X21340240Y-9042000D01*
X21356160D01*
X21372080Y-9034000D01*
X21384020Y-9020670D01*
X21389990Y-9002000D01*
X21386010Y-8983340D01*
X21376060Y-8967330D01*
X21358150Y-8956670D01*
X21334270Y-8951330D01*
X21320340Y-8940670D01*
X21314370Y-8922000D01*
X21318350Y-8903330D01*
X21328300Y-8890000D01*
X21342230Y-8882000D01*
X21356160D01*
X21370090Y-8887330D01*
X21382030Y-8900670D01*
G01X21484320Y-8882000D02*
X21532080D01*
G01X21508200D02*
Y-9042000D01*
G01X21484320D02*
X21532080D01*
G01X21668200D02*
X21652280Y-9039330D01*
X21638350Y-9028670D01*
X21626410Y-9012670D01*
X21618450Y-8994000D01*
X21614470Y-8972670D01*
Y-8951330D01*
X21618450Y-8930000D01*
X21626410Y-8911330D01*
X21638350Y-8895340D01*
X21652280Y-8884670D01*
X21668200Y-8882000D01*
X21684120Y-8884670D01*
X21698050Y-8895340D01*
X21709990Y-8911330D01*
X21717950Y-8930000D01*
X21721930Y-8951330D01*
Y-8972670D01*
X21717950Y-8994000D01*
X21709990Y-9012670D01*
X21698050Y-9028670D01*
X21684120Y-9039330D01*
X21668200Y-9042000D01*
G01X21782430D02*
Y-8882000D01*
X21873970Y-9042000D01*
Y-8882000D01*
G01X21946410Y-9020670D02*
X21962330Y-9034000D01*
X21980240Y-9042000D01*
X21996160D01*
X22012080Y-9034000D01*
X22024020Y-9020670D01*
X22029990Y-9002000D01*
X22026010Y-8983340D01*
X22016060Y-8967330D01*
X21998150Y-8956670D01*
X21974270Y-8951330D01*
X21960340Y-8940670D01*
X21954370Y-8922000D01*
X21958350Y-8903330D01*
X21968300Y-8890000D01*
X21982230Y-8882000D01*
X21996160D01*
X22010090Y-8887330D01*
X22022030Y-8900670D01*
G01X22258450Y-9042000D02*
X22308200Y-8882000D01*
X22357950Y-9042000D01*
G01X22340040Y-8986000D02*
X22276360D01*
G01X22428400Y-9042000D02*
Y-8882000D01*
X22478150D01*
X22494070Y-8890000D01*
X22504020Y-8900670D01*
X22508000Y-8922000D01*
X22504020Y-8943330D01*
X22492080Y-8956670D01*
X22478150Y-8964670D01*
X22428400D01*
G01X22478150D02*
X22508000Y-9042000D01*
G01X22668000D02*
X22588400D01*
Y-8882000D01*
X22668000D01*
G01X22636160Y-8959330D02*
X22588400D01*
G01X22924320Y-8882000D02*
X22972080D01*
G01X22948200D02*
Y-9042000D01*
G01X22924320D02*
X22972080D01*
G01X23062430D02*
Y-8882000D01*
X23153970Y-9042000D01*
Y-8882000D01*
G01X23376460Y-9042000D02*
Y-8882000D01*
X23428200Y-9015330D01*
X23479940Y-8882000D01*
Y-9042000D01*
G01X23536460D02*
Y-8882000D01*
X23588200Y-9015330D01*
X23639940Y-8882000D01*
Y-9042000D01*
G01X20313920Y-8564500D02*
Y-8679170D01*
X20321880Y-8703170D01*
X20337800Y-8719170D01*
X20357700Y-8724500D01*
X20377600Y-8719170D01*
X20393520Y-8703170D01*
X20401480Y-8679170D01*
Y-8564500D01*
G01X20471930Y-8724500D02*
Y-8564500D01*
X20563470Y-8724500D01*
Y-8564500D01*
G01X20637900D02*
Y-8724500D01*
X20717500D01*
G01X20877500D02*
X20797900D01*
Y-8564500D01*
X20877500D01*
G01X20845660Y-8641830D02*
X20797900D01*
G01X20955910Y-8703170D02*
X20971830Y-8716500D01*
X20989740Y-8724500D01*
X21005660D01*
X21021580Y-8716500D01*
X21033520Y-8703170D01*
X21039490Y-8684500D01*
X21035510Y-8665840D01*
X21025560Y-8649830D01*
X21007650Y-8639170D01*
X20983770Y-8633830D01*
X20969840Y-8623170D01*
X20963870Y-8604500D01*
X20967850Y-8585830D01*
X20977800Y-8572500D01*
X20991730Y-8564500D01*
X21005660D01*
X21019590Y-8569830D01*
X21031530Y-8583170D01*
G01X21115910Y-8703170D02*
X21131830Y-8716500D01*
X21149740Y-8724500D01*
X21165660D01*
X21181580Y-8716500D01*
X21193520Y-8703170D01*
X21199490Y-8684500D01*
X21195510Y-8665840D01*
X21185560Y-8649830D01*
X21167650Y-8639170D01*
X21143770Y-8633830D01*
X21129840Y-8623170D01*
X21123870Y-8604500D01*
X21127850Y-8585830D01*
X21137800Y-8572500D01*
X21151730Y-8564500D01*
X21165660D01*
X21179590Y-8569830D01*
X21191530Y-8583170D01*
G01X21477700Y-8724500D02*
X21461780Y-8721830D01*
X21447850Y-8711170D01*
X21435910Y-8695170D01*
X21427950Y-8676500D01*
X21423970Y-8655170D01*
Y-8633830D01*
X21427950Y-8612500D01*
X21435910Y-8593830D01*
X21447850Y-8577840D01*
X21461780Y-8567170D01*
X21477700Y-8564500D01*
X21493620Y-8567170D01*
X21507550Y-8577840D01*
X21519490Y-8593830D01*
X21527450Y-8612500D01*
X21531430Y-8633830D01*
Y-8655170D01*
X21527450Y-8676500D01*
X21519490Y-8695170D01*
X21507550Y-8711170D01*
X21493620Y-8721830D01*
X21477700Y-8724500D01*
G01X21637700Y-8564500D02*
Y-8724500D01*
G01X21591930Y-8564500D02*
X21683470D01*
G01X21755910Y-8724500D02*
Y-8564500D01*
G01X21839490D02*
Y-8724500D01*
G01Y-8644500D02*
X21755910D01*
G01X21997500Y-8724500D02*
X21917900D01*
Y-8564500D01*
X21997500D01*
G01X21965660Y-8641830D02*
X21917900D01*
G01X22077900Y-8724500D02*
Y-8564500D01*
X22127650D01*
X22143570Y-8572500D01*
X22153520Y-8583170D01*
X22157500Y-8604500D01*
X22153520Y-8625830D01*
X22141580Y-8639170D01*
X22127650Y-8647170D01*
X22077900D01*
G01X22127650D02*
X22157500Y-8724500D01*
G01X22218000Y-8564500D02*
X22245860Y-8724500D01*
X22277700Y-8564500D01*
X22309540Y-8724500D01*
X22337400Y-8564500D01*
G01X22413820D02*
X22461580D01*
G01X22437700D02*
Y-8724500D01*
G01X22413820D02*
X22461580D01*
G01X22555910Y-8703170D02*
X22571830Y-8716500D01*
X22589740Y-8724500D01*
X22605660D01*
X22621580Y-8716500D01*
X22633520Y-8703170D01*
X22639490Y-8684500D01*
X22635510Y-8665840D01*
X22625560Y-8649830D01*
X22607650Y-8639170D01*
X22583770Y-8633830D01*
X22569840Y-8623170D01*
X22563870Y-8604500D01*
X22567850Y-8585830D01*
X22577800Y-8572500D01*
X22591730Y-8564500D01*
X22605660D01*
X22619590Y-8569830D01*
X22631530Y-8583170D01*
G01X22797500Y-8724500D02*
X22717900D01*
Y-8564500D01*
X22797500D01*
G01X22765660Y-8641830D02*
X22717900D01*
G01X23035910Y-8703170D02*
X23051830Y-8716500D01*
X23069740Y-8724500D01*
X23085660D01*
X23101580Y-8716500D01*
X23113520Y-8703170D01*
X23119490Y-8684500D01*
X23115510Y-8665840D01*
X23105560Y-8649830D01*
X23087650Y-8639170D01*
X23063770Y-8633830D01*
X23049840Y-8623170D01*
X23043870Y-8604500D01*
X23047850Y-8585830D01*
X23057800Y-8572500D01*
X23071730Y-8564500D01*
X23085660D01*
X23099590Y-8569830D01*
X23111530Y-8583170D01*
G01X23197900Y-8724500D02*
Y-8564500D01*
X23245660D01*
X23261580Y-8572500D01*
X23273520Y-8591170D01*
X23277500Y-8612500D01*
X23273520Y-8633830D01*
X23263570Y-8649830D01*
X23245660Y-8657840D01*
X23197900D01*
G01X23437500Y-8724500D02*
X23357900D01*
Y-8564500D01*
X23437500D01*
G01X23405660Y-8641830D02*
X23357900D01*
G01X23601480Y-8577840D02*
X23589540Y-8569830D01*
X23575610Y-8564500D01*
X23559690D01*
X23541780Y-8572500D01*
X23527850Y-8585830D01*
X23517900Y-8601840D01*
X23509940Y-8628500D01*
X23507950Y-8652500D01*
X23511930Y-8676500D01*
X23517900Y-8692500D01*
X23529840Y-8708500D01*
X23543770Y-8719170D01*
X23557700Y-8724500D01*
X23571630D01*
X23585560Y-8719170D01*
X23597500Y-8711170D01*
X23607450Y-8700510D01*
G01X23693820Y-8564500D02*
X23741580D01*
G01X23717700D02*
Y-8724500D01*
G01X23693820D02*
X23741580D01*
G01X23839890D02*
Y-8564500D01*
X23915510D01*
G01X23887650Y-8641830D02*
X23839890D01*
G01X24013820Y-8564500D02*
X24061580D01*
G01X24037700D02*
Y-8724500D01*
G01X24013820D02*
X24061580D01*
G01X24237500D02*
X24157900D01*
Y-8564500D01*
X24237500D01*
G01X24205660Y-8641830D02*
X24157900D01*
G01X24313920Y-8724500D02*
Y-8564500D01*
X24353720D01*
X24369640Y-8572500D01*
X24381580Y-8583170D01*
X24391530Y-8599160D01*
X24399490Y-8617840D01*
X24401480Y-8644500D01*
X24399490Y-8671170D01*
X24391530Y-8689840D01*
X24381580Y-8705840D01*
X24369640Y-8716500D01*
X24353720Y-8724500D01*
X24313920D01*
G01X20171000Y-8089500D02*
Y-7581500D01*
X20323400D01*
X20374200Y-7606910D01*
X20412300Y-7666160D01*
X20425000Y-7733900D01*
X20412300Y-7801630D01*
X20380550Y-7852440D01*
X20323400Y-7877850D01*
X20171000D01*
G01X20679000Y-8089500D02*
Y-7581500D01*
X20837750D01*
X20888550Y-7606910D01*
X20920300Y-7640770D01*
X20933000Y-7708500D01*
X20920300Y-7776240D01*
X20882200Y-7818560D01*
X20837750Y-7843970D01*
X20679000D01*
G01X20837750D02*
X20933000Y-8089500D01*
G01X21237800Y-7581500D02*
X21390190D01*
G01X21313990D02*
Y-8089500D01*
G01X21237800D02*
X21390190D01*
G01X21656890D02*
Y-7581500D01*
X21821990Y-8004840D01*
X21987110Y-7581500D01*
Y-8089500D01*
G01X22171240D02*
X22329990Y-7581500D01*
X22488760Y-8089500D01*
G01X22431600Y-7911710D02*
X22228390D01*
G01X22711000Y-8089500D02*
Y-7581500D01*
X22869750D01*
X22920550Y-7606910D01*
X22952300Y-7640770D01*
X22965000Y-7708500D01*
X22952300Y-7776240D01*
X22914200Y-7818560D01*
X22869750Y-7843970D01*
X22711000D01*
G01X22869750D02*
X22965000Y-8089500D01*
G01X23345990D02*
Y-7860900D01*
X23219000Y-7581500D01*
G01X23473000D02*
X23345990Y-7860900D01*
G01X24228650Y-8021780D02*
X24279450Y-8064110D01*
X24336600Y-8089500D01*
X24387400D01*
X24438200Y-8064110D01*
X24476300Y-8021780D01*
X24495350Y-7962500D01*
X24482650Y-7903240D01*
X24450900Y-7852440D01*
X24393750Y-7818560D01*
X24317550Y-7801630D01*
X24273100Y-7767770D01*
X24254040Y-7708500D01*
X24266750Y-7649230D01*
X24298500Y-7606910D01*
X24342950Y-7581500D01*
X24387400D01*
X24431850Y-7598430D01*
X24469960Y-7640770D01*
G01X24793800Y-7581500D02*
X24946190D01*
G01X24869990D02*
Y-8089500D01*
G01X24793800D02*
X24946190D01*
G01X25238300D02*
Y-7581500D01*
X25365300D01*
X25416100Y-7606910D01*
X25454200Y-7640770D01*
X25485960Y-7691560D01*
X25511350Y-7750840D01*
X25517700Y-7835510D01*
X25511350Y-7920170D01*
X25485960Y-7979440D01*
X25454200Y-8030250D01*
X25416100Y-8064110D01*
X25365300Y-8089500D01*
X25238300D01*
G01X26013000D02*
X25759000D01*
Y-7581500D01*
X26013000D01*
G01X25911400Y-7827030D02*
X25759000D01*
G01X40999000Y22205000D02*
X20171000D01*
G01Y24110000D02*
Y22205000D01*
G01X40999000Y22835000D02*
X20171000D01*
G01Y24740000D02*
Y22835000D01*
G01X20488500Y23660500D02*
Y23914500D01*
X20567870D01*
X20593270Y23901790D01*
X20609150Y23884870D01*
X20615500Y23851000D01*
X20609150Y23817130D01*
X20590100Y23795970D01*
X20567870Y23783260D01*
X20488500D01*
G01X20567870D02*
X20615500Y23660500D01*
G01X20869500D02*
X20742500D01*
Y23914500D01*
X20869500D01*
G01X20818700Y23791740D02*
X20742500D01*
G01X20980620Y23914500D02*
X21060000Y23660500D01*
X21139380Y23914500D01*
G01X40999000Y23470000D02*
X20171000D01*
G01X40999000Y24105000D02*
X20171000D01*
G01X21161960Y-16259830D02*
X21209980Y-16196340D01*
X21265990Y-16164580D01*
X21330010Y-16154000D01*
X21410020Y-16175160D01*
X21466040Y-16228090D01*
X21482040Y-16291570D01*
X21474040Y-16355100D01*
X21442020Y-16408000D01*
X21281990Y-16513830D01*
X21209980Y-16587920D01*
X21161960Y-16693770D01*
X21145960Y-16789000D01*
X21482040D01*
G01X20635820Y-15709500D02*
Y-15506300D01*
X20686620D01*
X20706940Y-15516460D01*
X20722180Y-15530010D01*
X20734880Y-15550320D01*
X20745040Y-15574040D01*
X20747580Y-15607900D01*
X20745040Y-15641770D01*
X20734880Y-15665480D01*
X20722180Y-15685800D01*
X20706940Y-15699340D01*
X20686620Y-15709500D01*
X20635820D01*
G01X20894900D02*
X20874580Y-15706110D01*
X20856800Y-15692570D01*
X20841560Y-15672250D01*
X20831400Y-15648540D01*
X20826320Y-15621450D01*
Y-15594350D01*
X20831400Y-15567260D01*
X20841560Y-15543550D01*
X20856800Y-15523240D01*
X20874580Y-15509690D01*
X20894900Y-15506300D01*
X20915220Y-15509690D01*
X20933000Y-15523240D01*
X20948240Y-15543550D01*
X20958400Y-15567260D01*
X20963480Y-15594350D01*
Y-15621450D01*
X20958400Y-15648540D01*
X20948240Y-15672250D01*
X20933000Y-15692570D01*
X20915220Y-15706110D01*
X20894900Y-15709500D01*
G01X21242880D02*
Y-15506300D01*
X21359720Y-15709500D01*
Y-15506300D01*
G01X21504500Y-15709500D02*
X21484180Y-15706110D01*
X21466400Y-15692570D01*
X21451160Y-15672250D01*
X21441000Y-15648540D01*
X21435920Y-15621450D01*
Y-15594350D01*
X21441000Y-15567260D01*
X21451160Y-15543550D01*
X21466400Y-15523240D01*
X21484180Y-15509690D01*
X21504500Y-15506300D01*
X21524820Y-15509690D01*
X21542600Y-15523240D01*
X21557840Y-15543550D01*
X21568000Y-15567260D01*
X21573080Y-15594350D01*
Y-15621450D01*
X21568000Y-15648540D01*
X21557840Y-15672250D01*
X21542600Y-15692570D01*
X21524820Y-15706110D01*
X21504500Y-15709500D01*
G01X21707700Y-15506300D02*
Y-15709500D01*
G01X21649280Y-15506300D02*
X21766120D01*
G01X22060760Y-15682410D02*
X22081080Y-15699340D01*
X22103940Y-15709500D01*
X22124260D01*
X22144580Y-15699340D01*
X22159820Y-15682410D01*
X22167440Y-15658700D01*
X22162360Y-15635000D01*
X22149660Y-15614670D01*
X22126800Y-15601130D01*
X22096320Y-15594350D01*
X22078540Y-15580810D01*
X22070920Y-15557100D01*
X22076000Y-15533390D01*
X22088700Y-15516460D01*
X22106480Y-15506300D01*
X22124260D01*
X22142040Y-15513070D01*
X22157280Y-15530010D01*
G01X22373180Y-15523240D02*
X22357940Y-15513070D01*
X22340160Y-15506300D01*
X22319840D01*
X22296980Y-15516460D01*
X22279200Y-15533390D01*
X22266500Y-15553720D01*
X22256340Y-15587580D01*
X22253800Y-15618060D01*
X22258880Y-15648540D01*
X22266500Y-15668860D01*
X22281740Y-15689180D01*
X22299520Y-15702730D01*
X22317300Y-15709500D01*
X22335080D01*
X22352860Y-15702730D01*
X22368100Y-15692570D01*
X22380800Y-15679030D01*
G01X22457000Y-15709500D02*
X22520500Y-15506300D01*
X22584000Y-15709500D01*
G01X22561140Y-15638380D02*
X22479860D01*
G01X22672900Y-15506300D02*
Y-15709500D01*
X22774500D01*
G01X22977700D02*
X22876100D01*
Y-15506300D01*
X22977700D01*
G01X22937060Y-15604510D02*
X22876100D01*
G01X23277420Y-15709500D02*
Y-15506300D01*
X23328220D01*
X23348540Y-15516460D01*
X23363780Y-15530010D01*
X23376480Y-15550320D01*
X23386640Y-15574040D01*
X23389180Y-15607900D01*
X23386640Y-15641770D01*
X23376480Y-15665480D01*
X23363780Y-15685800D01*
X23348540Y-15699340D01*
X23328220Y-15709500D01*
X23277420D01*
G01X23460300Y-15506300D02*
X23495860Y-15709500D01*
X23536500Y-15506300D01*
X23577140Y-15709500D01*
X23612700Y-15506300D01*
G01X23754940Y-15607900D02*
X23805740D01*
Y-15668860D01*
X23790500Y-15689180D01*
X23772720Y-15702730D01*
X23747320Y-15709500D01*
X23721920Y-15702730D01*
X23704140Y-15689180D01*
X23688900Y-15668860D01*
X23678740Y-15645150D01*
X23673660Y-15618060D01*
Y-15594350D01*
X23678740Y-15574040D01*
X23688900Y-15550320D01*
X23704140Y-15530010D01*
X23719380Y-15516460D01*
X23739700Y-15506300D01*
X23757480D01*
X23777800Y-15513070D01*
X23793040Y-15526620D01*
G01X20865500Y-1477000D02*
Y-4017000D01*
G01X20752170Y603000D02*
Y920500D01*
X20846650D01*
X20878140Y904620D01*
X20901760Y867580D01*
X20909630Y825250D01*
X20901760Y782920D01*
X20882080Y751160D01*
X20846650Y735280D01*
X20752170D01*
G01X21067070Y920500D02*
Y603000D01*
X21224530D01*
G01X21362280D02*
X21460700Y920500D01*
X21559120Y603000D01*
G01X21523680Y714120D02*
X21397710D01*
G01X21775600Y920500D02*
Y603000D01*
G01X21685060Y920500D02*
X21866140D01*
G01X22169230Y603000D02*
X22011770D01*
Y920500D01*
X22169230D01*
G01X22106250Y767050D02*
X22011770D01*
G01X22318790Y603000D02*
Y920500D01*
X22397520D01*
X22429020Y904620D01*
X22452640Y883460D01*
X22472330Y851710D01*
X22488070Y814660D01*
X22492010Y761750D01*
X22488070Y708830D01*
X22472330Y671790D01*
X22452640Y640030D01*
X22429020Y618870D01*
X22397520Y603000D01*
X22318790D01*
G01X22720300Y592420D02*
X22712420Y597710D01*
Y608290D01*
X22720300Y613580D01*
X22728180Y608290D01*
Y597710D01*
X22720300Y592420D01*
G01Y735280D02*
X22712420Y740580D01*
Y751160D01*
X22720300Y756450D01*
X22728180Y751160D01*
Y740580D01*
X22720300Y735280D01*
G01X23306800Y708830D02*
X23401280D01*
G01X23350100Y777630D02*
Y640030D01*
G01X23594140Y592420D02*
X23735860Y920500D01*
G01X23928720Y708830D02*
X24031080D01*
G01X24294800Y920500D02*
X24263300Y909920D01*
X24239690Y883460D01*
X24223940Y851710D01*
X24212130Y809370D01*
X24208190Y761750D01*
X24212130Y714120D01*
X24223940Y671790D01*
X24239690Y640030D01*
X24263300Y613580D01*
X24294800Y603000D01*
X24326290Y613580D01*
X24349910Y640030D01*
X24365660Y671790D01*
X24377470Y714120D01*
X24381410Y761750D01*
X24377470Y809370D01*
X24365660Y851710D01*
X24349910Y883460D01*
X24326290Y909920D01*
X24294800Y920500D01*
G01X24609700Y592420D02*
X24601820Y597710D01*
Y608290D01*
X24609700Y613580D01*
X24617580Y608290D01*
Y597710D01*
X24609700Y592420D01*
G01X24924600Y920500D02*
X24893100Y909920D01*
X24869490Y883460D01*
X24853740Y851710D01*
X24841930Y809370D01*
X24837990Y761750D01*
X24841930Y714120D01*
X24853740Y671790D01*
X24869490Y640030D01*
X24893100Y613580D01*
X24924600Y603000D01*
X24956090Y613580D01*
X24979710Y640030D01*
X24995460Y671790D01*
X25007270Y714120D01*
X25011210Y761750D01*
X25007270Y809370D01*
X24995460Y851710D01*
X24979710Y883460D01*
X24956090Y909920D01*
X24924600Y920500D01*
G01X25231620Y603000D02*
X25239500Y671790D01*
X25251310Y729990D01*
X25267050Y782920D01*
X25286740Y841120D01*
X25318230Y920500D01*
X25160770D01*
G01X25479600Y735280D02*
X25507160Y772340D01*
X25530780Y793500D01*
X25562280Y804080D01*
X25589830Y793500D01*
X25609510Y772340D01*
X25625260Y740580D01*
X25629200Y703540D01*
X25625260Y671790D01*
X25609510Y640030D01*
X25585890Y613580D01*
X25558340Y603000D01*
X25526850Y613580D01*
X25499290Y645320D01*
X25483540Y692960D01*
X25479600Y745870D01*
X25487470Y814660D01*
X25499290Y851710D01*
X25518970Y888750D01*
X25546520Y915210D01*
X25574080Y920500D01*
X25601640Y909920D01*
X25621330Y883460D01*
G01X25794500Y867580D02*
X25818120Y899330D01*
X25845680Y915210D01*
X25877180Y920500D01*
X25916540Y909920D01*
X25944100Y883460D01*
X25951970Y851710D01*
X25948030Y819950D01*
X25932280Y793500D01*
X25853550Y740580D01*
X25818120Y703540D01*
X25794500Y650610D01*
X25786630Y603000D01*
X25951970D01*
G01X26081840D02*
Y920500D01*
X26184200Y655920D01*
X26286560Y920500D01*
Y603000D01*
G01X26396740D02*
Y920500D01*
X26499100Y655920D01*
X26601460Y920500D01*
Y603000D01*
G01X21216640Y1428500D02*
Y1200960D01*
X21232390Y1153320D01*
X21263880Y1121580D01*
X21303250Y1111000D01*
X21342620Y1121580D01*
X21374110Y1153320D01*
X21389860Y1200960D01*
Y1428500D01*
G01X21527610Y1111000D02*
Y1428500D01*
X21708690Y1111000D01*
Y1428500D01*
G01X21854320D02*
Y1111000D01*
X22011780D01*
G01X22326680D02*
X22169220D01*
Y1428500D01*
X22326680D01*
G01X22263700Y1275050D02*
X22169220D01*
G01X22480180Y1153320D02*
X22511670Y1126870D01*
X22547100Y1111000D01*
X22578600D01*
X22610090Y1126870D01*
X22633710Y1153320D01*
X22645520Y1190380D01*
X22637650Y1227410D01*
X22617960Y1259160D01*
X22582530Y1280340D01*
X22535300Y1290920D01*
X22507740Y1312080D01*
X22495920Y1349120D01*
X22503800Y1386170D01*
X22523480Y1412620D01*
X22551040Y1428500D01*
X22578600D01*
X22606150Y1417920D01*
X22629780Y1391460D01*
G01X22795080Y1153320D02*
X22826570Y1126870D01*
X22862000Y1111000D01*
X22893500D01*
X22924990Y1126870D01*
X22948610Y1153320D01*
X22960420Y1190380D01*
X22952550Y1227410D01*
X22932860Y1259160D01*
X22897430Y1280340D01*
X22850200Y1290920D01*
X22822640Y1312080D01*
X22810820Y1349120D01*
X22818700Y1386170D01*
X22838380Y1412620D01*
X22865940Y1428500D01*
X22893500D01*
X22921050Y1417920D01*
X22944680Y1391460D01*
G01X23424880Y1153320D02*
X23456370Y1126870D01*
X23491800Y1111000D01*
X23523300D01*
X23554790Y1126870D01*
X23578410Y1153320D01*
X23590220Y1190380D01*
X23582350Y1227410D01*
X23562660Y1259160D01*
X23527230Y1280340D01*
X23480000Y1290920D01*
X23452440Y1312080D01*
X23440620Y1349120D01*
X23448500Y1386170D01*
X23468180Y1412620D01*
X23495740Y1428500D01*
X23523300D01*
X23550850Y1417920D01*
X23574480Y1391460D01*
G01X23743720Y1111000D02*
Y1428500D01*
X23838200D01*
X23869690Y1412620D01*
X23893310Y1375580D01*
X23901180Y1333250D01*
X23893310Y1290920D01*
X23873630Y1259160D01*
X23838200Y1243280D01*
X23743720D01*
G01X24216080Y1111000D02*
X24058620D01*
Y1428500D01*
X24216080D01*
G01X24153100Y1275050D02*
X24058620D01*
G01X24538860Y1402040D02*
X24515230Y1417920D01*
X24487680Y1428500D01*
X24456190D01*
X24420750Y1412620D01*
X24393200Y1386170D01*
X24373520Y1354410D01*
X24357760Y1301500D01*
X24353830Y1253870D01*
X24361710Y1206250D01*
X24373520Y1174500D01*
X24397140Y1142740D01*
X24424700Y1121580D01*
X24452250Y1111000D01*
X24479800D01*
X24507360Y1121580D01*
X24530980Y1137450D01*
X24550670Y1158610D01*
G01X24719910Y1428500D02*
X24814380D01*
G01X24767150D02*
Y1111000D01*
G01X24719910D02*
X24814380D01*
G01X25007250D02*
Y1428500D01*
X25156850D01*
G01X25101730Y1275050D02*
X25007250D01*
G01X25349710Y1428500D02*
X25444180D01*
G01X25396950D02*
Y1111000D01*
G01X25349710D02*
X25444180D01*
G01X25790580D02*
X25633120D01*
Y1428500D01*
X25790580D01*
G01X25727600Y1275050D02*
X25633120D01*
G01X25940140Y1111000D02*
Y1428500D01*
X26018870D01*
X26050370Y1412620D01*
X26073990Y1391460D01*
X26093680Y1359710D01*
X26109420Y1322660D01*
X26113360Y1269750D01*
X26109420Y1216830D01*
X26093680Y1179790D01*
X26073990Y1148030D01*
X26050370Y1126870D01*
X26018870Y1111000D01*
X25940140D01*
G01X20831400Y22530970D02*
X20844100Y22543670D01*
X20853620Y22564830D01*
X20859980Y22594470D01*
X20853620Y22619870D01*
X20840930Y22636790D01*
X20818700Y22649500D01*
X20732980D01*
Y22395500D01*
X20837750D01*
X20859980Y22412430D01*
X20872680Y22437830D01*
X20879020Y22467470D01*
X20872680Y22497090D01*
X20853620Y22522500D01*
X20831400Y22530970D01*
X20732980D01*
G01X20726620Y23025500D02*
X20806000Y23279500D01*
X20885380Y23025500D01*
G01X20856800Y23114400D02*
X20755200D01*
G01X21161960Y25523170D02*
X21209980Y25586660D01*
X21265990Y25618420D01*
X21330010Y25629000D01*
X21410020Y25607840D01*
X21466040Y25554910D01*
X21482040Y25491430D01*
X21474040Y25427900D01*
X21442020Y25375000D01*
X21281990Y25269170D01*
X21209980Y25195080D01*
X21161960Y25089230D01*
X21145960Y24994000D01*
X21482040D01*
G01X21613370Y-3858250D02*
Y-3540750D01*
X21707850D01*
X21739340Y-3556630D01*
X21762960Y-3593670D01*
X21770830Y-3636000D01*
X21762960Y-3678330D01*
X21743280Y-3710090D01*
X21707850Y-3725970D01*
X21613370D01*
G01X21928270Y-3540750D02*
Y-3858250D01*
X22085730D01*
G01X22223480D02*
X22321900Y-3540750D01*
X22420320Y-3858250D01*
G01X22384880Y-3747130D02*
X22258910D01*
G01X22636800Y-3540750D02*
Y-3858250D01*
G01X22546260Y-3540750D02*
X22727340D01*
G01X23030430Y-3858250D02*
X22872970D01*
Y-3540750D01*
X23030430D01*
G01X22967450Y-3694200D02*
X22872970D01*
G01X23179990Y-3858250D02*
Y-3540750D01*
X23258720D01*
X23290220Y-3556630D01*
X23313840Y-3577790D01*
X23333530Y-3609540D01*
X23349270Y-3646590D01*
X23353210Y-3699500D01*
X23349270Y-3752420D01*
X23333530Y-3789460D01*
X23313840Y-3821220D01*
X23290220Y-3842380D01*
X23258720Y-3858250D01*
X23179990D01*
G01X21613370Y-3223250D02*
Y-2905750D01*
X21707850D01*
X21739340Y-2921630D01*
X21762960Y-2958670D01*
X21770830Y-3001000D01*
X21762960Y-3043330D01*
X21743280Y-3075090D01*
X21707850Y-3090970D01*
X21613370D01*
G01X21928270Y-2905750D02*
Y-3223250D01*
X22085730D01*
G01X22223480D02*
X22321900Y-2905750D01*
X22420320Y-3223250D01*
G01X22384880Y-3112130D02*
X22258910D01*
G01X22636800Y-2905750D02*
Y-3223250D01*
G01X22546260Y-2905750D02*
X22727340D01*
G01X23030430Y-3223250D02*
X22872970D01*
Y-2905750D01*
X23030430D01*
G01X22967450Y-3059200D02*
X22872970D01*
G01X23179990Y-3223250D02*
Y-2905750D01*
X23258720D01*
X23290220Y-2921630D01*
X23313840Y-2942790D01*
X23333530Y-2974540D01*
X23349270Y-3011590D01*
X23353210Y-3064500D01*
X23349270Y-3117420D01*
X23333530Y-3154460D01*
X23313840Y-3186220D01*
X23290220Y-3207380D01*
X23258720Y-3223250D01*
X23179990D01*
G01X21613370Y-2588250D02*
Y-2270750D01*
X21707850D01*
X21739340Y-2286630D01*
X21762960Y-2323670D01*
X21770830Y-2366000D01*
X21762960Y-2408330D01*
X21743280Y-2440090D01*
X21707850Y-2455970D01*
X21613370D01*
G01X21928270Y-2270750D02*
Y-2588250D01*
X22085730D01*
G01X22223480D02*
X22321900Y-2270750D01*
X22420320Y-2588250D01*
G01X22384880Y-2477130D02*
X22258910D01*
G01X22636800Y-2270750D02*
Y-2588250D01*
G01X22546260Y-2270750D02*
X22727340D01*
G01X23030430Y-2588250D02*
X22872970D01*
Y-2270750D01*
X23030430D01*
G01X22967450Y-2424200D02*
X22872970D01*
G01X23179990Y-2588250D02*
Y-2270750D01*
X23258720D01*
X23290220Y-2286630D01*
X23313840Y-2307790D01*
X23333530Y-2339540D01*
X23349270Y-2376590D01*
X23353210Y-2429500D01*
X23349270Y-2482420D01*
X23333530Y-2519460D01*
X23313840Y-2551220D01*
X23290220Y-2572380D01*
X23258720Y-2588250D01*
X23179990D01*
G01X21613370Y-1953250D02*
Y-1635750D01*
X21707850D01*
X21739340Y-1651630D01*
X21762960Y-1688670D01*
X21770830Y-1731000D01*
X21762960Y-1773330D01*
X21743280Y-1805090D01*
X21707850Y-1820970D01*
X21613370D01*
G01X21928270Y-1635750D02*
Y-1953250D01*
X22085730D01*
G01X22223480D02*
X22321900Y-1635750D01*
X22420320Y-1953250D01*
G01X22384880Y-1842130D02*
X22258910D01*
G01X22636800Y-1635750D02*
Y-1953250D01*
G01X22546260Y-1635750D02*
X22727340D01*
G01X23030430Y-1953250D02*
X22872970D01*
Y-1635750D01*
X23030430D01*
G01X22967450Y-1789200D02*
X22872970D01*
G01X23179990Y-1953250D02*
Y-1635750D01*
X23258720D01*
X23290220Y-1651630D01*
X23313840Y-1672790D01*
X23333530Y-1704540D01*
X23349270Y-1741590D01*
X23353210Y-1794500D01*
X23349270Y-1847420D01*
X23333530Y-1884460D01*
X23313840Y-1916220D01*
X23290220Y-1937380D01*
X23258720Y-1953250D01*
X23179990D01*
G01X21535480Y2127000D02*
Y2444500D01*
G01X21700820D02*
Y2127000D01*
G01Y2285750D02*
X21535480D01*
G01X21933050Y2127000D02*
X21901550Y2132290D01*
X21874000Y2153450D01*
X21850380Y2185210D01*
X21834630Y2222250D01*
X21826760Y2264580D01*
Y2306920D01*
X21834630Y2349250D01*
X21850380Y2386290D01*
X21874000Y2418040D01*
X21901550Y2439210D01*
X21933050Y2444500D01*
X21964540Y2439210D01*
X21992100Y2418040D01*
X22015720Y2386290D01*
X22031470Y2349250D01*
X22039340Y2306920D01*
Y2264580D01*
X22031470Y2222250D01*
X22015720Y2185210D01*
X21992100Y2153450D01*
X21964540Y2132290D01*
X21933050Y2127000D01*
G01X22169220Y2444500D02*
Y2127000D01*
X22326680D01*
G01X22641580D02*
X22484120D01*
Y2444500D01*
X22641580D01*
G01X22578600Y2291050D02*
X22484120D01*
G01X23192650Y2444500D02*
Y2127000D01*
G01X23102110Y2444500D02*
X23283190D01*
G01X23507550Y2127000D02*
X23476050Y2132290D01*
X23448500Y2153450D01*
X23424880Y2185210D01*
X23409130Y2222250D01*
X23401260Y2264580D01*
Y2306920D01*
X23409130Y2349250D01*
X23424880Y2386290D01*
X23448500Y2418040D01*
X23476050Y2439210D01*
X23507550Y2444500D01*
X23539040Y2439210D01*
X23566600Y2418040D01*
X23590220Y2386290D01*
X23605970Y2349250D01*
X23613840Y2306920D01*
Y2264580D01*
X23605970Y2222250D01*
X23590220Y2185210D01*
X23566600Y2153450D01*
X23539040Y2132290D01*
X23507550Y2127000D01*
G01X23743720Y2444500D02*
Y2127000D01*
X23901180D01*
G01X24216080D02*
X24058620D01*
Y2444500D01*
X24216080D01*
G01X24153100Y2291050D02*
X24058620D01*
G01X24373520Y2127000D02*
Y2444500D01*
X24471930D01*
X24503430Y2428620D01*
X24523110Y2407460D01*
X24530980Y2365120D01*
X24523110Y2322790D01*
X24499490Y2296340D01*
X24471930Y2280450D01*
X24373520D01*
G01X24471930D02*
X24530980Y2127000D01*
G01X24668730D02*
X24767150Y2444500D01*
X24865570Y2127000D01*
G01X24830130Y2238120D02*
X24704160D01*
G01X24991510Y2127000D02*
Y2444500D01*
X25172590Y2127000D01*
Y2444500D01*
G01X25483560Y2418040D02*
X25459930Y2433920D01*
X25432380Y2444500D01*
X25400890D01*
X25365450Y2428620D01*
X25337900Y2402170D01*
X25318220Y2370410D01*
X25302460Y2317500D01*
X25298530Y2269870D01*
X25306410Y2222250D01*
X25318220Y2190500D01*
X25341840Y2158740D01*
X25369400Y2137580D01*
X25396950Y2127000D01*
X25424500D01*
X25452060Y2137580D01*
X25475680Y2153450D01*
X25495370Y2174610D01*
G01X25790580Y2127000D02*
X25633120D01*
Y2444500D01*
X25790580D01*
G01X25727600Y2291050D02*
X25633120D01*
G01X21379000Y1923800D02*
X25951000D01*
G01X21379000Y1873000D02*
X25951000D01*
G01X21441000Y23475000D02*
Y22205000D01*
G01Y24105000D02*
Y22835000D01*
G01X24093200Y-1477000D02*
Y-4017000D01*
G01X24616000Y-15900000D02*
Y-8280000D01*
G01X24760780Y-15163400D02*
Y-14960200D01*
X24877620Y-15163400D01*
Y-14960200D01*
G01X24976680Y-15170170D02*
X25068120Y-14960200D01*
G01X25162100Y-15163400D02*
X25225600Y-14960200D01*
X25289100Y-15163400D01*
G01X25266240Y-15092280D02*
X25184960D01*
G01X24819200Y-14325200D02*
Y-14528400D01*
G01X24760780Y-14325200D02*
X24877620D01*
G01X25022400Y-14535170D02*
X25017320Y-14531790D01*
Y-14525010D01*
X25022400Y-14521630D01*
X25027480Y-14525010D01*
Y-14531790D01*
X25022400Y-14535170D01*
G01X25484680Y-14342140D02*
X25469440Y-14331970D01*
X25451660Y-14325200D01*
X25431340D01*
X25408480Y-14335360D01*
X25390700Y-14352290D01*
X25378000Y-14372620D01*
X25367840Y-14406480D01*
X25365300Y-14436960D01*
X25370380Y-14467440D01*
X25378000Y-14487760D01*
X25393240Y-14508080D01*
X25411020Y-14521630D01*
X25428800Y-14528400D01*
X25446580D01*
X25464360Y-14521630D01*
X25479600Y-14511470D01*
X25492300Y-14497930D01*
G01X25568500Y-14528400D02*
X25632000Y-14325200D01*
X25695500Y-14528400D01*
G01X25672640Y-14457280D02*
X25591360D01*
G01X25855520Y-14420030D02*
X25865680Y-14409870D01*
X25873300Y-14392940D01*
X25878380Y-14369220D01*
X25873300Y-14348910D01*
X25863140Y-14335360D01*
X25845360Y-14325200D01*
X25776780D01*
Y-14528400D01*
X25860600D01*
X25878380Y-14514860D01*
X25888540Y-14494530D01*
X25893620Y-14470830D01*
X25888540Y-14447120D01*
X25873300Y-14426800D01*
X25855520Y-14420030D01*
X25776780D01*
G01X26007920Y-14325200D02*
X26068880D01*
G01X26038400D02*
Y-14528400D01*
G01X26007920D02*
X26068880D01*
G01X26190800Y-14325200D02*
Y-14528400D01*
X26292400D01*
G01X26388920D02*
Y-14325200D01*
X26439720D01*
X26460040Y-14335360D01*
X26475280Y-14348910D01*
X26487980Y-14369220D01*
X26498140Y-14392940D01*
X26500680Y-14426800D01*
X26498140Y-14460670D01*
X26487980Y-14484380D01*
X26475280Y-14504700D01*
X26460040Y-14518240D01*
X26439720Y-14528400D01*
X26388920D01*
G01X26648000D02*
X26627680Y-14525010D01*
X26609900Y-14511470D01*
X26594660Y-14491150D01*
X26584500Y-14467440D01*
X26579420Y-14440350D01*
Y-14413250D01*
X26584500Y-14386160D01*
X26594660Y-14362450D01*
X26609900Y-14342140D01*
X26627680Y-14328590D01*
X26648000Y-14325200D01*
X26668320Y-14328590D01*
X26686100Y-14342140D01*
X26701340Y-14362450D01*
X26711500Y-14386160D01*
X26716580Y-14413250D01*
Y-14440350D01*
X26711500Y-14467440D01*
X26701340Y-14491150D01*
X26686100Y-14511470D01*
X26668320Y-14525010D01*
X26648000Y-14528400D01*
G01X24616000Y-14630000D02*
X29569000D01*
G01X24753160Y-13893400D02*
Y-13690200D01*
X24819200Y-13859530D01*
X24885240Y-13690200D01*
Y-13893400D01*
G01X25022400Y-13900170D02*
X25017320Y-13896790D01*
Y-13890010D01*
X25022400Y-13886630D01*
X25027480Y-13890010D01*
Y-13896790D01*
X25022400Y-13900170D01*
G01X25370380Y-13893400D02*
Y-13690200D01*
X25487220Y-13893400D01*
Y-13690200D01*
G01X25601520D02*
X25662480D01*
G01X25632000D02*
Y-13893400D01*
G01X25601520D02*
X25662480D01*
G01X25891080Y-13707140D02*
X25875840Y-13696970D01*
X25858060Y-13690200D01*
X25837740D01*
X25814880Y-13700360D01*
X25797100Y-13717290D01*
X25784400Y-13737620D01*
X25774240Y-13771480D01*
X25771700Y-13801960D01*
X25776780Y-13832440D01*
X25784400Y-13852760D01*
X25799640Y-13873080D01*
X25817420Y-13886630D01*
X25835200Y-13893400D01*
X25852980D01*
X25870760Y-13886630D01*
X25886000Y-13876470D01*
X25898700Y-13862930D01*
G01X26038400Y-13893400D02*
X26018080Y-13890010D01*
X26000300Y-13876470D01*
X25985060Y-13856150D01*
X25974900Y-13832440D01*
X25969820Y-13805350D01*
Y-13778250D01*
X25974900Y-13751160D01*
X25985060Y-13727450D01*
X26000300Y-13707140D01*
X26018080Y-13693590D01*
X26038400Y-13690200D01*
X26058720Y-13693590D01*
X26076500Y-13707140D01*
X26091740Y-13727450D01*
X26101900Y-13751160D01*
X26106980Y-13778250D01*
Y-13805350D01*
X26101900Y-13832440D01*
X26091740Y-13856150D01*
X26076500Y-13876470D01*
X26058720Y-13890010D01*
X26038400Y-13893400D01*
G01X26190800D02*
Y-13690200D01*
X26251760D01*
X26272080Y-13700360D01*
X26287320Y-13724070D01*
X26292400Y-13751160D01*
X26287320Y-13778250D01*
X26274620Y-13798570D01*
X26251760Y-13808740D01*
X26190800D01*
G01X26414320Y-13690200D02*
X26475280D01*
G01X26444800D02*
Y-13893400D01*
G01X26414320D02*
X26475280D01*
G01X26648000D02*
X26627680Y-13890010D01*
X26609900Y-13876470D01*
X26594660Y-13856150D01*
X26584500Y-13832440D01*
X26579420Y-13805350D01*
Y-13778250D01*
X26584500Y-13751160D01*
X26594660Y-13727450D01*
X26609900Y-13707140D01*
X26627680Y-13693590D01*
X26648000Y-13690200D01*
X26668320Y-13693590D01*
X26686100Y-13707140D01*
X26701340Y-13727450D01*
X26711500Y-13751160D01*
X26716580Y-13778250D01*
Y-13805350D01*
X26711500Y-13832440D01*
X26701340Y-13856150D01*
X26686100Y-13876470D01*
X26668320Y-13890010D01*
X26648000Y-13893400D01*
G01X26800400D02*
Y-13690200D01*
X26863900D01*
X26884220Y-13700360D01*
X26896920Y-13713910D01*
X26902000Y-13741000D01*
X26896920Y-13768100D01*
X26881680Y-13785030D01*
X26863900Y-13795190D01*
X26800400D01*
G01X26863900D02*
X26902000Y-13893400D01*
G01X29569000Y-13995000D02*
X24616000D01*
G01X24763320Y-13258400D02*
Y-13055200D01*
G01X24859840D02*
X24763320Y-13180510D01*
G01X24875080Y-13258400D02*
X24806500Y-13122940D01*
G01X25022400Y-13265170D02*
X25017320Y-13261790D01*
Y-13255010D01*
X25022400Y-13251630D01*
X25027480Y-13255010D01*
Y-13261790D01*
X25022400Y-13265170D01*
G01X25378000Y-13217760D02*
X25390700Y-13238080D01*
X25405940Y-13251630D01*
X25423720Y-13258400D01*
X25444040Y-13251630D01*
X25459280Y-13238080D01*
X25474520Y-13217760D01*
X25479600Y-13190670D01*
Y-13055200D01*
G01X25568500Y-13258400D02*
X25632000Y-13055200D01*
X25695500Y-13258400D01*
G01X25672640Y-13187280D02*
X25591360D01*
G01X25855520Y-13150030D02*
X25865680Y-13139870D01*
X25873300Y-13122940D01*
X25878380Y-13099220D01*
X25873300Y-13078910D01*
X25863140Y-13065360D01*
X25845360Y-13055200D01*
X25776780D01*
Y-13258400D01*
X25860600D01*
X25878380Y-13244860D01*
X25888540Y-13224530D01*
X25893620Y-13200830D01*
X25888540Y-13177120D01*
X25873300Y-13156800D01*
X25855520Y-13150030D01*
X25776780D01*
G01X25974900Y-13258400D02*
X26038400Y-13055200D01*
X26101900Y-13258400D01*
G01X26079040Y-13187280D02*
X25997760D01*
G01X26241600Y-13055200D02*
Y-13258400D01*
G01X26183180Y-13055200D02*
X26300020D01*
G01X26381300Y-13258400D02*
X26444800Y-13055200D01*
X26508300Y-13258400D01*
G01X26485440Y-13187280D02*
X26404160D01*
G01X26589580Y-13258400D02*
Y-13055200D01*
X26706420Y-13258400D01*
Y-13055200D01*
G01X24760780Y-12623400D02*
Y-12420200D01*
X24877620Y-12623400D01*
Y-12420200D01*
G01X24976680Y-12630170D02*
X25068120Y-12420200D01*
G01X25162100Y-12623400D02*
X25225600Y-12420200D01*
X25289100Y-12623400D01*
G01X25266240Y-12552280D02*
X25184960D01*
G01X24616000Y-12725000D02*
X29569000D01*
G01X24755700Y-11988400D02*
X24819200Y-11785200D01*
X24882700Y-11988400D01*
G01X24859840Y-11917280D02*
X24778560D01*
G01X25022400Y-11995170D02*
X25017320Y-11991790D01*
Y-11985010D01*
X25022400Y-11981630D01*
X25027480Y-11985010D01*
Y-11991790D01*
X25022400Y-11995170D01*
G01X25281480Y-11802140D02*
X25266240Y-11791970D01*
X25248460Y-11785200D01*
X25228140D01*
X25205280Y-11795360D01*
X25187500Y-11812290D01*
X25174800Y-11832620D01*
X25164640Y-11866480D01*
X25162100Y-11896960D01*
X25167180Y-11927440D01*
X25174800Y-11947760D01*
X25190040Y-11968080D01*
X25207820Y-11981630D01*
X25225600Y-11988400D01*
X25243380D01*
X25261160Y-11981630D01*
X25276400Y-11971470D01*
X25289100Y-11957930D01*
G01X25365300Y-11988400D02*
X25428800Y-11785200D01*
X25492300Y-11988400D01*
G01X25469440Y-11917280D02*
X25388160D01*
G01X25576120Y-11785200D02*
Y-11930830D01*
X25586280Y-11961310D01*
X25606600Y-11981630D01*
X25632000Y-11988400D01*
X25657400Y-11981630D01*
X25677720Y-11961310D01*
X25687880Y-11930830D01*
Y-11785200D01*
G01X25804720D02*
X25865680D01*
G01X25835200D02*
Y-11988400D01*
G01X25804720D02*
X25865680D01*
G01X25987600Y-11785200D02*
Y-11988400D01*
X26089200D01*
G01X26178100D02*
X26241600Y-11785200D01*
X26305100Y-11988400D01*
G01X26282240Y-11917280D02*
X26200960D01*
G01X26386380Y-11988400D02*
Y-11785200D01*
X26503220Y-11988400D01*
Y-11785200D01*
G01X24616000Y-12090000D02*
X29569000D01*
G01X24760780Y-11353400D02*
Y-11150200D01*
X24877620Y-11353400D01*
Y-11150200D01*
G01X24976680Y-11360170D02*
X25068120Y-11150200D01*
G01X25162100Y-11353400D02*
X25225600Y-11150200D01*
X25289100Y-11353400D01*
G01X25266240Y-11282280D02*
X25184960D01*
G01X24616000Y-11455000D02*
X29569000D01*
G01X24760780Y-10718400D02*
Y-10515200D01*
X24877620Y-10718400D01*
Y-10515200D01*
G01X24976680Y-10725170D02*
X25068120Y-10515200D01*
G01X25162100Y-10718400D02*
X25225600Y-10515200D01*
X25289100Y-10718400D01*
G01X25266240Y-10647280D02*
X25184960D01*
G01X24753160Y-10083400D02*
Y-9880200D01*
X24819200Y-10049530D01*
X24885240Y-9880200D01*
Y-10083400D01*
G01X25022400Y-10090170D02*
X25017320Y-10086790D01*
Y-10080010D01*
X25022400Y-10076630D01*
X25027480Y-10080010D01*
Y-10086790D01*
X25022400Y-10090170D01*
G01X25365300Y-9880200D02*
X25428800Y-10083400D01*
X25492300Y-9880200D01*
G01X25568500Y-10083400D02*
X25632000Y-9880200D01*
X25695500Y-10083400D01*
G01X25672640Y-10012280D02*
X25591360D01*
G01X25784400Y-9880200D02*
Y-10083400D01*
X25886000D01*
G01X26089200D02*
X25987600D01*
Y-9880200D01*
X26089200D01*
G01X26048560Y-9978410D02*
X25987600D01*
G01X24616000Y-10185000D02*
X40999000D01*
G01X24760780Y-9448400D02*
Y-9245200D01*
X24877620Y-9448400D01*
Y-9245200D01*
G01X24976680Y-9455170D02*
X25068120Y-9245200D01*
G01X25162100Y-9448400D02*
X25225600Y-9245200D01*
X25289100Y-9448400D01*
G01X25266240Y-9377280D02*
X25184960D01*
G01X24616000Y-9550000D02*
X29569000D01*
G01X24616000Y-8915000D02*
X29569000D01*
G01X24845000Y-3593670D02*
X24868620Y-3561920D01*
X24896180Y-3546040D01*
X24927680Y-3540750D01*
X24967040Y-3551330D01*
X24994600Y-3577790D01*
X25002470Y-3609540D01*
X24998530Y-3641300D01*
X24982780Y-3667750D01*
X24904050Y-3720670D01*
X24868620Y-3757710D01*
X24845000Y-3810640D01*
X24837130Y-3858250D01*
X25002470D01*
G01X25159900Y-3593670D02*
X25183520Y-3561920D01*
X25211080Y-3546040D01*
X25242580Y-3540750D01*
X25281940Y-3551330D01*
X25309500Y-3577790D01*
X25317370Y-3609540D01*
X25313430Y-3641300D01*
X25297680Y-3667750D01*
X25218950Y-3720670D01*
X25183520Y-3757710D01*
X25159900Y-3810640D01*
X25152030Y-3858250D01*
X25317370D01*
G01X24990640Y-3175640D02*
X25014260Y-3202090D01*
X25041820Y-3217960D01*
X25077250Y-3223250D01*
X25112680Y-3212670D01*
X25140230Y-3191510D01*
X25159920Y-3154460D01*
X25163860Y-3112130D01*
X25155980Y-3069800D01*
X25136300Y-3043330D01*
X25108740Y-3022170D01*
X25081190Y-3016880D01*
X25053630Y-3022170D01*
X25018200Y-3043330D01*
X25030010Y-2905750D01*
X25136300D01*
G01X24762350Y-2588250D02*
Y-2270750D01*
X24715110Y-2334250D01*
G01Y-2588250D02*
X24809580D01*
G01X25124490D02*
Y-2270750D01*
X24978830Y-2498290D01*
X25175670D01*
G01X25392150Y-2270750D02*
X25360650Y-2281330D01*
X25337040Y-2307790D01*
X25321290Y-2339540D01*
X25309480Y-2381880D01*
X25305540Y-2429500D01*
X25309480Y-2477130D01*
X25321290Y-2519460D01*
X25337040Y-2551220D01*
X25360650Y-2577670D01*
X25392150Y-2588250D01*
X25423640Y-2577670D01*
X25447260Y-2551220D01*
X25463010Y-2519460D01*
X25474820Y-2477130D01*
X25478760Y-2429500D01*
X25474820Y-2381880D01*
X25463010Y-2339540D01*
X25447260Y-2307790D01*
X25423640Y-2281330D01*
X25392150Y-2270750D01*
G01X24762350Y-1953250D02*
X24730850Y-1947960D01*
X24703300Y-1926800D01*
X24679680Y-1895040D01*
X24663930Y-1858000D01*
X24656060Y-1815670D01*
Y-1773330D01*
X24663930Y-1731000D01*
X24679680Y-1693960D01*
X24703300Y-1662210D01*
X24730850Y-1641040D01*
X24762350Y-1635750D01*
X24793840Y-1641040D01*
X24821400Y-1662210D01*
X24845020Y-1693960D01*
X24860770Y-1731000D01*
X24868640Y-1773330D01*
Y-1815670D01*
X24860770Y-1858000D01*
X24845020Y-1895040D01*
X24821400Y-1926800D01*
X24793840Y-1947960D01*
X24762350Y-1953250D01*
G01X24793840Y-1868580D02*
X24841080Y-1953250D01*
G01X25077250Y-1635750D02*
Y-1953250D01*
G01X24986710Y-1635750D02*
X25167790D01*
G01X25392150Y-1953250D02*
Y-1810380D01*
X25313420Y-1635750D01*
G01X25470880D02*
X25392150Y-1810380D01*
G01X25581200Y-8724500D02*
X25644700Y-8521300D01*
X25708200Y-8724500D01*
G01X25685340Y-8653380D02*
X25604060D01*
G01X25797100Y-8724500D02*
Y-8521300D01*
X25858060D01*
X25878380Y-8531460D01*
X25893620Y-8555170D01*
X25898700Y-8582260D01*
X25893620Y-8609350D01*
X25880920Y-8629670D01*
X25858060Y-8639840D01*
X25797100D01*
G01X26000300Y-8724500D02*
Y-8521300D01*
X26061260D01*
X26081580Y-8531460D01*
X26096820Y-8555170D01*
X26101900Y-8582260D01*
X26096820Y-8609350D01*
X26084120Y-8629670D01*
X26061260Y-8639840D01*
X26000300D01*
G01X26203500Y-8724500D02*
Y-8521300D01*
X26267000D01*
X26287320Y-8531460D01*
X26300020Y-8545010D01*
X26305100Y-8572100D01*
X26300020Y-8599200D01*
X26284780Y-8616130D01*
X26267000Y-8626290D01*
X26203500D01*
G01X26267000D02*
X26305100Y-8724500D01*
G01X26457500D02*
X26437180Y-8721110D01*
X26419400Y-8707570D01*
X26404160Y-8687250D01*
X26394000Y-8663540D01*
X26388920Y-8636450D01*
Y-8609350D01*
X26394000Y-8582260D01*
X26404160Y-8558550D01*
X26419400Y-8538240D01*
X26437180Y-8524690D01*
X26457500Y-8521300D01*
X26477820Y-8524690D01*
X26495600Y-8538240D01*
X26510840Y-8558550D01*
X26521000Y-8582260D01*
X26526080Y-8609350D01*
Y-8636450D01*
X26521000Y-8663540D01*
X26510840Y-8687250D01*
X26495600Y-8707570D01*
X26477820Y-8721110D01*
X26457500Y-8724500D01*
G01X26597200Y-8521300D02*
X26660700Y-8724500D01*
X26724200Y-8521300D01*
G01X26800400Y-8724500D02*
X26863900Y-8521300D01*
X26927400Y-8724500D01*
G01X26904540Y-8653380D02*
X26823260D01*
G01X27016300Y-8521300D02*
Y-8724500D01*
X27117900D01*
G01X25447850Y22628330D02*
X25428800Y22641040D01*
X25406580Y22649500D01*
X25381180D01*
X25352600Y22636790D01*
X25330380Y22615630D01*
X25314500Y22590230D01*
X25301800Y22547900D01*
X25298620Y22509800D01*
X25304980Y22471700D01*
X25314500Y22446300D01*
X25333550Y22420890D01*
X25355780Y22403960D01*
X25378000Y22395500D01*
X25400220D01*
X25422450Y22403960D01*
X25441500Y22416660D01*
X25457380Y22433590D01*
G01X25565320Y22395500D02*
Y22649500D01*
G01X25698680D02*
Y22395500D01*
G01Y22522500D02*
X25565320D01*
G01X25806620Y22395500D02*
X25886000Y22649500D01*
X25965380Y22395500D01*
G01X25936800Y22484400D02*
X25835200D01*
G01X26066980Y22395500D02*
Y22649500D01*
X26213020Y22395500D01*
Y22649500D01*
G01X26413050Y22522500D02*
X26476550D01*
Y22446300D01*
X26457500Y22420890D01*
X26435270Y22403960D01*
X26403530Y22395500D01*
X26371780Y22403960D01*
X26349550Y22420890D01*
X26330500Y22446300D01*
X26317800Y22475930D01*
X26311450Y22509800D01*
Y22539430D01*
X26317800Y22564830D01*
X26330500Y22594470D01*
X26349550Y22619870D01*
X26368600Y22636790D01*
X26394000Y22649500D01*
X26416220D01*
X26441620Y22641040D01*
X26460680Y22624100D01*
G01X26711500Y22395500D02*
X26584500D01*
Y22649500D01*
X26711500D01*
G01X26660700Y22526740D02*
X26584500D01*
G01X26835320Y22429360D02*
X26860730Y22408200D01*
X26889300Y22395500D01*
X26914700D01*
X26940100Y22408200D01*
X26959150Y22429360D01*
X26968680Y22459000D01*
X26962330Y22488630D01*
X26946450Y22514030D01*
X26917870Y22530970D01*
X26879780Y22539430D01*
X26857550Y22556360D01*
X26848020Y22586000D01*
X26854380Y22615630D01*
X26870250Y22636790D01*
X26892470Y22649500D01*
X26914700D01*
X26936930Y22641040D01*
X26955980Y22619870D01*
G01X27346500Y22395500D02*
Y22649500D01*
X27422700D01*
X27448100Y22636790D01*
X27467150Y22607170D01*
X27473500Y22573300D01*
X27467150Y22539430D01*
X27451270Y22514030D01*
X27422700Y22501330D01*
X27346500D01*
G01X27727500Y22395500D02*
X27600500D01*
Y22649500D01*
X27727500D01*
G01X27676700Y22526740D02*
X27600500D01*
G01X27854500Y22395500D02*
Y22649500D01*
X27933870D01*
X27959270Y22636790D01*
X27975150Y22619870D01*
X27981500Y22586000D01*
X27975150Y22552130D01*
X27956100Y22530970D01*
X27933870Y22518260D01*
X27854500D01*
G01X27933870D02*
X27981500Y22395500D01*
G01X28489500D02*
X28362500D01*
Y22649500D01*
X28489500D01*
G01X28438700Y22526740D02*
X28362500D01*
G01X28749850Y22628330D02*
X28730800Y22641040D01*
X28708580Y22649500D01*
X28683180D01*
X28654600Y22636790D01*
X28632380Y22615630D01*
X28616500Y22590230D01*
X28603800Y22547900D01*
X28600620Y22509800D01*
X28606980Y22471700D01*
X28616500Y22446300D01*
X28635550Y22420890D01*
X28657780Y22403960D01*
X28680000Y22395500D01*
X28702220D01*
X28724450Y22403960D01*
X28743500Y22416660D01*
X28759380Y22433590D01*
G01X28870500Y22395500D02*
Y22649500D01*
X28949870D01*
X28975270Y22636790D01*
X28991150Y22619870D01*
X28997500Y22586000D01*
X28991150Y22552130D01*
X28972100Y22530970D01*
X28949870Y22518260D01*
X28870500D01*
G01X28949870D02*
X28997500Y22395500D01*
G01X29146730Y22480160D02*
X29229270D01*
G01X29442000Y22395500D02*
Y22649500D01*
X29403900Y22598700D01*
G01Y22395500D02*
X29480090D01*
G01X29696000Y22649500D02*
X29670600Y22641040D01*
X29651550Y22619870D01*
X29638850Y22594470D01*
X29629320Y22560600D01*
X29626150Y22522500D01*
X29629320Y22484400D01*
X29638850Y22450530D01*
X29651550Y22425130D01*
X29670600Y22403960D01*
X29696000Y22395500D01*
X29721400Y22403960D01*
X29740450Y22425130D01*
X29753150Y22450530D01*
X29762680Y22484400D01*
X29765850Y22522500D01*
X29762680Y22560600D01*
X29753150Y22594470D01*
X29740450Y22619870D01*
X29721400Y22641040D01*
X29696000Y22649500D01*
G01X29880150Y22446300D02*
X29899200Y22416660D01*
X29924600Y22399730D01*
X29953180Y22395500D01*
X29978580Y22399730D01*
X30003980Y22420890D01*
X30019850Y22446300D01*
X30023020Y22471700D01*
X30016680Y22501330D01*
X29994450Y22522500D01*
X29972220Y22530970D01*
X29943650D01*
G01X29972220D02*
X29991270Y22543670D01*
X30007150Y22564830D01*
X30013500Y22590230D01*
X30007150Y22615630D01*
X29991270Y22636790D01*
X29962700Y22649500D01*
X29934130Y22645270D01*
X29905550Y22628330D01*
G01X30204000Y22395500D02*
X30226220Y22399730D01*
X30251620Y22412430D01*
X30267500Y22433590D01*
X30273850Y22463230D01*
X30267500Y22492860D01*
X30248450Y22518260D01*
X30219870Y22530970D01*
X30188130D01*
X30169070Y22539430D01*
X30153200Y22560600D01*
X30146850Y22590230D01*
X30156380Y22619870D01*
X30178600Y22641040D01*
X30204000Y22649500D01*
X30229400Y22641040D01*
X30251620Y22619870D01*
X30261150Y22590230D01*
X30254800Y22560600D01*
X30238930Y22539430D01*
X30219870Y22530970D01*
X30188130D01*
X30159550Y22518260D01*
X30140500Y22492860D01*
X30134150Y22463230D01*
X30140500Y22433590D01*
X30156380Y22412430D01*
X30181780Y22399730D01*
X30204000Y22395500D01*
G01X30404020Y22425130D02*
X30426250Y22403960D01*
X30451650Y22395500D01*
X30477050Y22403960D01*
X30499270Y22429360D01*
X30515150Y22467470D01*
X30521500Y22505570D01*
Y22552130D01*
X30515150Y22590230D01*
X30499270Y22624100D01*
X30480220Y22641040D01*
X30458000Y22649500D01*
X30432600Y22641040D01*
X30413550Y22624100D01*
X30400850Y22598700D01*
X30394500Y22564830D01*
X30400850Y22535200D01*
X30416730Y22505570D01*
X30435780Y22488630D01*
X30458000Y22484400D01*
X30483400Y22492860D01*
X30502450Y22514030D01*
X30521500Y22552130D01*
G01X30705650Y22395500D02*
X30712000Y22450530D01*
X30721530Y22497090D01*
X30734220Y22539430D01*
X30750100Y22586000D01*
X30775500Y22649500D01*
X30648500D01*
G01X26061300Y-1477000D02*
Y-4017000D01*
G01X26228900Y23279500D02*
X26305090D01*
G01X26267000D02*
Y23025500D01*
G01X26228900D02*
X26305090D01*
G01X26447980D02*
Y23279500D01*
X26594020Y23025500D01*
Y23279500D01*
G01X26736900D02*
X26813090D01*
G01X26775000D02*
Y23025500D01*
G01X26736900D02*
X26813090D01*
G01X27029000Y23279500D02*
Y23025500D01*
G01X26955980Y23279500D02*
X27102020D01*
G01X27244900D02*
X27321090D01*
G01X27283000D02*
Y23025500D01*
G01X27244900D02*
X27321090D01*
G01X27457620D02*
X27537000Y23279500D01*
X27616380Y23025500D01*
G01X27587800Y23114400D02*
X27486200D01*
G01X27727500Y23279500D02*
Y23025500D01*
X27854500D01*
G01X28235500D02*
Y23279500D01*
X28314870D01*
X28340270Y23266790D01*
X28356150Y23249870D01*
X28362500Y23216000D01*
X28356150Y23182130D01*
X28337100Y23160970D01*
X28314870Y23148260D01*
X28235500D01*
G01X28314870D02*
X28362500Y23025500D01*
G01X28616500D02*
X28489500D01*
Y23279500D01*
X28616500D01*
G01X28565700Y23156740D02*
X28489500D01*
G01X28743500Y23279500D02*
Y23025500D01*
X28870500D01*
G01X29124500D02*
X28997500D01*
Y23279500D01*
X29124500D01*
G01X29073700Y23156740D02*
X28997500D01*
G01X29235620Y23025500D02*
X29315000Y23279500D01*
X29394380Y23025500D01*
G01X29365800Y23114400D02*
X29264200D01*
G01X29502320Y23059360D02*
X29527730Y23038200D01*
X29556300Y23025500D01*
X29581700D01*
X29607100Y23038200D01*
X29626150Y23059360D01*
X29635680Y23089000D01*
X29629330Y23118630D01*
X29613450Y23144030D01*
X29584870Y23160970D01*
X29546780Y23169430D01*
X29524550Y23186360D01*
X29515020Y23216000D01*
X29521380Y23245630D01*
X29537250Y23266790D01*
X29559470Y23279500D01*
X29581700D01*
X29603930Y23271040D01*
X29622980Y23249870D01*
G01X29886500Y23025500D02*
X29759500D01*
Y23279500D01*
X29886500D01*
G01X29835700Y23156740D02*
X29759500D01*
G01X26415550Y-1635750D02*
Y-1953250D01*
G01X26325010Y-1635750D02*
X26506090D01*
G01X26730450Y-1953250D02*
X26698950Y-1947960D01*
X26671400Y-1926800D01*
X26647780Y-1895040D01*
X26632030Y-1858000D01*
X26624160Y-1815670D01*
Y-1773330D01*
X26632030Y-1731000D01*
X26647780Y-1693960D01*
X26671400Y-1662210D01*
X26698950Y-1641040D01*
X26730450Y-1635750D01*
X26761940Y-1641040D01*
X26789500Y-1662210D01*
X26813120Y-1693960D01*
X26828870Y-1731000D01*
X26836740Y-1773330D01*
Y-1815670D01*
X26828870Y-1858000D01*
X26813120Y-1895040D01*
X26789500Y-1926800D01*
X26761940Y-1947960D01*
X26730450Y-1953250D01*
G01X26966620Y-1635750D02*
Y-1953250D01*
X27124080D01*
G01X27438980D02*
X27281520D01*
Y-1635750D01*
X27438980D01*
G01X27376000Y-1789200D02*
X27281520D01*
G01X27596420Y-1953250D02*
Y-1635750D01*
X27694830D01*
X27726330Y-1651630D01*
X27746010Y-1672790D01*
X27753880Y-1715130D01*
X27746010Y-1757460D01*
X27722390Y-1783910D01*
X27694830Y-1799800D01*
X27596420D01*
G01X27694830D02*
X27753880Y-1953250D01*
G01X27891630D02*
X27990050Y-1635750D01*
X28088470Y-1953250D01*
G01X28053030Y-1842130D02*
X27927060D01*
G01X28214410Y-1953250D02*
Y-1635750D01*
X28395490Y-1953250D01*
Y-1635750D01*
G01X28706460Y-1662210D02*
X28682830Y-1646330D01*
X28655280Y-1635750D01*
X28623790D01*
X28588350Y-1651630D01*
X28560800Y-1678080D01*
X28541120Y-1709840D01*
X28525360Y-1762750D01*
X28521430Y-1810380D01*
X28529310Y-1858000D01*
X28541120Y-1889750D01*
X28564740Y-1921510D01*
X28592300Y-1942670D01*
X28619850Y-1953250D01*
X28647400D01*
X28674960Y-1942670D01*
X28698580Y-1926800D01*
X28718270Y-1905640D01*
G01X29013480Y-1953250D02*
X28856020D01*
Y-1635750D01*
X29013480D01*
G01X28950500Y-1789200D02*
X28856020D01*
G01X29178790Y-1963830D02*
X29320510Y-1635750D01*
G01X29474010Y-1953250D02*
Y-1635750D01*
X29655090Y-1953250D01*
Y-1635750D01*
G01X29879450Y-1953250D02*
X29847950Y-1947960D01*
X29820400Y-1926800D01*
X29796780Y-1895040D01*
X29781030Y-1858000D01*
X29773160Y-1815670D01*
Y-1773330D01*
X29781030Y-1731000D01*
X29796780Y-1693960D01*
X29820400Y-1662210D01*
X29847950Y-1641040D01*
X29879450Y-1635750D01*
X29910940Y-1641040D01*
X29938500Y-1662210D01*
X29962120Y-1693960D01*
X29977870Y-1731000D01*
X29985740Y-1773330D01*
Y-1815670D01*
X29977870Y-1858000D01*
X29962120Y-1895040D01*
X29938500Y-1926800D01*
X29910940Y-1947960D01*
X29879450Y-1953250D01*
G01X30194350Y-1635750D02*
Y-1953250D01*
G01X30103810Y-1635750D02*
X30284890D01*
G01X30587980Y-1953250D02*
X30430520D01*
Y-1635750D01*
X30587980D01*
G01X30525000Y-1789200D02*
X30430520D01*
G01X30741480Y-1910930D02*
X30772970Y-1937380D01*
X30808400Y-1953250D01*
X30839900D01*
X30871390Y-1937380D01*
X30895010Y-1910930D01*
X30906820Y-1873870D01*
X30898950Y-1836840D01*
X30879260Y-1805090D01*
X30843830Y-1783910D01*
X30796600Y-1773330D01*
X30769040Y-1752170D01*
X30757220Y-1715130D01*
X30765100Y-1678080D01*
X30784780Y-1651630D01*
X30812340Y-1635750D01*
X30839900D01*
X30867450Y-1646330D01*
X30891080Y-1672790D01*
G01X26705150Y23660500D02*
Y23914500D01*
X26768650D01*
X26794050Y23901790D01*
X26813100Y23884870D01*
X26828980Y23859470D01*
X26841680Y23829830D01*
X26844850Y23787500D01*
X26841680Y23745160D01*
X26828980Y23715530D01*
X26813100Y23690130D01*
X26794050Y23673200D01*
X26768650Y23660500D01*
X26705150D01*
G01X27092500D02*
X26965500D01*
Y23914500D01*
X27092500D01*
G01X27041700Y23791740D02*
X26965500D01*
G01X27216320Y23694360D02*
X27241730Y23673200D01*
X27270300Y23660500D01*
X27295700D01*
X27321100Y23673200D01*
X27340150Y23694360D01*
X27349680Y23724000D01*
X27343330Y23753630D01*
X27327450Y23779030D01*
X27298870Y23795970D01*
X27260780Y23804430D01*
X27238550Y23821360D01*
X27229020Y23851000D01*
X27235380Y23880630D01*
X27251250Y23901790D01*
X27273470Y23914500D01*
X27295700D01*
X27317930Y23906040D01*
X27336980Y23884870D01*
G01X27606850Y23893330D02*
X27587800Y23906040D01*
X27565580Y23914500D01*
X27540180D01*
X27511600Y23901790D01*
X27489380Y23880630D01*
X27473500Y23855230D01*
X27460800Y23812900D01*
X27457620Y23774800D01*
X27463980Y23736700D01*
X27473500Y23711300D01*
X27492550Y23685890D01*
X27514780Y23668960D01*
X27537000Y23660500D01*
X27559220D01*
X27581450Y23668960D01*
X27600500Y23681660D01*
X27616380Y23698590D01*
G01X27727500Y23660500D02*
Y23914500D01*
X27806870D01*
X27832270Y23901790D01*
X27848150Y23884870D01*
X27854500Y23851000D01*
X27848150Y23817130D01*
X27829100Y23795970D01*
X27806870Y23783260D01*
X27727500D01*
G01X27806870D02*
X27854500Y23660500D01*
G01X28006900Y23914500D02*
X28083090D01*
G01X28045000D02*
Y23660500D01*
G01X28006900D02*
X28083090D01*
G01X28235500D02*
Y23914500D01*
X28311700D01*
X28337100Y23901790D01*
X28356150Y23872170D01*
X28362500Y23838300D01*
X28356150Y23804430D01*
X28340270Y23779030D01*
X28311700Y23766330D01*
X28235500D01*
G01X28553000Y23914500D02*
Y23660500D01*
G01X28479980Y23914500D02*
X28626020D01*
G01X28768900D02*
X28845090D01*
G01X28807000D02*
Y23660500D01*
G01X28768900D02*
X28845090D01*
G01X29061000D02*
X29035600Y23664730D01*
X29013380Y23681660D01*
X28994320Y23707060D01*
X28981620Y23736700D01*
X28975270Y23770570D01*
Y23804430D01*
X28981620Y23838300D01*
X28994320Y23867940D01*
X29013380Y23893330D01*
X29035600Y23910270D01*
X29061000Y23914500D01*
X29086400Y23910270D01*
X29108620Y23893330D01*
X29127680Y23867940D01*
X29140380Y23838300D01*
X29146730Y23804430D01*
Y23770570D01*
X29140380Y23736700D01*
X29127680Y23707060D01*
X29108620Y23681660D01*
X29086400Y23664730D01*
X29061000Y23660500D01*
G01X29241980D02*
Y23914500D01*
X29388020Y23660500D01*
Y23914500D01*
G01X26965500Y24295500D02*
Y24549500D01*
X27044870D01*
X27070270Y24536790D01*
X27086150Y24519870D01*
X27092500Y24486000D01*
X27086150Y24452130D01*
X27067100Y24430970D01*
X27044870Y24418260D01*
X26965500D01*
G01X27044870D02*
X27092500Y24295500D01*
G01X27346500D02*
X27219500D01*
Y24549500D01*
X27346500D01*
G01X27295700Y24426740D02*
X27219500D01*
G01X27457620Y24549500D02*
X27537000Y24295500D01*
X27616380Y24549500D01*
G01X27752900D02*
X27829090D01*
G01X27791000D02*
Y24295500D01*
G01X27752900D02*
X27829090D01*
G01X27978320Y24329360D02*
X28003730Y24308200D01*
X28032300Y24295500D01*
X28057700D01*
X28083100Y24308200D01*
X28102150Y24329360D01*
X28111680Y24359000D01*
X28105330Y24388630D01*
X28089450Y24414030D01*
X28060870Y24430970D01*
X28022780Y24439430D01*
X28000550Y24456360D01*
X27991020Y24486000D01*
X27997380Y24515630D01*
X28013250Y24536790D01*
X28035470Y24549500D01*
X28057700D01*
X28079930Y24541040D01*
X28098980Y24519870D01*
G01X28260900Y24549500D02*
X28337090D01*
G01X28299000D02*
Y24295500D01*
G01X28260900D02*
X28337090D01*
G01X28553000D02*
X28527600Y24299730D01*
X28505380Y24316660D01*
X28486320Y24342060D01*
X28473620Y24371700D01*
X28467270Y24405570D01*
Y24439430D01*
X28473620Y24473300D01*
X28486320Y24502940D01*
X28505380Y24528330D01*
X28527600Y24545270D01*
X28553000Y24549500D01*
X28578400Y24545270D01*
X28600620Y24528330D01*
X28619680Y24502940D01*
X28632380Y24473300D01*
X28638730Y24439430D01*
Y24405570D01*
X28632380Y24371700D01*
X28619680Y24342060D01*
X28600620Y24316660D01*
X28578400Y24299730D01*
X28553000Y24295500D01*
G01X28733980D02*
Y24549500D01*
X28880020Y24295500D01*
Y24549500D01*
G01X28994320Y24329360D02*
X29019730Y24308200D01*
X29048300Y24295500D01*
X29073700D01*
X29099100Y24308200D01*
X29118150Y24329360D01*
X29127680Y24359000D01*
X29121330Y24388630D01*
X29105450Y24414030D01*
X29076870Y24430970D01*
X29038780Y24439430D01*
X29016550Y24456360D01*
X29007020Y24486000D01*
X29013380Y24515630D01*
X29029250Y24536790D01*
X29051470Y24549500D01*
X29073700D01*
X29095930Y24541040D01*
X29114980Y24519870D01*
G01X27918000Y-8280000D02*
Y-15900000D01*
G01X28037380Y-15163400D02*
Y-14960200D01*
X28154220Y-15163400D01*
Y-14960200D01*
G01X28253280Y-15170170D02*
X28344720Y-14960200D01*
G01X28438700Y-15163400D02*
X28502200Y-14960200D01*
X28565700Y-15163400D01*
G01X28542840Y-15092280D02*
X28461560D01*
G01X28095200Y-14480000D02*
Y-14276800D01*
X28064720Y-14317440D01*
G01Y-14480000D02*
X28125680D01*
G01X28242520Y-14449530D02*
X28257760Y-14466460D01*
X28275540Y-14476610D01*
X28298400Y-14480000D01*
X28321260Y-14473230D01*
X28339040Y-14459680D01*
X28351740Y-14435980D01*
X28354280Y-14408880D01*
X28349200Y-14381790D01*
X28336500Y-14364850D01*
X28318720Y-14351310D01*
X28300940Y-14347920D01*
X28283160Y-14351310D01*
X28260300Y-14364850D01*
X28267920Y-14276800D01*
X28336500D01*
G01X28438100Y-14480000D02*
X28501600Y-14276800D01*
X28565100Y-14480000D01*
G01X28542240Y-14408880D02*
X28460960D01*
G01X28648920Y-14276800D02*
Y-14422430D01*
X28659080Y-14452910D01*
X28679400Y-14473230D01*
X28704800Y-14480000D01*
X28730200Y-14473230D01*
X28750520Y-14452910D01*
X28760680Y-14422430D01*
Y-14276800D01*
G01X28923240Y-14378400D02*
X28974040D01*
Y-14439360D01*
X28958800Y-14459680D01*
X28941020Y-14473230D01*
X28915620Y-14480000D01*
X28890220Y-14473230D01*
X28872440Y-14459680D01*
X28857200Y-14439360D01*
X28847040Y-14415650D01*
X28841960Y-14388560D01*
Y-14364850D01*
X28847040Y-14344540D01*
X28857200Y-14320820D01*
X28872440Y-14300510D01*
X28887680Y-14286960D01*
X28908000Y-14276800D01*
X28925780D01*
X28946100Y-14283570D01*
X28961340Y-14297120D01*
G01X29062940Y-14310670D02*
X29078180Y-14290350D01*
X29095960Y-14280190D01*
X29116280Y-14276800D01*
X29141680Y-14283570D01*
X29159460Y-14300510D01*
X29164540Y-14320820D01*
X29162000Y-14341150D01*
X29151840Y-14358080D01*
X29101040Y-14391950D01*
X29078180Y-14415650D01*
X29062940Y-14449530D01*
X29057860Y-14480000D01*
X29164540D01*
G01X29314400Y-14276800D02*
X29294080Y-14283570D01*
X29278840Y-14300510D01*
X29268680Y-14320820D01*
X29261060Y-14347920D01*
X29258520Y-14378400D01*
X29261060Y-14408880D01*
X29268680Y-14435980D01*
X29278840Y-14456300D01*
X29294080Y-14473230D01*
X29314400Y-14480000D01*
X29334720Y-14473230D01*
X29349960Y-14456300D01*
X29360120Y-14435980D01*
X29367740Y-14408880D01*
X29370280Y-14378400D01*
X29367740Y-14347920D01*
X29360120Y-14320820D01*
X29349960Y-14300510D01*
X29334720Y-14283570D01*
X29314400Y-14276800D01*
G01X28091200Y-13807000D02*
Y-13603800D01*
X28060720Y-13644440D01*
G01Y-13807000D02*
X28121680D01*
G01X28238520Y-13776530D02*
X28253760Y-13793460D01*
X28271540Y-13803610D01*
X28294400Y-13807000D01*
X28317260Y-13800230D01*
X28335040Y-13786680D01*
X28347740Y-13762980D01*
X28350280Y-13735880D01*
X28345200Y-13708790D01*
X28332500Y-13691850D01*
X28314720Y-13678310D01*
X28296940Y-13674920D01*
X28279160Y-13678310D01*
X28256300Y-13691850D01*
X28263920Y-13603800D01*
X28332500D01*
G01X28434100Y-13807000D02*
X28497600Y-13603800D01*
X28561100Y-13807000D01*
G01X28538240Y-13735880D02*
X28456960D01*
G01X28644920Y-13603800D02*
Y-13749430D01*
X28655080Y-13779910D01*
X28675400Y-13800230D01*
X28700800Y-13807000D01*
X28726200Y-13800230D01*
X28746520Y-13779910D01*
X28756680Y-13749430D01*
Y-13603800D01*
G01X28919240Y-13705400D02*
X28970040D01*
Y-13766360D01*
X28954800Y-13786680D01*
X28937020Y-13800230D01*
X28911620Y-13807000D01*
X28886220Y-13800230D01*
X28868440Y-13786680D01*
X28853200Y-13766360D01*
X28843040Y-13742650D01*
X28837960Y-13715560D01*
Y-13691850D01*
X28843040Y-13671540D01*
X28853200Y-13647820D01*
X28868440Y-13627510D01*
X28883680Y-13613960D01*
X28904000Y-13603800D01*
X28921780D01*
X28942100Y-13610570D01*
X28957340Y-13624120D01*
G01X29058940Y-13637670D02*
X29074180Y-13617350D01*
X29091960Y-13607190D01*
X29112280Y-13603800D01*
X29137680Y-13610570D01*
X29155460Y-13627510D01*
X29160540Y-13647820D01*
X29158000Y-13668150D01*
X29147840Y-13685080D01*
X29097040Y-13718950D01*
X29074180Y-13742650D01*
X29058940Y-13776530D01*
X29053860Y-13807000D01*
X29160540D01*
G01X29310400Y-13603800D02*
X29290080Y-13610570D01*
X29274840Y-13627510D01*
X29264680Y-13647820D01*
X29257060Y-13674920D01*
X29254520Y-13705400D01*
X29257060Y-13735880D01*
X29264680Y-13762980D01*
X29274840Y-13783300D01*
X29290080Y-13800230D01*
X29310400Y-13807000D01*
X29330720Y-13800230D01*
X29345960Y-13783300D01*
X29356120Y-13762980D01*
X29363740Y-13735880D01*
X29366280Y-13705400D01*
X29363740Y-13674920D01*
X29356120Y-13647820D01*
X29345960Y-13627510D01*
X29330720Y-13610570D01*
X29310400Y-13603800D01*
G01X28095200Y-13230000D02*
Y-13026800D01*
X28064720Y-13067440D01*
G01Y-13230000D02*
X28125680D01*
G01X28242520Y-13199530D02*
X28257760Y-13216460D01*
X28275540Y-13226610D01*
X28298400Y-13230000D01*
X28321260Y-13223230D01*
X28339040Y-13209680D01*
X28351740Y-13185980D01*
X28354280Y-13158880D01*
X28349200Y-13131790D01*
X28336500Y-13114850D01*
X28318720Y-13101310D01*
X28300940Y-13097920D01*
X28283160Y-13101310D01*
X28260300Y-13114850D01*
X28267920Y-13026800D01*
X28336500D01*
G01X28438100Y-13230000D02*
X28501600Y-13026800D01*
X28565100Y-13230000D01*
G01X28542240Y-13158880D02*
X28460960D01*
G01X28648920Y-13026800D02*
Y-13172430D01*
X28659080Y-13202910D01*
X28679400Y-13223230D01*
X28704800Y-13230000D01*
X28730200Y-13223230D01*
X28750520Y-13202910D01*
X28760680Y-13172430D01*
Y-13026800D01*
G01X28923240Y-13128400D02*
X28974040D01*
Y-13189360D01*
X28958800Y-13209680D01*
X28941020Y-13223230D01*
X28915620Y-13230000D01*
X28890220Y-13223230D01*
X28872440Y-13209680D01*
X28857200Y-13189360D01*
X28847040Y-13165650D01*
X28841960Y-13138560D01*
Y-13114850D01*
X28847040Y-13094540D01*
X28857200Y-13070820D01*
X28872440Y-13050510D01*
X28887680Y-13036960D01*
X28908000Y-13026800D01*
X28925780D01*
X28946100Y-13033570D01*
X28961340Y-13047120D01*
G01X29062940Y-13060670D02*
X29078180Y-13040350D01*
X29095960Y-13030190D01*
X29116280Y-13026800D01*
X29141680Y-13033570D01*
X29159460Y-13050510D01*
X29164540Y-13070820D01*
X29162000Y-13091150D01*
X29151840Y-13108080D01*
X29101040Y-13141950D01*
X29078180Y-13165650D01*
X29062940Y-13199530D01*
X29057860Y-13230000D01*
X29164540D01*
G01X29314400Y-13026800D02*
X29294080Y-13033570D01*
X29278840Y-13050510D01*
X29268680Y-13070820D01*
X29261060Y-13097920D01*
X29258520Y-13128400D01*
X29261060Y-13158880D01*
X29268680Y-13185980D01*
X29278840Y-13206300D01*
X29294080Y-13223230D01*
X29314400Y-13230000D01*
X29334720Y-13223230D01*
X29349960Y-13206300D01*
X29360120Y-13185980D01*
X29367740Y-13158880D01*
X29370280Y-13128400D01*
X29367740Y-13097920D01*
X29360120Y-13070820D01*
X29349960Y-13050510D01*
X29334720Y-13033570D01*
X29314400Y-13026800D01*
G01X28037380Y-12623400D02*
Y-12420200D01*
X28154220Y-12623400D01*
Y-12420200D01*
G01X28253280Y-12630170D02*
X28344720Y-12420200D01*
G01X28438700Y-12623400D02*
X28502200Y-12420200D01*
X28565700Y-12623400D01*
G01X28542840Y-12552280D02*
X28461560D01*
G01X28095200Y-11980000D02*
Y-11776800D01*
X28064720Y-11817440D01*
G01Y-11980000D02*
X28125680D01*
G01X28242520Y-11949530D02*
X28257760Y-11966460D01*
X28275540Y-11976610D01*
X28298400Y-11980000D01*
X28321260Y-11973230D01*
X28339040Y-11959680D01*
X28351740Y-11935980D01*
X28354280Y-11908880D01*
X28349200Y-11881790D01*
X28336500Y-11864850D01*
X28318720Y-11851310D01*
X28300940Y-11847920D01*
X28283160Y-11851310D01*
X28260300Y-11864850D01*
X28267920Y-11776800D01*
X28336500D01*
G01X28438100Y-11980000D02*
X28501600Y-11776800D01*
X28565100Y-11980000D01*
G01X28542240Y-11908880D02*
X28460960D01*
G01X28648920Y-11776800D02*
Y-11922430D01*
X28659080Y-11952910D01*
X28679400Y-11973230D01*
X28704800Y-11980000D01*
X28730200Y-11973230D01*
X28750520Y-11952910D01*
X28760680Y-11922430D01*
Y-11776800D01*
G01X28923240Y-11878400D02*
X28974040D01*
Y-11939360D01*
X28958800Y-11959680D01*
X28941020Y-11973230D01*
X28915620Y-11980000D01*
X28890220Y-11973230D01*
X28872440Y-11959680D01*
X28857200Y-11939360D01*
X28847040Y-11915650D01*
X28841960Y-11888560D01*
Y-11864850D01*
X28847040Y-11844540D01*
X28857200Y-11820820D01*
X28872440Y-11800510D01*
X28887680Y-11786960D01*
X28908000Y-11776800D01*
X28925780D01*
X28946100Y-11783570D01*
X28961340Y-11797120D01*
G01X29062940Y-11810670D02*
X29078180Y-11790350D01*
X29095960Y-11780190D01*
X29116280Y-11776800D01*
X29141680Y-11783570D01*
X29159460Y-11800510D01*
X29164540Y-11820820D01*
X29162000Y-11841150D01*
X29151840Y-11858080D01*
X29101040Y-11891950D01*
X29078180Y-11915650D01*
X29062940Y-11949530D01*
X29057860Y-11980000D01*
X29164540D01*
G01X29314400Y-11776800D02*
X29294080Y-11783570D01*
X29278840Y-11800510D01*
X29268680Y-11820820D01*
X29261060Y-11847920D01*
X29258520Y-11878400D01*
X29261060Y-11908880D01*
X29268680Y-11935980D01*
X29278840Y-11956300D01*
X29294080Y-11973230D01*
X29314400Y-11980000D01*
X29334720Y-11973230D01*
X29349960Y-11956300D01*
X29360120Y-11935980D01*
X29367740Y-11908880D01*
X29370280Y-11878400D01*
X29367740Y-11847920D01*
X29360120Y-11820820D01*
X29349960Y-11800510D01*
X29334720Y-11783570D01*
X29314400Y-11776800D01*
G01X28037380Y-11353400D02*
Y-11150200D01*
X28154220Y-11353400D01*
Y-11150200D01*
G01X28253280Y-11360170D02*
X28344720Y-11150200D01*
G01X28438700Y-11353400D02*
X28502200Y-11150200D01*
X28565700Y-11353400D01*
G01X28542840Y-11282280D02*
X28461560D01*
G01X28037380Y-10718400D02*
Y-10515200D01*
X28154220Y-10718400D01*
Y-10515200D01*
G01X28253280Y-10725170D02*
X28344720Y-10515200D01*
G01X28438700Y-10718400D02*
X28502200Y-10515200D01*
X28565700Y-10718400D01*
G01X28542840Y-10647280D02*
X28461560D01*
G01X28095800Y-10083400D02*
Y-9880200D01*
X28065320Y-9920840D01*
G01Y-10083400D02*
X28126280D01*
G01X28243120Y-10052930D02*
X28258360Y-10069860D01*
X28276140Y-10080010D01*
X28299000Y-10083400D01*
X28321860Y-10076630D01*
X28339640Y-10063080D01*
X28352340Y-10039380D01*
X28354880Y-10012280D01*
X28349800Y-9985190D01*
X28337100Y-9968250D01*
X28319320Y-9954710D01*
X28301540Y-9951320D01*
X28283760Y-9954710D01*
X28260900Y-9968250D01*
X28268520Y-9880200D01*
X28337100D01*
G01X28438700Y-10083400D02*
X28502200Y-9880200D01*
X28565700Y-10083400D01*
G01X28542840Y-10012280D02*
X28461560D01*
G01X28649520Y-9880200D02*
Y-10025830D01*
X28659680Y-10056310D01*
X28680000Y-10076630D01*
X28705400Y-10083400D01*
X28730800Y-10076630D01*
X28751120Y-10056310D01*
X28761280Y-10025830D01*
Y-9880200D01*
G01X28923840Y-9981800D02*
X28974640D01*
Y-10042760D01*
X28959400Y-10063080D01*
X28941620Y-10076630D01*
X28916220Y-10083400D01*
X28890820Y-10076630D01*
X28873040Y-10063080D01*
X28857800Y-10042760D01*
X28847640Y-10019050D01*
X28842560Y-9991960D01*
Y-9968250D01*
X28847640Y-9947940D01*
X28857800Y-9924220D01*
X28873040Y-9903910D01*
X28888280Y-9890360D01*
X28908600Y-9880200D01*
X28926380D01*
X28946700Y-9886970D01*
X28961940Y-9900520D01*
G01X29063540Y-9914070D02*
X29078780Y-9893750D01*
X29096560Y-9883590D01*
X29116880Y-9880200D01*
X29142280Y-9886970D01*
X29160060Y-9903910D01*
X29165140Y-9924220D01*
X29162600Y-9944550D01*
X29152440Y-9961480D01*
X29101640Y-9995350D01*
X29078780Y-10019050D01*
X29063540Y-10052930D01*
X29058460Y-10083400D01*
X29165140D01*
G01X29315000Y-9880200D02*
X29294680Y-9886970D01*
X29279440Y-9903910D01*
X29269280Y-9924220D01*
X29261660Y-9951320D01*
X29259120Y-9981800D01*
X29261660Y-10012280D01*
X29269280Y-10039380D01*
X29279440Y-10059700D01*
X29294680Y-10076630D01*
X29315000Y-10083400D01*
X29335320Y-10076630D01*
X29350560Y-10059700D01*
X29360720Y-10039380D01*
X29368340Y-10012280D01*
X29370880Y-9981800D01*
X29368340Y-9951320D01*
X29360720Y-9924220D01*
X29350560Y-9903910D01*
X29335320Y-9886970D01*
X29315000Y-9880200D01*
G01X28037380Y-9448400D02*
Y-9245200D01*
X28154220Y-9448400D01*
Y-9245200D01*
G01X28253280Y-9455170D02*
X28344720Y-9245200D01*
G01X28438700Y-9448400D02*
X28502200Y-9245200D01*
X28565700Y-9448400D01*
G01X28542840Y-9377280D02*
X28461560D01*
G01X27543690Y-2617000D02*
Y-2299500D01*
X27622420D01*
X27653920Y-2315380D01*
X27677540Y-2336540D01*
X27697230Y-2368290D01*
X27712970Y-2405340D01*
X27716910Y-2458250D01*
X27712970Y-2511170D01*
X27697230Y-2548210D01*
X27677540Y-2579970D01*
X27653920Y-2601130D01*
X27622420Y-2617000D01*
X27543690D01*
G01X27897960Y-2299500D02*
X27992430D01*
G01X27945200D02*
Y-2617000D01*
G01X27897960D02*
X27992430D01*
G01X28161680D02*
X28260100Y-2299500D01*
X28358520Y-2617000D01*
G01X28323080Y-2505880D02*
X28197110D01*
G01X28787540Y-2617000D02*
Y-2299500D01*
X28889900Y-2564080D01*
X28992260Y-2299500D01*
Y-2617000D01*
G01X29106380D02*
X29204800Y-2299500D01*
X29303220Y-2617000D01*
G01X29267780Y-2505880D02*
X29141810D01*
G01X29437030Y-2617000D02*
X29602370Y-2299500D01*
G01X29437030D02*
X29602370Y-2617000D01*
G01X28299000Y-15900000D02*
Y-16662000D01*
G01X28446320Y-8724500D02*
Y-8521300D01*
X28497120D01*
X28517440Y-8531460D01*
X28532680Y-8545010D01*
X28545380Y-8565320D01*
X28555540Y-8589040D01*
X28558080Y-8622900D01*
X28555540Y-8656770D01*
X28545380Y-8680480D01*
X28532680Y-8700800D01*
X28517440Y-8714340D01*
X28497120Y-8724500D01*
X28446320D01*
G01X28641900D02*
X28705400Y-8521300D01*
X28768900Y-8724500D01*
G01X28746040Y-8653380D02*
X28664760D01*
G01X28908600Y-8521300D02*
Y-8724500D01*
G01X28850180Y-8521300D02*
X28967020D01*
G01X29162600Y-8724500D02*
X29061000D01*
Y-8521300D01*
X29162600D01*
G01X29121960Y-8619510D02*
X29061000D01*
G01X28299000Y24740000D02*
Y25502000D01*
G01X29845860Y-15682410D02*
X29866180Y-15699340D01*
X29889040Y-15709500D01*
X29909360D01*
X29929680Y-15699340D01*
X29944920Y-15682410D01*
X29952540Y-15658700D01*
X29947460Y-15635000D01*
X29934760Y-15614670D01*
X29911900Y-15601130D01*
X29881420Y-15594350D01*
X29863640Y-15580810D01*
X29856020Y-15557100D01*
X29861100Y-15533390D01*
X29873800Y-15516460D01*
X29891580Y-15506300D01*
X29909360D01*
X29927140Y-15513070D01*
X29942380Y-15530010D01*
G01X30158280Y-15523240D02*
X30143040Y-15513070D01*
X30125260Y-15506300D01*
X30104940D01*
X30082080Y-15516460D01*
X30064300Y-15533390D01*
X30051600Y-15553720D01*
X30041440Y-15587580D01*
X30038900Y-15618060D01*
X30043980Y-15648540D01*
X30051600Y-15668860D01*
X30066840Y-15689180D01*
X30084620Y-15702730D01*
X30102400Y-15709500D01*
X30120180D01*
X30137960Y-15702730D01*
X30153200Y-15692570D01*
X30165900Y-15679030D01*
G01X30242100Y-15709500D02*
X30305600Y-15506300D01*
X30369100Y-15709500D01*
G01X30346240Y-15638380D02*
X30264960D01*
G01X30458000Y-15506300D02*
Y-15709500D01*
X30559600D01*
G01X30762800D02*
X30661200D01*
Y-15506300D01*
X30762800D01*
G01X30722160Y-15604510D02*
X30661200D01*
G01X29569000Y-15900000D02*
Y-8280000D01*
G01X29845860Y-13840910D02*
X29866180Y-13857840D01*
X29889040Y-13868000D01*
X29909360D01*
X29929680Y-13857840D01*
X29944920Y-13840910D01*
X29952540Y-13817200D01*
X29947460Y-13793500D01*
X29934760Y-13773170D01*
X29911900Y-13759630D01*
X29881420Y-13752850D01*
X29863640Y-13739310D01*
X29856020Y-13715600D01*
X29861100Y-13691890D01*
X29873800Y-13674960D01*
X29891580Y-13664800D01*
X29909360D01*
X29927140Y-13671570D01*
X29942380Y-13688510D01*
G01X30071920Y-13664800D02*
X30132880D01*
G01X30102400D02*
Y-13868000D01*
G01X30071920D02*
X30132880D01*
G01X30257340Y-13664800D02*
X30353860D01*
X30257340Y-13868000D01*
X30353860D01*
G01X30559600D02*
X30458000D01*
Y-13664800D01*
X30559600D01*
G01X30518960Y-13763010D02*
X30458000D01*
G01X29899200Y-10515200D02*
Y-10718400D01*
G01X29840780Y-10515200D02*
X29957620D01*
G01X30071920D02*
X30132880D01*
G01X30102400D02*
Y-10718400D01*
G01X30071920D02*
X30132880D01*
G01X30305600Y-10515200D02*
Y-10718400D01*
G01X30247180Y-10515200D02*
X30364020D01*
G01X30458000D02*
Y-10718400D01*
X30559600D01*
G01X30762800D02*
X30661200D01*
Y-10515200D01*
X30762800D01*
G01X30722160Y-10613410D02*
X30661200D01*
G01X30343700Y-14418340D02*
X30305600Y-14392930D01*
X30261160Y-14376000D01*
X30210350D01*
X30153190Y-14401410D01*
X30108750Y-14443730D01*
X30077000Y-14494540D01*
X30051590Y-14579200D01*
X30045240Y-14655400D01*
X30057950Y-14731600D01*
X30077000Y-14782410D01*
X30115100Y-14833210D01*
X30159550Y-14867070D01*
X30203990Y-14884000D01*
X30248450D01*
X30292900Y-14867070D01*
X30331000Y-14841680D01*
X30362760Y-14807820D01*
G01X30972350Y-14460660D02*
X31010450Y-14409870D01*
X31054900Y-14384460D01*
X31105700Y-14376000D01*
X31169200Y-14392930D01*
X31213650Y-14435270D01*
X31226350Y-14486060D01*
X31220000Y-14536880D01*
X31194600Y-14579200D01*
X31067600Y-14663870D01*
X31010450Y-14723140D01*
X30972350Y-14807820D01*
X30959650Y-14884000D01*
X31226350D01*
G01X31677200D02*
Y-14376000D01*
X31442240Y-14740070D01*
X31759760D01*
G01X31969300Y-14782410D02*
X32007390Y-14841680D01*
X32058190Y-14875540D01*
X32115350Y-14884000D01*
X32166160Y-14875540D01*
X32216960Y-14833210D01*
X32248700Y-14782410D01*
X32255050Y-14731600D01*
X32242350Y-14672350D01*
X32197900Y-14630010D01*
X32153450Y-14613060D01*
X32096300D01*
G01X32153450D02*
X32191550Y-14587670D01*
X32223300Y-14545340D01*
X32236000Y-14494540D01*
X32223300Y-14443730D01*
X32191550Y-14401410D01*
X32134400Y-14376000D01*
X32077250Y-14384460D01*
X32020100Y-14418340D01*
G01X32477300Y-14807820D02*
X32515390Y-14850140D01*
X32559840Y-14875540D01*
X32616990Y-14884000D01*
X32674160Y-14867070D01*
X32718600Y-14833210D01*
X32750350Y-14773940D01*
X32756700Y-14706210D01*
X32744000Y-14638470D01*
X32712250Y-14596130D01*
X32667790Y-14562270D01*
X32623350Y-14553810D01*
X32578900Y-14562270D01*
X32521750Y-14596130D01*
X32540800Y-14376000D01*
X32712250D01*
G01X32985300Y-14807820D02*
X33023390Y-14850140D01*
X33067840Y-14875540D01*
X33124990Y-14884000D01*
X33182160Y-14867070D01*
X33226600Y-14833210D01*
X33258350Y-14773940D01*
X33264700Y-14706210D01*
X33252000Y-14638470D01*
X33220250Y-14596130D01*
X33175790Y-14562270D01*
X33131350Y-14553810D01*
X33086900Y-14562270D01*
X33029750Y-14596130D01*
X33048800Y-14376000D01*
X33220250D01*
G01X30839000Y-15265000D02*
Y-13360000D01*
G01X31175300Y-12442300D02*
X31139490Y-12418410D01*
X31097720Y-12402500D01*
X31049970D01*
X30996250Y-12426380D01*
X30954480Y-12466170D01*
X30924630Y-12513920D01*
X30900750Y-12593500D01*
X30894790Y-12665130D01*
X30906730Y-12736750D01*
X30924630Y-12784510D01*
X30960440Y-12832260D01*
X31002230Y-12864090D01*
X31043990Y-12880000D01*
X31085770D01*
X31127560Y-12864090D01*
X31163370Y-12840220D01*
X31193210Y-12808390D01*
G01X31390200Y-12402500D02*
Y-12744710D01*
X31414070Y-12816350D01*
X31461810Y-12864090D01*
X31521490Y-12880000D01*
X31581190Y-12864090D01*
X31628930Y-12816350D01*
X31652800Y-12744710D01*
Y-12402500D01*
G01X31873660Y-12816350D02*
X31921410Y-12856130D01*
X31975130Y-12880000D01*
X32022870D01*
X32070620Y-12856130D01*
X32106430Y-12816350D01*
X32124340Y-12760620D01*
X32112400Y-12704920D01*
X32082560Y-12657170D01*
X32028840Y-12625330D01*
X31957230Y-12609420D01*
X31915440Y-12577590D01*
X31897530Y-12521880D01*
X31909480Y-12466170D01*
X31939310Y-12426380D01*
X31981090Y-12402500D01*
X32022870D01*
X32064650Y-12418410D01*
X32100470Y-12458210D01*
G01X32476490Y-12402500D02*
Y-12880000D01*
G01X32339230Y-12402500D02*
X32613770D01*
G01X32953990Y-12880000D02*
X32906250Y-12872040D01*
X32864480Y-12840220D01*
X32828660Y-12792460D01*
X32804790Y-12736750D01*
X32792850Y-12673080D01*
Y-12609420D01*
X32804790Y-12545750D01*
X32828660Y-12490040D01*
X32864480Y-12442300D01*
X32906250Y-12410460D01*
X32953990Y-12402500D01*
X33001740Y-12410460D01*
X33043520Y-12442300D01*
X33079340Y-12490040D01*
X33103210Y-12545750D01*
X33115150Y-12609420D01*
Y-12673080D01*
X33103210Y-12736750D01*
X33079340Y-12792460D01*
X33043520Y-12840220D01*
X33001740Y-12872040D01*
X32953990Y-12880000D01*
G01X33276320D02*
Y-12402500D01*
X33431490Y-12800420D01*
X33586680Y-12402500D01*
Y-12880000D01*
G01X34028370D02*
X33789630D01*
Y-12402500D01*
X34028370D01*
G01X33932870Y-12633290D02*
X33789630D01*
G01X34267130Y-12880000D02*
Y-12402500D01*
X34416340D01*
X34464090Y-12426380D01*
X34493930Y-12458210D01*
X34505870Y-12521880D01*
X34493930Y-12585550D01*
X34458120Y-12625330D01*
X34416340Y-12649210D01*
X34267130D01*
G01X34416340D02*
X34505870Y-12880000D01*
G01X35460870D02*
X35222130D01*
Y-12402500D01*
X35460870D01*
G01X35365370Y-12633290D02*
X35222130D01*
G01X35669790Y-12402500D02*
X35818990Y-12880000D01*
X35968210Y-12402500D01*
G01X36147290Y-12880000D02*
X36296490Y-12402500D01*
X36445710Y-12880000D01*
G01X36391990Y-12712880D02*
X36201000D01*
G01X36654630Y-12402500D02*
Y-12880000D01*
X36893370D01*
G01X37120200Y-12402500D02*
Y-12744710D01*
X37144070Y-12816350D01*
X37191810Y-12864090D01*
X37251490Y-12880000D01*
X37311190Y-12864090D01*
X37358930Y-12816350D01*
X37382800Y-12744710D01*
Y-12402500D01*
G01X37579790Y-12880000D02*
X37728990Y-12402500D01*
X37878210Y-12880000D01*
G01X37824490Y-12712880D02*
X37633500D01*
G01X38206490Y-12402500D02*
Y-12880000D01*
G01X38069230Y-12402500D02*
X38343770D01*
G01X38612380D02*
X38755610D01*
G01X38683990D02*
Y-12880000D01*
G01X38612380D02*
X38755610D01*
G01X39161490D02*
X39113750Y-12872040D01*
X39071980Y-12840220D01*
X39036160Y-12792460D01*
X39012290Y-12736750D01*
X39000350Y-12673080D01*
Y-12609420D01*
X39012290Y-12545750D01*
X39036160Y-12490040D01*
X39071980Y-12442300D01*
X39113750Y-12410460D01*
X39161490Y-12402500D01*
X39209240Y-12410460D01*
X39251020Y-12442300D01*
X39286840Y-12490040D01*
X39310710Y-12545750D01*
X39322650Y-12609420D01*
Y-12673080D01*
X39310710Y-12736750D01*
X39286840Y-12792460D01*
X39251020Y-12840220D01*
X39209240Y-12872040D01*
X39161490Y-12880000D01*
G01X39501730D02*
Y-12402500D01*
X39776270Y-12880000D01*
Y-12402500D01*
G01X40480600D02*
X40707400D01*
X40480600Y-12880000D01*
X40707400D01*
G01X31823250Y-15709500D02*
Y-15455500D01*
X31785150Y-15506300D01*
G01Y-15709500D02*
X31861340D01*
G01X32020100Y-15717960D02*
X32134400Y-15455500D01*
G01X32331250Y-15709500D02*
Y-15455500D01*
X32293150Y-15506300D01*
G01Y-15709500D02*
X32369340D01*
G01X31247940Y-13868000D02*
Y-13664800D01*
X31344460D01*
G01X31308900Y-13763010D02*
X31247940D01*
G01X31446060Y-13840910D02*
X31466380Y-13857840D01*
X31489240Y-13868000D01*
X31509560D01*
X31529880Y-13857840D01*
X31545120Y-13840910D01*
X31552740Y-13817200D01*
X31547660Y-13793500D01*
X31534960Y-13773170D01*
X31512100Y-13759630D01*
X31481620Y-13752850D01*
X31463840Y-13739310D01*
X31456220Y-13715600D01*
X31461300Y-13691890D01*
X31474000Y-13674960D01*
X31491780Y-13664800D01*
X31509560D01*
X31527340Y-13671570D01*
X31542580Y-13688510D01*
G01X31758480Y-13681740D02*
X31743240Y-13671570D01*
X31725460Y-13664800D01*
X31705140D01*
X31682280Y-13674960D01*
X31664500Y-13691890D01*
X31651800Y-13712220D01*
X31641640Y-13746080D01*
X31639100Y-13776560D01*
X31644180Y-13807040D01*
X31651800Y-13827360D01*
X31667040Y-13847680D01*
X31684820Y-13861230D01*
X31702600Y-13868000D01*
X31720380D01*
X31738160Y-13861230D01*
X31753400Y-13851070D01*
X31766100Y-13837530D01*
G01X31839760Y-13868000D02*
Y-13664800D01*
X31905800Y-13834130D01*
X31971840Y-13664800D01*
Y-13868000D01*
G01X32253780D02*
Y-13664800D01*
X32370620Y-13868000D01*
Y-13664800D01*
G01X32515400Y-13868000D02*
X32495080Y-13864610D01*
X32477300Y-13851070D01*
X32462060Y-13830750D01*
X32451900Y-13807040D01*
X32446820Y-13779950D01*
Y-13752850D01*
X32451900Y-13725760D01*
X32462060Y-13702050D01*
X32477300Y-13681740D01*
X32495080Y-13668190D01*
X32515400Y-13664800D01*
X32535720Y-13668190D01*
X32553500Y-13681740D01*
X32568740Y-13702050D01*
X32578900Y-13725760D01*
X32583980Y-13752850D01*
Y-13779950D01*
X32578900Y-13807040D01*
X32568740Y-13830750D01*
X32553500Y-13851070D01*
X32535720Y-13864610D01*
X32515400Y-13868000D01*
G01X32407120Y-12080000D02*
X32168380D01*
Y-11602500D01*
X32407120D01*
G01X32311620Y-11833290D02*
X32168380D01*
G01X32616040Y-11602500D02*
X32765240Y-12080000D01*
X32914460Y-11602500D01*
G01X33093540Y-12080000D02*
X33242740Y-11602500D01*
X33391960Y-12080000D01*
G01X33338240Y-11912880D02*
X33147250D01*
G01X33600880Y-11602500D02*
Y-12080000D01*
X33839620D01*
G01X34120160Y-11920840D02*
X34275340D01*
G01X34806550Y-11642300D02*
X34770740Y-11618410D01*
X34728970Y-11602500D01*
X34681220D01*
X34627500Y-11626380D01*
X34585730Y-11666170D01*
X34555880Y-11713920D01*
X34532000Y-11793500D01*
X34526040Y-11865130D01*
X34537980Y-11936750D01*
X34555880Y-11984510D01*
X34591690Y-12032260D01*
X34633480Y-12064090D01*
X34675240Y-12080000D01*
X34717020D01*
X34758810Y-12064090D01*
X34794620Y-12040220D01*
X34824460Y-12008390D01*
G01X35015480Y-12080000D02*
Y-11602500D01*
X35290020Y-12080000D01*
Y-11602500D01*
G01X35630240D02*
X35582500Y-11618410D01*
X35546690Y-11658210D01*
X35522820Y-11705950D01*
X35504910Y-11769630D01*
X35498950Y-11841260D01*
X35504910Y-11912880D01*
X35522820Y-11976550D01*
X35546690Y-12024300D01*
X35582500Y-12064090D01*
X35630240Y-12080000D01*
X35677990Y-12064090D01*
X35713810Y-12024300D01*
X35737680Y-11976550D01*
X35755590Y-11912880D01*
X35761550Y-11841260D01*
X35755590Y-11769630D01*
X35737680Y-11705950D01*
X35713810Y-11658210D01*
X35677990Y-11618410D01*
X35630240Y-11602500D01*
G01X35976450Y-12008390D02*
X36012250Y-12048170D01*
X36054030Y-12072040D01*
X36107740Y-12080000D01*
X36161470Y-12064090D01*
X36203240Y-12032260D01*
X36233090Y-11976550D01*
X36239050Y-11912880D01*
X36227120Y-11849210D01*
X36197270Y-11809420D01*
X36155490Y-11777590D01*
X36113720Y-11769630D01*
X36071940Y-11777590D01*
X36018230Y-11809420D01*
X36036130Y-11602500D01*
X36197270D01*
G01X36453950Y-12008390D02*
X36489750Y-12048170D01*
X36531530Y-12072040D01*
X36585240Y-12080000D01*
X36638970Y-12064090D01*
X36680740Y-12032260D01*
X36710590Y-11976550D01*
X36716550Y-11912880D01*
X36704620Y-11849210D01*
X36674770Y-11809420D01*
X36632990Y-11777590D01*
X36591220Y-11769630D01*
X36549440Y-11777590D01*
X36495730Y-11809420D01*
X36513630Y-11602500D01*
X36674770D01*
G01X36949350Y-11682080D02*
X36985160Y-11634340D01*
X37026940Y-11610460D01*
X37074690Y-11602500D01*
X37134370Y-11618410D01*
X37176150Y-11658210D01*
X37188090Y-11705950D01*
X37182120Y-11753720D01*
X37158240Y-11793500D01*
X37038880Y-11873080D01*
X36985160Y-11928790D01*
X36949350Y-12008390D01*
X36937410Y-12080000D01*
X37188090D01*
G01X37462660Y-11920840D02*
X37617840D01*
G01X37898380Y-12080000D02*
Y-11602500D01*
X38041620D01*
X38089370Y-11626380D01*
X38125180Y-11682080D01*
X38137120Y-11745750D01*
X38125180Y-11809420D01*
X38095340Y-11857170D01*
X38041620Y-11881060D01*
X37898380D01*
G01X38340070Y-12080000D02*
Y-11602500D01*
X38495240Y-12000420D01*
X38650430Y-11602500D01*
Y-12080000D01*
G01X38841450D02*
Y-11602500D01*
X38960810D01*
X39008560Y-11626380D01*
X39044370Y-11658210D01*
X39074220Y-11705950D01*
X39098090Y-11761680D01*
X39104050Y-11841260D01*
X39098090Y-11920840D01*
X39074220Y-11976550D01*
X39044370Y-12024300D01*
X39008560Y-12056130D01*
X38960810Y-12080000D01*
X38841450D01*
G01X39336850Y-11602500D02*
X39563650D01*
X39336850Y-12080000D01*
X39563650D01*
G01X32783100Y-11264500D02*
Y-10787000D01*
X33009900D01*
G01X32926340Y-11017790D02*
X32783100D01*
G01X33224790Y-11264500D02*
X33373990Y-10787000D01*
X33523210Y-11264500D01*
G01X33469490Y-11097380D02*
X33278500D01*
G01X33899240Y-11009830D02*
X33923120Y-10985960D01*
X33941020Y-10946180D01*
X33952970Y-10890450D01*
X33941020Y-10842710D01*
X33917150Y-10810880D01*
X33875370Y-10787000D01*
X33714230D01*
Y-11264500D01*
X33911190D01*
X33952970Y-11232670D01*
X33976840Y-11184920D01*
X33988770Y-11129210D01*
X33976840Y-11073510D01*
X33941020Y-11025760D01*
X33899240Y-11009830D01*
X33714230D01*
G01X34209630Y-11264500D02*
Y-10787000D01*
X34358840D01*
X34406590Y-10810880D01*
X34436430Y-10842710D01*
X34448370Y-10906380D01*
X34436430Y-10970050D01*
X34400620Y-11009830D01*
X34358840Y-11033710D01*
X34209630D01*
G01X34358840D02*
X34448370Y-11264500D01*
G01X34734880Y-10787000D02*
X34878110D01*
G01X34806490D02*
Y-11264500D01*
G01X34734880D02*
X34878110D01*
G01X35415300Y-10826800D02*
X35379490Y-10802910D01*
X35337720Y-10787000D01*
X35289970D01*
X35236250Y-10810880D01*
X35194480Y-10850670D01*
X35164630Y-10898420D01*
X35140750Y-10978000D01*
X35134790Y-11049630D01*
X35146730Y-11121250D01*
X35164630Y-11169010D01*
X35200440Y-11216760D01*
X35242230Y-11248590D01*
X35283990Y-11264500D01*
X35325770D01*
X35367560Y-11248590D01*
X35403370Y-11224720D01*
X35433210Y-11192890D01*
G01X35612290Y-11264500D02*
X35761490Y-10787000D01*
X35910710Y-11264500D01*
G01X35856990Y-11097380D02*
X35666000D01*
G01X36238990Y-10787000D02*
Y-11264500D01*
G01X36101730Y-10787000D02*
X36376270D01*
G01X36644880D02*
X36788110D01*
G01X36716490D02*
Y-11264500D01*
G01X36644880D02*
X36788110D01*
G01X37193990D02*
X37146250Y-11256540D01*
X37104480Y-11224720D01*
X37068660Y-11176960D01*
X37044790Y-11121250D01*
X37032850Y-11057580D01*
Y-10993920D01*
X37044790Y-10930250D01*
X37068660Y-10874540D01*
X37104480Y-10826800D01*
X37146250Y-10794960D01*
X37193990Y-10787000D01*
X37241740Y-10794960D01*
X37283520Y-10826800D01*
X37319340Y-10874540D01*
X37343210Y-10930250D01*
X37355150Y-10993920D01*
Y-11057580D01*
X37343210Y-11121250D01*
X37319340Y-11176960D01*
X37283520Y-11224720D01*
X37241740Y-11256540D01*
X37193990Y-11264500D01*
G01X37534230D02*
Y-10787000D01*
X37808770Y-11264500D01*
Y-10787000D01*
G01X33379000Y-15900000D02*
Y-13360000D01*
G01X33823490Y-14376000D02*
X33772690Y-14392930D01*
X33734600Y-14435270D01*
X33709200Y-14486060D01*
X33690150Y-14553810D01*
X33683800Y-14630010D01*
X33690150Y-14706210D01*
X33709200Y-14773940D01*
X33734600Y-14824750D01*
X33772690Y-14867070D01*
X33823490Y-14884000D01*
X33874290Y-14867070D01*
X33912400Y-14824750D01*
X33937800Y-14773940D01*
X33956850Y-14706210D01*
X33963200Y-14630010D01*
X33956850Y-14553810D01*
X33937800Y-14486060D01*
X33912400Y-14435270D01*
X33874290Y-14392930D01*
X33823490Y-14376000D01*
G01X34223540Y-14824750D02*
X34268000Y-14867070D01*
X34318800Y-14884000D01*
X34369600Y-14867070D01*
X34414050Y-14816280D01*
X34445800Y-14740070D01*
X34458500Y-14663870D01*
Y-14570740D01*
X34445800Y-14494540D01*
X34414050Y-14426800D01*
X34375950Y-14392930D01*
X34331490Y-14376000D01*
X34280690Y-14392930D01*
X34242600Y-14426800D01*
X34217200Y-14477590D01*
X34204500Y-14545340D01*
X34217200Y-14604600D01*
X34248950Y-14663870D01*
X34287050Y-14697740D01*
X34331490Y-14706210D01*
X34382290Y-14689280D01*
X34420400Y-14646940D01*
X34458500Y-14570740D01*
G01X33526320Y-13868000D02*
Y-13664800D01*
X33577120D01*
X33597440Y-13674960D01*
X33612680Y-13688510D01*
X33625380Y-13708820D01*
X33635540Y-13732540D01*
X33638080Y-13766400D01*
X33635540Y-13800270D01*
X33625380Y-13823980D01*
X33612680Y-13844300D01*
X33597440Y-13857840D01*
X33577120Y-13868000D01*
X33526320D01*
G01X33734600D02*
Y-13664800D01*
X33798100D01*
X33818420Y-13674960D01*
X33831120Y-13688510D01*
X33836200Y-13715600D01*
X33831120Y-13742700D01*
X33815880Y-13759630D01*
X33798100Y-13769790D01*
X33734600D01*
G01X33798100D02*
X33836200Y-13868000D01*
G01X33925100D02*
X33988600Y-13664800D01*
X34052100Y-13868000D01*
G01X34029240Y-13796880D02*
X33947960D01*
G01X34115600Y-13664800D02*
X34151160Y-13868000D01*
X34191800Y-13664800D01*
X34232440Y-13868000D01*
X34268000Y-13664800D01*
G01X34364520D02*
X34425480D01*
G01X34395000D02*
Y-13868000D01*
G01X34364520D02*
X34425480D01*
G01X34539780D02*
Y-13664800D01*
X34656620Y-13868000D01*
Y-13664800D01*
G01X34816640Y-13766400D02*
X34867440D01*
Y-13827360D01*
X34852200Y-13847680D01*
X34834420Y-13861230D01*
X34809020Y-13868000D01*
X34783620Y-13861230D01*
X34765840Y-13847680D01*
X34750600Y-13827360D01*
X34740440Y-13803650D01*
X34735360Y-13776560D01*
Y-13752850D01*
X34740440Y-13732540D01*
X34750600Y-13708820D01*
X34765840Y-13688510D01*
X34781080Y-13674960D01*
X34801400Y-13664800D01*
X34819180D01*
X34839500Y-13671570D01*
X34854740Y-13685120D01*
G01X35149380Y-13868000D02*
Y-13664800D01*
X35266220Y-13868000D01*
Y-13664800D01*
G01X35355120D02*
Y-13810430D01*
X35365280Y-13840910D01*
X35385600Y-13861230D01*
X35411000Y-13868000D01*
X35436400Y-13861230D01*
X35456720Y-13840910D01*
X35466880Y-13810430D01*
Y-13664800D01*
G01X35548160Y-13868000D02*
Y-13664800D01*
X35614200Y-13834130D01*
X35680240Y-13664800D01*
Y-13868000D01*
G01X35837720Y-13759630D02*
X35847880Y-13749470D01*
X35855500Y-13732540D01*
X35860580Y-13708820D01*
X35855500Y-13688510D01*
X35845340Y-13674960D01*
X35827560Y-13664800D01*
X35758980D01*
Y-13868000D01*
X35842800D01*
X35860580Y-13854460D01*
X35870740Y-13834130D01*
X35875820Y-13810430D01*
X35870740Y-13786720D01*
X35855500Y-13766400D01*
X35837720Y-13759630D01*
X35758980D01*
G01X36071400Y-13868000D02*
X35969800D01*
Y-13664800D01*
X36071400D01*
G01X36030760Y-13763010D02*
X35969800D01*
G01X36173000Y-13868000D02*
Y-13664800D01*
X36236500D01*
X36256820Y-13674960D01*
X36269520Y-13688510D01*
X36274600Y-13715600D01*
X36269520Y-13742700D01*
X36254280Y-13759630D01*
X36236500Y-13769790D01*
X36173000D01*
G01X36236500D02*
X36274600Y-13868000D01*
G01X34756950Y-14714670D02*
X34922050D01*
G01X35347490Y-14376000D02*
X35296690Y-14392930D01*
X35258600Y-14435270D01*
X35233200Y-14486060D01*
X35214150Y-14553810D01*
X35207800Y-14630010D01*
X35214150Y-14706210D01*
X35233200Y-14773940D01*
X35258600Y-14824750D01*
X35296690Y-14867070D01*
X35347490Y-14884000D01*
X35398290Y-14867070D01*
X35436400Y-14824750D01*
X35461800Y-14773940D01*
X35480850Y-14706210D01*
X35487200Y-14630010D01*
X35480850Y-14553810D01*
X35461800Y-14486060D01*
X35436400Y-14435270D01*
X35398290Y-14392930D01*
X35347490Y-14376000D01*
G01X35734850Y-14672350D02*
X35779300Y-14613060D01*
X35817400Y-14579200D01*
X35868200Y-14562270D01*
X35912660Y-14579200D01*
X35944400Y-14613060D01*
X35969800Y-14663870D01*
X35976150Y-14723140D01*
X35969800Y-14773940D01*
X35944400Y-14824750D01*
X35906290Y-14867070D01*
X35861850Y-14884000D01*
X35811050Y-14867070D01*
X35766600Y-14816280D01*
X35741200Y-14740070D01*
X35734850Y-14655400D01*
X35747540Y-14545340D01*
X35766600Y-14486060D01*
X35798340Y-14426800D01*
X35842800Y-14384460D01*
X35887250Y-14376000D01*
X35931700Y-14392930D01*
X35963460Y-14435270D01*
G01X36223800Y-14807820D02*
X36261890Y-14850140D01*
X36306340Y-14875540D01*
X36363490Y-14884000D01*
X36420660Y-14867070D01*
X36465100Y-14833210D01*
X36496850Y-14773940D01*
X36503200Y-14706210D01*
X36490500Y-14638470D01*
X36458750Y-14596130D01*
X36414290Y-14562270D01*
X36369850Y-14553810D01*
X36325400Y-14562270D01*
X36268250Y-14596130D01*
X36287300Y-14376000D01*
X36458750D01*
G01X36947700Y-14884000D02*
Y-14376000D01*
X36712740Y-14740070D01*
X37030260D01*
G01X37239800Y-14782410D02*
X37277890Y-14841680D01*
X37328690Y-14875540D01*
X37385850Y-14884000D01*
X37436660Y-14875540D01*
X37487460Y-14833210D01*
X37519200Y-14782410D01*
X37525550Y-14731600D01*
X37512850Y-14672350D01*
X37468400Y-14630010D01*
X37423950Y-14613060D01*
X37366800D01*
G01X37423950D02*
X37462050Y-14587670D01*
X37493800Y-14545340D01*
X37506500Y-14494540D01*
X37493800Y-14443730D01*
X37462050Y-14401410D01*
X37404900Y-14376000D01*
X37347750Y-14384460D01*
X37290600Y-14418340D01*
G01X37963700Y-14884000D02*
Y-14376000D01*
X37728740Y-14740070D01*
X38046260D01*
G01X34649000Y23475000D02*
Y22205000D01*
G01Y24105000D02*
Y22835000D01*
G01X35283990Y-16789000D02*
Y-16154000D01*
X35187980Y-16280990D01*
G01Y-16789000D02*
X35380010D01*
G01X35563400Y-9727800D02*
X35598960Y-9931000D01*
X35639600Y-9727800D01*
X35680240Y-9931000D01*
X35715800Y-9727800D01*
G01X35812320D02*
X35873280D01*
G01X35842800D02*
Y-9931000D01*
G01X35812320D02*
X35873280D01*
G01X35995200Y-9727800D02*
Y-9931000D01*
X36096800D01*
G01X36183160D02*
Y-9727800D01*
X36249200Y-9897130D01*
X36315240Y-9727800D01*
Y-9931000D01*
G01X36421920Y-9727800D02*
X36482880D01*
G01X36452400D02*
Y-9931000D01*
G01X36421920D02*
X36482880D01*
G01X36597180D02*
Y-9727800D01*
X36714020Y-9931000D01*
Y-9727800D01*
G01X36874040Y-9829400D02*
X36924840D01*
Y-9890360D01*
X36909600Y-9910680D01*
X36891820Y-9924230D01*
X36866420Y-9931000D01*
X36841020Y-9924230D01*
X36823240Y-9910680D01*
X36808000Y-9890360D01*
X36797840Y-9866650D01*
X36792760Y-9839560D01*
Y-9815850D01*
X36797840Y-9795540D01*
X36808000Y-9771820D01*
X36823240Y-9751510D01*
X36838480Y-9737960D01*
X36858800Y-9727800D01*
X36876580D01*
X36896900Y-9734570D01*
X36912140Y-9748120D01*
G01X37062000Y-9727800D02*
Y-9931000D01*
G01X37003580Y-9727800D02*
X37120420D01*
G01X37265200Y-9931000D02*
X37244880Y-9927610D01*
X37227100Y-9914070D01*
X37211860Y-9893750D01*
X37201700Y-9870040D01*
X37196620Y-9842950D01*
Y-9815850D01*
X37201700Y-9788760D01*
X37211860Y-9765050D01*
X37227100Y-9744740D01*
X37244880Y-9731190D01*
X37265200Y-9727800D01*
X37285520Y-9731190D01*
X37303300Y-9744740D01*
X37318540Y-9765050D01*
X37328700Y-9788760D01*
X37333780Y-9815850D01*
Y-9842950D01*
X37328700Y-9870040D01*
X37318540Y-9893750D01*
X37303300Y-9914070D01*
X37285520Y-9927610D01*
X37265200Y-9931000D01*
G01X37409980D02*
Y-9727800D01*
X37526820Y-9931000D01*
Y-9727800D01*
G01X37666520Y-9968250D02*
X37676680Y-9924230D01*
G01X38011960Y-9931000D02*
Y-9727800D01*
X38078000Y-9897130D01*
X38144040Y-9727800D01*
Y-9931000D01*
G01X38217700D02*
X38281200Y-9727800D01*
X38344700Y-9931000D01*
G01X38321840Y-9859880D02*
X38240560D01*
G01X38687600Y-9727800D02*
X38667280Y-9734570D01*
X38652040Y-9751510D01*
X38641880Y-9771820D01*
X38634260Y-9798920D01*
X38631720Y-9829400D01*
X38634260Y-9859880D01*
X38641880Y-9886980D01*
X38652040Y-9907300D01*
X38667280Y-9924230D01*
X38687600Y-9931000D01*
X38707920Y-9924230D01*
X38723160Y-9907300D01*
X38733320Y-9886980D01*
X38740940Y-9859880D01*
X38743480Y-9829400D01*
X38740940Y-9798920D01*
X38733320Y-9771820D01*
X38723160Y-9751510D01*
X38707920Y-9734570D01*
X38687600Y-9727800D01*
G01X38890800Y-9931000D02*
Y-9727800D01*
X38860320Y-9768440D01*
G01Y-9931000D02*
X38921280D01*
G01X39094000D02*
X39111780Y-9927610D01*
X39132100Y-9917460D01*
X39144800Y-9900530D01*
X39149880Y-9876810D01*
X39144800Y-9853110D01*
X39129560Y-9832790D01*
X39106700Y-9822630D01*
X39081300D01*
X39066060Y-9815850D01*
X39053360Y-9798920D01*
X39048280Y-9775220D01*
X39055900Y-9751510D01*
X39073680Y-9734570D01*
X39094000Y-9727800D01*
X39114320Y-9734570D01*
X39132100Y-9751510D01*
X39139720Y-9775220D01*
X39134640Y-9798920D01*
X39121940Y-9815850D01*
X39106700Y-9822630D01*
X39081300D01*
X39058440Y-9832790D01*
X39043200Y-9853110D01*
X39038120Y-9876810D01*
X39043200Y-9900530D01*
X39055900Y-9917460D01*
X39076220Y-9927610D01*
X39094000Y-9931000D01*
G01X39297200D02*
X39314980Y-9927610D01*
X39335300Y-9917460D01*
X39348000Y-9900530D01*
X39353080Y-9876810D01*
X39348000Y-9853110D01*
X39332760Y-9832790D01*
X39309900Y-9822630D01*
X39284500D01*
X39269260Y-9815850D01*
X39256560Y-9798920D01*
X39251480Y-9775220D01*
X39259100Y-9751510D01*
X39276880Y-9734570D01*
X39297200Y-9727800D01*
X39317520Y-9734570D01*
X39335300Y-9751510D01*
X39342920Y-9775220D01*
X39337840Y-9798920D01*
X39325140Y-9815850D01*
X39309900Y-9822630D01*
X39284500D01*
X39261640Y-9832790D01*
X39246400Y-9853110D01*
X39241320Y-9876810D01*
X39246400Y-9900530D01*
X39259100Y-9917460D01*
X39279420Y-9927610D01*
X39297200Y-9931000D01*
G01X39495320D02*
X39500400Y-9886980D01*
X39508020Y-9849720D01*
X39518180Y-9815850D01*
X39530880Y-9778600D01*
X39551200Y-9727800D01*
X39449600D01*
G01X35157000Y22649500D02*
X35131600Y22641040D01*
X35112550Y22619870D01*
X35099850Y22594470D01*
X35090320Y22560600D01*
X35087150Y22522500D01*
X35090320Y22484400D01*
X35099850Y22450530D01*
X35112550Y22425130D01*
X35131600Y22403960D01*
X35157000Y22395500D01*
X35182400Y22403960D01*
X35201450Y22425130D01*
X35214150Y22450530D01*
X35223680Y22484400D01*
X35226850Y22522500D01*
X35223680Y22560600D01*
X35214150Y22594470D01*
X35201450Y22619870D01*
X35182400Y22641040D01*
X35157000Y22649500D01*
G01X35341150Y22446300D02*
X35360200Y22416660D01*
X35385600Y22399730D01*
X35414180Y22395500D01*
X35439580Y22399730D01*
X35464980Y22420890D01*
X35480850Y22446300D01*
X35484020Y22471700D01*
X35477680Y22501330D01*
X35455450Y22522500D01*
X35433220Y22530970D01*
X35404650D01*
G01X35433220D02*
X35452270Y22543670D01*
X35468150Y22564830D01*
X35474500Y22590230D01*
X35468150Y22615630D01*
X35452270Y22636790D01*
X35423700Y22649500D01*
X35395130Y22645270D01*
X35366550Y22628330D01*
G01X35585620Y22395500D02*
X35665000Y22649500D01*
X35744380Y22395500D01*
G01X35715800Y22484400D02*
X35614200D01*
G01X35849150Y22649500D02*
Y22467470D01*
X35861850Y22429360D01*
X35887250Y22403960D01*
X35919000Y22395500D01*
X35950750Y22403960D01*
X35976150Y22429360D01*
X35988850Y22467470D01*
Y22649500D01*
G01X36192050Y22522500D02*
X36255550D01*
Y22446300D01*
X36236500Y22420890D01*
X36214270Y22403960D01*
X36182530Y22395500D01*
X36150780Y22403960D01*
X36128550Y22420890D01*
X36109500Y22446300D01*
X36096800Y22475930D01*
X36090450Y22509800D01*
Y22539430D01*
X36096800Y22564830D01*
X36109500Y22594470D01*
X36128550Y22619870D01*
X36147600Y22636790D01*
X36173000Y22649500D01*
X36195220D01*
X36220620Y22641040D01*
X36239680Y22624100D01*
G01X36366670Y22607170D02*
X36385730Y22632560D01*
X36407950Y22645270D01*
X36433350Y22649500D01*
X36465100Y22641040D01*
X36487330Y22619870D01*
X36493680Y22594470D01*
X36490500Y22569060D01*
X36477800Y22547900D01*
X36414300Y22505570D01*
X36385730Y22475930D01*
X36366670Y22433590D01*
X36360320Y22395500D01*
X36493680D01*
G01X36681000D02*
Y22649500D01*
X36642900Y22598700D01*
G01Y22395500D02*
X36719090D01*
G01X35157000Y23025500D02*
Y23279500D01*
X35118900Y23228700D01*
G01Y23025500D02*
X35195090D01*
G01X35341150Y23063590D02*
X35360200Y23042430D01*
X35382420Y23029730D01*
X35411000Y23025500D01*
X35439580Y23033960D01*
X35461800Y23050890D01*
X35477680Y23080530D01*
X35480850Y23114400D01*
X35474500Y23148260D01*
X35458620Y23169430D01*
X35436400Y23186360D01*
X35414180Y23190600D01*
X35391950Y23186360D01*
X35363380Y23169430D01*
X35372900Y23279500D01*
X35458620D01*
G01X35585620Y23025500D02*
X35665000Y23279500D01*
X35744380Y23025500D01*
G01X35715800Y23114400D02*
X35614200D01*
G01X35849150Y23279500D02*
Y23097470D01*
X35861850Y23059360D01*
X35887250Y23033960D01*
X35919000Y23025500D01*
X35950750Y23033960D01*
X35976150Y23059360D01*
X35988850Y23097470D01*
Y23279500D01*
G01X36192050Y23152500D02*
X36255550D01*
Y23076300D01*
X36236500Y23050890D01*
X36214270Y23033960D01*
X36182530Y23025500D01*
X36150780Y23033960D01*
X36128550Y23050890D01*
X36109500Y23076300D01*
X36096800Y23105930D01*
X36090450Y23139800D01*
Y23169430D01*
X36096800Y23194830D01*
X36109500Y23224470D01*
X36128550Y23249870D01*
X36147600Y23266790D01*
X36173000Y23279500D01*
X36195220D01*
X36220620Y23271040D01*
X36239680Y23254100D01*
G01X36366670Y23237170D02*
X36385730Y23262560D01*
X36407950Y23275270D01*
X36433350Y23279500D01*
X36465100Y23271040D01*
X36487330Y23249870D01*
X36493680Y23224470D01*
X36490500Y23199060D01*
X36477800Y23177900D01*
X36414300Y23135570D01*
X36385730Y23105930D01*
X36366670Y23063590D01*
X36360320Y23025500D01*
X36493680D01*
G01X36681000Y23279500D02*
X36655600Y23271040D01*
X36636550Y23249870D01*
X36623850Y23224470D01*
X36614320Y23190600D01*
X36611150Y23152500D01*
X36614320Y23114400D01*
X36623850Y23080530D01*
X36636550Y23055130D01*
X36655600Y23033960D01*
X36681000Y23025500D01*
X36706400Y23033960D01*
X36725450Y23055130D01*
X36738150Y23080530D01*
X36747680Y23114400D01*
X36750850Y23152500D01*
X36747680Y23190600D01*
X36738150Y23224470D01*
X36725450Y23249870D01*
X36706400Y23271040D01*
X36681000Y23279500D01*
G01X35468150Y23660500D02*
Y23914500D01*
X35531650D01*
X35557050Y23901790D01*
X35576100Y23884870D01*
X35591980Y23859470D01*
X35604680Y23829830D01*
X35607850Y23787500D01*
X35604680Y23745160D01*
X35591980Y23715530D01*
X35576100Y23690130D01*
X35557050Y23673200D01*
X35531650Y23660500D01*
X35468150D01*
G01X35712620D02*
X35792000Y23914500D01*
X35871380Y23660500D01*
G01X35842800Y23749400D02*
X35741200D01*
G01X36046000Y23914500D02*
Y23660500D01*
G01X35972980Y23914500D02*
X36119020D01*
G01X36363500Y23660500D02*
X36236500D01*
Y23914500D01*
X36363500D01*
G01X36312700Y23791740D02*
X36236500D01*
G01X35283990Y24994000D02*
Y25629000D01*
X35187980Y25502010D01*
G01Y24994000D02*
X35380010D01*
G01X35944400Y-9550000D02*
X35962180Y-9546610D01*
X35982500Y-9536460D01*
X35995200Y-9519530D01*
X36000280Y-9495810D01*
X35995200Y-9472110D01*
X35979960Y-9451790D01*
X35957100Y-9441630D01*
X35931700D01*
X35916460Y-9434850D01*
X35903760Y-9417920D01*
X35898680Y-9394220D01*
X35906300Y-9370510D01*
X35924080Y-9353570D01*
X35944400Y-9346800D01*
X35964720Y-9353570D01*
X35982500Y-9370510D01*
X35990120Y-9394220D01*
X35985040Y-9417920D01*
X35972340Y-9434850D01*
X35957100Y-9441630D01*
X35931700D01*
X35908840Y-9451790D01*
X35893600Y-9472110D01*
X35888520Y-9495810D01*
X35893600Y-9519530D01*
X35906300Y-9536460D01*
X35926620Y-9546610D01*
X35944400Y-9550000D01*
G01X36147600Y-9346800D02*
X36127280Y-9353570D01*
X36112040Y-9370510D01*
X36101880Y-9390820D01*
X36094260Y-9417920D01*
X36091720Y-9448400D01*
X36094260Y-9478880D01*
X36101880Y-9505980D01*
X36112040Y-9526300D01*
X36127280Y-9543230D01*
X36147600Y-9550000D01*
X36167920Y-9543230D01*
X36183160Y-9526300D01*
X36193320Y-9505980D01*
X36200940Y-9478880D01*
X36203480Y-9448400D01*
X36200940Y-9417920D01*
X36193320Y-9390820D01*
X36183160Y-9370510D01*
X36167920Y-9353570D01*
X36147600Y-9346800D01*
G01X36381280Y-9550000D02*
Y-9346800D01*
X36287300Y-9492430D01*
X36414300D01*
G01X36681000Y-9346800D02*
X36716560Y-9550000D01*
X36757200Y-9346800D01*
X36797840Y-9550000D01*
X36833400Y-9346800D01*
G01X36960400Y-9550000D02*
X36940080Y-9546610D01*
X36922300Y-9533070D01*
X36907060Y-9512750D01*
X36896900Y-9489040D01*
X36891820Y-9461950D01*
Y-9434850D01*
X36896900Y-9407760D01*
X36907060Y-9384050D01*
X36922300Y-9363740D01*
X36940080Y-9350190D01*
X36960400Y-9346800D01*
X36980720Y-9350190D01*
X36998500Y-9363740D01*
X37013740Y-9384050D01*
X37023900Y-9407760D01*
X37028980Y-9434850D01*
Y-9461950D01*
X37023900Y-9489040D01*
X37013740Y-9512750D01*
X36998500Y-9533070D01*
X36980720Y-9546610D01*
X36960400Y-9550000D01*
G01X37183920Y-9441630D02*
X37194080Y-9431470D01*
X37201700Y-9414540D01*
X37206780Y-9390820D01*
X37201700Y-9370510D01*
X37191540Y-9356960D01*
X37173760Y-9346800D01*
X37105180D01*
Y-9550000D01*
X37189000D01*
X37206780Y-9536460D01*
X37216940Y-9516130D01*
X37222020Y-9492430D01*
X37216940Y-9468720D01*
X37201700Y-9448400D01*
X37183920Y-9441630D01*
X37105180D01*
G01X37310920Y-9346800D02*
Y-9492430D01*
X37321080Y-9522910D01*
X37341400Y-9543230D01*
X37366800Y-9550000D01*
X37392200Y-9543230D01*
X37412520Y-9522910D01*
X37422680Y-9492430D01*
Y-9346800D01*
G01X37519200Y-9550000D02*
Y-9346800D01*
X37582700D01*
X37603020Y-9356960D01*
X37615720Y-9370510D01*
X37620800Y-9397600D01*
X37615720Y-9424700D01*
X37600480Y-9441630D01*
X37582700Y-9451790D01*
X37519200D01*
G01X37582700D02*
X37620800Y-9550000D01*
G01X37714780D02*
Y-9346800D01*
X37831620Y-9550000D01*
Y-9346800D01*
G01X38126260Y-9522910D02*
X38146580Y-9539840D01*
X38169440Y-9550000D01*
X38189760D01*
X38210080Y-9539840D01*
X38225320Y-9522910D01*
X38232940Y-9499200D01*
X38227860Y-9475500D01*
X38215160Y-9455170D01*
X38192300Y-9441630D01*
X38161820Y-9434850D01*
X38144040Y-9421310D01*
X38136420Y-9397600D01*
X38141500Y-9373890D01*
X38154200Y-9356960D01*
X38171980Y-9346800D01*
X38189760D01*
X38207540Y-9353570D01*
X38222780Y-9370510D01*
G01X38382800Y-9346800D02*
Y-9550000D01*
G01X38324380Y-9346800D02*
X38441220D01*
G01X38535200Y-9550000D02*
Y-9346800D01*
X38598700D01*
X38619020Y-9356960D01*
X38631720Y-9370510D01*
X38636800Y-9397600D01*
X38631720Y-9424700D01*
X38616480Y-9441630D01*
X38598700Y-9451790D01*
X38535200D01*
G01X38598700D02*
X38636800Y-9550000D01*
G01X38840000D02*
X38738400D01*
Y-9346800D01*
X38840000D01*
G01X38799360Y-9445010D02*
X38738400D01*
G01X39043200Y-9550000D02*
X38941600D01*
Y-9346800D01*
X39043200D01*
G01X39002560Y-9445010D02*
X38941600D01*
G01X39195600Y-9346800D02*
Y-9550000D01*
G01X39137180Y-9346800D02*
X39254020D01*
G01X36611150Y-9169000D02*
Y-8915000D01*
X36674650D01*
X36700050Y-8927710D01*
X36719100Y-8944630D01*
X36734980Y-8970030D01*
X36747680Y-8999670D01*
X36750850Y-9042000D01*
X36747680Y-9084340D01*
X36734980Y-9113970D01*
X36719100Y-9139370D01*
X36700050Y-9156300D01*
X36674650Y-9169000D01*
X36611150D01*
G01X36896900Y-8915000D02*
X36973090D01*
G01X36935000D02*
Y-9169000D01*
G01X36896900D02*
X36973090D01*
G01X37109620Y-8915000D02*
X37189000Y-9169000D01*
X37268380Y-8915000D01*
G01X37404900D02*
X37481090D01*
G01X37443000D02*
Y-9169000D01*
G01X37404900D02*
X37481090D01*
G01X37630320Y-9135140D02*
X37655730Y-9156300D01*
X37684300Y-9169000D01*
X37709700D01*
X37735100Y-9156300D01*
X37754150Y-9135140D01*
X37763680Y-9105500D01*
X37757330Y-9075870D01*
X37741450Y-9050470D01*
X37712870Y-9033530D01*
X37674780Y-9025070D01*
X37652550Y-9008140D01*
X37643020Y-8978500D01*
X37649380Y-8948870D01*
X37665250Y-8927710D01*
X37687470Y-8915000D01*
X37709700D01*
X37731930Y-8923460D01*
X37750980Y-8944630D01*
G01X37912900Y-8915000D02*
X37989090D01*
G01X37951000D02*
Y-9169000D01*
G01X37912900D02*
X37989090D01*
G01X38205000D02*
X38179600Y-9164770D01*
X38157380Y-9147840D01*
X38138320Y-9122440D01*
X38125620Y-9092800D01*
X38119270Y-9058930D01*
Y-9025070D01*
X38125620Y-8991200D01*
X38138320Y-8961560D01*
X38157380Y-8936170D01*
X38179600Y-8919230D01*
X38205000Y-8915000D01*
X38230400Y-8919230D01*
X38252620Y-8936170D01*
X38271680Y-8961560D01*
X38284380Y-8991200D01*
X38290730Y-9025070D01*
Y-9058930D01*
X38284380Y-9092800D01*
X38271680Y-9122440D01*
X38252620Y-9147840D01*
X38230400Y-9164770D01*
X38205000Y-9169000D01*
G01X38385980D02*
Y-8915000D01*
X38532020Y-9169000D01*
Y-8915000D01*
G01X37338860Y-15682410D02*
X37359180Y-15699340D01*
X37382040Y-15709500D01*
X37402360D01*
X37422680Y-15699340D01*
X37437920Y-15682410D01*
X37445540Y-15658700D01*
X37440460Y-15635000D01*
X37427760Y-15614670D01*
X37404900Y-15601130D01*
X37374420Y-15594350D01*
X37356640Y-15580810D01*
X37349020Y-15557100D01*
X37354100Y-15533390D01*
X37366800Y-15516460D01*
X37384580Y-15506300D01*
X37402360D01*
X37420140Y-15513070D01*
X37435380Y-15530010D01*
G01X37542060Y-15709500D02*
Y-15506300D01*
G01X37648740D02*
Y-15709500D01*
G01Y-15607900D02*
X37542060D01*
G01X37849400Y-15709500D02*
X37747800D01*
Y-15506300D01*
X37849400D01*
G01X37808760Y-15604510D02*
X37747800D01*
G01X38052600Y-15709500D02*
X37951000D01*
Y-15506300D01*
X38052600D01*
G01X38011960Y-15604510D02*
X37951000D01*
G01X38205000Y-15506300D02*
Y-15709500D01*
G01X38146580Y-15506300D02*
X38263420D01*
G01X37189000Y-15265000D02*
Y-15900000D01*
G01X37220750Y-8534000D02*
X37265200Y-8788000D01*
X37316000Y-8534000D01*
X37366800Y-8788000D01*
X37411250Y-8534000D01*
G01X37474750D02*
X37519200Y-8788000D01*
X37570000Y-8534000D01*
X37620800Y-8788000D01*
X37665250Y-8534000D01*
G01X37741450Y-8788000D02*
Y-8534000D01*
X37824000Y-8745670D01*
X37906550Y-8534000D01*
Y-8788000D01*
G01X37189000Y23475000D02*
Y22205000D01*
G01Y24105000D02*
Y22835000D01*
G01X37951000Y23279500D02*
Y23025500D01*
G01X37877980Y23279500D02*
X38024020D01*
G01X38205000Y23017040D02*
X38198650Y23021270D01*
Y23029730D01*
X38205000Y23033960D01*
X38211350Y23029730D01*
Y23021270D01*
X38205000Y23017040D01*
G01X38782850Y23258330D02*
X38763800Y23271040D01*
X38741580Y23279500D01*
X38716180D01*
X38687600Y23266790D01*
X38665380Y23245630D01*
X38649500Y23220230D01*
X38636800Y23177900D01*
X38633620Y23139800D01*
X38639980Y23101700D01*
X38649500Y23076300D01*
X38668550Y23050890D01*
X38690780Y23033960D01*
X38713000Y23025500D01*
X38735220D01*
X38757450Y23033960D01*
X38776500Y23046660D01*
X38792380Y23063590D01*
G01X38887620Y23025500D02*
X38967000Y23279500D01*
X39046380Y23025500D01*
G01X39017800Y23114400D02*
X38916200D01*
G01X39246400Y23160970D02*
X39259100Y23173670D01*
X39268620Y23194830D01*
X39274980Y23224470D01*
X39268620Y23249870D01*
X39255930Y23266790D01*
X39233700Y23279500D01*
X39147980D01*
Y23025500D01*
X39252750D01*
X39274980Y23042430D01*
X39287680Y23067830D01*
X39294020Y23097470D01*
X39287680Y23127090D01*
X39268620Y23152500D01*
X39246400Y23160970D01*
X39147980D01*
G01X39436900Y23279500D02*
X39513090D01*
G01X39475000D02*
Y23025500D01*
G01X39436900D02*
X39513090D01*
G01X39665500Y23279500D02*
Y23025500D01*
X39792500D01*
G01X39913150D02*
Y23279500D01*
X39976650D01*
X40002050Y23266790D01*
X40021100Y23249870D01*
X40036980Y23224470D01*
X40049680Y23194830D01*
X40052850Y23152500D01*
X40049680Y23110160D01*
X40036980Y23080530D01*
X40021100Y23055130D01*
X40002050Y23038200D01*
X39976650Y23025500D01*
X39913150D01*
G01X40237000D02*
X40211600Y23029730D01*
X40189380Y23046660D01*
X40170320Y23072060D01*
X40157620Y23101700D01*
X40151270Y23135570D01*
Y23169430D01*
X40157620Y23203300D01*
X40170320Y23232940D01*
X40189380Y23258330D01*
X40211600Y23275270D01*
X40237000Y23279500D01*
X40262400Y23275270D01*
X40284620Y23258330D01*
X40303680Y23232940D01*
X40316380Y23203300D01*
X40322730Y23169430D01*
Y23135570D01*
X40316380Y23101700D01*
X40303680Y23072060D01*
X40284620Y23046660D01*
X40262400Y23029730D01*
X40237000Y23025500D01*
G01X38144670Y22649500D02*
X38265330D01*
X38144670Y22395500D01*
X38265330D01*
G01X38459000Y22387040D02*
X38452650Y22391270D01*
Y22399730D01*
X38459000Y22403960D01*
X38465350Y22399730D01*
Y22391270D01*
X38459000Y22387040D01*
G01X38887620Y22395500D02*
X38967000Y22649500D01*
X39046380Y22395500D01*
G01X39017800Y22484400D02*
X38916200D01*
G01X39157500Y22395500D02*
Y22649500D01*
X39236870D01*
X39262270Y22636790D01*
X39278150Y22619870D01*
X39284500Y22586000D01*
X39278150Y22552130D01*
X39259100Y22530970D01*
X39236870Y22518260D01*
X39157500D01*
G01X39236870D02*
X39284500Y22395500D01*
G01X39544850Y22628330D02*
X39525800Y22641040D01*
X39503580Y22649500D01*
X39478180D01*
X39449600Y22636790D01*
X39427380Y22615630D01*
X39411500Y22590230D01*
X39398800Y22547900D01*
X39395620Y22509800D01*
X39401980Y22471700D01*
X39411500Y22446300D01*
X39430550Y22420890D01*
X39452780Y22403960D01*
X39475000Y22395500D01*
X39497220D01*
X39519450Y22403960D01*
X39538500Y22416660D01*
X39554380Y22433590D01*
G01X39792500Y22395500D02*
X39665500D01*
Y22649500D01*
X39792500D01*
G01X39741700Y22526740D02*
X39665500D01*
G01X39983000Y22395500D02*
X39957600Y22399730D01*
X39935380Y22416660D01*
X39916320Y22442060D01*
X39903620Y22471700D01*
X39897270Y22505570D01*
Y22539430D01*
X39903620Y22573300D01*
X39916320Y22602940D01*
X39935380Y22628330D01*
X39957600Y22645270D01*
X39983000Y22649500D01*
X40008400Y22645270D01*
X40030620Y22628330D01*
X40049680Y22602940D01*
X40062380Y22573300D01*
X40068730Y22539430D01*
Y22505570D01*
X40062380Y22471700D01*
X40049680Y22442060D01*
X40030620Y22416660D01*
X40008400Y22399730D01*
X39983000Y22395500D01*
G01X38125620Y23660500D02*
X38205000Y23914500D01*
X38284380Y23660500D01*
G01X38255800Y23749400D02*
X38154200D01*
G01X38395500Y23660500D02*
Y23914500D01*
X38471700D01*
X38497100Y23901790D01*
X38516150Y23872170D01*
X38522500Y23838300D01*
X38516150Y23804430D01*
X38500270Y23779030D01*
X38471700Y23766330D01*
X38395500D01*
G01X38649500Y23660500D02*
Y23914500D01*
X38725700D01*
X38751100Y23901790D01*
X38770150Y23872170D01*
X38776500Y23838300D01*
X38770150Y23804430D01*
X38754270Y23779030D01*
X38725700Y23766330D01*
X38649500D01*
G01X38903500Y23660500D02*
Y23914500D01*
X38982870D01*
X39008270Y23901790D01*
X39024150Y23884870D01*
X39030500Y23851000D01*
X39024150Y23817130D01*
X39005100Y23795970D01*
X38982870Y23783260D01*
X38903500D01*
G01X38982870D02*
X39030500Y23660500D01*
G01X39221000D02*
X39195600Y23664730D01*
X39173380Y23681660D01*
X39154320Y23707060D01*
X39141620Y23736700D01*
X39135270Y23770570D01*
Y23804430D01*
X39141620Y23838300D01*
X39154320Y23867940D01*
X39173380Y23893330D01*
X39195600Y23910270D01*
X39221000Y23914500D01*
X39246400Y23910270D01*
X39268620Y23893330D01*
X39287680Y23867940D01*
X39300380Y23838300D01*
X39306730Y23804430D01*
Y23770570D01*
X39300380Y23736700D01*
X39287680Y23707060D01*
X39268620Y23681660D01*
X39246400Y23664730D01*
X39221000Y23660500D01*
G01X39395620Y23914500D02*
X39475000Y23660500D01*
X39554380Y23914500D01*
G01X39792500Y23660500D02*
X39665500D01*
Y23914500D01*
X39792500D01*
G01X39741700Y23791740D02*
X39665500D01*
G01X39913150Y23660500D02*
Y23914500D01*
X39976650D01*
X40002050Y23901790D01*
X40021100Y23884870D01*
X40036980Y23859470D01*
X40049680Y23829830D01*
X40052850Y23787500D01*
X40049680Y23745160D01*
X40036980Y23715530D01*
X40021100Y23690130D01*
X40002050Y23673200D01*
X39976650Y23660500D01*
X39913150D01*
G01X39297200Y-15709500D02*
X39276880Y-15706110D01*
X39259100Y-15692570D01*
X39243860Y-15672250D01*
X39233700Y-15648540D01*
X39228620Y-15621450D01*
Y-15594350D01*
X39233700Y-15567260D01*
X39243860Y-15543550D01*
X39259100Y-15523240D01*
X39276880Y-15509690D01*
X39297200Y-15506300D01*
X39317520Y-15509690D01*
X39335300Y-15523240D01*
X39350540Y-15543550D01*
X39360700Y-15567260D01*
X39365780Y-15594350D01*
Y-15621450D01*
X39360700Y-15648540D01*
X39350540Y-15672250D01*
X39335300Y-15692570D01*
X39317520Y-15706110D01*
X39297200Y-15709500D01*
G01X39452140D02*
Y-15506300D01*
X39548660D01*
G01X39513100Y-15604510D02*
X39452140D01*
G01X38871800Y-15709500D02*
Y-15455500D01*
X38833700Y-15506300D01*
G01Y-15709500D02*
X38909890D01*
G01X39827470Y-15497830D02*
X39846530Y-15472440D01*
X39868750Y-15459730D01*
X39894150Y-15455500D01*
X39925900Y-15463960D01*
X39948130Y-15485130D01*
X39954480Y-15510530D01*
X39951300Y-15535940D01*
X39938600Y-15557100D01*
X39875100Y-15599430D01*
X39846530Y-15629070D01*
X39827470Y-15671410D01*
X39821120Y-15709500D01*
X39954480D01*
G01X39729000Y-15265000D02*
Y-13360000D01*
G01X40414790Y-14613060D02*
X40440200Y-14587670D01*
X40459250Y-14545340D01*
X40471960Y-14486060D01*
X40459250Y-14435270D01*
X40433850Y-14401410D01*
X40389400Y-14376000D01*
X40217950D01*
Y-14884000D01*
X40427500D01*
X40471960Y-14850140D01*
X40497350Y-14799340D01*
X40510050Y-14740070D01*
X40497350Y-14680810D01*
X40459250Y-14630010D01*
X40414790Y-14613060D01*
X40217950D01*
G01X40071900Y-13868000D02*
Y-13664800D01*
X40135400D01*
X40155720Y-13674960D01*
X40168420Y-13688510D01*
X40173500Y-13715600D01*
X40168420Y-13742700D01*
X40153180Y-13759630D01*
X40135400Y-13769790D01*
X40071900D01*
G01X40135400D02*
X40173500Y-13868000D01*
G01X40376700D02*
X40275100D01*
Y-13664800D01*
X40376700D01*
G01X40336060Y-13763010D02*
X40275100D01*
G01X40465600Y-13664800D02*
X40529100Y-13868000D01*
X40592600Y-13664800D01*
G01X40999000Y-7645000D02*
Y22835000D01*
G01X41761000Y-6375000D02*
X40999000D01*
G01X41405400Y4547000D02*
Y4293000D01*
X41151400Y4420000D01*
X41405400Y4547000D01*
G01X41938800Y4432700D02*
Y4407300D01*
X41430800D01*
Y4254900D01*
X41113300Y4420000D01*
X41430800Y4585100D01*
Y4432700D01*
X41938800D01*
G01X41964200Y4458100D02*
Y4381900D01*
X41456200D01*
Y4216800D01*
X41075200Y4420000D01*
X41456200Y4623200D01*
Y4458100D01*
X41964200D01*
G01X41989600Y4483500D02*
Y4356500D01*
X41481600D01*
Y4178700D01*
X41037100Y4420000D01*
X41481600Y4661300D01*
Y4483500D01*
X41989600D01*
G01X42015000Y4508900D02*
Y4331100D01*
X41507000D01*
Y4140600D01*
X40999000Y4420000D01*
X41507000Y4699400D01*
Y4508900D01*
X42015000D01*
G01X41761000Y15215000D02*
X40999000D01*
G01X41306950Y-12090000D02*
X41506990Y-11455000D01*
X41707050Y-12090000D01*
G01X41635020Y-11867760D02*
X41378960D01*
G01X41571010Y-956330D02*
X41603020Y-924580D01*
X41627020Y-871680D01*
X41643040Y-797570D01*
X41627020Y-734090D01*
X41595020Y-691760D01*
X41539010Y-660000D01*
X41322960D01*
Y-1295000D01*
X41587020D01*
X41643040Y-1252680D01*
X41675040Y-1189170D01*
X41691040Y-1115080D01*
X41675040Y-1041020D01*
X41627020Y-977510D01*
X41571010Y-956330D01*
X41322960D01*
G01X41316500Y4420000D02*
X41291100D01*
G01X41329200Y4445400D02*
Y4394600D01*
X41265700Y4420000D01*
X41329200Y4445400D01*
G01X41354600Y4470800D02*
Y4369200D01*
X41227600Y4420000D01*
X41354600Y4470800D01*
G01X41380000Y4508900D02*
Y4331100D01*
X41189500Y4420000D01*
X41380000Y4508900D01*
G01X41683040Y10082080D02*
X41635020Y10113840D01*
X41579020Y10135000D01*
X41515010D01*
X41442980Y10103240D01*
X41386980Y10050330D01*
X41346960Y9986830D01*
X41314950Y9881000D01*
X41306950Y9785750D01*
X41322960Y9690500D01*
X41346960Y9626990D01*
X41394980Y9563490D01*
X41450990Y9521160D01*
X41506990Y9500000D01*
X41563010D01*
X41619020Y9521160D01*
X41667040Y9552910D01*
X41707050Y9595230D01*
G01X41330960Y20295000D02*
Y20930000D01*
X41490990D01*
X41555010Y20898240D01*
X41603020Y20855910D01*
X41643040Y20792430D01*
X41675040Y20718320D01*
X41683040Y20612490D01*
X41675040Y20506660D01*
X41643040Y20432570D01*
X41603020Y20369070D01*
X41555010Y20326740D01*
X41490990Y20295000D01*
X41330960D01*
M02*
