G04 ================== begin FILE IDENTIFICATION RECORD ==================*
G04 Layout Name:  C:/tmp/20_065434b/worklib/02_065434b_top/physical/08_065434b.brd*
G04 Film Name:    l4_secondary*
G04 File Format:  Gerber RS274X*
G04 File Origin:  Cadence Allegro 17.4-S018*
G04 Origin Date:  Thu Aug  5 14:02:49 2021*
G04 *
G04 Layer:  VIA CLASS/BOTTOM*
G04 Layer:  PIN/BOTTOM*
G04 Layer:  ETCH/BOTTOM*
G04 Layer:  PACKAGE GEOMETRY/ETCH_BOTTOM*
G04 Layer:  BOARD GEOMETRY/LYR_BOTTOM*
G04 Layer:  BOARD GEOMETRY/TOOLING_CORNERS*
G04 Layer:  BOARD GEOMETRY/ROOT_NUMBER*
G04 *
G04 Offset:    (0.0000 0.0000)*
G04 Mirror:    No*
G04 Mode:      Positive*
G04 Rotation:  0*
G04 FullContactRelief:  No*
G04 UndefLineWidth:     0.2032*
G04 ================== end FILE IDENTIFICATION RECORD ====================*
%FSLAX35Y35*MOMM*%
%IR0*IPPOS*OFA0.00000B0.00000*MIA0B0*SFA1.00000B1.00000*%
%ADD12C,.508*%
%ADD13C,1.6*%
%ADD11C,1.651*%
%ADD10R,1.651X1.651*%
%ADD14C,.2*%
%ADD15C,.5*%
%ADD16C,.2032*%
%ADD17C,1.27*%
%ADD19C,.9084*%
%ADD20C,2.2004*%
%ADD18C,2.2514*%
G75*
%LPD*%
G75*
G36*
G01X-317400Y1586400D02*
X4063400D01*
Y-316400D01*
X263350D01*
G02X246740Y-285270I7J20000D01*
G03X254420Y-260000I-37734J25270D01*
G03X243100Y-230000I-45413J0D01*
G03Y-170000I-34093J30000D01*
G03X252850Y-151820I-34104J29995D01*
G01X253690Y-148730D01*
X263360Y-140780D01*
X273100Y-148750D01*
X273870Y-152060D01*
G03X381000Y-237020I107130J25063D01*
G03Y-16980I0J110020D01*
G03X271350Y-117920I0J-110026D01*
G01X271040Y-121720D01*
X261120Y-131170D01*
X251850Y-124660D01*
X250720Y-122050D01*
G03X243100Y-110000I-41722J-17949D01*
G03Y-50000I-34093J30000D01*
G03X254420Y-20000I-34093J30000D01*
G03X209000Y25420I-45420J0D01*
G03X179000Y14100I0J-45413D01*
G03X149000Y25420I-30000J-34093D01*
G03X137590Y23960I13J-45418D01*
G02X112570Y43320I-5019J19361D01*
G01Y82550D01*
G03X82550Y112570I-30020J0D01*
G01X-82550D01*
G03X-112570Y82550I0J-30020D01*
G01Y-82550D01*
G03X-82550Y-112570I30020J0D01*
G01X-36000D01*
G02X-16130Y-134840I1J-19998D01*
G03X-16420Y-140000I45132J-5125D01*
G03X-5100Y-170000I45413J0D01*
G03Y-230000I34093J-30000D01*
G03X-16420Y-260000I34093J-30000D01*
G03X-8740Y-285270I45414J0D01*
G02X-25350Y-316400I-16617J-11130D01*
G01X-317400D01*
Y1586400D01*
G37*
%LPC*%
G75*
G36*
G01X804900Y1240000D02*
G02Y1300000I34093J30000D01*
G02X793580Y1330000I34093J30000D01*
G02X839000Y1375420I45420J0D01*
G02X867680Y1365220I0J-45421D01*
G03X880320I6320J7749D01*
G02X909000Y1375420I28680J-35221D01*
G02X954420Y1330000I0J-45420D01*
G02X943100Y1300000I-45413J0D01*
G02Y1240000I-34093J-30000D01*
G02X954420Y1210000I-34093J-30000D01*
G02X909000Y1164580I-45420J0D01*
G02X880320Y1174780I0J45421D01*
G03X867680I-6320J-7749D01*
G02X839000Y1164580I-28680J35221D01*
G02X793580Y1210000I0J45420D01*
G02X804900Y1240000I45413J0D01*
G37*
G36*
G01X1544900Y840000D02*
G02Y900000I34093J30000D01*
G02X1533580Y930000I34093J30000D01*
G02X1579000Y975420I45420J0D01*
G02X1607680Y965220I0J-45421D01*
G03X1620320I6320J7749D01*
G02X1649000Y975420I28680J-35221D01*
G02X1694420Y930000I0J-45420D01*
G02X1683100Y900000I-45413J0D01*
G02Y840000I-34093J-30000D01*
G02X1694420Y810000I-34093J-30000D01*
G02X1649000Y764580I-45420J0D01*
G02X1620320Y774780I0J45421D01*
G03X1607680I-6320J-7749D01*
G02X1579000Y764580I-28680J35221D01*
G02X1533580Y810000I0J45420D01*
G02X1544900Y840000I45413J0D01*
G37*
G36*
G01X618440Y831900D02*
X714170Y927630D01*
G02X735400Y936420I21230J-21243D01*
G01X982600D01*
G02X1003830Y927630I0J-30033D01*
G01X1066230Y865230D01*
G02X1075020Y844000I-21243J-21230D01*
G01Y681000D01*
G02X1066230Y659770I-30033J0D01*
G01X987000Y580540D01*
X986910Y576530D01*
G02X941500Y532080I-45410J970D01*
G02X896080Y577500I0J45420D01*
G02X940530Y622910I45420J0D01*
G01X944540Y623000D01*
X1014980Y693430D01*
Y831570D01*
X970170Y876380D01*
X747830D01*
X660900Y789440D01*
X660810Y785430D01*
G02X615400Y740980I-45410J970D01*
G02X569980Y786400I0J45420D01*
G02X614430Y831810I45420J0D01*
G01X618440Y831900D01*
G37*
G36*
G01X758270Y778730D02*
G02X779500Y787520I21230J-21243D01*
G01X907420D01*
G02X941500Y802920I34080J-30009D01*
G02Y712080I0J-45420D01*
G02X907420Y727480I0J45409D01*
G01X791930D01*
X645420Y580970D01*
Y510480D01*
G02X660820Y476400I-30009J-34080D01*
G02X569980I-45420J0D01*
G02X585380Y510480I45409J0D01*
G01Y593400D01*
G02X594170Y614630I30033J0D01*
G01X758270Y778730D01*
G37*
G36*
G01X2382980Y563570D02*
X2325040Y621500D01*
X2321030Y621590D01*
G02X2276580Y667000I970J45410D01*
G02X2322000Y712420I45420J0D01*
G02X2367410Y667970I0J-45420D01*
G01X2367500Y663960D01*
X2434230Y597230D01*
G02X2443020Y576000I-21243J-21230D01*
G01Y-18270D01*
X2449750Y-20600D01*
G02X2525570Y-127000I-36747J-106400D01*
G02X2300430I-112570J0D01*
G02X2376250Y-20600I112567J0D01*
G01X2382980Y-18270D01*
Y563570D01*
G37*
G36*
G01X1750770Y454230D02*
G02X1772000Y463020I21230J-21243D01*
G01X1981920D01*
G02X2016000Y478420I34080J-30009D01*
G02Y387580I0J-45420D01*
G02X1981920Y402980I0J45409D01*
G01X1784430D01*
X1719020Y337570D01*
Y84080D01*
G02X1734420Y50000I-30009J-34080D01*
G02X1719020Y15920I-45409J0D01*
G01Y-91920D01*
G02X1734420Y-126000I-30009J-34080D01*
G02X1643580I-45420J0D01*
G02X1658980Y-91920I45409J0D01*
G01Y15920D01*
G02X1643580Y50000I30009J34080D01*
G02X1658980Y84080I45409J0D01*
G01Y350000D01*
G02X1667770Y371230I30033J0D01*
G01X1750770Y454230D01*
G37*
G36*
G01X1792430Y1314450D02*
Y1479550D01*
G02X1822450Y1509570I30020J0D01*
G01X1987550D01*
G02X2017570Y1479550I0J-30020D01*
G01Y1314450D01*
G02X1987550Y1284430I-30020J0D01*
G01X1822450D01*
G02X1792430Y1314450I0J30020D01*
G37*
G36*
G01Y-209550D02*
Y-44450D01*
G02X1822450Y-14430I30020J0D01*
G01X1987550D01*
G02X2017570Y-44450I0J-30020D01*
G01Y-209550D01*
G02X1987550Y-239570I-30020J0D01*
G01X1822450D01*
G02X1792430Y-209550I0J30020D01*
G37*
G54D19*
X555000Y-176000D03*
X595000Y1035000D03*
Y-35000D03*
G54D20*
X381000Y1143000D03*
Y889000D03*
Y635000D03*
Y381000D03*
G54D18*
X3683000Y1397000D03*
X3429000D03*
X3175000D03*
X3429000Y-127000D03*
X2921000D03*
X2159000D03*
X2921000Y1397000D03*
X2667000D03*
X2413000D03*
X2159000D03*
X3683000Y-127000D03*
X3175000D03*
X2667000D03*
X0Y762000D03*
Y508000D03*
Y254000D03*
Y1016000D03*
Y1270000D03*
%LPD*%
G75*
G54D10*
X0Y0D03*
X1905000Y-127000D03*
Y1397000D03*
G54D11*
X0Y254000D03*
Y508000D03*
Y762000D03*
Y1270000D03*
Y1016000D03*
X2413000Y-127000D03*
X2159000D03*
X2413000Y1397000D03*
X2159000D03*
X3175000Y-127000D03*
X2921000D03*
X2667000D03*
X3175000Y1397000D03*
X2921000D03*
X2667000D03*
X3683000Y-127000D03*
X3429000D03*
X3683000Y1397000D03*
X3429000D03*
G54D12*
X-281000Y70000D03*
X89000Y-140000D03*
Y-200000D03*
Y-260000D03*
X29000Y-140000D03*
Y-200000D03*
Y-260000D03*
X-281000Y870000D03*
Y570000D03*
Y320000D03*
Y1420000D03*
Y1120000D03*
X355000Y153000D03*
Y213000D03*
X415000Y153000D03*
Y213000D03*
X475000Y153000D03*
Y213000D03*
X719000Y-280000D03*
X515000Y-277000D03*
X535000Y213000D03*
Y153000D03*
Y93000D03*
X475000D03*
X149000Y-140000D03*
Y-200000D03*
Y-260000D03*
X209000Y-140000D03*
Y-200000D03*
Y-260000D03*
X149000Y-80000D03*
X209000D03*
X149000Y-20000D03*
X209000D03*
X595000Y-35000D03*
X555000Y-176000D03*
X219000Y620000D03*
Y370000D03*
X615400Y786400D03*
Y476400D03*
X669000Y1520000D03*
X169000D03*
X219000Y920000D03*
Y1170000D03*
X595000Y1035000D03*
X1303000Y-176000D03*
X969000Y170000D03*
Y-30000D03*
Y-280000D03*
X869000Y820000D03*
X1119000Y720000D03*
Y520000D03*
X1319000Y720000D03*
Y520000D03*
X789000Y370000D03*
Y620000D03*
X1135000Y803000D03*
X941500Y577500D03*
Y757500D03*
X1269000Y1420000D03*
Y1320000D03*
Y1520000D03*
X869000Y1020000D03*
X1136500Y1110400D03*
X839000Y1330000D03*
Y1270000D03*
Y1210000D03*
X909000D03*
Y1270000D03*
Y1330000D03*
X1719000Y-280000D03*
X1419000D03*
X1689000Y-126000D03*
Y50000D03*
X1894400Y550000D03*
X1519000Y720000D03*
Y520000D03*
X1669000D03*
X1579000Y870000D03*
Y810000D03*
X1649000Y870000D03*
Y810000D03*
X1895000Y973000D03*
X1369000Y1420000D03*
Y1320000D03*
Y1520000D03*
X1769000D03*
X1569000D03*
Y1320000D03*
X1769000D03*
X1579000Y930000D03*
X1649000D03*
X2269000Y70000D03*
Y220000D03*
X2369000Y-280000D03*
X2069000D03*
X2322000Y667000D03*
X2469000Y670000D03*
X2119000Y520000D03*
X2019000Y570000D03*
X2069000Y770000D03*
X2015000Y853000D03*
X2016000Y433000D03*
X2378400Y1189400D03*
X2169000Y1170000D03*
X2569000Y1060000D03*
X2828400Y92600D03*
X2619000Y270000D03*
Y120000D03*
X3069000Y270000D03*
Y120000D03*
X3169000Y-280000D03*
X2869000D03*
X2619000D03*
X3069000Y670000D03*
X2769000D03*
X2828400Y1189400D03*
X3069000Y1220000D03*
X2719000Y1060000D03*
X3069000Y920000D03*
X3678400Y92600D03*
X3228400D03*
X3569000Y120000D03*
Y270000D03*
X3769000Y-280000D03*
X3469000D03*
X3369000Y670000D03*
X3719000D03*
X3219000Y370000D03*
X3669000D03*
X3678400Y1189400D03*
X3228400D03*
X3519000Y1070000D03*
Y920000D03*
X4019000Y-30000D03*
Y670000D03*
Y320000D03*
Y1020000D03*
Y1270000D03*
Y1520000D03*
G54D13*
X381000Y-127000D03*
Y381000D03*
Y635000D03*
Y889000D03*
Y1143000D03*
G54D14*
G01X941500Y577500D02*
X1045000Y681000D01*
Y844000D01*
X982600Y906400D01*
X735400D01*
X615400Y786400D01*
G01Y476400D02*
Y593400D01*
X779500Y757500D01*
X941500D01*
G01X1689000Y-126000D02*
Y50000D01*
G01X2016000Y433000D02*
X1772000D01*
X1689000Y350000D01*
Y50000D01*
G01X2413000Y-127000D02*
Y576000D01*
X2322000Y667000D01*
G54D15*
G01X0Y254000D02*
Y376570D01*
G01X-122570Y254000D02*
X0D01*
G01D02*
X122570D01*
G01X1905000Y1274430D02*
Y1397000D01*
G01D02*
Y1519570D01*
G01X1782430Y1397000D02*
X1905000D01*
G01D02*
X2027570D01*
G01X2413000Y1274430D02*
Y1397000D01*
G01D02*
Y1519570D01*
G01X2290430Y1397000D02*
X2413000D01*
G01D02*
X2535570D01*
G01X3175000Y-249570D02*
Y-127000D01*
G01D02*
Y-4430D01*
G01X3052430Y-127000D02*
X3175000D01*
G01D02*
X3297570D01*
G01X3175000Y1274430D02*
Y1397000D01*
G01D02*
Y1519570D01*
G01X3052430Y1397000D02*
X3175000D01*
G01D02*
X3297570D01*
G54D16*
G01X372000Y5674000D02*
X346600Y5665540D01*
X327550Y5644370D01*
X314850Y5618970D01*
X305320Y5585100D01*
X302150Y5547000D01*
X305320Y5508900D01*
X314850Y5475030D01*
X327550Y5449630D01*
X346600Y5428460D01*
X372000Y5420000D01*
X397400Y5428460D01*
X416450Y5449630D01*
X429150Y5475030D01*
X438680Y5508900D01*
X441850Y5547000D01*
X438680Y5585100D01*
X429150Y5618970D01*
X416450Y5644370D01*
X397400Y5665540D01*
X372000Y5674000D01*
G01X626000Y5420000D02*
X648220Y5424230D01*
X673620Y5436930D01*
X689500Y5458090D01*
X695850Y5487730D01*
X689500Y5517360D01*
X670450Y5542760D01*
X641870Y5555470D01*
X610130D01*
X591070Y5563930D01*
X575200Y5585100D01*
X568850Y5614730D01*
X578380Y5644370D01*
X600600Y5665540D01*
X626000Y5674000D01*
X651400Y5665540D01*
X673620Y5644370D01*
X683150Y5614730D01*
X676800Y5585100D01*
X660930Y5563930D01*
X641870Y5555470D01*
X610130D01*
X581550Y5542760D01*
X562500Y5517360D01*
X556150Y5487730D01*
X562500Y5458090D01*
X578380Y5436930D01*
X603780Y5424230D01*
X626000Y5420000D01*
G01X838730Y5504660D02*
X921270D01*
G01X2616730D02*
X2699270D01*
G01X2912000Y5674000D02*
X2886600Y5665540D01*
X2867550Y5644370D01*
X2854850Y5618970D01*
X2845320Y5585100D01*
X2842150Y5547000D01*
X2845320Y5508900D01*
X2854850Y5475030D01*
X2867550Y5449630D01*
X2886600Y5428460D01*
X2912000Y5420000D01*
X2937400Y5428460D01*
X2956450Y5449630D01*
X2969150Y5475030D01*
X2978680Y5508900D01*
X2981850Y5547000D01*
X2978680Y5585100D01*
X2969150Y5618970D01*
X2956450Y5644370D01*
X2937400Y5665540D01*
X2912000Y5674000D01*
G01X3105670Y5631670D02*
X3124730Y5657060D01*
X3146950Y5669770D01*
X3172350Y5674000D01*
X3204100Y5665540D01*
X3226330Y5644370D01*
X3232680Y5618970D01*
X3229500Y5593560D01*
X3216800Y5572400D01*
X3153300Y5530070D01*
X3124730Y5500430D01*
X3105670Y5458090D01*
X3099320Y5420000D01*
X3232680D01*
G01X308500Y6182000D02*
Y5928000D01*
X435500D01*
G01X664100D02*
Y6182000D01*
X546620Y5999970D01*
X705380D01*
G01X1067320Y5961860D02*
X1092730Y5940700D01*
X1121300Y5928000D01*
X1146700D01*
X1172100Y5940700D01*
X1191150Y5961860D01*
X1200680Y5991500D01*
X1194330Y6021130D01*
X1178450Y6046530D01*
X1149870Y6063470D01*
X1111780Y6071930D01*
X1089550Y6088860D01*
X1080020Y6118500D01*
X1086380Y6148130D01*
X1102250Y6169290D01*
X1124470Y6182000D01*
X1146700D01*
X1168930Y6173540D01*
X1187980Y6152370D01*
G01X1451500Y5928000D02*
X1324500D01*
Y6182000D01*
X1451500D01*
G01X1400700Y6059240D02*
X1324500D01*
G01X1711850Y6160830D02*
X1692800Y6173540D01*
X1670580Y6182000D01*
X1645180D01*
X1616600Y6169290D01*
X1594380Y6148130D01*
X1578500Y6122730D01*
X1565800Y6080400D01*
X1562620Y6042300D01*
X1568980Y6004200D01*
X1578500Y5978800D01*
X1597550Y5953390D01*
X1619780Y5936460D01*
X1642000Y5928000D01*
X1664220D01*
X1686450Y5936460D01*
X1705500Y5949160D01*
X1721380Y5966090D01*
G01X1896000Y5928000D02*
X1870600Y5932230D01*
X1848380Y5949160D01*
X1829320Y5974560D01*
X1816620Y6004200D01*
X1810270Y6038070D01*
Y6071930D01*
X1816620Y6105800D01*
X1829320Y6135440D01*
X1848380Y6160830D01*
X1870600Y6177770D01*
X1896000Y6182000D01*
X1921400Y6177770D01*
X1943620Y6160830D01*
X1962680Y6135440D01*
X1975380Y6105800D01*
X1981730Y6071930D01*
Y6038070D01*
X1975380Y6004200D01*
X1962680Y5974560D01*
X1943620Y5949160D01*
X1921400Y5932230D01*
X1896000Y5928000D01*
G01X2076980D02*
Y6182000D01*
X2223020Y5928000D01*
Y6182000D01*
G01X2334150Y5928000D02*
Y6182000D01*
X2397650D01*
X2423050Y6169290D01*
X2442100Y6152370D01*
X2457980Y6126970D01*
X2470680Y6097330D01*
X2473850Y6055000D01*
X2470680Y6012660D01*
X2457980Y5983030D01*
X2442100Y5957630D01*
X2423050Y5940700D01*
X2397650Y5928000D01*
X2334150D01*
G01X2578620D02*
X2658000Y6182000D01*
X2737380Y5928000D01*
G01X2708800Y6016900D02*
X2607200D01*
G01X2848500Y5928000D02*
Y6182000D01*
X2927870D01*
X2953270Y6169290D01*
X2969150Y6152370D01*
X2975500Y6118500D01*
X2969150Y6084630D01*
X2950100Y6063470D01*
X2927870Y6050760D01*
X2848500D01*
G01X2927870D02*
X2975500Y5928000D01*
G01X3166000D02*
Y6042300D01*
X3102500Y6182000D01*
G01X3229500D02*
X3166000Y6042300D01*
G01X1197500Y4912000D02*
Y5166000D01*
X1276870D01*
X1302270Y5153290D01*
X1318150Y5136370D01*
X1324500Y5102500D01*
X1318150Y5068630D01*
X1299100Y5047470D01*
X1276870Y5034760D01*
X1197500D01*
G01X1276870D02*
X1324500Y4912000D01*
G01X1578500D02*
X1451500D01*
Y5166000D01*
X1578500D01*
G01X1527700Y5043240D02*
X1451500D01*
G01X1689620Y5166000D02*
X1769000Y4912000D01*
X1848380Y5166000D01*
G01X2302400Y5047470D02*
X2315100Y5060170D01*
X2324620Y5081330D01*
X2330980Y5110970D01*
X2324620Y5136370D01*
X2311930Y5153290D01*
X2289700Y5166000D01*
X2203980D01*
Y4912000D01*
X2308750D01*
X2330980Y4928930D01*
X2343680Y4954330D01*
X2350020Y4983970D01*
X2343680Y5013590D01*
X2324620Y5039000D01*
X2302400Y5047470D01*
X2203980D01*
G01X1134000Y5674000D02*
X1108600Y5665540D01*
X1089550Y5644370D01*
X1076850Y5618970D01*
X1067320Y5585100D01*
X1064150Y5547000D01*
X1067320Y5508900D01*
X1076850Y5475030D01*
X1089550Y5449630D01*
X1108600Y5428460D01*
X1134000Y5420000D01*
X1159400Y5428460D01*
X1178450Y5449630D01*
X1191150Y5475030D01*
X1200680Y5508900D01*
X1203850Y5547000D01*
X1200680Y5585100D01*
X1191150Y5618970D01*
X1178450Y5644370D01*
X1159400Y5665540D01*
X1134000Y5674000D01*
G01X1327670Y5525830D02*
X1349900Y5555470D01*
X1368950Y5572400D01*
X1394350Y5580860D01*
X1416580Y5572400D01*
X1432450Y5555470D01*
X1445150Y5530070D01*
X1448330Y5500430D01*
X1445150Y5475030D01*
X1432450Y5449630D01*
X1413400Y5428460D01*
X1391180Y5420000D01*
X1365780Y5428460D01*
X1343550Y5453860D01*
X1330850Y5491970D01*
X1327670Y5534300D01*
X1334020Y5589330D01*
X1343550Y5618970D01*
X1359420Y5648600D01*
X1381650Y5669770D01*
X1403870Y5674000D01*
X1426100Y5665540D01*
X1441980Y5644370D01*
G01X1572150Y5458090D02*
X1591200Y5436930D01*
X1613420Y5424230D01*
X1642000Y5420000D01*
X1670580Y5428460D01*
X1692800Y5445390D01*
X1708680Y5475030D01*
X1711850Y5508900D01*
X1705500Y5542760D01*
X1689620Y5563930D01*
X1667400Y5580860D01*
X1645180Y5585100D01*
X1622950Y5580860D01*
X1594380Y5563930D01*
X1603900Y5674000D01*
X1689620D01*
G01X1934100Y5420000D02*
Y5674000D01*
X1816620Y5491970D01*
X1975380D01*
G01X2080150Y5470800D02*
X2099200Y5441160D01*
X2124600Y5424230D01*
X2153180Y5420000D01*
X2178580Y5424230D01*
X2203980Y5445390D01*
X2219850Y5470800D01*
X2223020Y5496200D01*
X2216680Y5525830D01*
X2194450Y5547000D01*
X2172220Y5555470D01*
X2143650D01*
G01X2172220D02*
X2191270Y5568170D01*
X2207150Y5589330D01*
X2213500Y5614730D01*
X2207150Y5640130D01*
X2191270Y5661290D01*
X2162700Y5674000D01*
X2134130Y5669770D01*
X2105550Y5652830D01*
G01X2442100Y5420000D02*
Y5674000D01*
X2324620Y5491970D01*
X2483380D01*
G54D17*
G01X-698500Y-443500D02*
X190500D01*
G01X-698500Y1713500D02*
X190500D01*
G01X-444500Y-697500D02*
Y191500D01*
G01Y1967500D02*
Y1078500D01*
G01X4444500Y-443500D02*
X3555500D01*
G01X4444500Y1713500D02*
X3555500D01*
G01X4190500Y-697500D02*
Y191500D01*
G01Y1967500D02*
Y1078500D01*
M02*
