G04 ================== begin FILE IDENTIFICATION RECORD ==================*
G04 Layout Name:  C:/tmp/20_065434b/worklib/02_065434b_top/physical/08_065434b.brd*
G04 Film Name:    mask_sec*
G04 File Format:  Gerber RS274X*
G04 File Origin:  Cadence Allegro 17.4-S018*
G04 Origin Date:  Thu Aug  5 14:02:49 2021*
G04 *
G04 Layer:  VIA CLASS/SOLDERMASK_BOTTOM*
G04 Layer:  PIN/SOLDERMASK_BOTTOM*
G04 Layer:  PACKAGE GEOMETRY/SOLDERMASK_BOTTOM*
G04 Layer:  BOARD GEOMETRY/TOOLING_CORNERS*
G04 Layer:  BOARD GEOMETRY/SOLDERMASK_BOTTOM*
G04 Layer:  BOARD GEOMETRY/ROOT_NUMBER*
G04 *
G04 Offset:    (0.0000 0.0000)*
G04 Mirror:    No*
G04 Mode:      Positive*
G04 Rotation:  0*
G04 FullContactRelief:  No*
G04 UndefLineWidth:     0.2032*
G04 ================== end FILE IDENTIFICATION RECORD ====================*
%FSLAX35Y35*MOMM*%
%IR0*IPPOS*OFA0.00000B0.00000*MIA0B0*SFA1.00000B1.00000*%
%ADD12C,1.727*%
%ADD11C,1.778*%
%ADD10R,1.778X1.778*%
%ADD13C,.2032*%
%ADD14C,1.27*%
G75*
%LPD*%
G75*
G54D10*
X0Y0D03*
X1905000Y-127000D03*
Y1397000D03*
G54D11*
X0Y254000D03*
Y508000D03*
Y762000D03*
Y1270000D03*
Y1016000D03*
X2413000Y-127000D03*
X2159000D03*
X2413000Y1397000D03*
X2159000D03*
X3175000Y-127000D03*
X2921000D03*
X2667000D03*
X3175000Y1397000D03*
X2921000D03*
X2667000D03*
X3683000Y-127000D03*
X3429000D03*
X3683000Y1397000D03*
X3429000D03*
G54D12*
X381000Y-127000D03*
Y381000D03*
Y635000D03*
Y889000D03*
Y1143000D03*
G54D13*
G01X-710680Y5961860D02*
X-685270Y5940700D01*
X-656700Y5928000D01*
X-631300D01*
X-605900Y5940700D01*
X-586850Y5961860D01*
X-577320Y5991500D01*
X-583670Y6021130D01*
X-599550Y6046530D01*
X-628130Y6063470D01*
X-666220Y6071930D01*
X-688450Y6088860D01*
X-697980Y6118500D01*
X-691620Y6148130D01*
X-675750Y6169290D01*
X-653530Y6182000D01*
X-631300D01*
X-609070Y6173540D01*
X-590020Y6152370D01*
G01X-390000Y5928000D02*
X-415400Y5932230D01*
X-437620Y5949160D01*
X-456680Y5974560D01*
X-469380Y6004200D01*
X-475730Y6038070D01*
Y6071930D01*
X-469380Y6105800D01*
X-456680Y6135440D01*
X-437620Y6160830D01*
X-415400Y6177770D01*
X-390000Y6182000D01*
X-364600Y6177770D01*
X-342380Y6160830D01*
X-323320Y6135440D01*
X-310620Y6105800D01*
X-304270Y6071930D01*
Y6038070D01*
X-310620Y6004200D01*
X-323320Y5974560D01*
X-342380Y5949160D01*
X-364600Y5932230D01*
X-390000Y5928000D01*
G01X-199500Y6182000D02*
Y5928000D01*
X-72500D01*
G01X48150D02*
Y6182000D01*
X111650D01*
X137050Y6169290D01*
X156100Y6152370D01*
X171980Y6126970D01*
X184680Y6097330D01*
X187850Y6055000D01*
X184680Y6012660D01*
X171980Y5983030D01*
X156100Y5957630D01*
X137050Y5940700D01*
X111650Y5928000D01*
X48150D01*
G01X435500D02*
X308500D01*
Y6182000D01*
X435500D01*
G01X384700Y6059240D02*
X308500D01*
G01X562500Y5928000D02*
Y6182000D01*
X641870D01*
X667270Y6169290D01*
X683150Y6152370D01*
X689500Y6118500D01*
X683150Y6084630D01*
X664100Y6063470D01*
X641870Y6050760D01*
X562500D01*
G01X641870D02*
X689500Y5928000D01*
G01X797450D02*
Y6182000D01*
X880000Y5970330D01*
X962550Y6182000D01*
Y5928000D01*
G01X1054620D02*
X1134000Y6182000D01*
X1213380Y5928000D01*
G01X1184800Y6016900D02*
X1083200D01*
G01X1321320Y5961860D02*
X1346730Y5940700D01*
X1375300Y5928000D01*
X1400700D01*
X1426100Y5940700D01*
X1445150Y5961860D01*
X1454680Y5991500D01*
X1448330Y6021130D01*
X1432450Y6046530D01*
X1403870Y6063470D01*
X1365780Y6071930D01*
X1343550Y6088860D01*
X1334020Y6118500D01*
X1340380Y6148130D01*
X1356250Y6169290D01*
X1378470Y6182000D01*
X1400700D01*
X1422930Y6173540D01*
X1441980Y6152370D01*
G01X1572150Y5928000D02*
Y6182000D01*
G01X1692800D02*
X1572150Y6025360D01*
G01X1711850Y5928000D02*
X1626130Y6097330D01*
G01X2083320Y5961860D02*
X2108730Y5940700D01*
X2137300Y5928000D01*
X2162700D01*
X2188100Y5940700D01*
X2207150Y5961860D01*
X2216680Y5991500D01*
X2210330Y6021130D01*
X2194450Y6046530D01*
X2165870Y6063470D01*
X2127780Y6071930D01*
X2105550Y6088860D01*
X2096020Y6118500D01*
X2102380Y6148130D01*
X2118250Y6169290D01*
X2140470Y6182000D01*
X2162700D01*
X2184930Y6173540D01*
X2203980Y6152370D01*
G01X2467500Y5928000D02*
X2340500D01*
Y6182000D01*
X2467500D01*
G01X2416700Y6059240D02*
X2340500D01*
G01X2727850Y6160830D02*
X2708800Y6173540D01*
X2686580Y6182000D01*
X2661180D01*
X2632600Y6169290D01*
X2610380Y6148130D01*
X2594500Y6122730D01*
X2581800Y6080400D01*
X2578620Y6042300D01*
X2584980Y6004200D01*
X2594500Y5978800D01*
X2613550Y5953390D01*
X2635780Y5936460D01*
X2658000Y5928000D01*
X2680220D01*
X2702450Y5936460D01*
X2721500Y5949160D01*
X2737380Y5966090D01*
G01X2912000Y5928000D02*
X2886600Y5932230D01*
X2864380Y5949160D01*
X2845320Y5974560D01*
X2832620Y6004200D01*
X2826270Y6038070D01*
Y6071930D01*
X2832620Y6105800D01*
X2845320Y6135440D01*
X2864380Y6160830D01*
X2886600Y6177770D01*
X2912000Y6182000D01*
X2937400Y6177770D01*
X2959620Y6160830D01*
X2978680Y6135440D01*
X2991380Y6105800D01*
X2997730Y6071930D01*
Y6038070D01*
X2991380Y6004200D01*
X2978680Y5974560D01*
X2959620Y5949160D01*
X2937400Y5932230D01*
X2912000Y5928000D01*
G01X3092980D02*
Y6182000D01*
X3239020Y5928000D01*
Y6182000D01*
G01X3350150Y5928000D02*
Y6182000D01*
X3413650D01*
X3439050Y6169290D01*
X3458100Y6152370D01*
X3473980Y6126970D01*
X3486680Y6097330D01*
X3489850Y6055000D01*
X3486680Y6012660D01*
X3473980Y5983030D01*
X3458100Y5957630D01*
X3439050Y5940700D01*
X3413650Y5928000D01*
X3350150D01*
G01X3594620D02*
X3674000Y6182000D01*
X3753380Y5928000D01*
G01X3724800Y6016900D02*
X3623200D01*
G01X3864500Y5928000D02*
Y6182000D01*
X3943870D01*
X3969270Y6169290D01*
X3985150Y6152370D01*
X3991500Y6118500D01*
X3985150Y6084630D01*
X3966100Y6063470D01*
X3943870Y6050760D01*
X3864500D01*
G01X3943870D02*
X3991500Y5928000D01*
G01X4182000D02*
Y6042300D01*
X4118500Y6182000D01*
G01X4245500D02*
X4182000Y6042300D01*
G01X372000Y5674000D02*
X346600Y5665540D01*
X327550Y5644370D01*
X314850Y5618970D01*
X305320Y5585100D01*
X302150Y5547000D01*
X305320Y5508900D01*
X314850Y5475030D01*
X327550Y5449630D01*
X346600Y5428460D01*
X372000Y5420000D01*
X397400Y5428460D01*
X416450Y5449630D01*
X429150Y5475030D01*
X438680Y5508900D01*
X441850Y5547000D01*
X438680Y5585100D01*
X429150Y5618970D01*
X416450Y5644370D01*
X397400Y5665540D01*
X372000Y5674000D01*
G01X626000Y5420000D02*
X648220Y5424230D01*
X673620Y5436930D01*
X689500Y5458090D01*
X695850Y5487730D01*
X689500Y5517360D01*
X670450Y5542760D01*
X641870Y5555470D01*
X610130D01*
X591070Y5563930D01*
X575200Y5585100D01*
X568850Y5614730D01*
X578380Y5644370D01*
X600600Y5665540D01*
X626000Y5674000D01*
X651400Y5665540D01*
X673620Y5644370D01*
X683150Y5614730D01*
X676800Y5585100D01*
X660930Y5563930D01*
X641870Y5555470D01*
X610130D01*
X581550Y5542760D01*
X562500Y5517360D01*
X556150Y5487730D01*
X562500Y5458090D01*
X578380Y5436930D01*
X603780Y5424230D01*
X626000Y5420000D01*
G01X838730Y5504660D02*
X921270D01*
G01X2616730D02*
X2699270D01*
G01X2912000Y5674000D02*
X2886600Y5665540D01*
X2867550Y5644370D01*
X2854850Y5618970D01*
X2845320Y5585100D01*
X2842150Y5547000D01*
X2845320Y5508900D01*
X2854850Y5475030D01*
X2867550Y5449630D01*
X2886600Y5428460D01*
X2912000Y5420000D01*
X2937400Y5428460D01*
X2956450Y5449630D01*
X2969150Y5475030D01*
X2978680Y5508900D01*
X2981850Y5547000D01*
X2978680Y5585100D01*
X2969150Y5618970D01*
X2956450Y5644370D01*
X2937400Y5665540D01*
X2912000Y5674000D01*
G01X3105670Y5525830D02*
X3127900Y5555470D01*
X3146950Y5572400D01*
X3172350Y5580860D01*
X3194580Y5572400D01*
X3210450Y5555470D01*
X3223150Y5530070D01*
X3226330Y5500430D01*
X3223150Y5475030D01*
X3210450Y5449630D01*
X3191400Y5428460D01*
X3169180Y5420000D01*
X3143780Y5428460D01*
X3121550Y5453860D01*
X3108850Y5491970D01*
X3105670Y5534300D01*
X3112020Y5589330D01*
X3121550Y5618970D01*
X3137420Y5648600D01*
X3159650Y5669770D01*
X3181870Y5674000D01*
X3204100Y5665540D01*
X3219980Y5644370D01*
G01X1197500Y4912000D02*
Y5166000D01*
X1276870D01*
X1302270Y5153290D01*
X1318150Y5136370D01*
X1324500Y5102500D01*
X1318150Y5068630D01*
X1299100Y5047470D01*
X1276870Y5034760D01*
X1197500D01*
G01X1276870D02*
X1324500Y4912000D01*
G01X1578500D02*
X1451500D01*
Y5166000D01*
X1578500D01*
G01X1527700Y5043240D02*
X1451500D01*
G01X1689620Y5166000D02*
X1769000Y4912000D01*
X1848380Y5166000D01*
G01X2302400Y5047470D02*
X2315100Y5060170D01*
X2324620Y5081330D01*
X2330980Y5110970D01*
X2324620Y5136370D01*
X2311930Y5153290D01*
X2289700Y5166000D01*
X2203980D01*
Y4912000D01*
X2308750D01*
X2330980Y4928930D01*
X2343680Y4954330D01*
X2350020Y4983970D01*
X2343680Y5013590D01*
X2324620Y5039000D01*
X2302400Y5047470D01*
X2203980D01*
G01X1134000Y5674000D02*
X1108600Y5665540D01*
X1089550Y5644370D01*
X1076850Y5618970D01*
X1067320Y5585100D01*
X1064150Y5547000D01*
X1067320Y5508900D01*
X1076850Y5475030D01*
X1089550Y5449630D01*
X1108600Y5428460D01*
X1134000Y5420000D01*
X1159400Y5428460D01*
X1178450Y5449630D01*
X1191150Y5475030D01*
X1200680Y5508900D01*
X1203850Y5547000D01*
X1200680Y5585100D01*
X1191150Y5618970D01*
X1178450Y5644370D01*
X1159400Y5665540D01*
X1134000Y5674000D01*
G01X1327670Y5525830D02*
X1349900Y5555470D01*
X1368950Y5572400D01*
X1394350Y5580860D01*
X1416580Y5572400D01*
X1432450Y5555470D01*
X1445150Y5530070D01*
X1448330Y5500430D01*
X1445150Y5475030D01*
X1432450Y5449630D01*
X1413400Y5428460D01*
X1391180Y5420000D01*
X1365780Y5428460D01*
X1343550Y5453860D01*
X1330850Y5491970D01*
X1327670Y5534300D01*
X1334020Y5589330D01*
X1343550Y5618970D01*
X1359420Y5648600D01*
X1381650Y5669770D01*
X1403870Y5674000D01*
X1426100Y5665540D01*
X1441980Y5644370D01*
G01X1572150Y5458090D02*
X1591200Y5436930D01*
X1613420Y5424230D01*
X1642000Y5420000D01*
X1670580Y5428460D01*
X1692800Y5445390D01*
X1708680Y5475030D01*
X1711850Y5508900D01*
X1705500Y5542760D01*
X1689620Y5563930D01*
X1667400Y5580860D01*
X1645180Y5585100D01*
X1622950Y5580860D01*
X1594380Y5563930D01*
X1603900Y5674000D01*
X1689620D01*
G01X1934100Y5420000D02*
Y5674000D01*
X1816620Y5491970D01*
X1975380D01*
G01X2080150Y5470800D02*
X2099200Y5441160D01*
X2124600Y5424230D01*
X2153180Y5420000D01*
X2178580Y5424230D01*
X2203980Y5445390D01*
X2219850Y5470800D01*
X2223020Y5496200D01*
X2216680Y5525830D01*
X2194450Y5547000D01*
X2172220Y5555470D01*
X2143650D01*
G01X2172220D02*
X2191270Y5568170D01*
X2207150Y5589330D01*
X2213500Y5614730D01*
X2207150Y5640130D01*
X2191270Y5661290D01*
X2162700Y5674000D01*
X2134130Y5669770D01*
X2105550Y5652830D01*
G01X2442100Y5420000D02*
Y5674000D01*
X2324620Y5491970D01*
X2483380D01*
G54D14*
G01X-698500Y-443500D02*
X190500D01*
G01X-698500Y1713500D02*
X190500D01*
G01X-444500Y-697500D02*
Y191500D01*
G01Y1967500D02*
Y1078500D01*
G01X4444500Y-443500D02*
X3555500D01*
G01X4444500Y1713500D02*
X3555500D01*
G01X4190500Y-697500D02*
Y191500D01*
G01Y1967500D02*
Y1078500D01*
M02*
