M48
METRIC,TZ
T01C.254
T02C.889
T03C1.143
;LEADER: 12 
;HEADER: 08_065434b 
;CODE  : ASCII 
;FILE  : ncdrill-1-4.drl for board 08_065434b.brd ... layers TOP and BOTTOM
;T01 Holesize 1. = 0.254000 Tolerance = +0.000000/-0.000000 PLATED MM Quantity = 140
;T02 Holesize 2. = 0.889000 Tolerance = +0.000000/-0.000000 PLATED MM Quantity = 5
;T03 Holesize 3. = 1.143000 Tolerance = +0.000000/-0.000000 PLATED MM Quantity = 22
%
G90
T01
X29000Y-260000
R02Y60000
X89000Y-260000
R02Y60000
X149000Y-260000
R04Y60000
X209000Y-260000
R04Y60000
X515000Y-277000
X555000Y-176000
X595000Y-35000
X719000Y-280000
X969000
Y-30000
X1303000Y-176000
X1419000Y-280000
X1689000Y-126000
X1719000Y-280000
X2069000
X2369000
X2619000
X2869000
X3169000
R02X300000
X4019000Y-30000
Y320000
X3678400Y92600
X3669000Y370000
X3569000Y270000
Y120000
X3228400Y92600
X3219000Y370000
X3069000Y270000
Y120000
X2828400Y92600
X2619000Y270000
Y120000
X2269000Y220000
Y70000
X2016000Y433000
X1689000Y50000
X969000Y170000
X789000Y370000
X615400Y476400
X535000Y213000
R02Y-60000
X475000Y213000
R02Y-60000
X415000Y213000
Y153000
X355000Y213000
Y153000
X219000Y370000
X-281000Y320000
Y70000
Y570000
Y870000
X219000Y620000
Y920000
X615400Y786400
X789000Y620000
X869000Y820000
X941500Y577500
Y757500
X1119000Y520000
Y720000
X1135000Y803000
X1319000Y520000
Y720000
X1519000Y520000
Y720000
X1579000Y810000
Y870000
Y930000
X1649000Y810000
R02Y60000
X1669000Y520000
X1894400Y550000
X1895000Y973000
X2015000Y853000
X2019000Y570000
X2069000Y770000
X2119000Y520000
X2322000Y667000
X2469000Y670000
R02X300000
Y920000
X3369000Y670000
X3519000Y920000
X3719000Y670000
X4019000
Y1520000
Y1270000
Y1020000
X3678400Y1189400
X3519000Y1070000
X3228400Y1189400
X3069000Y1220000
X2828400Y1189400
X2719000Y1060000
X2569000
X2378400Y1189400
X2169000Y1170000
X1769000Y1520000
Y1320000
X1569000Y1520000
Y1320000
X1369000Y1520000
Y1420000
Y1320000
X1269000Y1520000
R02Y-100000
X1136500Y1110400
X909000Y1330000
Y1270000
Y1210000
X869000Y1020000
X839000Y1330000
Y1270000
Y1210000
X669000Y1520000
X595000Y1035000
X219000Y1170000
X169000Y1520000
X-281000Y1420000
Y1120000
T02
X381000Y-127000
Y381000
Y635000
R02Y254000
T03
X1905000Y-127000
R07X254000
Y1397000
R07X-254000
X0Y1270000
R05Y-254000
M30
