G04 ================== begin FILE IDENTIFICATION RECORD ==================*
G04 Layout Name:  C:/tmp/20_065434b/worklib/02_065434b_top/physical/08_065434b.brd*
G04 Film Name:    paste_prm*
G04 File Format:  Gerber RS274X*
G04 File Origin:  Cadence Allegro 17.4-S018*
G04 Origin Date:  Thu Aug  5 14:02:49 2021*
G04 *
G04 Layer:  VIA CLASS/PASTEMASK_TOP*
G04 Layer:  PIN/PASTEMASK_TOP*
G04 Layer:  PACKAGE GEOMETRY/PASTEMASK_TOP*
G04 Layer:  BOARD GEOMETRY/PASTEMASK_TOP*
G04 Layer:  BOARD GEOMETRY/TOOLING_CORNERS*
G04 Layer:  BOARD GEOMETRY/ROOT_NUMBER*
G04 *
G04 Offset:    (0.0000 0.0000)*
G04 Mirror:    No*
G04 Mode:      Positive*
G04 Rotation:  0*
G04 FullContactRelief:  No*
G04 UndefLineWidth:     0.2032*
G04 ================== end FILE IDENTIFICATION RECORD ====================*
%FSLAX35Y35*MOMM*%
%IR0*IPPOS*OFA0.00000B0.00000*MIA0B0*SFA1.00000B1.00000*%
%ADD15R,.33X1.651*%
%ADD17R,.508X1.524*%
%ADD10C,1.016*%
%ADD16R,.94X.991*%
%ADD11R,.559X.457*%
%ADD13R,.991X.787*%
%ADD12R,.787X.991*%
%ADD14R,.889X.787*%
%ADD18C,.2032*%
%ADD19C,1.27*%
G75*
%LPD*%
G75*
G54D10*
X-281000Y-280000D03*
Y1570000D03*
X4019000Y-280000D03*
G54D11*
X219000Y167900D03*
Y72100D03*
G54D12*
X634000Y-176000D03*
X804000D03*
X1434000Y-126000D03*
X1604000D03*
Y50000D03*
X1434000D03*
G54D13*
X696600Y-35000D03*
Y135000D03*
Y865000D03*
Y1035000D03*
G54D14*
X1034600Y-176000D03*
X1203400D03*
G54D15*
X941500Y962000D03*
X1006500D03*
X1071500D03*
X1136500D03*
X1201500D03*
X1266500D03*
X1331500D03*
Y378000D03*
X1266500D03*
X1201500D03*
X1136500D03*
X1071500D03*
X1006500D03*
X941500D03*
X1396500Y962000D03*
Y378000D03*
G54D16*
X1171500Y1230000D03*
X1011500D03*
X1171500Y1403000D03*
X1011500D03*
X1914000Y873000D03*
X1754000D03*
G54D17*
Y667000D03*
X1944000D03*
Y433000D03*
X1849000D03*
X1754000D03*
G54D18*
G01X-326500Y5928000D02*
Y6182000D01*
X-250300D01*
X-224900Y6169290D01*
X-205850Y6139670D01*
X-199500Y6105800D01*
X-205850Y6071930D01*
X-221730Y6046530D01*
X-250300Y6033830D01*
X-326500D01*
G01X-88380Y5928000D02*
X-9000Y6182000D01*
X70380Y5928000D01*
G01X41800Y6016900D02*
X-59800D01*
G01X178320Y5961860D02*
X203730Y5940700D01*
X232300Y5928000D01*
X257700D01*
X283100Y5940700D01*
X302150Y5961860D01*
X311680Y5991500D01*
X305330Y6021130D01*
X289450Y6046530D01*
X260870Y6063470D01*
X222780Y6071930D01*
X200550Y6088860D01*
X191020Y6118500D01*
X197380Y6148130D01*
X213250Y6169290D01*
X235470Y6182000D01*
X257700D01*
X279930Y6173540D01*
X298980Y6152370D01*
G01X499000Y6182000D02*
Y5928000D01*
G01X425980Y6182000D02*
X572020D01*
G01X816500Y5928000D02*
X689500D01*
Y6182000D01*
X816500D01*
G01X765700Y6059240D02*
X689500D01*
G01X924450Y5928000D02*
Y6182000D01*
X1007000Y5970330D01*
X1089550Y6182000D01*
Y5928000D01*
G01X1181620D02*
X1261000Y6182000D01*
X1340380Y5928000D01*
G01X1311800Y6016900D02*
X1210200D01*
G01X1448320Y5961860D02*
X1473730Y5940700D01*
X1502300Y5928000D01*
X1527700D01*
X1553100Y5940700D01*
X1572150Y5961860D01*
X1581680Y5991500D01*
X1575330Y6021130D01*
X1559450Y6046530D01*
X1530870Y6063470D01*
X1492780Y6071930D01*
X1470550Y6088860D01*
X1461020Y6118500D01*
X1467380Y6148130D01*
X1483250Y6169290D01*
X1505470Y6182000D01*
X1527700D01*
X1549930Y6173540D01*
X1568980Y6152370D01*
G01X1699150Y5928000D02*
Y6182000D01*
G01X1819800D02*
X1699150Y6025360D01*
G01X1838850Y5928000D02*
X1753130Y6097330D01*
G01X2213500Y5928000D02*
Y6182000D01*
X2289700D01*
X2315100Y6169290D01*
X2334150Y6139670D01*
X2340500Y6105800D01*
X2334150Y6071930D01*
X2318270Y6046530D01*
X2289700Y6033830D01*
X2213500D01*
G01X2467500Y5928000D02*
Y6182000D01*
X2546870D01*
X2572270Y6169290D01*
X2588150Y6152370D01*
X2594500Y6118500D01*
X2588150Y6084630D01*
X2569100Y6063470D01*
X2546870Y6050760D01*
X2467500D01*
G01X2546870D02*
X2594500Y5928000D01*
G01X2746900Y6182000D02*
X2823090D01*
G01X2785000D02*
Y5928000D01*
G01X2746900D02*
X2823090D01*
G01X2956450D02*
Y6182000D01*
X3039000Y5970330D01*
X3121550Y6182000D01*
Y5928000D01*
G01X3213620D02*
X3293000Y6182000D01*
X3372380Y5928000D01*
G01X3343800Y6016900D02*
X3242200D01*
G01X3483500Y5928000D02*
Y6182000D01*
X3562870D01*
X3588270Y6169290D01*
X3604150Y6152370D01*
X3610500Y6118500D01*
X3604150Y6084630D01*
X3585100Y6063470D01*
X3562870Y6050760D01*
X3483500D01*
G01X3562870D02*
X3610500Y5928000D01*
G01X3801000D02*
Y6042300D01*
X3737500Y6182000D01*
G01X3864500D02*
X3801000Y6042300D01*
G01X372000Y5674000D02*
X346600Y5665540D01*
X327550Y5644370D01*
X314850Y5618970D01*
X305320Y5585100D01*
X302150Y5547000D01*
X305320Y5508900D01*
X314850Y5475030D01*
X327550Y5449630D01*
X346600Y5428460D01*
X372000Y5420000D01*
X397400Y5428460D01*
X416450Y5449630D01*
X429150Y5475030D01*
X438680Y5508900D01*
X441850Y5547000D01*
X438680Y5585100D01*
X429150Y5618970D01*
X416450Y5644370D01*
X397400Y5665540D01*
X372000Y5674000D01*
G01X626000Y5420000D02*
X648220Y5424230D01*
X673620Y5436930D01*
X689500Y5458090D01*
X695850Y5487730D01*
X689500Y5517360D01*
X670450Y5542760D01*
X641870Y5555470D01*
X610130D01*
X591070Y5563930D01*
X575200Y5585100D01*
X568850Y5614730D01*
X578380Y5644370D01*
X600600Y5665540D01*
X626000Y5674000D01*
X651400Y5665540D01*
X673620Y5644370D01*
X683150Y5614730D01*
X676800Y5585100D01*
X660930Y5563930D01*
X641870Y5555470D01*
X610130D01*
X581550Y5542760D01*
X562500Y5517360D01*
X556150Y5487730D01*
X562500Y5458090D01*
X578380Y5436930D01*
X603780Y5424230D01*
X626000Y5420000D01*
G01X838730Y5504660D02*
X921270D01*
G01X2616730D02*
X2699270D01*
G01X2912000Y5674000D02*
X2886600Y5665540D01*
X2867550Y5644370D01*
X2854850Y5618970D01*
X2845320Y5585100D01*
X2842150Y5547000D01*
X2845320Y5508900D01*
X2854850Y5475030D01*
X2867550Y5449630D01*
X2886600Y5428460D01*
X2912000Y5420000D01*
X2937400Y5428460D01*
X2956450Y5449630D01*
X2969150Y5475030D01*
X2978680Y5508900D01*
X2981850Y5547000D01*
X2978680Y5585100D01*
X2969150Y5618970D01*
X2956450Y5644370D01*
X2937400Y5665540D01*
X2912000Y5674000D01*
G01X3112020Y5449630D02*
X3134250Y5428460D01*
X3159650Y5420000D01*
X3185050Y5428460D01*
X3207270Y5453860D01*
X3223150Y5491970D01*
X3229500Y5530070D01*
Y5576630D01*
X3223150Y5614730D01*
X3207270Y5648600D01*
X3188220Y5665540D01*
X3166000Y5674000D01*
X3140600Y5665540D01*
X3121550Y5648600D01*
X3108850Y5623200D01*
X3102500Y5589330D01*
X3108850Y5559700D01*
X3124730Y5530070D01*
X3143780Y5513130D01*
X3166000Y5508900D01*
X3191400Y5517360D01*
X3210450Y5538530D01*
X3229500Y5576630D01*
G01X1197500Y4912000D02*
Y5166000D01*
X1276870D01*
X1302270Y5153290D01*
X1318150Y5136370D01*
X1324500Y5102500D01*
X1318150Y5068630D01*
X1299100Y5047470D01*
X1276870Y5034760D01*
X1197500D01*
G01X1276870D02*
X1324500Y4912000D01*
G01X1578500D02*
X1451500D01*
Y5166000D01*
X1578500D01*
G01X1527700Y5043240D02*
X1451500D01*
G01X1689620Y5166000D02*
X1769000Y4912000D01*
X1848380Y5166000D01*
G01X2302400Y5047470D02*
X2315100Y5060170D01*
X2324620Y5081330D01*
X2330980Y5110970D01*
X2324620Y5136370D01*
X2311930Y5153290D01*
X2289700Y5166000D01*
X2203980D01*
Y4912000D01*
X2308750D01*
X2330980Y4928930D01*
X2343680Y4954330D01*
X2350020Y4983970D01*
X2343680Y5013590D01*
X2324620Y5039000D01*
X2302400Y5047470D01*
X2203980D01*
G01X1134000Y5674000D02*
X1108600Y5665540D01*
X1089550Y5644370D01*
X1076850Y5618970D01*
X1067320Y5585100D01*
X1064150Y5547000D01*
X1067320Y5508900D01*
X1076850Y5475030D01*
X1089550Y5449630D01*
X1108600Y5428460D01*
X1134000Y5420000D01*
X1159400Y5428460D01*
X1178450Y5449630D01*
X1191150Y5475030D01*
X1200680Y5508900D01*
X1203850Y5547000D01*
X1200680Y5585100D01*
X1191150Y5618970D01*
X1178450Y5644370D01*
X1159400Y5665540D01*
X1134000Y5674000D01*
G01X1327670Y5525830D02*
X1349900Y5555470D01*
X1368950Y5572400D01*
X1394350Y5580860D01*
X1416580Y5572400D01*
X1432450Y5555470D01*
X1445150Y5530070D01*
X1448330Y5500430D01*
X1445150Y5475030D01*
X1432450Y5449630D01*
X1413400Y5428460D01*
X1391180Y5420000D01*
X1365780Y5428460D01*
X1343550Y5453860D01*
X1330850Y5491970D01*
X1327670Y5534300D01*
X1334020Y5589330D01*
X1343550Y5618970D01*
X1359420Y5648600D01*
X1381650Y5669770D01*
X1403870Y5674000D01*
X1426100Y5665540D01*
X1441980Y5644370D01*
G01X1572150Y5458090D02*
X1591200Y5436930D01*
X1613420Y5424230D01*
X1642000Y5420000D01*
X1670580Y5428460D01*
X1692800Y5445390D01*
X1708680Y5475030D01*
X1711850Y5508900D01*
X1705500Y5542760D01*
X1689620Y5563930D01*
X1667400Y5580860D01*
X1645180Y5585100D01*
X1622950Y5580860D01*
X1594380Y5563930D01*
X1603900Y5674000D01*
X1689620D01*
G01X1934100Y5420000D02*
Y5674000D01*
X1816620Y5491970D01*
X1975380D01*
G01X2080150Y5470800D02*
X2099200Y5441160D01*
X2124600Y5424230D01*
X2153180Y5420000D01*
X2178580Y5424230D01*
X2203980Y5445390D01*
X2219850Y5470800D01*
X2223020Y5496200D01*
X2216680Y5525830D01*
X2194450Y5547000D01*
X2172220Y5555470D01*
X2143650D01*
G01X2172220D02*
X2191270Y5568170D01*
X2207150Y5589330D01*
X2213500Y5614730D01*
X2207150Y5640130D01*
X2191270Y5661290D01*
X2162700Y5674000D01*
X2134130Y5669770D01*
X2105550Y5652830D01*
G01X2442100Y5420000D02*
Y5674000D01*
X2324620Y5491970D01*
X2483380D01*
G54D19*
G01X-698500Y-443500D02*
X190500D01*
G01X-698500Y1713500D02*
X190500D01*
G01X-444500Y-697500D02*
Y191500D01*
G01Y1967500D02*
Y1078500D01*
G01X4444500Y-443500D02*
X3555500D01*
G01X4444500Y1713500D02*
X3555500D01*
G01X4190500Y-697500D02*
Y191500D01*
G01Y1967500D02*
Y1078500D01*
M02*
