G04 ================== begin FILE IDENTIFICATION RECORD ==================*
G04 Layout Name:  C:/tmp/20_065434b/worklib/02_065434b_top/physical/08_065434b.brd*
G04 Film Name:    silk_prm*
G04 File Format:  Gerber RS274X*
G04 File Origin:  Cadence Allegro 17.4-S018*
G04 Origin Date:  Thu Aug  5 14:02:49 2021*
G04 *
G04 Layer:  PACKAGE GEOMETRY/SILKSCREEN_TOP*
G04 Layer:  BOARD GEOMETRY/TOOLING_CORNERS*
G04 Layer:  BOARD GEOMETRY/SILKSCREEN_TOP*
G04 Layer:  BOARD GEOMETRY/ROOT_NUMBER*
G04 Layer:  REF DES/SILKSCREEN_TOP*
G04 Layer:  MANUFACTURING/SILK_DETAIL_TOP*
G04 *
G04 Offset:    (0.0000 0.0000)*
G04 Mirror:    No*
G04 Mode:      Positive*
G04 Rotation:  0*
G04 FullContactRelief:  No*
G04 UndefLineWidth:     0.2032*
G04 ================== end FILE IDENTIFICATION RECORD ====================*
%FSLAX35Y35*MOMM*%
%IR0*IPPOS*OFA0.00000B0.00000*MIA0B0*SFA1.00000B1.00000*%
%ADD10C,.1*%
%ADD11C,.2032*%
%ADD12C,1.27*%
G75*
%LPD*%
G75*
G36*
G01X163600Y11200D02*
X274400D01*
Y-21000D01*
X163600D01*
Y11200D01*
G37*
G36*
G01X986900Y230000D02*
G02I-38110J0D01*
G37*
G36*
G01X1286000Y-254100D02*
Y-97900D01*
X1362200D01*
Y-254100D01*
X1286000D01*
G37*
G36*
G01X1690500Y383000D02*
G02I-38100J0D01*
G37*
G36*
G01X3195400Y490500D02*
X3184400D01*
X3161600Y423700D01*
X3172700D01*
X3177800Y439500D01*
X3200900D01*
X3205700Y423700D01*
X3216900D01*
X3195400Y490500D01*
G37*
G36*
G01X3104300Y891900D02*
X3134500D01*
X3197100Y793600D01*
Y891900D01*
X3226500D01*
Y744200D01*
X3198700D01*
X3133800Y844100D01*
Y744200D01*
X3104300D01*
Y891900D01*
G37*
G36*
G01X3096500Y710700D02*
X3205000D01*
Y686100D01*
X3126100D01*
Y654700D01*
X3195900D01*
Y627800D01*
X3126400D01*
Y588300D01*
X3207500D01*
Y563200D01*
X3096500D01*
Y710700D01*
G37*
G36*
G01X3106800Y490500D02*
X3117000D01*
Y461300D01*
X3144300D01*
Y490500D01*
X3154500D01*
Y423700D01*
X3144300D01*
Y452600D01*
X3117000D01*
Y423700D01*
X3106800D01*
Y490500D01*
G37*
G36*
G01X3099200D02*
X3088300D01*
X3075400Y438400D01*
X3063700Y478200D01*
X3053800D01*
X3041100Y437700D01*
X3029000Y490500D01*
X3018100D01*
X3035300Y423700D01*
X3046500D01*
X3058400Y463000D01*
X3070000Y423700D01*
X3080900D01*
X3099200Y490500D01*
G37*
G36*
G01X2963100Y744200D02*
X3012700Y891900D01*
X3042700D01*
X3098500Y744200D01*
X3068100D01*
X3056900Y777100D01*
X3002400D01*
X2992700Y744200D01*
X2963100D01*
G37*
G36*
G01X3017800Y563200D02*
X3023100Y563400D01*
X3028000Y563900D01*
X3037300Y565200D01*
X3041700Y566400D01*
X3047000Y568200D01*
X3051800Y570200D01*
X3056400Y572700D01*
X3060500Y575500D01*
X3064700Y578600D01*
X3068300Y582200D01*
X3071400Y585900D01*
X3074400Y590000D01*
X3076900Y594300D01*
X3079200Y598900D01*
X3081200Y604200D01*
X3083000Y609800D01*
X3084200Y615600D01*
X3085200Y621500D01*
X3085800Y628000D01*
X3086000Y634600D01*
X3085800Y640700D01*
X3085200Y646800D01*
X3084300Y652600D01*
X3083200Y658000D01*
X3081500Y663600D01*
X3079500Y669100D01*
X3077400Y674000D01*
X3074700Y678800D01*
X3071800Y683600D01*
X3068600Y687800D01*
X3065200Y691700D01*
X3061200Y695300D01*
X3057200Y698800D01*
X3052800Y701800D01*
X3048500Y704100D01*
X3044000Y706100D01*
X3039300Y707600D01*
X3034300Y709000D01*
X3029200Y709900D01*
X3023700Y710500D01*
X3018100Y710700D01*
X2961000D01*
Y563200D01*
X3017800D01*
G37*
G36*
G01X2936900Y438700D02*
X2936600Y437100D01*
X2936100Y435100D01*
X2935200Y433100D01*
X2934600Y431800D01*
X2933700Y430500D01*
X2932600Y429100D01*
X2931000Y427700D01*
X2929300Y426500D01*
X2927100Y425300D01*
X2923500Y424000D01*
X2921000Y423700D01*
X2920400Y423500D01*
X2919900D01*
X2918400Y423400D01*
X2915100Y423000D01*
X2911000D01*
X2908500Y423200D01*
X2906700Y423400D01*
X2905500Y423500D01*
X2905300D01*
X2904400Y423700D01*
X2902000Y424000D01*
X2900400Y424500D01*
X2900100Y424700D01*
X2897600Y425700D01*
X2896000Y426500D01*
X2894100Y428000D01*
X2892800Y429100D01*
X2891100Y431400D01*
X2890300Y432900D01*
X2890100Y433300D01*
X2889000Y436600D01*
X2888500Y438400D01*
X2888000Y440900D01*
X2887700Y443000D01*
X2887400Y446800D01*
X2887200Y449900D01*
Y465400D01*
X2887400Y467300D01*
X2887500Y469700D01*
X2887800Y472100D01*
X2888500Y475400D01*
X2889000Y477300D01*
X2890000Y480600D01*
X2890800Y482100D01*
X2891800Y483600D01*
X2892800Y484900D01*
X2894600Y486400D01*
X2896000Y487400D01*
X2898100Y488600D01*
X2900100Y489400D01*
X2902900Y490100D01*
X2905500Y490500D01*
X2911800Y491100D01*
X2913800D01*
X2920700Y490500D01*
X2923000Y490100D01*
X2925000Y489600D01*
X2925300Y489400D01*
X2927800Y488400D01*
X2929300Y487400D01*
X2931100Y486100D01*
X2932600Y484900D01*
Y484800D01*
X2932900Y484500D01*
X2933400Y483800D01*
X2933600Y483600D01*
X2934300Y482600D01*
X2935100Y481000D01*
X2935400Y480800D01*
X2936400Y478300D01*
X2936900Y475700D01*
Y475200D01*
X2937400Y473000D01*
X2937600Y471100D01*
X2938000Y467300D01*
X2938200Y464800D01*
Y450900D01*
X2938000Y448800D01*
Y446800D01*
X2937700Y444300D01*
X2937600Y442000D01*
X2936900Y438700D01*
G37*
G36*
G01X2960800Y423700D02*
X2950600D01*
Y490500D01*
X2991000D01*
Y481800D01*
X2960800D01*
Y461300D01*
X2983100D01*
Y452600D01*
X2960800D01*
Y423700D01*
G37*
G36*
G01X2833200D02*
X2835900Y424000D01*
X2838000Y424400D01*
X2840300Y425000D01*
X2841800Y425800D01*
X2843600Y426800D01*
X2845100Y427800D01*
X2846800Y429100D01*
X2847400Y429600D01*
X2848600Y431600D01*
X2849400Y433100D01*
X2849500Y433300D01*
X2849900Y434100D01*
X2850400Y435400D01*
X2850700Y436600D01*
X2851000Y438700D01*
X2851500Y442000D01*
X2851900Y444300D01*
X2852000Y446800D01*
X2852200Y448800D01*
Y450900D01*
X2852400Y453900D01*
Y462000D01*
X2852000Y467100D01*
X2851700Y471100D01*
X2851400Y473200D01*
X2851000Y475900D01*
X2850700Y477300D01*
X2850100Y479300D01*
X2849500Y480500D01*
X2849400Y480800D01*
X2848100Y483300D01*
X2847600Y483800D01*
X2846600Y484900D01*
X2845400Y486100D01*
X2843600Y487200D01*
X2842300Y488100D01*
X2840300Y488900D01*
X2838300Y489600D01*
X2835900Y490100D01*
X2832900Y490500D01*
X2804300D01*
Y423700D01*
X2833200D01*
G37*
G36*
G01X2775800Y490500D02*
X2764700D01*
X2741900Y423700D01*
X2753000D01*
X2758100Y439500D01*
X2781200D01*
X2786000Y423700D01*
X2797200D01*
X2775800Y490500D01*
G37*
G36*
G01X2697700D02*
X2738300D01*
Y481800D01*
X2707900D01*
Y461300D01*
X2730200D01*
Y452600D01*
X2707900D01*
Y432300D01*
X2738300D01*
Y423700D01*
X2697700D01*
Y490500D01*
G37*
G36*
G01X2578000Y890600D02*
X2907200D01*
Y559800D01*
X2578000D01*
Y890600D01*
G37*
G36*
G01X2608200Y490500D02*
X2597100D01*
X2574300Y423700D01*
X2585400D01*
X2590500Y439500D01*
X2613600D01*
X2618400Y423700D01*
X2629600D01*
X2608200Y490500D01*
G37*
G36*
G01X2636600D02*
X2647000D01*
Y461300D01*
X2674200D01*
Y490500D01*
X2684600D01*
Y423700D01*
X2674200D01*
Y452600D01*
X2647000D01*
Y423700D01*
X2636600D01*
Y490500D01*
G37*
G36*
G01X3775700Y486300D02*
X3767500D01*
Y490500D01*
X3788900D01*
Y486300D01*
X3780700D01*
Y458400D01*
X3775700D01*
Y486300D01*
G37*
G36*
G01X3638200Y759100D02*
X3634700Y762500D01*
X3631800Y766300D01*
X3628800Y770300D01*
X3626000Y774600D01*
X3623700Y779200D01*
X3621500Y783800D01*
X3619700Y788600D01*
X3618200Y793600D01*
X3616800Y799500D01*
X3615900Y805600D01*
X3615300Y811700D01*
X3615100Y818000D01*
X3615400Y824300D01*
X3616200Y830500D01*
X3617400Y836600D01*
X3619100Y842700D01*
X3621000Y848700D01*
X3623000Y853200D01*
X3625200Y857400D01*
X3627600Y861700D01*
X3630300Y865700D01*
X3633300Y869700D01*
X3636900Y873500D01*
X3640500Y877100D01*
X3644800Y880200D01*
X3649100Y883200D01*
X3653900Y886000D01*
X3658800Y888200D01*
X3663000Y889800D01*
X3667400Y891100D01*
X3671900Y892300D01*
X3676700Y893100D01*
X3686600Y893800D01*
X3691500Y893400D01*
X3696200Y893100D01*
X3700600Y892100D01*
X3704900Y890800D01*
X3709000Y889300D01*
X3713000Y887600D01*
X3716800Y885500D01*
X3720100Y883400D01*
X3723600Y881000D01*
X3726700Y878700D01*
X3729700Y876300D01*
X3732100Y873800D01*
X3734300Y871500D01*
X3736100Y869200D01*
X3738300Y865900D01*
X3740200Y862700D01*
X3741700Y859800D01*
X3743000Y856900D01*
X3743900Y854500D01*
X3744700Y852200D01*
X3745200Y850200D01*
X3745500Y848500D01*
X3745900Y847000D01*
Y845100D01*
X3720900D01*
X3719600Y847400D01*
X3717900Y849900D01*
X3714300Y855100D01*
X3712200Y857800D01*
X3709500Y860200D01*
X3707000Y862600D01*
X3704400Y864400D01*
X3701900Y865900D01*
X3699300Y867400D01*
X3696300Y868300D01*
X3693000Y869200D01*
X3689400Y869700D01*
X3685800Y869800D01*
X3681800D01*
X3678300Y869300D01*
X3674900Y868500D01*
X3671600Y867400D01*
X3668400Y866000D01*
X3665600Y864500D01*
X3662500Y862200D01*
X3659500Y859800D01*
X3656700Y856900D01*
X3654200Y854000D01*
X3651800Y850200D01*
X3649400Y846200D01*
X3647500Y841800D01*
X3646000Y837300D01*
X3644800Y832700D01*
X3643800Y828100D01*
X3643300Y823300D01*
X3643000Y818200D01*
X3643200Y812900D01*
X3643600Y807400D01*
X3644600Y802200D01*
X3646000Y797000D01*
X3647500Y792900D01*
X3648900Y789300D01*
X3650900Y785600D01*
X3653100Y782200D01*
X3655500Y779200D01*
X3658400Y776200D01*
X3661300Y773600D01*
X3664800Y771300D01*
X3668300Y769100D01*
X3674500Y766800D01*
X3678000Y766200D01*
X3682800Y765500D01*
X3689200D01*
X3693000Y766200D01*
X3696500Y766800D01*
X3699800Y768100D01*
X3702900Y769500D01*
X3705700Y771300D01*
X3708900Y773400D01*
X3711800Y775700D01*
X3714300Y778200D01*
X3716600Y780700D01*
X3718500Y783000D01*
X3720100Y785300D01*
X3721600Y787300D01*
X3722600Y789100D01*
X3723200Y790300D01*
X3723900Y791300D01*
X3724100Y791800D01*
Y799700D01*
X3688900D01*
Y822600D01*
X3749500D01*
Y747800D01*
X3726200D01*
Y761900D01*
X3720900Y756600D01*
X3717300Y753500D01*
X3714000Y751200D01*
X3710400Y748800D01*
X3707600Y747300D01*
X3704600Y745900D01*
X3701600Y744700D01*
X3698100Y743600D01*
X3694500Y742900D01*
X3690700Y742200D01*
X3686600Y741900D01*
X3682500Y741700D01*
X3677200Y742100D01*
X3672000Y742700D01*
X3667300Y743700D01*
X3662600Y745000D01*
X3658000Y746500D01*
X3653900Y748300D01*
X3649900Y750500D01*
X3645600Y753100D01*
X3641800Y756100D01*
X3638200Y759100D01*
G37*
G36*
G01X3640300Y586900D02*
X3642000Y583400D01*
X3643800Y580300D01*
X3646000Y577300D01*
X3648600Y574500D01*
X3651400Y572000D01*
X3654500Y569700D01*
X3657800Y567500D01*
X3661700Y565700D01*
X3665600Y564200D01*
X3670400Y562600D01*
X3675300Y561600D01*
X3680800Y560600D01*
X3686200Y559900D01*
X3692400Y559500D01*
X3704400D01*
X3709700Y560100D01*
X3719900Y562100D01*
X3724500Y563700D01*
X3728800Y565600D01*
X3733000Y567500D01*
X3736800Y569800D01*
X3740600Y572800D01*
X3744200Y576100D01*
X3747300Y579600D01*
X3750200Y583200D01*
X3752000Y586700D01*
X3753600Y590200D01*
X3754900Y593800D01*
X3756100Y597600D01*
X3756600Y601400D01*
X3756900Y605400D01*
Y609300D01*
X3756600Y613300D01*
X3756100Y616600D01*
X3755400Y620000D01*
X3754300Y623200D01*
X3753100Y626200D01*
X3751500Y628800D01*
X3749800Y631300D01*
X3747800Y633600D01*
X3744900Y636200D01*
X3741600Y638500D01*
X3738100Y640700D01*
X3734000Y642500D01*
X3729700Y644300D01*
X3724900Y645800D01*
X3719800Y647300D01*
X3714300Y648600D01*
X3708500Y649800D01*
X3704300Y650400D01*
X3699800Y651100D01*
X3695500Y651900D01*
X3691500Y652600D01*
X3687600Y653600D01*
X3683800Y654700D01*
X3680500Y655900D01*
X3677800Y657200D01*
X3675300Y658700D01*
X3671900Y661500D01*
X3670200Y664000D01*
X3669300Y665800D01*
X3668600Y667900D01*
X3668300Y670200D01*
X3668100Y672700D01*
X3668300Y675200D01*
X3668700Y677300D01*
X3669700Y679300D01*
X3670900Y681100D01*
X3672600Y682800D01*
X3674200Y684300D01*
X3676000Y685600D01*
X3678300Y686600D01*
X3681300Y687900D01*
X3684400Y688900D01*
X3687900Y689400D01*
X3691200Y689900D01*
X3694200Y690200D01*
X3697300D01*
X3700600Y690100D01*
X3703600Y689700D01*
X3706200Y689100D01*
X3708700Y688600D01*
X3711500Y687400D01*
X3713800Y686300D01*
X3716000Y684800D01*
X3717600Y683300D01*
X3719600Y681100D01*
X3720900Y679000D01*
X3722100Y676700D01*
X3722900Y674500D01*
X3723600Y672500D01*
X3724100Y670700D01*
X3724500Y669100D01*
X3751600D01*
X3751500Y669600D01*
Y670600D01*
X3751100Y672400D01*
X3751000Y674400D01*
X3750800Y676500D01*
X3750200Y679100D01*
X3749300Y682000D01*
X3748300Y684900D01*
X3747000Y688100D01*
X3745700Y690500D01*
X3742000Y695800D01*
X3739900Y698300D01*
X3737300Y700800D01*
X3734500Y702900D01*
X3731700Y704700D01*
X3728700Y706600D01*
X3725400Y708000D01*
X3721900Y709400D01*
X3717900Y710500D01*
X3713700Y711500D01*
X3709200Y712200D01*
X3704100Y712700D01*
X3698800Y712800D01*
X3693200Y712700D01*
X3687700Y712200D01*
X3682800Y711700D01*
X3678000Y710500D01*
X3673400Y709400D01*
X3668900Y707700D01*
X3665000Y706100D01*
X3661200Y704100D01*
X3654500Y699500D01*
X3651800Y696800D01*
X3649100Y694200D01*
X3646800Y691400D01*
X3644800Y688400D01*
X3642800Y684900D01*
X3641300Y681300D01*
X3640200Y677800D01*
X3638900Y670200D01*
X3638700Y666300D01*
X3638900Y663000D01*
X3639400Y659700D01*
X3640000Y656500D01*
X3641000Y653700D01*
X3642300Y651100D01*
X3643800Y648600D01*
X3645800Y645800D01*
X3648100Y643300D01*
X3650600Y641200D01*
X3653200Y639200D01*
X3656000Y637200D01*
X3660500Y634900D01*
X3664800Y632900D01*
X3669300Y631300D01*
X3673500Y629600D01*
X3678000Y628500D01*
X3682000Y627300D01*
X3685800Y626500D01*
X3689900Y625300D01*
X3694300Y624500D01*
X3703700Y622700D01*
X3708400Y621500D01*
X3712700Y620400D01*
X3715200Y619400D01*
X3717500Y618600D01*
X3719800Y617200D01*
X3723400Y614100D01*
X3724900Y612300D01*
X3726000Y610300D01*
X3726900Y608000D01*
X3727500Y605400D01*
X3727700Y602500D01*
X3727500Y599900D01*
X3727000Y597600D01*
X3726000Y595600D01*
X3725100Y593500D01*
X3723600Y591800D01*
X3721600Y589800D01*
X3719300Y588000D01*
X3714000Y585400D01*
X3708400Y583700D01*
X3705600Y583100D01*
X3702900Y582600D01*
X3700400Y582200D01*
X3698100Y582100D01*
X3694300D01*
X3690100Y582600D01*
X3686100Y583100D01*
X3682300Y583900D01*
X3678800Y585200D01*
X3676000Y586400D01*
X3673400Y588000D01*
X3671100Y589700D01*
X3669300Y591500D01*
X3667900Y593600D01*
X3666600Y595900D01*
X3665800Y598600D01*
X3665300Y601200D01*
X3665100Y604200D01*
X3665300Y607300D01*
X3637000D01*
Y602900D01*
X3637400Y598600D01*
X3638000Y594500D01*
X3639200Y590500D01*
X3640300Y586900D01*
G37*
G36*
G01X3717300Y490500D02*
X3757900D01*
Y481800D01*
X3727500D01*
Y461300D01*
X3749800D01*
Y452600D01*
X3727500D01*
Y432300D01*
X3757900D01*
Y423700D01*
X3717300D01*
Y490500D01*
G37*
G36*
G01X3672900D02*
X3683100D01*
Y432300D01*
X3709200D01*
Y423700D01*
X3672900D01*
Y490500D01*
G37*
G36*
G01X3614800D02*
X3642000D01*
X3644300Y490400D01*
X3646500Y490200D01*
X3647900Y489700D01*
X3649800Y489200D01*
X3651800Y488600D01*
X3654700Y486600D01*
X3655400Y486100D01*
X3656500Y484900D01*
X3658000Y483000D01*
X3659300Y480500D01*
X3660200Y478700D01*
X3660700Y476500D01*
X3661000Y475200D01*
X3661200Y472900D01*
X3661000Y470700D01*
X3660800Y469100D01*
X3660300Y466800D01*
X3659500Y465100D01*
X3658200Y462800D01*
X3657000Y461200D01*
X3655400Y459700D01*
X3654700Y459000D01*
X3653700Y458400D01*
X3652900Y457900D01*
X3653900Y457400D01*
X3655200Y456500D01*
X3657400Y455100D01*
X3658700Y453600D01*
X3659800Y451900D01*
X3660800Y449800D01*
X3661700Y447300D01*
X3662000Y445200D01*
X3662100Y443200D01*
Y441700D01*
X3662000Y440000D01*
X3661500Y437900D01*
X3661000Y436100D01*
X3660200Y433800D01*
X3659000Y431800D01*
X3657800Y430100D01*
X3656700Y428800D01*
X3655200Y427500D01*
X3654400Y426800D01*
X3651100Y425200D01*
X3649900Y424700D01*
X3647900Y424000D01*
X3644800Y423700D01*
X3614800D01*
Y490500D01*
G37*
G36*
G01X3583100Y758100D02*
X3586700Y761500D01*
X3590200Y765500D01*
X3593000Y769300D01*
X3595600Y773400D01*
X3597900Y777700D01*
X3600100Y782000D01*
X3601700Y786600D01*
X3603700Y792600D01*
X3605200Y798700D01*
X3606200Y805100D01*
X3606800Y811200D01*
X3607000Y817800D01*
X3606500Y826100D01*
X3606200Y830200D01*
X3605000Y836300D01*
X3603500Y842400D01*
X3602000Y847400D01*
X3600200Y852200D01*
X3598100Y856900D01*
X3595600Y861600D01*
X3593000Y865900D01*
X3589800Y870000D01*
X3586700Y873600D01*
X3583200Y877100D01*
X3579800Y880200D01*
X3575800Y883200D01*
X3571700Y885700D01*
X3567600Y888000D01*
X3563400Y889800D01*
X3559100Y891100D01*
X3554400Y892500D01*
X3549600Y893300D01*
X3544500Y893900D01*
X3539200Y894100D01*
X3534200Y893900D01*
X3529400Y893600D01*
X3524800Y892900D01*
X3520500Y891900D01*
X3516100Y890600D01*
X3512100Y889100D01*
X3507200Y887000D01*
X3502500Y884300D01*
X3498100Y881400D01*
X3494100Y878100D01*
X3490300Y874600D01*
X3486800Y870700D01*
X3483900Y866800D01*
X3481100Y862600D01*
X3478800Y858400D01*
X3476400Y854100D01*
X3474500Y849300D01*
X3472500Y843400D01*
X3470800Y837300D01*
X3469500Y831000D01*
X3469000Y824600D01*
X3468800Y823300D01*
X3468500Y818200D01*
X3468700Y811900D01*
X3469200Y805600D01*
X3470200Y799500D01*
X3471600Y793400D01*
X3473100Y788500D01*
X3474900Y783500D01*
X3477100Y778900D01*
X3479400Y774300D01*
X3482200Y769800D01*
X3485400Y765700D01*
X3488700Y762000D01*
X3492100Y758700D01*
X3495700Y755400D01*
X3499900Y752600D01*
X3504200Y750000D01*
X3508300Y748000D01*
X3512800Y746000D01*
X3517400Y744500D01*
X3522200Y743400D01*
X3527300Y742600D01*
X3532700Y742100D01*
X3538300Y741700D01*
X3543300Y741900D01*
X3548100Y742400D01*
X3552700Y743200D01*
X3557000Y744000D01*
X3565400Y746900D01*
X3570200Y749200D01*
X3575000Y751800D01*
X3579100Y754800D01*
X3583100Y758100D01*
G37*
G36*
G01X3527300Y710700D02*
X3631900D01*
Y683900D01*
X3555500D01*
Y653600D01*
X3623200D01*
Y627100D01*
X3555800D01*
Y588300D01*
X3635600D01*
Y563200D01*
X3527300D01*
Y710700D01*
G37*
G36*
G01X3544800Y437200D02*
X3544300Y438000D01*
X3543600Y439500D01*
X3543500Y439700D01*
X3543300Y441900D01*
X3543000Y444200D01*
X3532400D01*
X3533100Y440000D01*
X3533700Y437600D01*
X3536000Y432300D01*
X3536900Y431100D01*
X3538000Y429800D01*
X3538800Y429000D01*
X3541200Y427000D01*
X3542500Y426300D01*
X3544300Y425300D01*
X3546800Y424200D01*
X3551200Y423400D01*
X3556200Y423000D01*
X3558700Y423200D01*
X3560800Y423400D01*
X3563600Y423800D01*
X3566300Y424400D01*
X3569900Y426000D01*
X3571800Y427200D01*
X3573800Y428600D01*
X3575000Y429600D01*
X3576800Y431800D01*
X3577500Y433300D01*
X3578600Y435300D01*
X3579300Y437400D01*
X3579600Y439500D01*
X3580100Y442000D01*
X3580300Y445000D01*
X3579900Y448100D01*
X3579600Y450400D01*
X3579300Y452400D01*
X3578300Y454700D01*
X3576900Y457000D01*
X3575600Y458500D01*
X3572800Y460700D01*
X3570700Y461700D01*
X3568100Y462800D01*
X3565900Y463100D01*
X3563100Y463800D01*
X3560800Y464100D01*
X3558200Y464600D01*
X3555500Y465000D01*
X3552400Y465300D01*
X3550100Y465600D01*
X3545500Y467400D01*
X3543800Y469600D01*
X3543500Y470400D01*
X3543300Y471600D01*
X3543100Y472900D01*
X3543300Y475000D01*
X3543800Y476700D01*
X3544500Y478000D01*
X3545500Y479200D01*
X3546600Y480200D01*
X3548200Y480800D01*
X3550200Y481500D01*
X3552100Y482000D01*
X3554200Y482300D01*
X3558300D01*
X3560000Y482100D01*
X3561600Y481800D01*
X3563100Y481500D01*
X3564900Y480800D01*
X3566100Y480200D01*
X3566700Y479500D01*
X3567700Y478300D01*
X3568400Y476900D01*
X3568700Y475700D01*
X3568900Y474000D01*
X3578900D01*
Y475000D01*
X3578800Y476500D01*
X3578400Y478300D01*
X3578100Y479300D01*
X3577800Y480200D01*
X3577300Y481200D01*
X3576900Y482100D01*
X3576300Y483100D01*
X3574800Y484900D01*
X3573800Y486100D01*
X3572000Y487800D01*
X3570500Y488600D01*
X3568200Y489600D01*
X3563900Y490700D01*
X3559100Y491100D01*
X3553700D01*
X3551400Y490900D01*
X3548900Y490400D01*
X3546600Y489900D01*
X3545100Y489200D01*
X3542300Y488200D01*
X3540300Y486900D01*
X3538200Y485100D01*
X3536200Y482800D01*
X3535000Y480800D01*
X3533900Y478300D01*
X3533400Y476500D01*
X3532900Y473600D01*
Y469100D01*
X3533600Y465600D01*
X3534600Y463800D01*
X3535500Y462200D01*
X3536700Y460800D01*
X3537400Y460200D01*
X3539000Y458800D01*
X3540700Y457900D01*
X3543800Y456700D01*
X3545100Y456400D01*
X3548200Y455700D01*
X3552400Y455100D01*
X3556300Y454600D01*
X3560100Y453700D01*
X3562100Y453200D01*
X3564300Y452400D01*
X3566100Y451800D01*
X3566600Y451400D01*
X3568200Y449800D01*
X3568600Y449300D01*
X3569000Y448300D01*
X3569200Y447300D01*
X3569600Y445800D01*
Y443200D01*
X3569200Y440200D01*
X3568700Y438700D01*
X3568100Y437400D01*
X3567600Y436700D01*
X3566700Y435600D01*
X3566100Y434700D01*
X3563400Y433100D01*
X3561500Y432300D01*
X3558800Y431800D01*
X3556200D01*
X3551900Y432100D01*
X3549700Y432800D01*
X3548200Y433600D01*
X3546900Y434400D01*
X3545900Y435400D01*
X3545800Y435700D01*
Y436100D01*
X3544800Y437200D01*
G37*
G36*
G01X3489000D02*
X3488500Y438000D01*
X3487800Y439500D01*
X3487700Y439700D01*
X3487500Y441900D01*
X3487200Y444200D01*
X3476600D01*
X3477300Y440000D01*
X3477900Y437600D01*
X3480200Y432300D01*
X3481100Y431100D01*
X3482200Y429800D01*
X3483000Y429000D01*
X3485400Y427000D01*
X3486700Y426300D01*
X3488500Y425300D01*
X3491000Y424200D01*
X3495400Y423400D01*
X3500400Y423000D01*
X3502900Y423200D01*
X3505000Y423400D01*
X3507800Y423800D01*
X3510500Y424400D01*
X3514100Y426000D01*
X3516100Y427200D01*
X3518000Y428600D01*
X3519200Y429600D01*
X3521000Y431800D01*
X3521700Y433300D01*
X3522800Y435300D01*
X3523500Y437400D01*
X3523800Y439500D01*
X3524300Y442000D01*
X3524500Y445000D01*
X3524100Y448100D01*
X3523800Y450400D01*
X3523500Y452400D01*
X3522500Y454700D01*
X3521200Y457000D01*
X3519900Y458500D01*
X3517100Y460700D01*
X3514900Y461700D01*
X3512300Y462800D01*
X3510100Y463100D01*
X3507300Y463800D01*
X3505000Y464100D01*
X3502300Y464600D01*
X3499700Y465000D01*
X3496600Y465300D01*
X3494300Y465600D01*
X3489600Y467400D01*
X3488000Y469600D01*
X3487700Y470400D01*
X3487500Y471600D01*
X3487300Y472900D01*
X3487500Y475000D01*
X3488000Y476700D01*
X3488700Y478000D01*
X3489600Y479200D01*
X3490800Y480200D01*
X3492400Y480800D01*
X3494400Y481500D01*
X3496300Y482000D01*
X3498400Y482300D01*
X3502500D01*
X3504200Y482100D01*
X3505800Y481800D01*
X3507300Y481500D01*
X3509100Y480800D01*
X3510300Y480200D01*
X3510900Y479500D01*
X3511900Y478300D01*
X3512600Y476900D01*
X3512900Y475700D01*
X3513100Y474000D01*
X3523200D01*
Y475000D01*
X3523000Y476500D01*
X3522700Y478300D01*
X3522300Y479300D01*
X3522000Y480200D01*
X3521500Y481200D01*
X3521200Y482100D01*
X3520500Y483100D01*
X3519000Y484900D01*
X3518000Y486100D01*
X3516200Y487800D01*
X3514700Y488600D01*
X3512400Y489600D01*
X3508100Y490700D01*
X3503300Y491100D01*
X3497900D01*
X3495600Y490900D01*
X3493100Y490400D01*
X3490800Y489900D01*
X3489300Y489200D01*
X3486500Y488200D01*
X3484500Y486900D01*
X3482400Y485100D01*
X3480400Y482800D01*
X3479200Y480800D01*
X3478100Y478300D01*
X3477600Y476500D01*
X3477100Y473600D01*
Y469100D01*
X3477800Y465600D01*
X3478800Y463800D01*
X3479700Y462200D01*
X3480900Y460800D01*
X3481500Y460200D01*
X3483200Y458800D01*
X3484800Y457900D01*
X3488000Y456700D01*
X3489300Y456400D01*
X3492400Y455700D01*
X3496600Y455100D01*
X3500500Y454600D01*
X3504300Y453700D01*
X3506300Y453200D01*
X3508500Y452400D01*
X3510300Y451800D01*
X3510800Y451400D01*
X3512400Y449800D01*
X3512800Y449300D01*
X3513200Y448300D01*
X3513400Y447300D01*
X3513800Y445800D01*
Y443200D01*
X3513400Y440200D01*
X3512900Y438700D01*
X3512300Y437400D01*
X3511800Y436700D01*
X3510900Y435600D01*
X3510300Y434700D01*
X3507600Y433100D01*
X3505700Y432300D01*
X3503000Y431800D01*
X3500400D01*
X3496100Y432100D01*
X3493900Y432800D01*
X3492400Y433600D01*
X3491100Y434400D01*
X3490100Y435400D01*
X3490000Y435700D01*
Y436100D01*
X3489000Y437200D01*
G37*
G36*
G01X3374900Y891900D02*
X3404300D01*
Y769300D01*
X3470200D01*
Y744200D01*
X3374900D01*
Y891900D01*
G37*
G36*
G01X3436500Y593800D02*
X3439300Y591200D01*
X3442400Y588700D01*
X3445700Y586900D01*
X3448400Y585400D01*
X3451300Y584400D01*
X3454500Y583700D01*
X3457600Y583200D01*
X3461100Y583100D01*
X3464200Y583200D01*
X3467200Y583600D01*
X3470200Y584400D01*
X3472600Y585200D01*
X3475100Y586200D01*
X3477300Y587700D01*
X3479400Y589000D01*
X3482100Y591200D01*
X3484200Y593500D01*
X3486000Y595800D01*
X3487700Y598200D01*
X3489100Y600900D01*
X3490300Y603000D01*
X3491300Y605200D01*
X3492100Y607200D01*
X3492400Y608500D01*
X3492800Y609500D01*
X3493100Y610500D01*
X3493400Y611000D01*
X3522000D01*
Y610500D01*
X3521800Y609500D01*
X3521700Y608300D01*
X3520800Y604400D01*
X3520400Y601900D01*
X3519400Y598900D01*
X3518000Y595800D01*
X3516400Y592100D01*
X3514400Y588300D01*
X3512100Y584700D01*
X3509100Y580900D01*
X3506800Y578300D01*
X3504200Y575800D01*
X3501400Y573300D01*
X3498100Y571000D01*
X3494800Y568900D01*
X3490800Y566900D01*
X3486700Y564900D01*
X3482500Y563600D01*
X3478100Y562300D01*
X3473500Y561300D01*
X3468300Y560400D01*
X3462900Y559900D01*
X3457100Y559800D01*
X3452300D01*
X3447900Y560300D01*
X3443200Y561100D01*
X3439000Y562100D01*
X3431000Y565400D01*
X3427200Y567400D01*
X3423300Y570000D01*
X3419600Y572800D01*
X3416000Y576000D01*
X3412700Y579400D01*
X3409700Y583100D01*
X3406800Y587300D01*
X3404000Y591600D01*
X3401500Y596100D01*
X3399200Y600900D01*
X3397200Y606000D01*
X3395500Y611100D01*
X3394000Y617100D01*
X3392700Y623300D01*
X3391700Y629600D01*
X3391400Y636100D01*
X3391200Y642500D01*
X3391400Y648900D01*
X3392200Y655200D01*
X3393600Y661600D01*
X3395200Y667800D01*
X3396700Y672400D01*
X3398700Y676800D01*
X3400800Y681100D01*
X3403100Y685300D01*
X3405900Y689100D01*
X3408600Y692500D01*
X3411500Y695700D01*
X3414700Y698600D01*
X3418100Y701400D01*
X3422000Y703900D01*
X3425700Y706100D01*
X3430000Y707900D01*
X3434000Y709500D01*
X3438100Y710700D01*
X3442800Y711700D01*
X3447400Y712300D01*
X3452300Y712700D01*
X3457400Y712800D01*
X3462900Y712700D01*
X3468000Y712200D01*
X3472800Y711500D01*
X3477300Y710500D01*
X3481500Y709200D01*
X3485400Y707700D01*
X3489000Y706200D01*
X3492300Y704400D01*
X3495400Y702300D01*
X3498900Y699800D01*
X3502000Y697200D01*
X3504800Y694400D01*
X3507500Y691500D01*
X3509600Y688700D01*
X3511600Y685800D01*
X3513800Y682100D01*
X3515600Y678700D01*
X3517100Y675500D01*
X3518400Y672400D01*
X3519400Y669600D01*
X3520000Y667600D01*
X3520700Y665800D01*
X3521000Y664300D01*
X3521300Y663000D01*
X3521700Y662100D01*
X3492300D01*
X3491100Y664500D01*
X3489600Y667100D01*
X3487800Y669700D01*
X3485800Y672700D01*
X3483700Y675500D01*
X3481200Y678500D01*
X3478600Y681100D01*
X3476300Y683100D01*
X3474100Y684800D01*
X3471600Y686300D01*
X3469000Y687800D01*
X3466500Y688900D01*
X3463900Y689600D01*
X3461100Y689900D01*
X3457100Y690100D01*
X3453500Y689600D01*
X3450200Y688900D01*
X3446900Y687800D01*
X3443900Y686300D01*
X3440900Y684600D01*
X3438300Y682400D01*
X3435800Y680100D01*
X3433700Y677500D01*
X3431700Y674700D01*
X3429600Y671200D01*
X3427700Y667600D01*
X3426300Y663600D01*
X3424900Y659700D01*
X3423800Y655400D01*
X3422600Y649800D01*
X3422100Y643800D01*
X3422000Y637700D01*
X3422100Y632800D01*
X3422400Y627600D01*
X3423300Y622700D01*
X3424300Y617900D01*
X3425600Y613100D01*
X3427400Y608700D01*
X3429400Y604200D01*
X3431700Y600200D01*
X3434000Y596900D01*
X3436500Y593800D01*
G37*
G36*
G01X3419500Y482100D02*
X3420500Y483600D01*
X3421500Y484900D01*
X3423300Y486400D01*
X3424600Y487400D01*
X3426700Y488600D01*
X3428700Y489400D01*
X3431500Y490100D01*
X3434200Y490500D01*
X3440400Y491100D01*
X3442400D01*
X3449400Y490500D01*
X3451700Y490100D01*
X3453700Y489600D01*
X3454000Y489400D01*
X3456500Y488400D01*
X3458000Y487400D01*
X3459800Y486100D01*
X3461300Y484900D01*
Y484800D01*
X3461600Y484500D01*
X3462100Y483800D01*
X3462200Y483600D01*
X3462900Y482600D01*
X3463700Y481000D01*
X3464000Y480800D01*
X3465000Y478300D01*
X3465500Y475700D01*
Y475200D01*
X3466000Y473000D01*
X3466200Y471100D01*
X3466700Y467300D01*
X3466900Y464800D01*
Y450900D01*
X3466700Y448800D01*
Y446800D01*
X3466400Y444300D01*
X3466200Y442000D01*
X3465500Y438700D01*
X3465200Y437100D01*
X3464700Y435100D01*
X3463900Y433100D01*
X3463200Y431800D01*
X3462400Y430500D01*
X3461300Y429100D01*
X3459600Y427700D01*
X3458000Y426500D01*
X3455800Y425300D01*
X3452200Y424000D01*
X3449700Y423700D01*
X3449000Y423500D01*
X3448500D01*
X3447100Y423400D01*
X3443800Y423000D01*
X3439600D01*
X3437100Y423200D01*
X3435300Y423400D01*
X3434200Y423500D01*
X3434000D01*
X3433000Y423700D01*
X3430700Y424000D01*
X3429000Y424500D01*
X3428700Y424700D01*
X3426300Y425700D01*
X3424600Y426500D01*
X3422800Y428000D01*
X3421500Y429100D01*
X3419800Y431400D01*
X3419000Y432900D01*
X3418700Y433300D01*
X3417700Y436600D01*
X3417200Y438400D01*
X3416700Y440900D01*
X3416300Y443000D01*
X3416000Y446800D01*
X3415800Y449900D01*
Y465400D01*
X3416000Y467300D01*
X3416200Y469700D01*
X3416500Y472100D01*
X3417200Y475400D01*
X3417700Y477300D01*
X3418700Y480600D01*
X3419500Y482100D01*
G37*
G36*
G01X3233200Y744200D02*
X3282800Y891900D01*
X3312800D01*
X3368600Y744200D01*
X3338200D01*
X3327000Y777100D01*
X3272500D01*
X3262800Y744200D01*
X3233200D01*
G37*
G36*
G01X3309700Y710400D02*
X3338600D01*
Y702600D01*
X3291400Y563700D01*
X3263100D01*
X3214400Y702900D01*
Y710700D01*
X3244000D01*
X3277300Y602900D01*
X3309700Y710400D01*
G37*
G36*
G01X3263800Y490500D02*
X3272900D01*
Y479700D01*
Y478600D01*
Y478000D01*
Y477900D01*
Y477600D01*
Y477300D01*
X3272800Y476800D01*
Y476500D01*
X3272700Y476200D01*
X3272600Y475600D01*
X3272500Y475200D01*
X3272400Y474600D01*
X3272300Y474100D01*
X3271900Y473200D01*
X3271500Y472500D01*
X3271200Y472000D01*
X3270900Y471800D01*
X3270600Y471400D01*
X3270400Y471300D01*
X3270100Y471000D01*
X3269700Y470800D01*
X3268400Y470100D01*
X3268300Y470000D01*
X3268000Y469900D01*
X3267500Y469700D01*
X3267000Y469500D01*
X3266800Y469400D01*
X3266600D01*
X3266100Y469200D01*
X3265900Y469100D01*
X3265500D01*
X3265400Y469000D01*
X3265100Y468900D01*
X3264600Y468800D01*
X3263100Y472900D01*
X3265600Y473200D01*
X3266600Y473700D01*
X3267200Y474400D01*
X3267600Y475200D01*
X3267900Y477500D01*
Y480800D01*
X3263800D01*
Y490500D01*
G37*
G36*
G01X3283900Y460800D02*
X3284600Y460200D01*
X3286200Y458800D01*
X3287900Y457900D01*
X3291000Y456700D01*
X3292300Y456400D01*
X3295500Y455700D01*
X3299600Y455100D01*
X3303600Y454600D01*
X3307400Y453700D01*
X3309400Y453200D01*
X3311500Y452400D01*
X3313300Y451800D01*
X3313800Y451400D01*
X3315500Y449800D01*
X3315800Y449300D01*
X3316300Y448300D01*
X3316400Y447300D01*
X3316800Y445800D01*
Y443200D01*
X3316400Y440200D01*
X3316000Y438700D01*
X3315300Y437400D01*
X3314800Y436700D01*
X3314000Y435600D01*
X3313300Y434700D01*
X3310700Y433100D01*
X3308700Y432300D01*
X3306100Y431800D01*
X3303400D01*
X3299100Y432100D01*
X3297000Y432800D01*
X3295500Y433600D01*
X3294200Y434400D01*
X3293200Y435400D01*
X3293000Y435700D01*
Y436100D01*
X3292000Y437200D01*
X3291500Y438000D01*
X3290900Y439500D01*
X3290700Y439700D01*
X3290500Y441900D01*
X3290200Y444200D01*
X3279600D01*
X3280300Y440000D01*
X3281000Y437600D01*
X3283300Y432300D01*
X3284100Y431100D01*
X3285300Y429800D01*
X3286100Y429000D01*
X3288400Y427000D01*
X3289700Y426300D01*
X3291500Y425300D01*
X3294000Y424200D01*
X3298500Y423400D01*
X3303400Y423000D01*
X3305900Y423200D01*
X3308000Y423400D01*
X3310800Y423800D01*
X3313500Y424400D01*
X3317100Y426000D01*
X3319100Y427200D01*
X3321100Y428600D01*
X3322200Y429600D01*
X3324000Y431800D01*
X3324700Y433300D01*
X3325900Y435300D01*
X3326500Y437400D01*
X3326900Y439500D01*
X3327300Y442000D01*
X3327500Y445000D01*
X3327200Y448100D01*
X3326900Y450400D01*
X3326500Y452400D01*
X3325500Y454700D01*
X3324200Y457000D01*
X3322900Y458500D01*
X3320100Y460700D01*
X3317900Y461700D01*
X3315300Y462800D01*
X3313100Y463100D01*
X3310400Y463800D01*
X3308000Y464100D01*
X3305400Y464600D01*
X3302800Y465000D01*
X3299600Y465300D01*
X3297300Y465600D01*
X3292700Y467400D01*
X3291000Y469600D01*
X3290700Y470400D01*
X3290500Y471600D01*
X3290400Y472900D01*
X3290500Y475000D01*
X3291000Y476700D01*
X3291700Y478000D01*
X3292700Y479200D01*
X3293800Y480200D01*
X3295500Y480800D01*
X3297500Y481500D01*
X3299300Y482000D01*
X3301400Y482300D01*
X3305600D01*
X3307200Y482100D01*
X3308900Y481800D01*
X3310400Y481500D01*
X3312200Y480800D01*
X3313300Y480200D01*
X3314000Y479500D01*
X3315000Y478300D01*
X3315600Y476900D01*
X3316000Y475700D01*
X3316100Y474000D01*
X3326200D01*
Y475000D01*
X3326000Y476500D01*
X3325700Y478300D01*
X3325400Y479300D01*
X3325000Y480200D01*
X3324500Y481200D01*
X3324200Y482100D01*
X3323600Y483100D01*
X3322100Y484900D01*
X3321100Y486100D01*
X3319300Y487800D01*
X3317800Y488600D01*
X3315500Y489600D01*
X3311200Y490700D01*
X3306400Y491100D01*
X3300900D01*
X3298600Y490900D01*
X3296200Y490400D01*
X3293800Y489900D01*
X3292300Y489200D01*
X3289500Y488200D01*
X3287600Y486900D01*
X3285400Y485100D01*
X3283400Y482800D01*
X3282300Y480800D01*
X3281100Y478300D01*
X3280600Y476500D01*
X3280100Y473600D01*
Y469100D01*
X3280800Y465600D01*
X3281800Y463800D01*
X3282800Y462200D01*
X3283900Y460800D01*
G37*
G36*
G01X3240200Y423700D02*
X3229900D01*
Y481800D01*
X3212900D01*
Y490500D01*
X3257200D01*
Y481800D01*
X3240200D01*
Y423700D01*
G37*
G36*
G01X3401600Y453200D02*
X3400200Y452100D01*
X3399800Y451800D01*
X3398700Y450800D01*
X3397300Y449900D01*
X3395200Y448900D01*
X3394400Y448600D01*
X3393100Y448100D01*
X3391100Y447600D01*
X3390100Y447500D01*
X3388300Y447300D01*
X3372100D01*
Y423700D01*
X3361700D01*
Y490500D01*
X3388600D01*
X3392900Y489900D01*
X3396900Y488600D01*
X3397500Y488200D01*
X3398300Y487800D01*
X3399200Y487100D01*
X3399800Y486600D01*
X3400600Y486100D01*
X3401800Y484800D01*
X3402000Y484500D01*
X3402300Y483900D01*
X3402500Y483800D01*
X3403000Y483300D01*
X3403600Y482300D01*
X3403800Y482100D01*
X3404500Y481000D01*
X3405400Y478700D01*
X3405800Y477800D01*
X3406600Y475700D01*
X3406900Y473000D01*
X3407100Y471100D01*
Y468900D01*
X3406900Y466300D01*
X3406800Y463800D01*
X3406300Y461800D01*
X3405800Y460200D01*
X3405400Y459400D01*
X3404500Y457200D01*
X3403600Y455900D01*
X3403300Y455400D01*
X3402300Y454200D01*
X3401600Y453200D01*
G37*
G36*
G01X3816000Y490500D02*
X3821500D01*
Y458400D01*
X3816900D01*
Y482000D01*
X3808900Y465600D01*
X3805000D01*
X3797400Y481600D01*
Y458400D01*
X3792600D01*
Y490500D01*
X3798000D01*
X3807100Y471700D01*
X3816000Y490500D01*
G37*
%LPC*%
G75*
G36*
G01X3198400Y448300D02*
X3190000Y476900D01*
X3180700Y448300D01*
X3198400D01*
G37*
G36*
G01X3046400Y807400D02*
Y807500D01*
X3028000Y860900D01*
X3011300Y807100D01*
X3010200Y797900D01*
X3047000D01*
Y804300D01*
Y804600D01*
Y804700D01*
Y804900D01*
X3046900Y805300D01*
Y805600D01*
X3046800Y805900D01*
Y806100D01*
X3046700Y806300D01*
X3046600Y806600D01*
Y806800D01*
X3046500Y807000D01*
X3046400Y807400D01*
G37*
G36*
G01X3017100Y586200D02*
X3021100Y586400D01*
X3024700Y586800D01*
X3028200Y587500D01*
X3031500Y588300D01*
X3034500Y589700D01*
X3037100Y591000D01*
X3039900Y593000D01*
X3042400Y595100D01*
X3044900Y597600D01*
X3046900Y600200D01*
X3048500Y603000D01*
X3050200Y606300D01*
X3051500Y610000D01*
X3052600Y613600D01*
X3053500Y617400D01*
X3054100Y621200D01*
X3054600Y626300D01*
X3055000Y631100D01*
Y635900D01*
X3054800Y639400D01*
X3054400Y643000D01*
X3054000Y647000D01*
X3052100Y655000D01*
X3050700Y659200D01*
X3049000Y663100D01*
X3046900Y667300D01*
X3045000Y670300D01*
X3042700Y673200D01*
X3040400Y675900D01*
X3037600Y678200D01*
X3034600Y680300D01*
X3032000Y681800D01*
X3029200Y683300D01*
X3026000Y684300D01*
X3022700Y685100D01*
X3019100Y685600D01*
X3015300Y685800D01*
X2992000D01*
Y586200D01*
X3017100D01*
G37*
G36*
G01X2916600Y482100D02*
X2914800Y482300D01*
X2910000D01*
X2909200Y482200D01*
X2907800Y482000D01*
X2906200Y481600D01*
X2905000Y481200D01*
X2904700Y481100D01*
X2903400Y480600D01*
X2903300D01*
X2901200Y478800D01*
X2900400Y478000D01*
X2898900Y474400D01*
X2898400Y472200D01*
X2897800Y466300D01*
Y447800D01*
X2898300Y443000D01*
X2898700Y440200D01*
X2899300Y438200D01*
X2900000Y436900D01*
X2900200Y436400D01*
X2900400Y436000D01*
X2901600Y434900D01*
X2903700Y433400D01*
X2905000Y432800D01*
X2906700Y432300D01*
X2908700Y432000D01*
X2910500Y431800D01*
X2915300D01*
X2917600Y432100D01*
X2920500Y432800D01*
X2923400Y434300D01*
X2924200Y435100D01*
X2924800Y436100D01*
X2925600Y437100D01*
X2926000Y438200D01*
X2926200Y438600D01*
X2926500Y439500D01*
X2926800Y440700D01*
X2927100Y442700D01*
X2927300Y444800D01*
Y446300D01*
X2927400Y448000D01*
X2927500Y448600D01*
Y448800D01*
X2927600Y452400D01*
Y462700D01*
Y463200D01*
X2927500Y464500D01*
Y466300D01*
X2927300Y468100D01*
X2927200Y468800D01*
X2927100Y469900D01*
Y471200D01*
X2926700Y473600D01*
X2925500Y477200D01*
X2924800Y478000D01*
X2923700Y479100D01*
X2921700Y480800D01*
X2921400Y480900D01*
X2916600Y482100D01*
G37*
G36*
G01X2832700Y432300D02*
X2834200Y432400D01*
X2836000Y433100D01*
X2836700Y433400D01*
X2838000Y434200D01*
X2838700Y434900D01*
X2839200Y435700D01*
X2840000Y436900D01*
X2840500Y437900D01*
X2840800Y439200D01*
X2841300Y442800D01*
X2841500Y444700D01*
Y446000D01*
X2841600Y447500D01*
Y466400D01*
X2841300Y470600D01*
Y471400D01*
X2840700Y476000D01*
X2839300Y478200D01*
X2838800Y478700D01*
X2838000Y479700D01*
X2837400Y480200D01*
X2836500Y480700D01*
X2835500Y481200D01*
X2835000Y481300D01*
X2833500Y481500D01*
X2831100Y481800D01*
X2814500D01*
Y432300D01*
X2832700D01*
G37*
G36*
G01X2778700Y448300D02*
X2770300Y476900D01*
X2761100Y448300D01*
X2778700D01*
G37*
G36*
G01X2645800Y601700D02*
X2852000Y723100D01*
X2645800Y839100D01*
Y601700D01*
G37*
G36*
G01X2611100Y448300D02*
X2602700Y476900D01*
X2593500Y448300D01*
X2611100D01*
G37*
G36*
G01X3641000Y461300D02*
X3642800Y461700D01*
X3644600Y462300D01*
X3645100Y462600D01*
X3646100Y463100D01*
X3648100Y465100D01*
X3649300Y466600D01*
X3650000Y467900D01*
X3650100Y468100D01*
X3650300Y469300D01*
Y470200D01*
X3650400Y471300D01*
Y473200D01*
X3650100Y475000D01*
X3649600Y476500D01*
X3648600Y478200D01*
X3647500Y479300D01*
X3646100Y480200D01*
X3644800Y480800D01*
X3641000Y481600D01*
X3638500Y481800D01*
X3625000D01*
Y461300D01*
X3641000D01*
G37*
G36*
G01X3642300Y432300D02*
X3644500Y432600D01*
X3646300Y433400D01*
X3647100Y433900D01*
X3648300Y434700D01*
X3649100Y435700D01*
X3650100Y437400D01*
X3650900Y439000D01*
X3651400Y441200D01*
X3651600Y442700D01*
Y443000D01*
X3651400Y444500D01*
X3651100Y445800D01*
X3650800Y446800D01*
X3649900Y448800D01*
X3648900Y449900D01*
X3647500Y451300D01*
X3646000Y451900D01*
X3644000Y452400D01*
X3642300Y452600D01*
X3625000D01*
Y432300D01*
X3642300D01*
G37*
G36*
G01X3548200Y867700D02*
X3541600Y869000D01*
X3538300Y869200D01*
X3534600Y869000D01*
X3531100Y868500D01*
X3527800Y867700D01*
X3524700Y866700D01*
X3521700Y865400D01*
X3518900Y863700D01*
X3515700Y861600D01*
X3513100Y859100D01*
X3510400Y856300D01*
X3508000Y853300D01*
X3505700Y849500D01*
X3503500Y845600D01*
X3501700Y841400D01*
X3500200Y836800D01*
X3499200Y832400D01*
X3498200Y827700D01*
X3497700Y823300D01*
X3497500Y818200D01*
Y813200D01*
X3497900Y808400D01*
X3498700Y803800D01*
X3499900Y799200D01*
X3501000Y794900D01*
X3502700Y790400D01*
X3504800Y786500D01*
X3507100Y782600D01*
X3509400Y779500D01*
X3512100Y776700D01*
X3514900Y774200D01*
X3518000Y771700D01*
X3521300Y769900D01*
X3524100Y768800D01*
X3527300Y767800D01*
X3530400Y767000D01*
X3533700Y766500D01*
X3541000D01*
X3544500Y767000D01*
X3547900Y767800D01*
X3551100Y769000D01*
X3554200Y770300D01*
X3557000Y771700D01*
X3560000Y774100D01*
X3563000Y776600D01*
X3565600Y779300D01*
X3567900Y782200D01*
X3570400Y785900D01*
X3572500Y789900D01*
X3574300Y794200D01*
X3575700Y798500D01*
X3576800Y803100D01*
X3577600Y807700D01*
X3578100Y812700D01*
X3578300Y817500D01*
X3578100Y822100D01*
X3578000Y823300D01*
X3577600Y826900D01*
X3577000Y831500D01*
X3575800Y836300D01*
X3574500Y840800D01*
X3572700Y844900D01*
X3570700Y849000D01*
X3568400Y852700D01*
X3565900Y855800D01*
X3563500Y858800D01*
X3560500Y861300D01*
X3557300Y863600D01*
X3554000Y865400D01*
X3551200Y866700D01*
X3548200Y867700D01*
G37*
G36*
G01X3437300Y432000D02*
X3439100Y431800D01*
X3443900D01*
X3446200Y432100D01*
X3449200Y432800D01*
X3452000Y434300D01*
X3452800Y435100D01*
X3453500Y436100D01*
X3454300Y437100D01*
X3454600Y438200D01*
X3454800Y438600D01*
X3455100Y439500D01*
X3455500Y440700D01*
X3455700Y442700D01*
X3456000Y444800D01*
Y446300D01*
X3456100Y448000D01*
Y448600D01*
Y448800D01*
X3456300Y452400D01*
Y462700D01*
X3456200Y463200D01*
X3456100Y464500D01*
Y466300D01*
X3456000Y468100D01*
X3455900Y468800D01*
X3455800Y469900D01*
Y471200D01*
X3455300Y473600D01*
X3454100Y477200D01*
X3453500Y478000D01*
X3452400Y479100D01*
X3450400Y480800D01*
X3450000Y480900D01*
X3445200Y482100D01*
X3443400Y482300D01*
X3438700D01*
X3437900Y482200D01*
X3436500Y482000D01*
X3434800Y481600D01*
X3433700Y481200D01*
X3433400Y481100D01*
X3432000Y480600D01*
X3431900D01*
X3429900Y478800D01*
X3429000Y478000D01*
X3427600Y474400D01*
X3427100Y472200D01*
X3426400Y466300D01*
Y447800D01*
X3426900Y443000D01*
X3427400Y440200D01*
X3427900Y438200D01*
X3428700Y436900D01*
X3428900Y436400D01*
X3429100Y436000D01*
X3430200Y434900D01*
X3432300Y433400D01*
X3433700Y432800D01*
X3435300Y432300D01*
X3437300Y432000D01*
G37*
G36*
G01X3317100Y797900D02*
Y804300D01*
Y804600D01*
Y804700D01*
Y804900D01*
X3317000Y805300D01*
Y805600D01*
X3316900Y805900D01*
Y806100D01*
X3316800Y806300D01*
X3316700Y806600D01*
Y806800D01*
X3316600Y807000D01*
X3316500Y807400D01*
Y807500D01*
X3298100Y860900D01*
X3281400Y807100D01*
X3280300Y797900D01*
X3317100D01*
G37*
G36*
G01X3396500Y471700D02*
X3395500Y475000D01*
X3394900Y476400D01*
X3394200Y477500D01*
X3394000Y477800D01*
X3392400Y479300D01*
X3390700Y480600D01*
X3390600Y480800D01*
X3390400Y480900D01*
X3388600Y481500D01*
X3387800Y481600D01*
X3386400Y481800D01*
X3372100D01*
Y456100D01*
X3384000D01*
X3386300Y456400D01*
X3388300Y456800D01*
X3388400Y456900D01*
X3390900Y457700D01*
X3392200Y458700D01*
X3393700Y460200D01*
X3394200Y460800D01*
X3395000Y462200D01*
X3395300Y462700D01*
X3396000Y464300D01*
X3396700Y467400D01*
Y468900D01*
X3396500Y471700D01*
G37*
%LPD*%
G75*
G36*
G01X3347700Y563700D02*
Y710400D01*
X3379200D01*
Y563700D01*
X3347700D01*
G37*
G36*
G01X3591100Y423700D02*
Y490500D01*
X3601400D01*
Y423700D01*
X3591100D01*
G37*
G54D10*
G01X47970Y-168300D02*
X72300Y-247000D01*
X96630Y-168300D01*
G01X129590Y-247000D02*
Y-168300D01*
X149050D01*
X156840Y-172240D01*
X162680Y-177480D01*
X167550Y-185350D01*
X171440Y-194530D01*
X172410Y-207650D01*
X171440Y-220770D01*
X167550Y-229950D01*
X162680Y-237820D01*
X156840Y-243070D01*
X149050Y-247000D01*
X129590D01*
G01X208290D02*
Y-168300D01*
X227750D01*
X235540Y-172240D01*
X241380Y-177480D01*
X246250Y-185350D01*
X250140Y-194530D01*
X251110Y-207650D01*
X250140Y-220770D01*
X246250Y-229950D01*
X241380Y-237820D01*
X235540Y-243070D01*
X227750Y-247000D01*
X208290D01*
G01X15000Y-157800D02*
X-63700D01*
X-47960Y-169480D01*
G01X15000D02*
Y-146120D01*
G01X92210Y1433710D02*
X83030Y1440520D01*
X77780Y1446360D01*
X75160Y1454150D01*
X77780Y1460960D01*
X83030Y1465830D01*
X90900Y1469720D01*
X100080Y1470690D01*
X107950Y1469720D01*
X115820Y1465830D01*
X122380Y1459990D01*
X125000Y1453170D01*
X122380Y1445390D01*
X114510Y1438570D01*
X102700Y1434680D01*
X89590Y1433710D01*
X72530Y1435650D01*
X63350Y1438570D01*
X54170Y1443440D01*
X47610Y1450250D01*
X46300Y1457070D01*
X48920Y1463880D01*
X55480Y1468750D01*
G01X-5000Y1434180D02*
X-83700D01*
Y1457540D01*
X-79760Y1465330D01*
X-70580Y1471170D01*
X-60090Y1473120D01*
X-49600Y1471170D01*
X-41730Y1466300D01*
X-37790Y1457540D01*
Y1434180D01*
G01X-70580Y1513860D02*
X-78450Y1519700D01*
X-82390Y1526510D01*
X-83700Y1534300D01*
X-81080Y1544030D01*
X-74520Y1550840D01*
X-66650Y1552790D01*
X-58780Y1551820D01*
X-52220Y1547920D01*
X-39100Y1528460D01*
X-29920Y1519700D01*
X-16800Y1513860D01*
X-5000Y1511910D01*
Y1552790D01*
G01X290670Y183000D02*
X315000Y261700D01*
X339330Y183000D01*
G01X330570Y210540D02*
X299430D01*
G01X206410Y-54860D02*
X200570Y-50920D01*
X193760Y-48300D01*
X185970D01*
X177210Y-52240D01*
X170400Y-58790D01*
X165530Y-66660D01*
X161640Y-79780D01*
X160670Y-91590D01*
X162610Y-103390D01*
X165530Y-111260D01*
X171370Y-119130D01*
X178190Y-124380D01*
X185000Y-127000D01*
X191810D01*
X198630Y-124380D01*
X204470Y-120440D01*
X209330Y-115200D01*
G01X294240Y50000D02*
Y128700D01*
X313700D01*
X321490Y124760D01*
X327330Y119520D01*
X332200Y111650D01*
X336090Y102470D01*
X337060Y89350D01*
X336090Y76230D01*
X332200Y67050D01*
X327330Y59180D01*
X321490Y53930D01*
X313700Y50000D01*
X294240D01*
G01X394350D02*
Y128700D01*
X382670Y112960D01*
G01Y50000D02*
X406030D01*
G01X515000Y233000D02*
Y311700D01*
X503320Y295960D01*
G01Y233000D02*
X526680D01*
G01X640180Y-340000D02*
Y-261300D01*
X664520D01*
X672300Y-265240D01*
X677170Y-270480D01*
X679120Y-280980D01*
X677170Y-291470D01*
X671330Y-298030D01*
X664520Y-301960D01*
X640180D01*
G01X664520D02*
X679120Y-340000D01*
G01X716940Y-324260D02*
X722780Y-333440D01*
X730560Y-338690D01*
X739320Y-340000D01*
X747110Y-338690D01*
X754900Y-332130D01*
X759760Y-324260D01*
X760740Y-316390D01*
X758790Y-307210D01*
X751980Y-300650D01*
X745160Y-298030D01*
X736400D01*
G01X745160D02*
X751000Y-294090D01*
X755870Y-287530D01*
X757820Y-279660D01*
X755870Y-271790D01*
X751000Y-265240D01*
X742240Y-261300D01*
X733480Y-262610D01*
X724720Y-267860D01*
G01X224510Y283860D02*
X231070Y291650D01*
X235000Y300410D01*
Y308190D01*
X231070Y315980D01*
X224510Y321820D01*
X215320Y324740D01*
X206140Y322790D01*
X198270Y317930D01*
X193030Y309170D01*
X190400Y297490D01*
X185160Y290670D01*
X175980Y287750D01*
X166790Y289700D01*
X160240Y294570D01*
X156300Y301380D01*
Y308190D01*
X158920Y315010D01*
X165480Y320850D01*
G01X235000Y361590D02*
X156300D01*
Y381050D01*
X160240Y388840D01*
X165480Y394680D01*
X173350Y399550D01*
X182530Y403440D01*
X195650Y404410D01*
X208770Y403440D01*
X217950Y399550D01*
X225820Y394680D01*
X231070Y388840D01*
X235000Y381050D01*
Y361590D01*
G01Y437370D02*
X156300Y461700D01*
X235000Y486030D01*
G01X207460Y477270D02*
Y446130D01*
G01X224510Y543860D02*
X231070Y551650D01*
X235000Y560410D01*
Y568190D01*
X231070Y575980D01*
X224510Y581820D01*
X215320Y584740D01*
X206140Y582790D01*
X198270Y577930D01*
X193030Y569170D01*
X190400Y557490D01*
X185160Y550670D01*
X175980Y547750D01*
X166790Y549700D01*
X160240Y554570D01*
X156300Y561380D01*
Y568190D01*
X158920Y575010D01*
X165480Y580850D01*
G01X162860Y664410D02*
X158920Y658570D01*
X156300Y651760D01*
Y643970D01*
X160240Y635210D01*
X166790Y628400D01*
X174660Y623530D01*
X187780Y619640D01*
X199590Y618670D01*
X211390Y620610D01*
X219260Y623530D01*
X227130Y629370D01*
X232380Y636190D01*
X235000Y643000D01*
Y649810D01*
X232380Y656630D01*
X228440Y662470D01*
X223200Y667330D01*
G01X156300Y702230D02*
X235000D01*
Y741170D01*
G01X231000Y830830D02*
X152300D01*
Y855170D01*
X156240Y862950D01*
X161480Y867820D01*
X171980Y869770D01*
X182470Y867820D01*
X189030Y861980D01*
X192960Y855170D01*
Y830830D01*
G01Y855170D02*
X231000Y869770D01*
G01X220510Y908560D02*
X227070Y916350D01*
X231000Y925110D01*
Y932890D01*
X227070Y940680D01*
X220510Y946520D01*
X211320Y949440D01*
X202140Y947490D01*
X194270Y942630D01*
X189030Y933870D01*
X186400Y922190D01*
X181160Y915370D01*
X171980Y912450D01*
X162790Y914400D01*
X156240Y919270D01*
X152300Y926080D01*
Y932890D01*
X154920Y939710D01*
X161480Y945550D01*
G01X152300Y1007700D02*
X231000D01*
G01X152300Y985310D02*
Y1030090D01*
G01X725000Y1134830D02*
X646300D01*
Y1159170D01*
X650240Y1166950D01*
X655480Y1171820D01*
X665980Y1173770D01*
X676470Y1171820D01*
X683030Y1165980D01*
X686960Y1159170D01*
Y1134830D01*
G01Y1159170D02*
X725000Y1173770D01*
G01Y1233000D02*
X646300D01*
X662040Y1221320D01*
G01X725000D02*
Y1244680D01*
G01Y1323380D02*
X646300D01*
X702700Y1287370D01*
Y1336030D01*
G01X146300Y1112620D02*
Y1135980D01*
G01Y1124300D02*
X225000D01*
G01Y1112620D02*
Y1135980D01*
G01Y1180610D02*
X146300D01*
X225000Y1225390D01*
X146300D01*
G01Y1281700D02*
X225000D01*
G01X146300Y1259310D02*
Y1304090D01*
G01X538220Y1520000D02*
X499280D01*
Y1598700D01*
X538220D01*
G01X522640Y1560660D02*
X499280D01*
G01X573120Y1598700D02*
X597450Y1520000D01*
X621780Y1598700D01*
G01X651820Y1520000D02*
X676150Y1598700D01*
X700480Y1520000D01*
G01X691720Y1547540D02*
X660580D01*
G01X735380Y1598700D02*
Y1520000D01*
X774320D01*
G01X820900Y1546230D02*
X846200D01*
G01X933660Y1592140D02*
X927820Y1596080D01*
X921010Y1598700D01*
X913220D01*
X904460Y1594760D01*
X897650Y1588210D01*
X892780Y1580340D01*
X888890Y1567220D01*
X887920Y1555410D01*
X889860Y1543610D01*
X892780Y1535740D01*
X898620Y1527870D01*
X905440Y1522620D01*
X912250Y1520000D01*
X919060D01*
X925880Y1522620D01*
X931720Y1526560D01*
X936580Y1531800D01*
G01X968560Y1520000D02*
Y1598700D01*
X1013340Y1520000D01*
Y1598700D01*
G01X1069650D02*
X1061860Y1596080D01*
X1056020Y1589520D01*
X1052130Y1581650D01*
X1049210Y1571150D01*
X1048240Y1559350D01*
X1049210Y1547540D01*
X1052130Y1537050D01*
X1056020Y1529180D01*
X1061860Y1522620D01*
X1069650Y1520000D01*
X1077440Y1522620D01*
X1083280Y1529180D01*
X1087170Y1537050D01*
X1090090Y1547540D01*
X1091060Y1559350D01*
X1090090Y1571150D01*
X1087170Y1581650D01*
X1083280Y1589520D01*
X1077440Y1596080D01*
X1069650Y1598700D01*
G01X1126940Y1531800D02*
X1132780Y1525250D01*
X1139590Y1521310D01*
X1148350Y1520000D01*
X1157110Y1522620D01*
X1163920Y1527870D01*
X1168790Y1537050D01*
X1169760Y1547540D01*
X1167820Y1558040D01*
X1162950Y1564600D01*
X1156140Y1569840D01*
X1149320Y1571150D01*
X1142510Y1569840D01*
X1133750Y1564600D01*
X1136670Y1598700D01*
X1162950D01*
G01X1205640Y1531800D02*
X1211480Y1525250D01*
X1218290Y1521310D01*
X1227050Y1520000D01*
X1235810Y1522620D01*
X1242620Y1527870D01*
X1247490Y1537050D01*
X1248460Y1547540D01*
X1246520Y1558040D01*
X1241650Y1564600D01*
X1234840Y1569840D01*
X1228020Y1571150D01*
X1221210Y1569840D01*
X1212450Y1564600D01*
X1215370Y1598700D01*
X1241650D01*
G01X1287260Y1585580D02*
X1293100Y1593450D01*
X1299910Y1597390D01*
X1307700Y1598700D01*
X1317430Y1596080D01*
X1324240Y1589520D01*
X1326190Y1581650D01*
X1325220Y1573780D01*
X1321320Y1567220D01*
X1301860Y1554100D01*
X1293100Y1544920D01*
X1287260Y1531800D01*
X1285310Y1520000D01*
X1326190D01*
G01X1371800Y1546230D02*
X1397100D01*
G01X1443680Y1520000D02*
Y1598700D01*
X1467040D01*
X1474830Y1594760D01*
X1480670Y1585580D01*
X1482620Y1575090D01*
X1480670Y1564600D01*
X1475800Y1556730D01*
X1467040Y1552790D01*
X1443680D01*
G01X1516540Y1520000D02*
Y1598700D01*
X1541850Y1533120D01*
X1567160Y1598700D01*
Y1520000D01*
G01X1599140D02*
Y1598700D01*
X1618600D01*
X1626390Y1594760D01*
X1632230Y1589520D01*
X1637100Y1581650D01*
X1640990Y1572470D01*
X1641960Y1559350D01*
X1640990Y1546230D01*
X1637100Y1537050D01*
X1632230Y1529180D01*
X1626390Y1523930D01*
X1618600Y1520000D01*
X1599140D01*
G01X1680760Y1598700D02*
X1717740D01*
X1680760Y1520000D01*
X1717740D01*
G01X994670Y-60000D02*
X1019000Y18700D01*
X1043330Y-60000D01*
G01X1034570Y-32460D02*
X1003430D01*
G01X1340410Y-7860D02*
X1334570Y-3920D01*
X1327760Y-1300D01*
X1319970D01*
X1311210Y-5240D01*
X1304400Y-11790D01*
X1299530Y-19660D01*
X1295640Y-32780D01*
X1294670Y-44590D01*
X1296610Y-56390D01*
X1299530Y-64260D01*
X1305370Y-72130D01*
X1312190Y-77380D01*
X1319000Y-80000D01*
X1325810D01*
X1332630Y-77380D01*
X1338470Y-73440D01*
X1343330Y-68200D01*
G01X1088240Y258700D02*
Y202300D01*
X1092130Y190490D01*
X1099920Y182620D01*
X1109650Y180000D01*
X1119380Y182620D01*
X1127170Y190490D01*
X1131060Y202300D01*
Y258700D01*
G01X1188350Y180000D02*
Y258700D01*
X1176670Y242960D01*
G01Y180000D02*
X1200030D01*
G01X1038890Y-350000D02*
Y-271300D01*
X1058350D01*
X1066140Y-275240D01*
X1071980Y-280480D01*
X1076850Y-288350D01*
X1080740Y-297530D01*
X1081710Y-310650D01*
X1080740Y-323770D01*
X1076850Y-332950D01*
X1071980Y-340820D01*
X1066140Y-346070D01*
X1058350Y-350000D01*
X1038890D01*
G01X1118560Y-339510D02*
X1126350Y-346070D01*
X1135110Y-350000D01*
X1142890D01*
X1150680Y-346070D01*
X1156520Y-339510D01*
X1159440Y-330320D01*
X1157490Y-321140D01*
X1152630Y-313270D01*
X1143870Y-308030D01*
X1132190Y-305400D01*
X1125370Y-300160D01*
X1122450Y-290980D01*
X1124400Y-281790D01*
X1129270Y-275240D01*
X1136080Y-271300D01*
X1142890D01*
X1149710Y-273920D01*
X1155550Y-280480D01*
G01X1217700Y-350000D02*
Y-271300D01*
X1206020Y-287040D01*
G01Y-350000D02*
X1229380D01*
G01X849000Y-48170D02*
X770300D01*
Y-23830D01*
X774240Y-16050D01*
X779480Y-11180D01*
X789980Y-9230D01*
X800470Y-11180D01*
X807030Y-17020D01*
X810960Y-23830D01*
Y-48170D01*
G01Y-23830D02*
X849000Y-9230D01*
G01Y50000D02*
X770300D01*
X786040Y38320D01*
G01X849000D02*
Y61680D01*
G01X837200Y107290D02*
X843750Y113130D01*
X847690Y119940D01*
X849000Y128700D01*
X846380Y137460D01*
X841130Y144270D01*
X831950Y149140D01*
X821460Y150110D01*
X810960Y148170D01*
X804400Y143300D01*
X799160Y136490D01*
X797850Y129670D01*
X799160Y122860D01*
X804400Y114100D01*
X770300Y117020D01*
Y143300D01*
G01X795000Y763000D02*
Y841700D01*
X783320Y825960D01*
G01Y763000D02*
X806680D01*
G01X865000Y584180D02*
X786300D01*
Y607540D01*
X790240Y615330D01*
X799420Y621170D01*
X809910Y623120D01*
X820400Y621170D01*
X828270Y616300D01*
X832210Y607540D01*
Y584180D01*
G01X865000Y680400D02*
X847950Y682350D01*
X833520Y685270D01*
X820400Y689160D01*
X805980Y694030D01*
X786300Y701820D01*
Y662880D01*
G01X865000Y294180D02*
X786300D01*
Y317540D01*
X790240Y325330D01*
X799420Y331170D01*
X809910Y333120D01*
X820400Y331170D01*
X828270Y326300D01*
X832210Y317540D01*
Y294180D01*
G01X865000Y392350D02*
X786300D01*
X802040Y380670D01*
G01X865000D02*
Y404030D01*
G01X861060Y1262140D02*
X855220Y1266080D01*
X848410Y1268700D01*
X840620D01*
X831860Y1264760D01*
X825050Y1258210D01*
X820180Y1250340D01*
X816290Y1237220D01*
X815320Y1225410D01*
X817260Y1213610D01*
X820180Y1205740D01*
X826020Y1197870D01*
X832840Y1192620D01*
X839650Y1190000D01*
X846460D01*
X853280Y1192620D01*
X859120Y1196560D01*
X863980Y1201800D01*
G01X918350Y1190000D02*
Y1268700D01*
X906670Y1252960D01*
G01Y1190000D02*
X930030D01*
G01X847060Y1435140D02*
X841220Y1439080D01*
X834410Y1441700D01*
X826620D01*
X817860Y1437760D01*
X811050Y1431210D01*
X806180Y1423340D01*
X802290Y1410220D01*
X801320Y1398410D01*
X803260Y1386610D01*
X806180Y1378740D01*
X812020Y1370870D01*
X818840Y1365620D01*
X825650Y1363000D01*
X832460D01*
X839280Y1365620D01*
X845120Y1369560D01*
X849980Y1374800D01*
G01X885860Y1428580D02*
X891700Y1436450D01*
X898510Y1440390D01*
X906300Y1441700D01*
X916030Y1439080D01*
X922840Y1432520D01*
X924790Y1424650D01*
X923820Y1416780D01*
X919920Y1410220D01*
X900460Y1397100D01*
X891700Y1387920D01*
X885860Y1374800D01*
X883910Y1363000D01*
X924790D01*
G01X1775320Y240000D02*
X1799650Y318700D01*
X1823980Y240000D01*
G01X1815220Y267540D02*
X1784080D01*
G01X1878350Y240000D02*
Y318700D01*
X1866670Y302960D01*
G01Y240000D02*
X1890030D01*
G01X1466180Y-277000D02*
Y-198300D01*
X1490520D01*
X1498300Y-202240D01*
X1503170Y-207480D01*
X1505120Y-217980D01*
X1503170Y-228470D01*
X1497330Y-235030D01*
X1490520Y-238960D01*
X1466180D01*
G01X1490520D02*
X1505120Y-277000D01*
G01X1564350D02*
Y-198300D01*
X1552670Y-214040D01*
G01Y-277000D02*
X1576030D01*
G01X1486180Y133000D02*
Y211700D01*
X1510520D01*
X1518300Y207760D01*
X1523170Y202520D01*
X1525120Y192020D01*
X1523170Y181530D01*
X1517330Y174970D01*
X1510520Y171040D01*
X1486180D01*
G01X1510520D02*
X1525120Y133000D01*
G01X1565860Y198580D02*
X1571700Y206450D01*
X1578510Y210390D01*
X1586300Y211700D01*
X1596030Y209080D01*
X1602840Y202520D01*
X1604790Y194650D01*
X1603820Y186780D01*
X1599920Y180220D01*
X1580460Y167100D01*
X1571700Y157920D01*
X1565860Y144800D01*
X1563910Y133000D01*
X1604790D01*
G01X1905000Y76200D02*
Y154900D01*
X1893320Y139160D01*
G01Y76200D02*
X1916680D01*
G01X1817060Y1035140D02*
X1811220Y1039080D01*
X1804410Y1041700D01*
X1796620D01*
X1787860Y1037760D01*
X1781050Y1031210D01*
X1776180Y1023340D01*
X1772290Y1010220D01*
X1771320Y998410D01*
X1773260Y986610D01*
X1776180Y978740D01*
X1782020Y970870D01*
X1788840Y965620D01*
X1795650Y963000D01*
X1802460D01*
X1809280Y965620D01*
X1815120Y969560D01*
X1819980Y974800D01*
G01X1852940Y978740D02*
X1858780Y969560D01*
X1866560Y964310D01*
X1875320Y963000D01*
X1883110Y964310D01*
X1890900Y970870D01*
X1895760Y978740D01*
X1896740Y986610D01*
X1894790Y995790D01*
X1887980Y1002350D01*
X1881160Y1004970D01*
X1872400D01*
G01X1881160D02*
X1887000Y1008910D01*
X1891870Y1015470D01*
X1893820Y1023340D01*
X1891870Y1031210D01*
X1887000Y1037760D01*
X1878240Y1041700D01*
X1869480Y1040390D01*
X1860720Y1035140D01*
G01X1705000Y1373000D02*
Y1451700D01*
X1693320Y1435960D01*
G01Y1373000D02*
X1716680D01*
G01X2359000Y80000D02*
X2280300D01*
X2296040Y68320D01*
G01X2359000D02*
Y91680D01*
G01X2279000Y161180D02*
X2200300D01*
Y184540D01*
X2204240Y192330D01*
X2213420Y198170D01*
X2223910Y200120D01*
X2234400Y198170D01*
X2242270Y193300D01*
X2246210Y184540D01*
Y161180D01*
G01X2269820Y242800D02*
X2276380Y249620D01*
X2279000Y257400D01*
X2276380Y265190D01*
X2268510Y272000D01*
X2256700Y276870D01*
X2244900Y278820D01*
X2230470D01*
X2218660Y276870D01*
X2208170Y272000D01*
X2202920Y266160D01*
X2200300Y259350D01*
X2202920Y251560D01*
X2208170Y245720D01*
X2216040Y241830D01*
X2226530Y239880D01*
X2235710Y241830D01*
X2244900Y246700D01*
X2250140Y252540D01*
X2251460Y259350D01*
X2248830Y267140D01*
X2242270Y272980D01*
X2230470Y278820D01*
G01X2046600Y624600D02*
Y703300D01*
X2034920Y687560D01*
G01Y624600D02*
X2058280D01*
G01X2110830Y460000D02*
Y538700D01*
X2134190D01*
X2141980Y534760D01*
X2147820Y525580D01*
X2149770Y515090D01*
X2147820Y504600D01*
X2142950Y496730D01*
X2134190Y492790D01*
X2110830D01*
G01X2209000Y460000D02*
Y538700D01*
X2197320Y522960D01*
G01Y460000D02*
X2220680D01*
G01X2299380D02*
Y538700D01*
X2263370Y482300D01*
X2312030D01*
G01X2349000Y1210000D02*
X2270300D01*
X2286040Y1198320D01*
G01X2349000D02*
Y1221680D01*
G01X2289000Y1021180D02*
X2210300D01*
Y1044540D01*
X2214240Y1052330D01*
X2223420Y1058170D01*
X2233910Y1060120D01*
X2244400Y1058170D01*
X2252270Y1053300D01*
X2256210Y1044540D01*
Y1021180D01*
G01Y1100860D02*
X2247030Y1107670D01*
X2241780Y1113510D01*
X2239160Y1121300D01*
X2241780Y1128110D01*
X2247030Y1132980D01*
X2254900Y1136870D01*
X2264080Y1137840D01*
X2271950Y1136870D01*
X2279820Y1132980D01*
X2286380Y1127140D01*
X2289000Y1120320D01*
X2286380Y1112540D01*
X2278510Y1105720D01*
X2266700Y1101830D01*
X2253590Y1100860D01*
X2236530Y1102800D01*
X2227350Y1105720D01*
X2218170Y1110590D01*
X2211610Y1117400D01*
X2210300Y1124220D01*
X2212920Y1131030D01*
X2219480Y1135900D01*
G01X2809000Y80000D02*
X2730300D01*
X2746040Y68320D01*
G01X2809000D02*
Y91680D01*
G01X2739000Y171180D02*
X2660300D01*
Y194540D01*
X2664240Y202330D01*
X2673420Y208170D01*
X2683910Y210120D01*
X2694400Y208170D01*
X2702270Y203300D01*
X2706210Y194540D01*
Y171180D01*
G01X2723260Y247940D02*
X2732440Y253780D01*
X2737690Y261560D01*
X2739000Y270320D01*
X2737690Y278110D01*
X2731130Y285900D01*
X2723260Y290760D01*
X2715390Y291740D01*
X2706210Y289790D01*
X2699650Y282980D01*
X2697030Y276160D01*
Y267400D01*
G01Y276160D02*
X2693090Y282000D01*
X2686530Y286870D01*
X2678660Y288820D01*
X2670790Y286870D01*
X2664240Y282000D01*
X2660300Y273240D01*
X2661610Y264480D01*
X2666860Y255720D01*
G01X3199000Y80000D02*
X3120300D01*
X3136040Y68320D01*
G01X3199000D02*
Y91680D01*
G01X3139000Y161180D02*
X3060300D01*
Y184540D01*
X3064240Y192330D01*
X3073420Y198170D01*
X3083910Y200120D01*
X3094400Y198170D01*
X3102270Y193300D01*
X3106210Y184540D01*
Y161180D01*
G01X3139000Y271030D02*
X3060300D01*
X3116700Y235020D01*
Y283680D01*
G01X2576180Y43000D02*
Y121700D01*
X2599540D01*
X2607330Y117760D01*
X2613170Y108580D01*
X2615120Y98090D01*
X2613170Y87600D01*
X2608300Y79730D01*
X2599540Y75790D01*
X2576180D01*
G01X2674350Y43000D02*
X2681160Y44310D01*
X2688950Y48250D01*
X2693820Y54800D01*
X2695760Y63990D01*
X2693820Y73170D01*
X2687980Y81040D01*
X2679220Y84970D01*
X2669480D01*
X2663640Y87600D01*
X2658780Y94150D01*
X2656830Y103340D01*
X2659750Y112520D01*
X2666560Y119080D01*
X2674350Y121700D01*
X2682140Y119080D01*
X2688950Y112520D01*
X2691870Y103340D01*
X2689920Y94150D01*
X2685060Y87600D01*
X2679220Y84970D01*
X2669480D01*
X2660720Y81040D01*
X2654880Y73170D01*
X2652940Y63990D01*
X2654880Y54800D01*
X2659750Y48250D01*
X2667540Y44310D01*
X2674350Y43000D01*
G01X3159000Y1210000D02*
X3080300D01*
X3096040Y1198320D01*
G01X3159000D02*
Y1221680D01*
G01X3139000Y1011180D02*
X3060300D01*
Y1034540D01*
X3064240Y1042330D01*
X3073420Y1048170D01*
X3083910Y1050120D01*
X3094400Y1048170D01*
X3102270Y1043300D01*
X3106210Y1034540D01*
Y1011180D01*
G01X3127200Y1087940D02*
X3133750Y1093780D01*
X3137690Y1100590D01*
X3139000Y1109350D01*
X3136380Y1118110D01*
X3131130Y1124920D01*
X3121950Y1129790D01*
X3111460Y1130760D01*
X3100960Y1128820D01*
X3094400Y1123950D01*
X3089160Y1117140D01*
X3087850Y1110320D01*
X3089160Y1103510D01*
X3094400Y1094750D01*
X3060300Y1097670D01*
Y1123950D01*
G01X2779000Y1210000D02*
X2700300D01*
X2716040Y1198320D01*
G01X2779000D02*
Y1221680D01*
G01X2739000Y961830D02*
X2660300D01*
Y985190D01*
X2664240Y992980D01*
X2673420Y998820D01*
X2683910Y1000770D01*
X2694400Y998820D01*
X2702270Y993950D01*
X2706210Y985190D01*
Y961830D01*
G01X2739000Y1060000D02*
X2660300D01*
X2676040Y1048320D01*
G01X2739000D02*
Y1071680D01*
G01X2673420Y1120210D02*
X2665550Y1126050D01*
X2661610Y1132860D01*
X2660300Y1140650D01*
X2662920Y1150380D01*
X2669480Y1157190D01*
X2677350Y1159140D01*
X2685220Y1158170D01*
X2691780Y1154270D01*
X2704900Y1134810D01*
X2714080Y1126050D01*
X2727200Y1120210D01*
X2739000Y1118260D01*
Y1159140D01*
G01X2736830Y1563000D02*
Y1641700D01*
X2760190D01*
X2767980Y1637760D01*
X2773820Y1628580D01*
X2775770Y1618090D01*
X2773820Y1607600D01*
X2768950Y1599730D01*
X2760190Y1595790D01*
X2736830D01*
G01X2835000Y1563000D02*
Y1641700D01*
X2823320Y1625960D01*
G01Y1563000D02*
X2846680D01*
G01X2892290Y1578740D02*
X2898130Y1569560D01*
X2905910Y1564310D01*
X2914670Y1563000D01*
X2922460Y1564310D01*
X2930250Y1570870D01*
X2935110Y1578740D01*
X2936090Y1586610D01*
X2934140Y1595790D01*
X2927330Y1602350D01*
X2920510Y1604970D01*
X2911750D01*
G01X2920510D02*
X2926350Y1608910D01*
X2931220Y1615470D01*
X2933170Y1623340D01*
X2931220Y1631210D01*
X2926350Y1637760D01*
X2917590Y1641700D01*
X2908830Y1640390D01*
X2900070Y1635140D01*
G01X3639000Y80000D02*
X3560300D01*
X3576040Y68320D01*
G01X3639000D02*
Y91680D01*
G01X3579000Y131830D02*
X3500300D01*
Y155190D01*
X3504240Y162980D01*
X3513420Y168820D01*
X3523910Y170770D01*
X3534400Y168820D01*
X3542270Y163950D01*
X3546210Y155190D01*
Y131830D01*
G01X3579000Y230000D02*
X3500300D01*
X3516040Y218320D01*
G01X3579000D02*
Y241680D01*
G01X3500300Y308700D02*
X3502920Y300910D01*
X3509480Y295070D01*
X3517350Y291180D01*
X3527850Y288260D01*
X3539650Y287290D01*
X3551460Y288260D01*
X3561950Y291180D01*
X3569820Y295070D01*
X3576380Y300910D01*
X3579000Y308700D01*
X3576380Y316490D01*
X3569820Y322330D01*
X3561950Y326220D01*
X3551460Y329140D01*
X3539650Y330110D01*
X3527850Y329140D01*
X3517350Y326220D01*
X3509480Y322330D01*
X3502920Y316490D01*
X3500300Y308700D01*
G01X3629000Y1210000D02*
X3550300D01*
X3566040Y1198320D01*
G01X3629000D02*
Y1221680D01*
G01X3589000Y971830D02*
X3510300D01*
Y995190D01*
X3514240Y1002980D01*
X3523420Y1008820D01*
X3533910Y1010770D01*
X3544400Y1008820D01*
X3552270Y1003950D01*
X3556210Y995190D01*
Y971830D01*
G01X3589000Y1070000D02*
X3510300D01*
X3526040Y1058320D01*
G01X3589000D02*
Y1081680D01*
G01Y1148700D02*
X3510300D01*
X3526040Y1137020D01*
G01X3589000D02*
Y1160380D01*
G01X3920300Y60400D02*
X3922920Y52610D01*
X3929480Y46770D01*
X3937350Y42880D01*
X3947850Y39960D01*
X3959650Y38990D01*
X3971460Y39960D01*
X3981950Y42880D01*
X3989820Y46770D01*
X3996380Y52610D01*
X3999000Y60400D01*
X3996380Y68190D01*
X3989820Y74030D01*
X3981950Y77920D01*
X3971460Y80840D01*
X3959650Y81810D01*
X3947850Y80840D01*
X3937350Y77920D01*
X3929480Y74030D01*
X3922920Y68190D01*
X3920300Y60400D01*
G01X3999000Y139100D02*
X3997690Y145910D01*
X3993750Y153700D01*
X3987200Y158570D01*
X3978010Y160510D01*
X3968830Y158570D01*
X3960960Y152730D01*
X3957030Y143970D01*
Y134230D01*
X3954400Y128390D01*
X3947850Y123530D01*
X3938660Y121580D01*
X3929480Y124500D01*
X3922920Y131310D01*
X3920300Y139100D01*
X3922920Y146890D01*
X3929480Y153700D01*
X3938660Y156620D01*
X3947850Y154670D01*
X3954400Y149810D01*
X3957030Y143970D01*
Y134230D01*
X3960960Y125470D01*
X3968830Y119630D01*
X3978010Y117690D01*
X3987200Y119630D01*
X3993750Y124500D01*
X3997690Y132290D01*
X3999000Y139100D01*
G01X3972770Y205150D02*
Y230450D01*
G01X3920300Y296500D02*
X3922920Y288710D01*
X3929480Y282870D01*
X3937350Y278980D01*
X3947850Y276060D01*
X3959650Y275090D01*
X3971460Y276060D01*
X3981950Y278980D01*
X3989820Y282870D01*
X3996380Y288710D01*
X3999000Y296500D01*
X3996380Y304290D01*
X3989820Y310130D01*
X3981950Y314020D01*
X3971460Y316940D01*
X3959650Y317910D01*
X3947850Y316940D01*
X3937350Y314020D01*
X3929480Y310130D01*
X3922920Y304290D01*
X3920300Y296500D01*
G01X3966210Y356710D02*
X3957030Y363520D01*
X3951780Y369360D01*
X3949160Y377150D01*
X3951780Y383960D01*
X3957030Y388830D01*
X3964900Y392720D01*
X3974080Y393690D01*
X3981950Y392720D01*
X3989820Y388830D01*
X3996380Y382990D01*
X3999000Y376170D01*
X3996380Y368390D01*
X3988510Y361570D01*
X3976700Y357680D01*
X3963590Y356710D01*
X3946530Y358650D01*
X3937350Y361570D01*
X3928170Y366440D01*
X3921610Y373250D01*
X3920300Y380070D01*
X3922920Y386880D01*
X3929480Y391750D01*
G01X3987200Y432490D02*
X3993750Y438330D01*
X3997690Y445140D01*
X3999000Y453900D01*
X3996380Y462660D01*
X3991130Y469470D01*
X3981950Y474340D01*
X3971460Y475310D01*
X3960960Y473370D01*
X3954400Y468500D01*
X3949160Y461690D01*
X3947850Y454870D01*
X3949160Y448060D01*
X3954400Y439300D01*
X3920300Y442220D01*
Y468500D01*
G01X3999000Y544280D02*
X3920300D01*
X3976700Y508270D01*
Y556930D01*
G01X3983260Y589890D02*
X3992440Y595730D01*
X3997690Y603510D01*
X3999000Y612270D01*
X3997690Y620060D01*
X3991130Y627850D01*
X3983260Y632710D01*
X3975390Y633690D01*
X3966210Y631740D01*
X3959650Y624930D01*
X3957030Y618110D01*
Y609350D01*
G01Y618110D02*
X3953090Y623950D01*
X3946530Y628820D01*
X3938660Y630770D01*
X3930790Y628820D01*
X3924240Y623950D01*
X3920300Y615190D01*
X3921610Y606430D01*
X3926860Y597670D01*
G01X3999000Y701680D02*
X3920300D01*
X3976700Y665670D01*
Y714330D01*
G01X3999000Y827930D02*
X3920300D01*
Y852270D01*
X3924240Y860050D01*
X3929480Y864920D01*
X3939980Y866870D01*
X3950470Y864920D01*
X3957030Y859080D01*
X3960960Y852270D01*
Y827930D01*
G01Y852270D02*
X3999000Y866870D01*
G01Y945570D02*
Y906630D01*
X3920300D01*
Y945570D01*
G01X3958340Y929990D02*
Y906630D01*
G01X3920300Y980470D02*
X3999000Y1004800D01*
X3920300Y1029130D01*
G01X3957030Y1169990D02*
X3953090Y1173880D01*
X3946530Y1176800D01*
X3937350Y1178750D01*
X3929480Y1176800D01*
X3924240Y1172910D01*
X3920300Y1166090D01*
Y1139810D01*
X3999000D01*
Y1171930D01*
X3993750Y1178750D01*
X3985880Y1182640D01*
X3976700Y1184590D01*
X3967520Y1182640D01*
X3959650Y1176800D01*
X3957030Y1169990D01*
Y1139810D01*
G01X3920300Y1301110D02*
Y1338090D01*
X3999000Y1301110D01*
Y1338090D01*
G01X4109000Y207680D02*
X4030300D01*
Y231040D01*
X4034240Y238830D01*
X4043420Y244670D01*
X4053910Y246620D01*
X4064400Y244670D01*
X4072270Y239800D01*
X4076210Y231040D01*
Y207680D01*
G01X4109000Y286380D02*
X4030300D01*
Y310720D01*
X4034240Y318500D01*
X4039480Y323370D01*
X4049980Y325320D01*
X4060470Y323370D01*
X4067030Y317530D01*
X4070960Y310720D01*
Y286380D01*
G01Y310720D02*
X4109000Y325320D01*
G01X4030300Y372870D02*
Y396230D01*
G01Y384550D02*
X4109000D01*
G01Y372870D02*
Y396230D01*
G01Y437940D02*
X4030300D01*
X4095880Y463250D01*
X4030300Y488560D01*
X4109000D01*
G01Y517620D02*
X4030300Y541950D01*
X4109000Y566280D01*
G01X4081460Y557520D02*
Y526380D01*
G01X4109000Y601180D02*
X4030300D01*
Y625520D01*
X4034240Y633300D01*
X4039480Y638170D01*
X4049980Y640120D01*
X4060470Y638170D01*
X4067030Y632330D01*
X4070960Y625520D01*
Y601180D01*
G01Y625520D02*
X4109000Y640120D01*
G01Y699350D02*
X4073590D01*
X4030300Y679880D01*
G01Y718820D02*
X4073590Y699350D01*
G01X4098510Y836310D02*
X4105070Y844100D01*
X4109000Y852860D01*
Y860640D01*
X4105070Y868430D01*
X4098510Y874270D01*
X4089320Y877190D01*
X4080140Y875240D01*
X4072270Y870380D01*
X4067030Y861620D01*
X4064400Y849940D01*
X4059160Y843120D01*
X4049980Y840200D01*
X4040790Y842150D01*
X4034240Y847020D01*
X4030300Y853830D01*
Y860640D01*
X4032920Y867460D01*
X4039480Y873300D01*
G01X4030300Y923770D02*
Y947130D01*
G01Y935450D02*
X4109000D01*
G01Y923770D02*
Y947130D01*
G01Y992740D02*
X4030300D01*
Y1012200D01*
X4034240Y1019990D01*
X4039480Y1025830D01*
X4047350Y1030700D01*
X4056530Y1034590D01*
X4069650Y1035560D01*
X4082770Y1034590D01*
X4091950Y1030700D01*
X4099820Y1025830D01*
X4105070Y1019990D01*
X4109000Y1012200D01*
Y992740D01*
G01Y1112320D02*
Y1073380D01*
X4030300D01*
Y1112320D01*
G01X4068340Y1096740D02*
Y1073380D01*
G01X3875000Y-127000D02*
X3881810Y-125690D01*
X3889600Y-121750D01*
X3894470Y-115200D01*
X3896410Y-106010D01*
X3894470Y-96830D01*
X3888630Y-88960D01*
X3879870Y-85030D01*
X3870130D01*
X3864290Y-82400D01*
X3859430Y-75850D01*
X3857480Y-66660D01*
X3860400Y-57480D01*
X3867210Y-50920D01*
X3875000Y-48300D01*
X3882790Y-50920D01*
X3889600Y-57480D01*
X3892520Y-66660D01*
X3890570Y-75850D01*
X3885710Y-82400D01*
X3879870Y-85030D01*
X3870130D01*
X3861370Y-88960D01*
X3855530Y-96830D01*
X3853590Y-106010D01*
X3855530Y-115200D01*
X3860400Y-121750D01*
X3868190Y-125690D01*
X3875000Y-127000D01*
G01X3885000Y1383000D02*
X3891810Y1384310D01*
X3899600Y1388250D01*
X3904470Y1394800D01*
X3906410Y1403990D01*
X3904470Y1413170D01*
X3898630Y1421040D01*
X3889870Y1424970D01*
X3880130D01*
X3874290Y1427600D01*
X3869430Y1434150D01*
X3867480Y1443340D01*
X3870400Y1452520D01*
X3877210Y1459080D01*
X3885000Y1461700D01*
X3892790Y1459080D01*
X3899600Y1452520D01*
X3902520Y1443340D01*
X3900570Y1434150D01*
X3895710Y1427600D01*
X3889870Y1424970D01*
X3880130D01*
X3871370Y1421040D01*
X3865530Y1413170D01*
X3863590Y1403990D01*
X3865530Y1394800D01*
X3870400Y1388250D01*
X3878190Y1384310D01*
X3885000Y1383000D01*
G54D11*
G01X-1016000Y-58390D02*
Y1326390D01*
X-431800D01*
Y1422400D01*
X-127000D01*
Y1390650D01*
X120650D01*
Y-120650D01*
X-127000D01*
Y-152400D01*
X-431800D01*
Y-58390D01*
X-1016000D01*
G01X-456680Y5961860D02*
X-431270Y5940700D01*
X-402700Y5928000D01*
X-377300D01*
X-351900Y5940700D01*
X-332850Y5961860D01*
X-323320Y5991500D01*
X-329670Y6021130D01*
X-345550Y6046530D01*
X-374130Y6063470D01*
X-412220Y6071930D01*
X-434450Y6088860D01*
X-443980Y6118500D01*
X-437620Y6148130D01*
X-421750Y6169290D01*
X-399530Y6182000D01*
X-377300D01*
X-355070Y6173540D01*
X-336020Y6152370D01*
G01X-174100Y6182000D02*
X-97910D01*
G01X-136000D02*
Y5928000D01*
G01X-174100D02*
X-97910D01*
G01X54500Y6182000D02*
Y5928000D01*
X181500D01*
G01X302150D02*
Y6182000D01*
G01X422800D02*
X302150Y6025360D01*
G01X441850Y5928000D02*
X356130Y6097330D01*
G01X559320Y5961860D02*
X584730Y5940700D01*
X613300Y5928000D01*
X638700D01*
X664100Y5940700D01*
X683150Y5961860D01*
X692680Y5991500D01*
X686330Y6021130D01*
X670450Y6046530D01*
X641870Y6063470D01*
X603780Y6071930D01*
X581550Y6088860D01*
X572020Y6118500D01*
X578380Y6148130D01*
X594250Y6169290D01*
X616470Y6182000D01*
X638700D01*
X660930Y6173540D01*
X679980Y6152370D01*
G01X949850Y6160830D02*
X930800Y6173540D01*
X908580Y6182000D01*
X883180D01*
X854600Y6169290D01*
X832380Y6148130D01*
X816500Y6122730D01*
X803800Y6080400D01*
X800620Y6042300D01*
X806980Y6004200D01*
X816500Y5978800D01*
X835550Y5953390D01*
X857780Y5936460D01*
X880000Y5928000D01*
X902220D01*
X924450Y5936460D01*
X943500Y5949160D01*
X959380Y5966090D01*
G01X1070500Y5928000D02*
Y6182000D01*
X1149870D01*
X1175270Y6169290D01*
X1191150Y6152370D01*
X1197500Y6118500D01*
X1191150Y6084630D01*
X1172100Y6063470D01*
X1149870Y6050760D01*
X1070500D01*
G01X1149870D02*
X1197500Y5928000D01*
G01X1451500D02*
X1324500D01*
Y6182000D01*
X1451500D01*
G01X1400700Y6059240D02*
X1324500D01*
G01X1705500Y5928000D02*
X1578500D01*
Y6182000D01*
X1705500D01*
G01X1654700Y6059240D02*
X1578500D01*
G01X1822980Y5928000D02*
Y6182000D01*
X1969020Y5928000D01*
Y6182000D01*
G01X2340500Y5928000D02*
Y6182000D01*
X2416700D01*
X2442100Y6169290D01*
X2461150Y6139670D01*
X2467500Y6105800D01*
X2461150Y6071930D01*
X2445270Y6046530D01*
X2416700Y6033830D01*
X2340500D01*
G01X2594500Y5928000D02*
Y6182000D01*
X2673870D01*
X2699270Y6169290D01*
X2715150Y6152370D01*
X2721500Y6118500D01*
X2715150Y6084630D01*
X2696100Y6063470D01*
X2673870Y6050760D01*
X2594500D01*
G01X2673870D02*
X2721500Y5928000D01*
G01X2873900Y6182000D02*
X2950090D01*
G01X2912000D02*
Y5928000D01*
G01X2873900D02*
X2950090D01*
G01X3083450D02*
Y6182000D01*
X3166000Y5970330D01*
X3248550Y6182000D01*
Y5928000D01*
G01X3340620D02*
X3420000Y6182000D01*
X3499380Y5928000D01*
G01X3470800Y6016900D02*
X3369200D01*
G01X3610500Y5928000D02*
Y6182000D01*
X3689870D01*
X3715270Y6169290D01*
X3731150Y6152370D01*
X3737500Y6118500D01*
X3731150Y6084630D01*
X3712100Y6063470D01*
X3689870Y6050760D01*
X3610500D01*
G01X3689870D02*
X3737500Y5928000D01*
G01X3928000D02*
Y6042300D01*
X3864500Y6182000D01*
G01X3991500D02*
X3928000Y6042300D01*
G01X163600Y11200D02*
Y228800D01*
X274400D01*
Y11200D01*
X163600D01*
G01X499100Y-127000D02*
G03I-118100J0D01*
G01X765200Y534400D02*
X546800D01*
Y765600D01*
X765200D01*
Y534400D01*
G01X546800Y465600D02*
X765200D01*
Y234400D01*
X546800D01*
Y465600D01*
G01X499100Y381000D02*
G03I-118100J0D01*
G01Y635000D02*
G03I-118100J0D01*
G01Y889000D02*
G03I-118100J0D01*
G01Y1143000D02*
G03I-118100J0D01*
G01X372000Y5674000D02*
X346600Y5665540D01*
X327550Y5644370D01*
X314850Y5618970D01*
X305320Y5585100D01*
X302150Y5547000D01*
X305320Y5508900D01*
X314850Y5475030D01*
X327550Y5449630D01*
X346600Y5428460D01*
X372000Y5420000D01*
X397400Y5428460D01*
X416450Y5449630D01*
X429150Y5475030D01*
X438680Y5508900D01*
X441850Y5547000D01*
X438680Y5585100D01*
X429150Y5618970D01*
X416450Y5644370D01*
X397400Y5665540D01*
X372000Y5674000D01*
G01X626000Y5420000D02*
X648220Y5424230D01*
X673620Y5436930D01*
X689500Y5458090D01*
X695850Y5487730D01*
X689500Y5517360D01*
X670450Y5542760D01*
X641870Y5555470D01*
X610130D01*
X591070Y5563930D01*
X575200Y5585100D01*
X568850Y5614730D01*
X578380Y5644370D01*
X600600Y5665540D01*
X626000Y5674000D01*
X651400Y5665540D01*
X673620Y5644370D01*
X683150Y5614730D01*
X676800Y5585100D01*
X660930Y5563930D01*
X641870Y5555470D01*
X610130D01*
X581550Y5542760D01*
X562500Y5517360D01*
X556150Y5487730D01*
X562500Y5458090D01*
X578380Y5436930D01*
X603780Y5424230D01*
X626000Y5420000D01*
G01X838730Y5504660D02*
X921270D01*
G01X2616730D02*
X2699270D01*
G01X2912000Y5674000D02*
X2886600Y5665540D01*
X2867550Y5644370D01*
X2854850Y5618970D01*
X2845320Y5585100D01*
X2842150Y5547000D01*
X2845320Y5508900D01*
X2854850Y5475030D01*
X2867550Y5449630D01*
X2886600Y5428460D01*
X2912000Y5420000D01*
X2937400Y5428460D01*
X2956450Y5449630D01*
X2969150Y5475030D01*
X2978680Y5508900D01*
X2981850Y5547000D01*
X2978680Y5585100D01*
X2969150Y5618970D01*
X2956450Y5644370D01*
X2937400Y5665540D01*
X2912000Y5674000D01*
G01X3096150Y5470800D02*
X3115200Y5441160D01*
X3140600Y5424230D01*
X3169180Y5420000D01*
X3194580Y5424230D01*
X3219980Y5445390D01*
X3235850Y5470800D01*
X3239020Y5496200D01*
X3232680Y5525830D01*
X3210450Y5547000D01*
X3188220Y5555470D01*
X3159650D01*
G01X3188220D02*
X3207270Y5568170D01*
X3223150Y5589330D01*
X3229500Y5614730D01*
X3223150Y5640130D01*
X3207270Y5661290D01*
X3178700Y5674000D01*
X3150130Y5669770D01*
X3121550Y5652830D01*
G01X1000900Y-254100D02*
X952000D01*
Y-97900D01*
X1286000D01*
Y-254100D01*
X1000900D01*
G01X888600Y841400D02*
Y614600D01*
Y498600D01*
G01X1197500Y4912000D02*
Y5166000D01*
X1276870D01*
X1302270Y5153290D01*
X1318150Y5136370D01*
X1324500Y5102500D01*
X1318150Y5068630D01*
X1299100Y5047470D01*
X1276870Y5034760D01*
X1197500D01*
G01X1276870D02*
X1324500Y4912000D01*
G01X1578500D02*
X1451500D01*
Y5166000D01*
X1578500D01*
G01X1527700Y5043240D02*
X1451500D01*
G01X1689620Y5166000D02*
X1769000Y4912000D01*
X1848380Y5166000D01*
G01X2302400Y5047470D02*
X2315100Y5060170D01*
X2324620Y5081330D01*
X2330980Y5110970D01*
X2324620Y5136370D01*
X2311930Y5153290D01*
X2289700Y5166000D01*
X2203980D01*
Y4912000D01*
X2308750D01*
X2330980Y4928930D01*
X2343680Y4954330D01*
X2350020Y4983970D01*
X2343680Y5013590D01*
X2324620Y5039000D01*
X2302400Y5047470D01*
X2203980D01*
G01X1134000Y5674000D02*
X1108600Y5665540D01*
X1089550Y5644370D01*
X1076850Y5618970D01*
X1067320Y5585100D01*
X1064150Y5547000D01*
X1067320Y5508900D01*
X1076850Y5475030D01*
X1089550Y5449630D01*
X1108600Y5428460D01*
X1134000Y5420000D01*
X1159400Y5428460D01*
X1178450Y5449630D01*
X1191150Y5475030D01*
X1200680Y5508900D01*
X1203850Y5547000D01*
X1200680Y5585100D01*
X1191150Y5618970D01*
X1178450Y5644370D01*
X1159400Y5665540D01*
X1134000Y5674000D01*
G01X1327670Y5525830D02*
X1349900Y5555470D01*
X1368950Y5572400D01*
X1394350Y5580860D01*
X1416580Y5572400D01*
X1432450Y5555470D01*
X1445150Y5530070D01*
X1448330Y5500430D01*
X1445150Y5475030D01*
X1432450Y5449630D01*
X1413400Y5428460D01*
X1391180Y5420000D01*
X1365780Y5428460D01*
X1343550Y5453860D01*
X1330850Y5491970D01*
X1327670Y5534300D01*
X1334020Y5589330D01*
X1343550Y5618970D01*
X1359420Y5648600D01*
X1381650Y5669770D01*
X1403870Y5674000D01*
X1426100Y5665540D01*
X1441980Y5644370D01*
G01X1572150Y5458090D02*
X1591200Y5436930D01*
X1613420Y5424230D01*
X1642000Y5420000D01*
X1670580Y5428460D01*
X1692800Y5445390D01*
X1708680Y5475030D01*
X1711850Y5508900D01*
X1705500Y5542760D01*
X1689620Y5563930D01*
X1667400Y5580860D01*
X1645180Y5585100D01*
X1622950Y5580860D01*
X1594380Y5563930D01*
X1603900Y5674000D01*
X1689620D01*
G01X1934100Y5420000D02*
Y5674000D01*
X1816620Y5491970D01*
X1975380D01*
G01X2080150Y5470800D02*
X2099200Y5441160D01*
X2124600Y5424230D01*
X2153180Y5420000D01*
X2178580Y5424230D01*
X2203980Y5445390D01*
X2219850Y5470800D01*
X2223020Y5496200D01*
X2216680Y5525830D01*
X2194450Y5547000D01*
X2172220Y5555470D01*
X2143650D01*
G01X2172220D02*
X2191270Y5568170D01*
X2207150Y5589330D01*
X2213500Y5614730D01*
X2207150Y5640130D01*
X2191270Y5661290D01*
X2162700Y5674000D01*
X2134130Y5669770D01*
X2105550Y5652830D01*
G01X2442100Y5420000D02*
Y5674000D01*
X2324620Y5491970D01*
X2483380D01*
G01X3835400Y-279400D02*
X1752600D01*
G01Y25400D02*
X3835400D01*
G01X1752600Y-279400D02*
Y25400D01*
G01X1449400Y841400D02*
Y498600D01*
G01X1690500Y439600D02*
X1673600D01*
Y660400D01*
X1690500D01*
G01X1817500D02*
X1880500D01*
G01X3835400Y1244600D02*
X1752600D01*
G01D02*
Y1549400D01*
G01D02*
X3835400D01*
G01X2309800Y335600D02*
X2528200D01*
Y104400D01*
X2309800D01*
Y335600D01*
G01X2007500Y660400D02*
X2024400D01*
Y439600D01*
X2007500D01*
G01X2089800Y782600D02*
X2308200D01*
Y551400D01*
X2089800D01*
Y782600D01*
G01X2309800Y1177600D02*
X2528200D01*
Y946400D01*
X2309800D01*
Y1177600D01*
G01X2759800Y335600D02*
X2978200D01*
Y104400D01*
X2759800D01*
Y335600D01*
G01X3159800D02*
X3378200D01*
Y104400D01*
X3159800D01*
Y335600D01*
G01Y1177600D02*
X3378200D01*
Y946400D01*
X3159800D01*
Y1177600D01*
G01X2759800D02*
X2978200D01*
Y946400D01*
X2759800D01*
Y1177600D01*
G01X3609800Y335600D02*
X3828200D01*
Y104400D01*
X3609800D01*
Y335600D01*
G01Y1177600D02*
X3828200D01*
Y946400D01*
X3609800D01*
Y1177600D01*
G01X3835400Y25400D02*
Y-279400D01*
G01Y1549400D02*
Y1244600D01*
G54D12*
G01X-698500Y-443500D02*
X190500D01*
G01X-698500Y1713500D02*
X190500D01*
G01X-444500Y-697500D02*
Y191500D01*
G01Y1967500D02*
Y1078500D01*
G01X4444500Y-443500D02*
X3555500D01*
G01X4444500Y1713500D02*
X3555500D01*
G01X4190500Y-697500D02*
Y191500D01*
G01Y1967500D02*
Y1078500D01*
M02*
